<?xml version="1.0" encoding="UTF-8" standalone="no"?>
<svg
   xmlns:dc="http://purl.org/dc/elements/1.1/"
   xmlns:cc="http://creativecommons.org/ns#"
   xmlns:rdf="http://www.w3.org/1999/02/22-rdf-syntax-ns#"
   xmlns:svg="http://www.w3.org/2000/svg"
   xmlns="http://www.w3.org/2000/svg"
   xmlns:sodipodi="http://sodipodi.sourceforge.net/DTD/sodipodi-0.dtd"
   xmlns:inkscape="http://www.inkscape.org/namespaces/inkscape"
   xml:space="preserve"
   width="151.33mm"
   height="151.33mm"
   version="1.0"
   style="shape-rendering:geometricPrecision; text-rendering:geometricPrecision; image-rendering:optimizeQuality; fill-rule:evenodd; clip-rule:evenodd"
   viewBox="0 0 15133 15133"
   id="svg18"
   sodipodi:docname="Logo(1).svg"
   inkscape:version="1.0.1 (3bc2e813f5, 2020-09-07)"><metadata
   id="metadata22"><rdf:RDF><cc:Work
       rdf:about=""><dc:format>image/svg+xml</dc:format><dc:type
         rdf:resource="http://purl.org/dc/dcmitype/StillImage" /><dc:title></dc:title></cc:Work></rdf:RDF></metadata><sodipodi:namedview
   pagecolor="#ffffff"
   bordercolor="#666666"
   borderopacity="1"
   objecttolerance="10"
   gridtolerance="10"
   guidetolerance="10"
   inkscape:pageopacity="0"
   inkscape:pageshadow="2"
   inkscape:window-width="1920"
   inkscape:window-height="1021"
   id="namedview20"
   showgrid="false"
   inkscape:snap-bbox="true"
   inkscape:bbox-paths="true"
   inkscape:bbox-nodes="true"
   inkscape:snap-bbox-edge-midpoints="true"
   inkscape:snap-bbox-midpoints="true"
   inkscape:object-paths="true"
   inkscape:snap-intersection-paths="true"
   inkscape:snap-smooth-nodes="true"
   inkscape:snap-midpoints="true"
   inkscape:snap-object-midpoints="true"
   inkscape:snap-center="true"
   inkscape:snap-text-baseline="true"
   inkscape:snap-page="true"
   showguides="true"
   inkscape:guide-bbox="true"
   inkscape:zoom="1.4459156"
   inkscape:cx="290.96095"
   inkscape:cy="262.76761"
   inkscape:window-x="0"
   inkscape:window-y="30"
   inkscape:window-maximized="1"
   inkscape:current-layer="Ebene_x0020_1"><sodipodi:guide
     position="7794.3767,11370.946"
     orientation="0,-1"
     id="guide854" /><sodipodi:guide
     position="7794.3813,11370.946"
     orientation="1,0"
     id="guide856" /></sodipodi:namedview>
 <defs
   id="defs12">
  <style
   type="text/css"
   id="style10">
   <![CDATA[
    .str0 {stroke:#2B2A29;stroke-width:132.97}
    .fil0 {fill:none}
    .fil1 {fill:black}
   ]]>
  </style>
 </defs>
 <g
   id="Ebene_x0020_1">
  <metadata
   id="CorelCorpID_0Corel-Layer" />
  <circle
   id="path828"
   class="fil0 str0"
   cx="7566"
   cy="7567"
   r="7500"
   inkscape:export-xdpi="350"
   inkscape:export-ydpi="350" />
  <path
   id="path826-3"
   class="fil1"
   d="m 7051.8696,14262.695 c -228.6622,-18.321 -411.9502,-101.932 -481.4513,-218.539 -124.3744,-208.46 -209.0447,-470.235 -299.3017,-919.589 -75.2371,-374.589 -116.869,-666.802 -205.6591,-1434.123 -148.6808,-1287.091 -225.4645,-1644.187 -384.6016,-1789.2669 -94.6969,-87.033 -263.0998,-135.7612 -388.1649,-113.2542 -131.7503,24.4925 -307.5263,130.4647 -356.4485,215.1731 -36.9,64.547 -60.3395,151.713 -74.8212,275.609 -35.4082,307.642 -35.9229,287.389 110.3539,2222.054 115.2005,1518.481 147.4722,1997.834 132.3452,1944.216 -138.4955,-821.761 -339.5979,-2913.237 -388.3211,-3705.766 -14.5897,-237.607 7.2946,-494.299 59.343,-670.342 78.3833,-264.5124 246.7173,-407.4887 522.9053,-425.1088 307.0523,-20.0446 521.6435,85.3204 627.0517,344.9273 83.0503,204.9425 150.6625,567.6005 215.5832,1163.1515 75.5588,693.798 102.809,862.613 140.6666,1146.897 46.9053,347.604 149.1308,998.26 206.6534,1187.45 87.5798,290.987 120.8489,445.416 337.0304,585.708 125.7737,81.439 235.2392,76.608 456.6873,46.146 187.0666,-25.84 280.1621,-82.502 407.7768,-182.154 156.7211,-120.542 235.8131,-281.106 274.4585,-396.83 l -0.1956,-44.569 -72.3248,-1.851 c -94.2302,-1.824 -104.7054,0.844 -100.6131,23.584 5.5926,31.076 -38.4808,177.514 -73.1072,241.651 -120.0546,224.277 -448.0152,341.204 -725.8822,258.182 -171.9803,-51.214 -274.8475,-153.21 -342.0873,-339.869 -108.3024,-297.43 -251.8321,-1077.593 -334.6205,-1811.564 -146.179,-1299.279 -202.5892,-1647.52 -311.6508,-1905.6873 -84.5057,-199.9846 -202.6689,-300.01 -435.6496,-368.4173 -167.0233,-49.7589 -239.5001,-43.7585 -365.2023,-11.7467 -350.9865,88.9873 -448.6649,281.0673 -512.8871,485.1243 -72.0454,225.811 -63.965,214.184 52.155,1872.57 97.6352,1403.482 112.7166,1865.583 112.7166,1865.583 -3.1077,4.472 -31.203,-269.048 -49.0737,-329.216 -130.5159,-1390.522 -247.1944,-2699.804 -260.6112,-3091.779 -5.6783,-175.045 18.0199,-291.21 90.6234,-444.3466 243.6744,-515.7104 901.5923,-634.1107 1310.6665,-235.0878 162.2139,157.8295 197.1676,256.3964 283.3282,800.3914 56.9404,359.885 106.2544,746.963 159.1572,1245.297 90.2275,849.227 276.1219,1782.183 407.0735,2048.931 36.9253,74.737 103.943,116.67 259.2636,162.275 110.5705,31.747 112.2229,32.232 246.3836,8.088 127.3389,-22.916 138.2993,-27.236 208.792,-79.047 147.7465,-109.536 243.6051,-285.639 221.1587,-406.019 -5.3197,-29.561 -14.5166,-163.282 -21.3031,-296.653 -13.7682,-311.312 -50.5105,-832.899 -86.6044,-1255.224 -25.3054,-292.803 -31.1637,-521.027 -46.1209,-1895.567 -9.822,-859.0015 -17.6937,-1576.7188 -17.1775,-1595.5921 0.6679,-26.7257 -4.3495,-32.8655 -29.8323,-35.3223 -17.3573,-0.7889 -35.3208,-9.2939 -40.7475,-17.7075 -17.8566,-29.6522 -36.3751,-610.8604 -54.858,-1748.4453 -7.6693,-447.0025 -13.3646,-574.3105 -28.3257,-605.2663 -10.1559,-21.6479 -25.2983,-66.6564 -32.1946,-100.6286 -15.5813,-69.1877 0.7313,-100.2939 59.095,-110.7972 56.8477,-10.2304 65.6565,-43.8989 58.0236,-242.8498 -3.6042,-102.6438 -1.994,-193.7057 2.5693,-203.1346 5.8064,-11.2177 40.4762,-22.9345 98.0819,-33.3014 82.6187,-14.8682 89.0312,-18.3697 90.5936,-44.474 0.3038,-15.7051 0.249,-176.8939 -0.3203,-358.3356 -0.8704,-243.9889 -5.7331,-336.2334 -18.3752,-354.3037 -12.5059,-17.3124 -16.4293,-95.6407 -16.2702,-299.1239 0.8271,-230.2091 4.361,-280.1437 23.6295,-307.8694 22.3763,-32.1975 34.5657,-68.8219 55.9591,-167.3566 9.5218,-47.0996 13.0388,-49.2976 51.5434,-48.4018 22.7996,0.5921 45.3868,4.3524 50.6167,7.3239 4.6082,3.8657 19.8112,53.5584 33.2099,110.6185 13.5351,57.8182 31.694,110.8915 41.047,119.3811 13.6885,10.8394 17.8396,77.3888 18.3472,293.2725 1.5367,256.3892 -2.4514,290.7552 -34.8627,310.6733 -6.4125,3.5016 -12.1828,684.548 -5.9081,719.4147 1.2276,6.8217 34.2745,16.5249 72.7031,21.347 38.4287,4.822 72.7188,12.7364 76.569,16.7387 3.8503,4.0022 7.6978,86.2566 8.5583,182.3514 1.3105,229.0419 7.813,252.1298 73.6944,274.7044 92.5919,31.853 97.4421,54.4558 43.1058,200.3924 l -31.7772,88.6655 8.2698,611.2233 c 10.4323,749.3397 5.898,1624.2281 -8.7018,1660.5038 -2.6986,6.7459 -20.8294,14.7038 -39.7786,18.114 -27.287,4.9106 -35.913,13.5056 -36.7778,34.7892 -1.0618,15.8414 9.0234,728.4652 22.226,1584.5114 21.8676,1439.028 21.817,1582.239 0.4149,1915.53 -33.6577,521.736 -44.3908,1357.832 -19.1557,1498.056 3.0009,16.675 -0.4107,36.852 -7.7936,43.659 -7.3828,6.806 -17.9198,43.916 -24.1214,83.375 -36.619,253.083 -200.9088,483.756 -430.0309,606.372 -51.4366,27.254 -114.5,46.428 -244.1888,73.68 -156.9756,32.162 -187.7038,35.344 -292.53,26.821 z m 947.0694,-1024.946 c -11.9937,-340.584 5.8282,-1019.888 38.4677,-1473.361 l 10.3137,-142.709 -56.0898,10.094 -56.0898,10.094 -25.414,189.247 c -42.109,318.238 -58.5709,700.721 -54.1811,1286.037 l 1.8082,297.032 32.6223,16.039 c 28.4232,14.449 97.9891,18.362 110.6173,5.917 2.6224,-2.82 2.2318,-91.956 -2.0545,-198.39 z m 51.2704,-1697.901 c 5.3241,-87.817 -45.3028,-3117.2237 -52.4579,-3122.1962 -4.4718,-3.1078 -24.1031,-3.4875 -43.3251,-1.5933 -35.4123,3.2428 -35.2759,4.0007 -47.4092,162.6879 -18.8369,247.5355 -30.2813,636.1588 -33.149,1120.2709 -2.8367,466.8917 10.3472,1831.5777 17.9859,1874.0237 3.683,20.465 13.597,23.377 62.7892,18.437 88.3942,-8.866 92.6693,-11.2 95.5661,-51.63 z m 38.5154,-3186.3016 c -0.4092,-2.2738 1.2615,-88.6515 3.8576,-191.6285 9.2478,-431.2666 5.8452,-1067.6238 -9.7819,-1954.5343 l -1.4666,-103.811 -47.236,-10.2797 c -63.6231,-14.3733 -277.687,-29.8437 -314.8275,-23.1598 -21.9812,3.9558 -27.9844,9.7313 -20.3598,21.6619 17.8566,29.6522 -32.4111,1667.9007 -65.3992,2123.7852 -4.5958,65.776 -9.1155,127.6257 -9.7526,137.1306 -1.7592,20.662 21.1767,22.0121 261.1791,16.3816 150.3804,-3.5872 205.151,-7.9662 203.7869,-15.546 z m 42.3665,-2377.8709 c 33.5055,-92.1067 20.8633,-110.177 -85.8121,-124.6278 -48.8279,-6.0806 -107.7822,-11.904 -130.4454,-11.7381 -38.5045,-0.8958 -40.5057,1.0294 -34.3674,35.138 9.6848,53.8159 -3.4454,115.6502 -28.7622,135.8566 -19.7986,16.0833 -9.7481,19.7523 83.4357,28.8058 58.1964,5.9597 116.044,14.3298 127.7468,18.4838 26.7103,9.2785 40.1724,-7.2295 68.2046,-81.9183 z m -123.9961,-188.9652 c -22.3889,-37.4444 -458.5674,-34.8529 -472.8944,2.9386 -3.9417,8.5346 11.2782,10.4907 40.081,5.3073 88.0609,-15.0651 320.3315,-11.479 440.3622,7.611 1.6523,0.4851 -1.9856,-6.6853 -7.5488,-15.8569 z m -158.9415,-100.512 c 78.559,-93.9545 105.3776,-144.9494 114.4607,-216.2281 5.1707,-40.8389 3.929,-78.1763 -2.3316,-82.5272 -42.6572,-28.3193 -415.4096,-16.7966 -427.3108,12.7332 -6.7162,19.2066 2.3075,325.8947 10.9784,330.5944 5.3662,3.7293 195.7827,-7.8453 248.6282,-14.2254 18.3276,-2.5158 43.3562,-15.6277 55.5751,-30.3469 z m -9.69,-740.8657 c 0.477,-188.6726 -4.4744,-346.6327 -10.735,-350.9836 -6.2606,-4.3509 -32.9865,-5.0189 -59.7882,-1.7607 0,0 -3.7449,13.9768 0.2869,32.0317 1.6368,9.0955 5.1665,76.5394 8.2714,150.3198 10.9798,291.4683 39.4548,545.3573 58.1017,518.526 1.8647,-2.6832 4.1443,-159.597 3.8632,-348.1332 z m 43.3497,-663.5512 c -0.1926,-122.8207 -4.6151,-230.0122 -9.1475,-237.8042 -15.2493,-23.8614 -187.5954,-24.9288 -183.9883,-0.5374 0.8184,4.5478 0.8295,113.3158 -0.4334,241.0935 -1.2629,127.7777 -0.4333,241.0935 1.7492,253.221 2.8645,15.9174 14.4309,19.3135 49.434,13.7968 25.1494,-3.7435 66.6858,-3.3932 90.9254,0.8522 56.468,9.4008 53.6175,23.9991 51.4606,-270.6219 z m -57.8487,-391.0211 c -21.2793,-118.2433 -41.2593,-116.2127 -77.0247,6.8189 l -26.5473,91.6369 37.9591,-2.136 c 88.4546,-4.1807 83.4821,2.9742 65.6129,-96.3198 z"
   inkscape:connector-curvature="0"
   sodipodi:nodetypes="ccssccccscscsssscscccccscscscssssccccsssccsccscscccsccsccscsccccccccscscccsccscscsssscccccsscccscccccsccccscssccccsccssscccccccccccccccccccccccccccccccccccscssccscssccss"
   inkscape:export-xdpi="350"
   inkscape:export-ydpi="350"
   style="stroke-width:0.770146" />
 <path
   style="fill:none;stroke:#000000;stroke-width:264.583;stroke-linecap:round;stroke-linejoin:round;stroke-miterlimit:4;stroke-dasharray:none;stroke-opacity:1"
   id="path851"
   sodipodi:type="arc"
   sodipodi:cx="7794.3813"
   sodipodi:cy="3762.0535"
   sodipodi:rx="661.45831"
   sodipodi:ry="661.45831"
   sodipodi:start="5.4977871"
   sodipodi:end="0.78539816"
   sodipodi:arc-type="arc"
   d="m 8262.103,3294.3318 a 661.45831,661.45831 0 0 1 193.7367,467.7217 661.45831,661.45831 0 0 1 -193.7367,467.7216"
   sodipodi:open="true" /><path
   style="clip-rule:evenodd;fill:none;fill-rule:evenodd;stroke:#000000;stroke-width:264.583;stroke-linecap:round;stroke-linejoin:round;stroke-miterlimit:4;stroke-dasharray:none;stroke-opacity:1;image-rendering:optimizeQuality;shape-rendering:geometricPrecision;text-rendering:geometricPrecision"
   id="path851-3"
   sodipodi:type="arc"
   sodipodi:cx="7794.3813"
   sodipodi:cy="3762.0535"
   sodipodi:rx="661.45831"
   sodipodi:ry="661.45831"
   sodipodi:start="2.3561945"
   sodipodi:end="3.9269908"
   sodipodi:arc-type="arc"
   d="m 7326.6597,4229.7751 a 661.45831,661.45831 0 0 1 0,-935.4433"
   sodipodi:open="true" /><path
   style="clip-rule:evenodd;fill:none;fill-rule:evenodd;stroke:#000000;stroke-width:264.583;stroke-linecap:round;stroke-linejoin:round;stroke-miterlimit:4;stroke-dasharray:none;stroke-opacity:1;image-rendering:optimizeQuality;shape-rendering:geometricPrecision;text-rendering:geometricPrecision"
   id="path851-6"
   sodipodi:type="arc"
   sodipodi:cx="7794.3813"
   sodipodi:cy="3762.0535"
   sodipodi:rx="1455.2083"
   sodipodi:ry="1455.2083"
   sodipodi:start="5.4977871"
   sodipodi:end="0.78539816"
   sodipodi:arc-type="arc"
   d="m 8823.369,2733.0658 a 1455.2083,1455.2083 0 0 1 0,2057.9753"
   sodipodi:open="true" /><path
   style="clip-rule:evenodd;fill:none;fill-rule:evenodd;stroke:#000000;stroke-width:264.583;stroke-linecap:round;stroke-linejoin:round;stroke-miterlimit:4;stroke-dasharray:none;stroke-opacity:1;image-rendering:optimizeQuality;shape-rendering:geometricPrecision;text-rendering:geometricPrecision"
   id="path851-3-7"
   sodipodi:type="arc"
   sodipodi:cx="7794.3813"
   sodipodi:cy="3762.0535"
   sodipodi:rx="1455.2083"
   sodipodi:ry="1455.2083"
   sodipodi:start="2.3561945"
   sodipodi:end="3.9269908"
   sodipodi:arc-type="arc"
   d="m 6765.3937,4791.0411 a 1455.2083,1455.2083 0 0 1 0,-2057.9752"
   sodipodi:open="true" /><path
   style="clip-rule:evenodd;fill:none;fill-rule:evenodd;stroke:#000000;stroke-width:264.583;stroke-linecap:round;stroke-linejoin:round;stroke-miterlimit:4;stroke-dasharray:none;stroke-opacity:1;image-rendering:optimizeQuality;shape-rendering:geometricPrecision;text-rendering:geometricPrecision"
   id="path851-6-5"
   sodipodi:type="arc"
   sodipodi:cx="7794.3813"
   sodipodi:cy="3762.0535"
   sodipodi:rx="2248.9583"
   sodipodi:ry="2248.9583"
   sodipodi:start="5.4977871"
   sodipodi:end="0.78539816"
   sodipodi:arc-type="arc"
   d="m 9384.635,2171.7998 a 2248.9583,2248.9583 0 0 1 0,3180.5073"
   sodipodi:open="true" /><path
   style="clip-rule:evenodd;fill:none;fill-rule:evenodd;stroke:#000000;stroke-width:264.583;stroke-linecap:round;stroke-linejoin:round;stroke-miterlimit:4;stroke-dasharray:none;stroke-opacity:1;image-rendering:optimizeQuality;shape-rendering:geometricPrecision;text-rendering:geometricPrecision"
   id="path851-3-7-3"
   sodipodi:type="arc"
   sodipodi:cx="7794.3813"
   sodipodi:cy="3762.0535"
   sodipodi:rx="2248.9583"
   sodipodi:ry="2248.9583"
   sodipodi:start="2.3561945"
   sodipodi:end="3.9269908"
   sodipodi:arc-type="arc"
   d="m 6204.1277,5352.3071 a 2248.9583,2248.9583 0 0 1 0,-3180.5072"
   sodipodi:open="true" /><path
   style="clip-rule:evenodd;fill:none;fill-rule:evenodd;stroke:#000000;stroke-width:264.583;stroke-linecap:round;stroke-linejoin:round;stroke-miterlimit:4;stroke-dasharray:none;stroke-opacity:1;image-rendering:optimizeQuality;shape-rendering:geometricPrecision;text-rendering:geometricPrecision"
   id="path851-3-7-3-5"
   sodipodi:type="arc"
   sodipodi:cx="7794.3818"
   sodipodi:cy="3762.0535"
   sodipodi:rx="3042.7083"
   sodipodi:ry="3042.7083"
   sodipodi:start="2.3561945"
   sodipodi:end="3.9269908"
   sodipodi:arc-type="arc"
   d="m 5642.8622,5913.5731 a 3042.7083,3042.7083 0 0 1 0,-4303.0392"
   sodipodi:open="true" /><path
   style="clip-rule:evenodd;fill:none;fill-rule:evenodd;stroke:#000000;stroke-width:264.583;stroke-linecap:round;stroke-linejoin:round;stroke-miterlimit:4;stroke-dasharray:none;stroke-opacity:1;image-rendering:optimizeQuality;shape-rendering:geometricPrecision;text-rendering:geometricPrecision"
   id="path851-6-5-6"
   sodipodi:type="arc"
   sodipodi:cx="7794.3809"
   sodipodi:cy="3762.0535"
   sodipodi:rx="3042.7083"
   sodipodi:ry="3042.7083"
   sodipodi:start="5.4977871"
   sodipodi:end="0.78539816"
   sodipodi:arc-type="arc"
   d="m 9945.9005,1610.5338 a 3042.7083,3042.7083 0 0 1 0,4303.0393"
   sodipodi:open="true" /></g>
</svg>
