<?xml version="1.0" encoding="UTF-8" standalone="no"?>
<!-- Created with Inkscape (http://www.inkscape.org/) -->

<svg
   version="1.1"
   id="svg824"
   width="309.12"
   height="459.51999"
   viewBox="0 0 309.12 459.51999"
   sodipodi:docname="förderturm.svg"
   inkscape:version="1.1.1 (3bf5ae0d25, 2021-09-20)"
   xmlns:inkscape="http://www.inkscape.org/namespaces/inkscape"
   xmlns:sodipodi="http://sodipodi.sourceforge.net/DTD/sodipodi-0.dtd"
   xmlns="http://www.w3.org/2000/svg"
   xmlns:svg="http://www.w3.org/2000/svg">
  <defs
     id="defs828" />
  <sodipodi:namedview
     id="namedview826"
     pagecolor="#ffffff"
     bordercolor="#666666"
     borderopacity="1.0"
     inkscape:pageshadow="2"
     inkscape:pageopacity="0.0"
     inkscape:pagecheckerboard="0"
     showgrid="false"
     inkscape:zoom="1.72789"
     inkscape:cx="95.781559"
     inkscape:cy="152.7875"
     inkscape:window-width="1920"
     inkscape:window-height="1002"
     inkscape:window-x="-8"
     inkscape:window-y="-8"
     inkscape:window-maximized="1"
     inkscape:current-layer="g914" />
  <g
     inkscape:groupmode="layer"
     inkscape:label="Image"
     id="g830">
    <g
       id="g914"
       transform="translate(235.42087,11.679969)">
      <g
         id="g974"
         transform="translate(-235.58744,-11.695574)">
        <path
           style="fill:#333333;fill-opacity:1;stroke-width:0.32"
           d="m 13.600484,453.19999 c 0.373633,-13.03654 0.807495,-33.77869 0.708614,-33.87757 -0.05645,-0.0565 -0.579848,-0.13901 -1.163115,-0.18342 -1.085204,-0.0827 -1.540916,-0.58 -1.134339,-1.23786 0.169759,-0.27465 0.291392,-0.26749 0.474009,0.0282 0.154061,0.24928 0.556741,0.31939 1.08,0.18807 1.230168,-0.30877 1.082087,-1.09204 -1.088593,-5.75815 -1.657252,-3.56259 -1.91706,-4.37571 -1.91706,-6.00016 0,-1.45696 -0.107828,-1.87907 -0.48,-1.87907 -0.6137843,0 -0.6210906,-0.52925 -0.01201,-0.87011 0.354233,-0.19824 0.490354,-1.07715 0.56,-3.61587 l 0.09201,-3.35402 2.08,-0.009 2.08,-0.009 0.09119,-3.27065 0.09119,-3.27066 h -1.241598 c -1.463695,0 -2.04409,-0.53606 -3.138896,-2.89907 C 10.262853,386.27644 9.92,385.47874 9.92,385.40822 c 0,-0.0705 1.085214,-0.12823 2.411588,-0.12823 h 2.411588 l -0.09159,-3.12 -0.09159,-3.12 -0.96,-0.10384 C 12.464234,378.8133 11.361897,377.6662 10.522313,375.73346 10.191041,374.97087 9.92,374.28687 9.92,374.21346 c 0,-0.0734 1.076466,-0.13347 2.392146,-0.13347 h 2.392146 l -0.162457,-5.52 c -0.212008,-7.20365 -0.781958,-39.04374 -0.781888,-43.68 l 5.3e-5,-3.6 h 0.781115 c 0.429613,0 0.858442,-0.12512 0.952955,-0.27804 0.09451,-0.15293 -0.319461,-1.73693 -0.919941,-3.52 l -1.091781,-3.24196 h 1.214057 1.214057 l 0.236156,-1.84 c 0.578115,-4.50436 0.434822,-6.09755 -0.964167,-10.72 l -1.331665,-4.4 h 1.695722 c 0.932646,0 1.791417,0.15484 1.90838,0.34409 0.135048,0.21852 0.452545,0.0866 0.869971,-0.36145 0.557095,-0.59797 0.596238,-0.80334 0.256733,-1.34698 -0.324658,-0.51985 -0.319177,-0.6921 0.02891,-0.90878 0.33781,-0.21028 0.349002,-0.39729 0.05243,-0.87605 -0.284789,-0.45973 -0.28675,-0.69901 -0.008,-0.97775 0.278737,-0.27873 0.278737,-0.51367 0,-0.96 -0.278737,-0.44633 -0.278737,-0.68126 0,-0.96 0.278737,-0.27873 0.272461,-0.52372 -0.02565,-1.00106 -0.235624,-0.3773 -0.264637,-0.63202 -0.07199,-0.63202 0.411661,0 0.423506,-1.17993 0.01438,-1.43278 -0.173781,-0.10741 -0.05139,-0.4475 0.280478,-0.77937 0.500262,-0.50026 0.5915,-1.13611 0.606722,-4.22832 0.02652,-5.38857 0.352323,-23.61434 0.536976,-30.03953 0.08852,-3.08 0.232159,-9.344 0.319206,-13.92 0.08705,-4.576 0.237487,-12.26055 0.33431,-17.07678 0.152811,-7.60126 0.110052,-8.85749 -0.324039,-9.52 -0.285996,-0.43648 -0.354858,-0.76321 -0.160855,-0.76321 0.590538,0 0.107391,-3.75436 -1.09949,-8.54373 -0.629739,-2.49904 -1.14498,-4.62304 -1.14498,-4.72 0,-0.0969 0.36,-0.17627 0.8,-0.17627 0.44,0 0.797532,-0.036 0.794516,-0.08 -0.003,-0.044 -0.288548,-1.16 -0.634516,-2.48 -0.847014,-3.23169 -0.853352,-3.2 0.64,-3.2 h 1.28 v -2.4 c 0,-2.23655 -0.04649,-2.4 -0.682558,-2.4 -0.679078,0 -0.681543,-0.0298 -0.483582,-5.84 0.109436,-3.212 0.291935,-9.908 0.405552,-14.88 0.194278,-8.50175 0.241762,-9.04 0.797487,-9.04 0.357957,0 0.646128,0.28384 0.730981,0.72 0.898562,4.61874 1.06189,6.39318 0.846815,9.2 -0.242582,3.1658 0.142165,6.18638 0.762053,5.98273 0.188789,-0.062 0.387142,-0.7855 0.440785,-1.60775 0.07797,-1.19508 0.214055,-1.49498 0.678383,-1.49498 0.45197,0 0.617259,0.32301 0.744941,1.4558 0.09025,0.8007 0.224201,1.51592 0.297668,1.58939 0.07347,0.0735 11.825872,0.14816 26.116454,0.16598 l 25.98288,0.0324 1.484803,-2.18179 c 2.125917,-3.12385 5.56802,-7.11334 7.883008,-9.13662 2.64538,-2.31203 6.906666,-5.44512 8.828573,-6.49115 l 1.548419,-0.84276 0.207498,-4.53563 c 0.114125,-2.4946 0.208026,-11.11343 0.208669,-19.15294 l 0.0013,-14.61732 -1.753571,-0.36404 c -1.251668,-0.25984 -1.946244,-0.60898 -2.426746,-1.21984 -0.715165,-0.90919 -0.718851,-1.24561 -0.117741,-10.74399 0.08845,-1.39765 0.0081,-2.98181 -0.180291,-3.5525 L 92.78185,100.255 89.587345,100.04565 C 72.39743,98.919143 55.188864,88.696238 47.127389,74.822011 L 45.673622,72.319998 H 35.87457 26.07552 L 24.842341,65.199999 C 20.540692,40.363574 20.449992,39.745913 21.169902,40.190841 c 0.368761,0.227907 0.254853,-1.787066 -0.241249,-4.267575 -0.198196,-0.990982 -0.183929,-1.00415 1.195378,-1.10311 L 23.52,34.719999 l 0.124346,-5.76 c 0.06839,-3.168 0.101787,-7.091999 0.07422,-8.719999 -0.02757,-1.628 -0.01153,-2.971039 0.03565,-2.98453 C 23.801396,17.241978 30.824,17.154466 39.36,17.060998 l 15.52,-0.169942 2.4,-2.302438 C 62.771142,9.3206942 69.259677,5.4164636 76.48,3.0357396 78.388013,2.4066196 79.55823,1.800244 80.4,1.0045 c 0.66,-0.62391258 1.2,-0.97879413 1.2,-0.7886256 0,0.19016854 -0.216,0.52502504 -0.48,0.74412558 -0.552077,0.45818332 -0.657213,1.10729492 -0.126192,0.77910532 0.194595,-0.1202661 1.886595,-0.5023277 3.76,-0.84902577 5.357558,-0.9914857 13.611459,-1.03554656 18.719952,-0.0999306 0.71919,0.13171959 0.87464,0.0654143 0.73004,-0.31139752 -0.23809,-0.6204459 0.10461,-0.61665841 0.56092,0.006199 0.1954,0.26672287 1.50728,0.76097309 2.91528,1.09833389 8.46394,2.0279828 17.12363,6.6313408 23.07861,12.2682287 l 2.64731,2.505896 8.93841,-0.02727 8.9384,-0.02727 -0.0414,8.888564 -0.0414,8.888566 1.06005,-0.0043 1.06006,-0.0043 -0.1535,6.564295 c -0.23537,10.066022 -0.85442,27.484559 -1.04359,29.36429 l -0.16907,1.68 h -4.43351 c -3.82489,0 -4.44772,-0.07093 -4.53698,-0.516723 -0.0649,-0.324163 -0.69971,0.361216 -1.70346,1.839187 -0.88,1.295747 -2.05851,2.867222 -2.61891,3.49216 -1.05436,1.175786 -1.12463,1.714557 -0.47805,3.665376 0.58765,1.773059 12.52346,28.753746 12.80167,28.937946 0.36442,0.24128 4.21529,8.86551 4.21529,9.44036 0,0.36461 20.03602,45.7393 23.37677,52.94035 l 0.94579,2.03866 3.52851,-0.15227 c 1.94067,-0.0838 3.59177,-0.0499 3.6691,0.0752 0.0773,0.12512 0.0529,0.96825 -0.0544,1.87361 L 186.47085,176.96 H 184.27543 182.08 v 1.27087 c 0,0.69898 0.35208,2.06698 0.78239,3.04 l 0.78239,1.76913 h 1.61761 1.61761 v 1.09382 c 0,1.52551 -0.28355,2.10618 -1.02847,2.10618 -0.68941,0 -0.69303,-0.028 0.31959,2.4788 l 0.54888,1.3588 2.416,0.001 c 2.58439,0.001 3.184,0.28474 3.184,1.5052 0,0.89006 -0.63587,0.9809 -0.86025,0.12289 -0.13116,-0.50159 -0.50908,-0.63255 -2.07773,-0.72 -1.05458,-0.0588 -1.96702,-0.0568 -2.02767,0.004 -0.33686,0.34 0.34827,1.00871 1.0335,1.00871 0.74939,0 0.79049,0.085 0.65728,1.36 -0.12757,1.22089 0.56866,2.9639 6.80644,17.04 8.39465,18.94329 17.16257,38.921 35.67258,81.28 7.69084,17.6 18.73598,42.872 24.54477,56.16 5.80878,13.288 10.9056,24.52787 11.32625,24.9775 0.42066,0.44963 0.76483,1.05315 0.76483,1.34112 0,0.28797 0.144,0.61261 0.32,0.72138 0.176,0.10876 0.32,0.48179 0.32,0.82892 0,0.34714 0.20009,0.70794 0.44464,0.8018 0.25585,0.0982 0.3763,0.4319 0.28369,0.78604 -0.10061,0.38477 0.0362,0.69111 0.3649,0.81725 0.3368,0.12925 0.45852,0.41392 0.33857,0.79184 -0.11681,0.36803 0.0496,0.79287 0.44236,1.12915 0.3463,0.29652 0.56373,0.71085 0.48318,0.92077 -0.0806,0.20992 0.0745,0.56509 0.34457,0.78922 0.27007,0.22413 0.39863,0.55705 0.28568,0.73981 -0.11295,0.18275 0.0507,0.51952 0.36366,0.74838 0.33266,0.24323 0.48813,0.62688 0.37428,0.92355 -0.11389,0.2968 0.002,0.58311 0.27987,0.6896 0.28832,0.11066 0.4746,0.60144 0.4746,1.25043 0,0.64023 1.03714,3.41536 2.58836,6.92576 1.42359,3.2216 4.50423,10.24947 6.84585,15.61747 2.34162,5.368 8.17582,18.688 12.96487,29.6 4.78906,10.912 8.83287,20.164 8.98623,20.56 l 0.27885,0.72 h -15.95684 -15.95684 l -0.64232,-1.36 c -1.45183,-3.07395 -15.26085,-32.23641 -18.14532,-38.32 -6.62973,-13.98268 -8.09491,-16.87612 -8.79346,-17.3654 -0.39532,-0.2769 -0.62983,-0.64733 -0.52113,-0.82324 0.1087,-0.17587 -0.0197,-0.53708 -0.28531,-0.80272 -0.26562,-0.2656 -0.48294,-0.71372 -0.48294,-0.99584 0,-0.28208 -0.20691,-0.59228 -0.4598,-0.68931 -0.25855,-0.0992 -0.37696,-0.39229 -0.27056,-0.66957 0.10753,-0.28022 -0.0336,-0.61785 -0.32691,-0.78198 -0.28388,-0.15888 -0.439,-0.48992 -0.3447,-0.73565 0.0943,-0.24576 -0.10068,-0.71894 -0.43329,-1.05155 -0.33261,-0.33261 -0.5447,-0.78486 -0.47131,-1.00502 0.0734,-0.22016 -0.11962,-0.58531 -0.42889,-0.81146 -0.30928,-0.22614 -0.45919,-0.57801 -0.33314,-0.78198 0.12792,-0.20698 0.008,-0.45562 -0.27112,-0.56279 -0.27515,-0.10564 -0.50028,-0.52122 -0.50028,-0.92356 0,-0.40233 -0.1982,-0.80758 -0.44044,-0.90054 -0.26408,-0.10135 -0.38336,-0.46765 -0.2979,-0.91475 0.0946,-0.49482 -1.00634,-3.16823 -3.27188,-7.94522 -1.87794,-3.95971 -8.45876,-17.92749 -14.62405,-31.03949 -6.16528,-13.112 -13.07727,-27.8 -15.35997,-32.64 -2.28269,-4.84 -6.20791,-13.192 -8.72269,-18.56 -2.51479,-5.368 -5.86481,-12.496 -7.44449,-15.84 -1.57968,-3.344 -4.49282,-9.536 -6.47365,-13.76 -1.98081,-4.224 -4.50495,-9.552 -5.60919,-11.84 -1.10424,-2.288 -2.8102,-5.86297 -3.79104,-7.94439 -2.65874,-5.64208 -4.97628,-8.62536 -8.52481,-10.97366 l -1.3108,-0.86745 -1.50454,1.46655 c -2.28586,2.22813 -7.12663,5.73324 -10.49513,7.59932 -7.56792,4.19248 -15.35362,6.44674 -25.21558,7.30085 -1.76103,0.15252 -2.59787,0.36417 -2.76292,0.69878 -0.13021,0.264 -0.42835,0.88829 -0.66252,1.3873 -0.4934,1.05141 -1.78916,1.81431 -3.07251,1.80898 -0.49274,-0.002 -2.51589,0.23809 -4.49589,0.53364 -3.40408,0.50811 -3.6,0.57798 -3.6,1.28372 0,0.65742 0.15253,0.74636 1.28,0.74636 h 1.28 v 1.92 1.92 h 7.18411 7.18411 l 0.21722,-1.92 c 0.1774,-1.568 0.32458,-1.92 0.80277,-1.92 0.56525,0 0.58459,1.9334 0.55807,55.80487 -0.0151,30.69267 0.0873,55.99059 0.22761,56.2176 0.1403,0.227 0.19457,7.55081 0.1206,16.27513 -0.18259,21.53533 -0.03,56.09834 0.26496,60.0224 0.1323,1.76 0.19951,4.676 0.14936,6.48 l -0.0912,3.28 H 103.66881 75.52 v -11.52 c 0,-10.99187 -0.0271,-11.52 -0.591507,-11.52 -0.947197,0 -1.329367,4.07216 -1.328903,14.16 l 4.1e-4,8.88 h -2.235958 -2.235959 l -0.08404,-11.44 -0.08404,-11.44 H 56.48 44 l -0.108874,0.95894 c -0.05988,0.52746 -0.22878,1.03309 -0.375334,1.12365 -0.146554,0.0906 -0.37104,4.80704 -0.498861,10.48106 l -0.2324,10.31635 H 40.54057 38.296608 l 0.202915,-11.34653 c 0.111603,-6.24061 0.09886,-11.39993 -0.02829,-11.46518 -0.127171,-0.0652 -2.787219,-0.055 -5.911219,0.0227 l -5.68,0.14147 v 6.95309 c 0,3.82422 -0.09432,8.91987 -0.20961,11.32371 l -0.209626,4.37072 h -6.520715 -6.520716 z m 97.677596,-1.76 c -0.0593,-1.452 -0.10781,-0.264 -0.10781,2.64 0,2.904 0.0485,4.092 0.10781,2.64 0.0593,-1.452 0.0593,-3.828 0,-5.28 z m -89.69111,2.24 c 0.117893,-2.684 0.169054,-8.08557 0.113691,-12.00346 L 21.6,434.55305 l -0.996961,0.70854 -0.996962,0.70854 -0.234051,10.53818 -0.234053,10.53818 0.911014,0.74524 c 0.501057,0.40989 1.003852,0.75044 1.117322,0.75674 0.11347,0.006 0.302767,-2.18448 0.420661,-4.86848 z M 118.8,457.69417 c -0.396,-0.0763 -1.044,-0.0763 -1.44,0 -0.396,0.0763 -0.072,0.13865 0.72,0.13865 0.792,0 1.116,-0.0624 0.72,-0.13865 z m 7.85073,-0.009 c -0.8301,-0.0657 -2.2701,-0.0663 -3.2,0 -0.9299,0.0648 -0.25073,0.11859 1.50927,0.11942 1.76,0 2.52083,-0.0522 1.69073,-0.11792 z M 119.36,455.03999 v -1.28 h -1.44 -1.44 v 1.28 1.28 h 1.44 1.44 z m 8.77693,0 0.0231,-1.12 -3.12,-0.0916 -3.12,-0.0916 v 1.30317 1.30317 l 3.09693,-0.0916 3.09693,-0.0916 0.0231,-1.12 z m -8.77693,-4.16 c 0,-0.9079 -0.07,-0.96 -1.29004,-0.96 -0.85151,0 -1.35266,0.16317 -1.47424,0.48 -0.3636,0.94752 0.14058,1.44 1.47424,1.44 1.22004,0 1.29004,-0.0521 1.29004,-0.96 z m 8.79666,0 0.003,-0.8 -3.76612,-0.0902 c -3.14385,-0.0753 -3.79721,-0.009 -3.95424,0.4 -0.10346,0.2696 -0.10346,0.71082 0,0.98042 0.15702,0.40918 0.81005,0.47529 3.95089,0.4 l 3.76279,-0.0902 0.003,-0.8 z m -32.535406,-2.16 c -0.0725,-0.63008 -0.305731,-0.90906 -0.821254,-0.98227 -0.854435,-0.12135 -0.939517,0.44931 -0.190403,1.27709 0.754291,0.83347 1.128921,0.72428 1.011657,-0.29482 z m 23.738746,-0.4 c 0,-0.54518 -0.21333,-0.64 -1.44,-0.64 -1.02902,0 -1.44,0.12938 -1.44,0.45334 0,0.55703 0.48553,0.76848 1.84,0.80141 0.83509,0.0202 1.04,-0.10086 1.04,-0.61475 z m 8.58028,0.13674 c 0.23116,-0.0727 0.33066,-0.27725 0.22112,-0.45447 -0.23626,-0.38227 -7.8414,-0.44653 -7.8414,-0.0663 0,0.77517 0.86808,0.95232 3.95203,0.8065 1.78639,-0.0844 3.4371,-0.21306 3.66825,-0.28576 z m -16.68168,-1.15674 c -0.10216,-0.25526 -0.17798,-0.17946 -0.19334,0.19334 -0.0139,0.33732 0.0617,0.52634 0.16807,0.42 0.10634,-0.10633 0.1177,-0.38233 0.0252,-0.61334 z m -15.650475,-5.78406 0.08813,-5.03594 H 94.684646 93.67304 l 0.1524,4.7479 c 0.08382,2.61136 0.26081,4.92333 0.393315,5.13773 0.132503,0.2144 0.479491,0.344 0.771082,0.28803 0.462227,-0.0887 0.541456,-0.7471 0.618288,-5.13772 z m 15.667795,0.32406 c -0.0646,-0.924 -0.11753,-0.168 -0.11753,1.68 0,1.848 0.0529,2.604 0.11753,1.68 0.0646,-0.924 0.0646,-2.436 0,-3.36 z m 8.08408,2 v -1.28 h -1.44 c -1.41867,0 -1.44,0.0157 -1.44,1.06666 0,1.35289 0.15551,1.49334 1.65333,1.49334 1.21778,0 1.22667,-0.009 1.22667,-1.28 z m 8.64,0 v -1.28 h -3.84 -3.84 v 1.06666 c 0,0.58668 0.096,1.16268 0.21333,1.28 0.11734,0.11734 1.84534,0.21334 3.84,0.21334 H 128 Z m -8.64,-3.68 c 0,-1.11408 -0.008,-1.12 -1.44,-1.12 -1.36784,0 -1.44,0.0454 -1.44,0.90666 0,1.18291 0.18653,1.33334 1.65333,1.33334 1.18857,0 1.22667,-0.0348 1.22667,-1.12 z m 8.64,0.0339 v -1.08611 l -2.60322,-0.11824 c -1.43176,-0.065 -3.15976,-0.0651 -3.84,-2.6e-4 -1.10468,0.10534 -1.23678,0.2112 -1.23678,0.99101 0,0.48016 0.096,0.96905 0.21333,1.08637 0.11734,0.11734 1.84534,0.21334 3.84,0.21334 H 128 Z M 111.2586,439.3 c -0.10216,-0.25526 -0.17798,-0.17946 -0.19334,0.19334 -0.0139,0.33732 0.0617,0.52634 0.16807,0.42 0.10634,-0.10633 0.1177,-0.38233 0.0252,-0.61334 z m 8.04366,-2.26 c -0.0793,-0.5585 -0.34466,-0.74317 -1.18295,-0.8233 -1.21542,-0.11619 -1.81875,0.29412 -1.53184,1.0418 0.13144,0.34252 0.60844,0.5015 1.50474,0.5015 1.17787,0 1.30183,-0.0738 1.21005,-0.72 z M 128,436.96 v -0.8 h -3.66111 c -3.65333,0 -4.26462,0.17808 -3.89729,1.13533 0.14162,0.36905 0.9376,0.46467 3.86836,0.46467 H 128 Z M 87.898595,434.5 c -0.10215,-0.25526 -0.177977,-0.17946 -0.193331,0.19334 -0.01389,0.33732 0.06174,0.52634 0.16807,0.42 0.106333,-0.10633 0.1177,-0.38233 0.02525,-0.61334 z M 95.68,433.3173 c 0,-1.74934 -0.05614,-1.89344 -0.79248,-2.03421 -1.05688,-0.20201 -1.12752,-0.0869 -1.12752,1.8369 0,1.86582 0.120813,2.08 1.173334,2.08 0.697613,0 0.746666,-0.12368 0.746666,-1.88269 z M 128,432.79999 v -1.12 h -5.6 -5.6 v 1.12 1.12 h 5.6 5.6 z m -13.22807,-0.24 c -0.0888,-0.22 -0.16141,-0.04 -0.16141,0.4 0,0.44 0.0726,0.62 0.16141,0.4 0.0888,-0.22 0.0888,-0.58 0,-0.8 z M 88,432.47999 c 0,-0.088 -0.072,-0.16 -0.16,-0.16 -0.088,0 -0.16,0.072 -0.16,0.16 0,0.088 0.072,0.16 0.16,0.16 0.088,0 0.16,-0.072 0.16,-0.16 z m -66.083226,-0.80522 c -0.110548,-0.17888 -0.302181,-0.26268 -0.425851,-0.18627 -0.12367,0.0765 -0.487984,-0.49721 -0.809586,-1.27475 -0.321603,-0.77757 -0.678469,-1.41347 -0.793035,-1.41312 -0.174028,0 -0.241692,2.15731 -0.09284,2.95936 0.0245,0.132 0.557039,0.24 1.183425,0.24 0.689958,0 1.059656,-0.12819 0.937889,-0.32522 z m 92.856556,-0.20812 c -0.11733,-0.11732 -0.21333,-0.0213 -0.21333,0.21334 0,0.23466 0.096,0.33066 0.21333,0.21334 0.11734,-0.11734 0.11734,-0.30934 0,-0.42668 z m 0.10667,-1.54666 c 0,-0.088 -0.072,-0.16 -0.16,-0.16 -0.088,0 -0.16,0.072 -0.16,0.16 0,0.088 0.072,0.16 0.16,0.16 0.088,0 0.16,-0.072 0.16,-0.16 z m -0.0994,-2.32 c -0.0805,-0.308 -0.14635,-0.056 -0.14635,0.56 0,0.616 0.0659,0.868 0.14635,0.56 0.0805,-0.308 0.0805,-0.812 0,-1.12 z m -94.407257,-5.41334 c -0.117333,-0.11732 -0.309333,-0.11732 -0.426666,0 -0.117334,0.11734 -0.02133,0.21334 0.213333,0.21334 0.234667,0 0.330667,-0.096 0.213333,-0.21334 z m 94.506667,0.0533 c 0,-0.088 -0.072,-0.16 -0.16,-0.16 -0.088,0 -0.16,0.072 -0.16,0.16 0,0.088 0.072,0.16 0.16,0.16 0.088,0 0.16,-0.072 0.16,-0.16 z m 2.73672,-5.92 H 120.32 v -2.4 -2.4 h -2.69844 c -2.30259,0 -2.71923,0.0822 -2.8402,0.56 -0.078,0.308 -0.13029,2.144 -0.11626,4.08 0.014,1.936 0.0757,2.764 0.13693,1.84 l 0.11142,-1.68 z m 12.45969,-1.88906 c 0.29932,-2.579 -0.11506,-3.33612 -1.69994,-3.10595 -0.64706,0.094 -2.50847,0.17629 -4.13647,0.18292 l -2.96,0.0121 v 2.18666 c 0,1.20268 0.096,2.28268 0.21333,2.4 0.11734,0.11734 2.0472,0.21334 4.28858,0.21334 h 4.07525 z M 120.32,409.42754 v -1.13248 l -2.8,0.0925 c -2.74121,0.0905 -2.80051,0.10925 -2.82428,0.89245 -0.0133,0.44 0.0311,0.908 0.0989,1.04 0.0678,0.132 1.33867,0.24 2.82429,0.24 H 120.32 Z m 9.66852,0.17063 c 0.0777,-0.52899 0.07,-1.03299 -0.017,-1.12 -0.087,-0.087 -2.07817,-0.15818 -4.42483,-0.15818 H 121.28 v 1.12 1.12 h 4.28368 4.28368 z M 22.012941,394.15999 c -0.08434,-2.39568 -0.152169,-2.64 -0.732941,-2.64 -0.568924,0 -0.65063,0.24525 -0.735721,2.20826 -0.11357,2.62003 0.01858,3.07174 0.89862,3.07174 0.624582,0 0.657601,-0.15293 0.570042,-2.64 z m 10.947811,-0.48 6.4e-4,-3.12 -2.596478,0.10551 -2.596477,0.10547 0.229079,2.77453 c 0.125993,1.52595 0.294568,2.88249 0.37461,3.01449 0.08004,0.132 1.145034,0.24 2.366647,0.24 h 2.221115 l 6.4e-4,-3.12 z M 54.24,393.58303 v -3.02304 h -2.56 -2.56 l 0.116579,2.88 c 0.06412,1.584 0.163235,2.95987 0.220256,3.05751 0.05702,0.0976 1.156563,0.16198 2.443421,0.143 L 54.24,396.60604 Z m 11.04,-0.16832 v -3.01472 h -2.56 -2.56 v 2.98666 c 0,1.64269 0.05936,3.04669 0.13191,3.12 0.07255,0.0733 1.224551,0.086 2.56,0.0282 L 65.28,396.42953 v -3.01472 z m -26.24,0.18528 c 0,-1.584 -0.133421,-2.88 -0.29649,-2.88 -0.286809,0 -0.639468,5.36176 -0.370176,5.62813 0.49345,0.48806 0.666666,-0.22595 0.666666,-2.74813 z m 36.16,-0.16 c 0,-1.81334 -0.129123,-3.04 -0.32,-3.04 -0.176,0 -0.321251,0.612 -0.322781,1.36 -0.0016,0.748 -0.09359,2.116 -0.204573,3.04 -0.171225,1.42551 -0.122329,1.68 0.322781,1.68 0.449287,0 0.524573,-0.43632 0.524573,-3.04 z m 20.8,-17.92 c 0,-11.528 -0.104387,-20.96 -0.231968,-20.96 -0.127584,0 -1.207584,0.96813 -2.4,2.15143 L 91.2,358.86284 v 7.44858 7.44857 h 2.08 c 2.005334,0 2.08,0.0288 2.08,0.8 0,0.67555 -0.149334,0.8 -0.96,0.8 h -0.96 v 4.64 c 0,2.552 -0.036,4.748 -0.08,4.88 -0.044,0.132 0.388,0.28512 0.96,0.34029 0.619782,0.0597 1.04,0.27782 1.04,0.53971 0,0.26189 -0.420218,0.47997 -1.04,0.53971 l -1.04,0.10029 -0.08813,5.04 -0.08813,5.04 H 94.551875 96 Z m 23.04,19.36 c 0,-1.40054 -0.0399,-1.44035 -1.44,-1.43619 -1.24655,0.004 -1.2826,0.035 -1.37932,1.2 l -0.0993,1.19619 h 1.45931 c 1.40813,0 1.45932,-0.0337 1.45932,-0.96 z m 8.64,-0.11632 v -1.07635 l -3.35633,-0.2248 c -1.84597,-0.12368 -3.50197,-0.13482 -3.68,-0.025 -0.17802,0.11002 -0.32367,0.69555 -0.32367,1.30115 v 1.10112 h 3.68 3.68 v -1.07632 z m -49.4724,-2.67795 c 0.12496,-0.12496 0.361165,-0.0154 0.524899,0.24355 0.214669,0.33943 0.299069,0.13603 0.302602,-0.72928 0.0044,-1.06797 -0.08312,-1.2 -0.795101,-1.2 -0.777955,0 -0.798986,0.0595 -0.7632,2.16 0.03152,1.84935 0.07037,1.98691 0.270202,0.95648 0.128368,-0.66195 0.335638,-1.30579 0.460598,-1.43075 z m 52.2908,-0.46086 c -0.0541,-0.73431 -0.24347,-1.38266 -0.42077,-1.44077 -0.19526,-0.064 -0.27718,0.46243 -0.20778,1.3351 0.063,0.79245 0.25237,1.4408 0.42077,1.4408 0.1684,0 0.2619,-0.6008 0.20778,-1.33513 z m -84.255174,0.68992 c 0.110547,-0.17888 0.346089,-0.23556 0.523427,-0.12596 0.19567,0.12093 0.281331,-0.16006 0.217888,-0.71478 -0.100195,-0.87603 -0.254387,-0.95533 -1.544541,-0.79405 -0.523427,0.0654 -0.387021,1.96 0.141114,1.96 0.253612,0 0.551564,-0.14633 0.662112,-0.32521 z m 11.080195,-0.0748 c 1.075875,-0.5688 1.000829,-1.6519 -0.123421,-1.78125 -0.814429,-0.0937 -0.88,-0.0163 -0.88,1.04 0,1.29431 -0.01779,1.28116 1.003421,0.74125 z m 56.784869,-0.79837 c -0.34416,-0.34416 -0.52687,0.13783 -0.28528,0.75258 0.22663,0.57664 0.24375,0.57766 0.35582,0.0208 0.0648,-0.32176 0.033,-0.66976 -0.0705,-0.77331 z M 119.2,391.03999 c 0,-1.10912 -0.0148,-1.12096 -1.52,-1.21753 l -1.52,-0.0975 v 1.08419 c 0,1.40131 0.19241,1.56045 1.74839,1.44595 1.24469,-0.0916 1.29161,-0.13577 1.29161,-1.21507 z m 8.48,0 v -1.28 H 124 120.32 v 1.06666 c 0,0.58669 0.096,1.16269 0.21333,1.28 0.11734,0.11734 1.77334,0.21334 3.68,0.21334 H 127.68 Z m 2.56,-3.04 c 0,-0.792 -0.144,-1.44 -0.32,-1.44 -0.35342,0 -0.44649,2.32685 -0.10667,2.66666 0.37809,0.37811 0.42667,0.23843 0.42667,-1.22666 z m -115.52,-0.16 v -1.28 h -1.6 c -0.88,0 -1.599462,0.108 -1.598804,0.24 6.72e-4,0.132 0.286542,0.708 0.635297,1.28 0.489674,0.80314 0.853825,1.04 1.598804,1.04 0.912154,0 0.964703,-0.0697 0.964703,-1.28 z m 104.58028,-0.4 c -0.0961,-0.99718 -0.16284,-1.044 -1.62028,-1.13753 -1.48499,-0.0953 -1.52,-0.0763 -1.52,0.82665 0,1.22199 0.17495,1.35088 1.83361,1.35088 1.39455,0 1.40606,-0.009 1.30667,-1.04 z m 8.37972,-0.08 v -1.12 h -3.48368 -3.48368 l -0.14116,0.96183 c -0.0776,0.52899 -0.07,1.03299 0.017,1.12 0.087,0.087 1.71818,0.15817 3.62485,0.15817 h 3.46666 v -1.12 z M 22.778748,382.07305 c 0.05569,-1.76381 0.05325,-3.34781 -0.0054,-3.52 -0.05867,-0.17219 -0.433727,-0.31306 -0.833467,-0.31306 -0.696606,0 -0.734294,0.13597 -0.90715,3.27293 -0.09919,1.8001 -0.111632,3.3841 -0.02765,3.52 0.08399,0.13587 0.49464,0.24707 0.912564,0.24707 0.742533,0 0.762172,-0.0731 0.861115,-3.20694 z m 10.334807,1.52694 c 0.09273,-1.48611 0.07413,-1.52 -0.834275,-1.52 -1.076383,0 -4.43928,2.10461 -4.43928,2.77824 0,0.35431 0.53995,0.42826 2.589355,0.35469 l 2.589355,-0.0929 z m 13.547293,0 c 0.10703,-1.49472 0.09312,-1.52 -0.836003,-1.52 -0.802227,0 -0.975034,0.15095 -1.144845,1 -0.397741,1.98871 -0.295744,2.24983 0.836006,2.14029 0.990544,-0.0959 1.040781,-0.16698 1.144842,-1.62029 z m 18.555875,0.0467 -0.09672,-1.63331 -5.12,0.0269 c -2.816,0.015 -6.74,0.0301 -8.72,0.0333 l -3.6,0.006 v 1.6 1.6 h 8.816723 8.816723 z m 14.536903,0.11334 c 0.07594,-0.836 0.08194,-1.628 0.01334,-1.76 -0.207808,-0.39984 -4.404423,-0.27453 -4.822964,0.144 -0.406313,0.40631 -0.532144,2.56119 -0.170665,2.92266 0.117331,0.11734 1.254832,0.21334 2.527776,0.21334 h 2.314445 l 0.13807,-1.52 z m 39.606374,0.08 v -1.12 h -1.6 c -1.54353,0 -1.6,0.032 -1.6,0.90666 0,1.20112 0.17984,1.33334 1.81333,1.33334 1.37143,0 1.38667,-0.0125 1.38667,-1.12 z m 8.32,0 v -1.12 h -3.52 -3.52 v 1.12 1.12 h 3.52 3.52 z m -56.741405,0.1 c -0.10215,-0.25526 -0.177977,-0.17945 -0.193331,0.19335 -0.01389,0.33731 0.06173,0.52633 0.16807,0.42 0.106333,-0.10634 0.1177,-0.38234 0.02525,-0.61335 z M 38.933334,380.90665 C 38.816,380.78934 38.72,380.88534 38.72,381.11999 c 0,0.23466 0.096,0.33066 0.213334,0.21335 0.117332,-0.11735 0.117332,-0.30935 0,-0.42669 z m 80.552426,0.0272 c 0.58904,-1.53501 -0.17163,-2.12413 -2.33307,-1.80688 -0.83122,0.12198 -0.99269,0.28726 -0.99269,1.01603 0,1.15869 0.18976,1.29702 1.7791,1.29702 0.93804,0 1.41194,-0.1551 1.54666,-0.50617 z m 8.19424,-0.61386 v -1.12 h -3.52 -3.52 v 0.90666 c 0,0.49869 0.096,1.00269 0.21333,1.12 0.11734,0.11734 1.70134,0.21334 3.52,0.21334 H 127.68 Z m -88.64,-0.32 c 0,-0.264 -0.0566,-0.48 -0.125763,-0.48 -0.06917,0 -0.20865,0.216 -0.309959,0.48 -0.101305,0.264 -0.04471,0.48 0.125764,0.48 0.170476,0 0.309958,-0.216 0.309958,-0.48 z m -24.32,-3.2 v -1.44 h -1.44 c -1.637631,0 -1.757714,0.27498 -0.803507,1.84 0.444794,0.72951 0.874338,1.04 1.438804,1.04 0.740389,0 0.804703,-0.1151 0.804703,-1.44 z m 7.309379,-0.16765 C 21.546311,375.24662 21.12,375.15385 21.12,376.43442 c 0,0.61175 0.18,1.1768 0.4,1.25572 0.695884,0.24963 0.852078,-0.0748 0.509379,-1.0578 z m 97.490621,0 v -1.11296 h -1.6 c -1.58938,0 -1.59925,0.006 -1.48781,0.96 0.15297,1.309 0.13753,1.29738 1.70204,1.28071 1.3659,-0.0144 1.38577,-0.0307 1.38577,-1.12775 z m 8.16,0.1288 v -1.08176 h -3.04 c -1.672,0 -3.148,-0.007 -3.28,-0.016 -0.30085,-0.0198 -0.701,1.8482 -0.44972,2.09949 0.10179,0.10179 1.66661,0.16141 3.47739,0.13248 l 3.29233,-0.0519 v -1.08173 z m -94.461658,-0.33584 0.09834,-1.01408 -2.419086,-0.10592 c -1.330497,-0.0582 -2.418751,-0.015 -2.418341,0.0962 4.16e-4,0.11117 0.684745,0.65302 1.520745,1.20413 1.970555,1.299 3.080912,1.2368 3.218342,-0.18036 z M 46.72,376.47999 c 0,-1.0311 -0.07619,-1.12 -0.96,-1.12 -0.848502,0 -0.96,0.10903 -0.96,0.93875 0,0.77844 0.150278,0.96151 0.88,1.07204 0.484,0.0733 0.916,0.15491 0.96,0.18128 0.044,0.0262 0.08,-0.45607 0.08,-1.07207 z m -7.786666,0.26666 C 38.816,376.62934 38.72,376.72534 38.72,376.95999 c 0,0.23466 0.096,0.33066 0.213334,0.21335 0.117332,-0.11735 0.117332,-0.30935 0,-0.42669 z M 65.28,376.31999 v -0.96 h -8.8 -8.8 v 0.96 0.96 h 8.8 8.8 z m 14.72,0 v -0.96 h -2.56 -2.56 v 0.96 0.96 H 77.44 80 Z m -46.792781,-8.28419 0.08722,-5.79581 H 30.727219 28.16 v 5.91971 5.91968 l 2.48,-0.1239 2.48,-0.12387 z M 65.28,368.18114 v -5.94115 H 55.04 44.8 l -0.01078,3.76 c -0.0059,2.068 -0.06823,4.62151 -0.138445,5.67443 -0.07021,1.05296 -0.0047,1.98896 0.145466,2.08 0.150217,0.0911 4.820518,0.21111 10.378445,0.26672 l 10.105321,0.10119 v -5.94119 z m 14.64,5.60551 3.28,-0.0266 -0.0029,-4.56 -0.0029,-4.56 -1.986832,-1.28 c -1.811162,-1.16682 -2.178726,-1.28099 -4.1572,-1.29114 l -2.170371,-0.0112 v 5.79783 c 0,3.1888 0.07194,5.86976 0.159865,5.95766 0.08793,0.0879 0.483927,0.12394 0.88,0.08 0.396074,-0.0439 2.196135,-0.0918 4.000135,-0.10653 z m 47.76,-0.82698 v -0.77113 l -5.6004,-0.0943 -5.60039,-0.0943 3.2e-4,0.82666 c 2.2e-4,0.45469 0.06,0.88669 0.13291,0.96 0.0729,0.0733 2.59288,0.0908 5.6,0.0387 l 5.46756,-0.0946 z m -13.54667,-0.37302 c -0.11733,-0.11731 -0.21333,-0.0213 -0.21333,0.21334 0,0.23466 0.096,0.33066 0.21333,0.21335 0.11734,-0.11735 0.11734,-0.30935 0,-0.42669 z M 127.68,369.71097 v -1.07098 h -5.6 -5.6 v 0.90666 c 0,0.49869 0.0664,0.97305 0.14754,1.05421 0.0812,0.0811 2.60115,0.1551 5.6,0.16432 l 5.45246,0.0166 v -1.07098 z m -13.12,0.68902 c 0,-0.088 -0.072,-0.16 -0.16,-0.16 -0.088,0 -0.16,0.072 -0.16,0.16 0,0.088 0.072,0.16 0.16,0.16 0.088,0 0.16,-0.072 0.16,-0.16 z m -0.0982,-1.67392 c -0.0811,-0.31133 -0.15285,-0.13408 -0.15938,0.39392 -0.007,0.528 0.0599,0.78275 0.14752,0.56608 0.0877,-0.21664 0.093,-0.64864 0.0119,-0.96 z m 13.2182,-2.49881 v -1.10727 h -5.6 -5.6 v 1.07411 1.07415 l 5.6,0.0331 5.6,0.0331 z M 22.98168,364.65279 c -0.06842,-0.53565 -0.230022,-0.71565 -0.49406,-0.55024 -0.305966,0.19165 -0.309658,0.52458 -0.01676,1.51162 0.300973,1.01427 0.399151,1.12361 0.49406,0.55021 0.06514,-0.39357 0.07269,-1.0738 0.01676,-1.51159 z m 91.48008,0.55328 c -0.0811,-0.31133 -0.15285,-0.13408 -0.15938,0.39392 -0.007,0.528 0.0599,0.78275 0.14752,0.56608 0.0877,-0.21664 0.093,-0.64864 0.0119,-0.96 z m 0.0982,-0.88608 c 0,-0.088 -0.072,-0.16 -0.16,-0.16 -0.088,0 -0.16,0.072 -0.16,0.16 0,0.088 0.072,0.16 0.16,0.16 0.088,0 0.16,-0.072 0.16,-0.16 z m 13.06028,-1.52 -0.10028,-1.04 -5.52,-0.0876 -5.52,-0.0876 v 1.12755 1.12755 h 5.62028 5.62027 z m -13.15969,-1.44 c -0.0805,-0.308 -0.14635,-0.056 -0.14635,0.56 0,0.616 0.0659,0.868 0.14635,0.56 0.0805,-0.308 0.0805,-0.812 0,-1.12 z m 0.006,-2.71625 c -0.0765,-0.39808 -0.14207,-0.14775 -0.14562,0.55625 -0.004,0.704 0.0591,1.02967 0.13917,0.72375 0.0801,-0.30596 0.083,-0.88196 0.006,-1.28 z m 13.21369,0.71625 v -0.96 h -5.6 -5.6 v 0.96 0.96 h 5.6 5.6 z m -13.20689,-5.04 c -0.069,-0.66 -0.12552,-0.12 -0.12552,1.2 0,1.32 0.0565,1.86 0.12552,1.2 0.069,-0.66 0.069,-1.74 0,-2.4 z m -81.08359,-3.39565 c 0.114838,-3.54438 0.209178,-7.77635 0.209638,-9.40435 l 8.42e-4,-2.96 h -2.24 -2.24 l -0.0068,4.88 c -0.0037,2.684 -0.09356,6.70967 -0.19964,8.94592 -0.106083,2.23626 -0.111676,4.27754 -0.01243,4.53616 0.133458,0.34778 0.714204,0.46717 2.23,0.45843 l 2.049549,-0.0118 0.2088,-6.44435 z m 48.138669,5.11018 1.991811,-1.2455 v -8.28176 -8.28173 l -3.960083,0.0465 -3.960083,0.0466 -0.197136,1.64067 c -0.108423,0.9024 -0.198388,5.12582 -0.199917,9.38544 l -0.0029,7.74473 2,0.11037 c 1.1,0.0607 2.075683,0.10355 2.168189,0.0953 0.0925,-0.008 1.064502,-0.57559 2.16,-1.26058 z m -16.197482,-2.83453 c 0.0279,-2.156 0.06389,-6.368 0.08,-9.36 l 0.02928,-5.44 -9.76,0.11424 c -5.368,0.0628 -9.827577,0.1784 -9.910169,0.25683 -0.0826,0.0784 -0.192877,1.97104 -0.245076,4.20576 -0.0522,2.23476 -0.2152,6.22317 -0.362227,8.86317 -0.147027,2.64 -0.208243,4.908 -0.136038,5.04 0.0722,0.132 4.658784,0.24 10.192397,0.24 h 10.061113 l 0.05071,-3.92 z m 62.289573,2.88 -0.10028,-1.04 h -5.43562 c -4.98924,0 -5.44477,0.0475 -5.54706,0.57869 -0.27807,1.4439 -0.0596,1.50131 5.71291,1.50131 h 5.47032 z M 23.234236,355.97382 c -0.10683,-0.2784 -0.20859,-2.3304 -0.226134,-4.56 -0.01988,-2.52656 -0.12842,-3.75242 -0.288102,-3.25383 -0.313481,0.97885 -0.403364,7.80999 -0.106667,8.10666 0.405001,0.40502 0.814565,0.21184 0.620903,-0.29283 z M 71.68,354.39999 c 0,-0.088 -0.072,-0.16 -0.16,-0.16 -0.088,0 -0.16,0.072 -0.16,0.16 0,0.088 0.072,0.16 0.16,0.16 0.088,0 0.16,-0.072 0.16,-0.16 z m 0,-0.96 c 0,-0.264 -0.139482,-0.48 -0.309958,-0.48 -0.170474,0 -0.227069,0.216 -0.125764,0.48 0.101309,0.264 0.240788,0.48 0.309959,0.48 0.06917,0 0.125763,-0.216 0.125763,-0.48 z m 56,-0.64 v -0.8 h -5.40576 c -4.64627,0 -5.4332,0.0715 -5.60104,0.50887 -0.1074,0.2799 -0.11431,0.6399 -0.0154,0.8 0.099,0.16012 2.61942,0.29113 5.60104,0.29113 h 5.42111 v -0.8 z m -56,-0.32 c 0,-0.088 -0.072,-0.16 -0.16,-0.16 -0.088,0 -0.16,0.072 -0.16,0.16 0,0.088 0.072,0.16 0.16,0.16 0.088,0 0.16,-0.072 0.16,-0.16 z m 48.25159,-11.92 -0.0916,-3.12 -2.59398,-0.0922 -2.59398,-0.0922 -0.18882,1.59427 c -0.10385,0.87686 -0.0532,2.06704 0.11248,2.64486 0.16572,0.57783 0.22027,1.30589 0.12124,1.61792 -0.16286,0.51309 0.0831,0.56733 2.57308,0.56733 h 2.75315 z m 9.46672,2.4 c 0.10612,-0.396 0.19492,-1.74179 0.19732,-2.99062 l 0.004,-2.27063 -4.03819,-0.20464 c -2.221,-0.11257 -4.165,-0.1263 -4.32,-0.0304 -0.15499,0.0958 -0.28181,1.53367 -0.28181,3.19527 v 3.02112 h 4.12268 c 4.00487,0 4.12819,-0.0205 4.31563,-0.72 z M 22.708741,342.42102 c 0.182192,-0.34042 0.331259,-1.34842 0.331259,-2.24 0,-1.3826 -0.08996,-1.62103 -0.611577,-1.62103 -0.523555,0 -0.629541,0.28784 -0.736388,2 -0.06865,1.1 -0.07294,2.108 -0.0095,2.24 0.206869,0.43069 0.688011,0.25303 1.026243,-0.37897 z m 90.484369,-4.10103 c -0.069,-0.66 -0.12552,-0.12 -0.12552,1.2 0,1.32 0.0565,1.86 0.12552,1.2 0.069,-0.66 0.069,-1.74 0,-2.4 z M 32,337.75999 c 0,-0.088 -0.072,-0.16 -0.16,-0.16 -0.088,0 -0.16,0.072 -0.16,0.16 0,0.088 0.072,0.16 0.16,0.16 0.088,0 0.16,-0.072 0.16,-0.16 z m 87.93597,-3.12 0.096,-1.84 h -2.896 -2.89597 v 1.41383 c 0,2.41632 0.0591,2.46281 2.99896,2.35849 l 2.60104,-0.0923 z m 9.61958,0.27671 c 0.0486,-2.10634 0.0488,-2.10621 -4.99555,-2.11232 l -3.6,-0.004 v 1.70666 c 0,0.93869 0.096,1.80269 0.21333,1.92 0.11734,0.11734 2.04239,0.21334 4.27791,0.21334 h 4.06458 z m -16.36635,-1.07671 c -0.0733,-0.484 -0.13331,-0.088 -0.13331,0.88 0,0.968 0.06,1.364 0.13331,0.88 0.0733,-0.484 0.0733,-1.276 0,-1.76 z m -17.936915,-11.76 c 0.108035,-1.98374 0.463529,-3.82436 0.77591,-4.01742 0.183251,-0.11326 0.281879,-1.15814 0.227597,-2.41122 L 96.16,313.43999 94.8,313.34159 c -1.073315,-0.0777 -1.36,0.009 -1.36,0.41262 0,0.7123 0.609773,6.50332 0.817706,7.76578 0.15663,0.95095 0.09994,1.04 -0.66209,1.04 -0.503747,0 -0.750752,0.1337 -0.62447,0.33805 0.114905,0.18592 0.663404,0.29392 1.218886,0.24 0.872944,-0.0847 1.017062,-0.22829 1.062253,-1.05805 z m 24.047995,-0.56 c -0.0961,-0.99718 -0.16284,-1.044 -1.62028,-1.13753 l -1.52,-0.0975 v 1.13754 1.13753 h 1.62028 1.62027 z m 8.37972,0.08 v -0.96 H 124 120.32 v 0.96 0.96 h 3.68 3.68 z m -100.16,-1.92 c 0,-0.176 -0.152499,-0.32 -0.338885,-0.32 -0.186387,0 -0.249889,0.144 -0.141115,0.32 0.108774,0.176 0.261272,0.32 0.338885,0.32 0.07761,0 0.141115,-0.144 0.141115,-0.32 z m 91.84,-1.28 c 0,-0.93866 -0.0356,-0.96 -1.6,-0.96 -1.46286,0 -1.6,0.064 -1.6,0.74667 0,1.03012 0.22132,1.17333 1.81333,1.17333 1.32741,0 1.38667,-0.041 1.38667,-0.96 z m 8.26125,0.08 -0.10125,-0.88 -3.6,-0.0905 c -3.59783,-0.0904 -3.6,-0.09 -3.6,0.66667 0,0.41643 0.096,0.85315 0.21333,0.97048 0.11734,0.11733 1.7829,0.21333 3.70126,0.21333 h 3.48792 z m 2.19208,0.0267 c -0.11733,-0.11732 -0.21333,-0.0213 -0.21333,0.21334 0,0.23467 0.096,0.33067 0.21333,0.21334 0.11734,-0.11734 0.11734,-0.30934 0,-0.42667 z M 80.64,318.41888 c 0,-0.37756 -0.624112,-0.78144 -0.853334,-0.55222 -0.22922,0.22922 0.174665,0.85333 0.55222,0.85333 0.165613,0 0.301114,-0.1355 0.301114,-0.30111 z m 38.72,-3.21889 c 0,-0.92444 -0.0533,-0.96 -1.44,-0.96 -1.38667,0 -1.44,0.0356 -1.44,0.96 0,0.92445 0.0533,0.96 1.44,0.96 1.38667,0 1.44,-0.0356 1.44,-0.96 z m 8.32,0 v -0.96 h -3.46667 c -1.90666,0 -3.54205,0.0754 -3.63418,0.16752 -0.0921,0.0921 -0.0994,0.52414 -0.016,0.96 0.15016,0.78549 0.18224,0.79248 3.63419,0.79248 h 3.4827 z m -14.82667,-1.49333 c -0.11733,-0.11733 -0.21333,-0.0213 -0.21333,0.21333 0,0.23467 0.096,0.33067 0.21333,0.21334 0.11734,-0.11734 0.11734,-0.30934 0,-0.42667 z m -23.124482,-1.75707 c -0.156851,-0.25379 -0.01168,-0.3136 0.461114,-0.18996 0.776393,0.20303 0.952988,-0.23026 0.210038,-0.51536 -0.353251,-0.13555 -0.48,-0.69384 -0.48,-2.11424 0,-1.06152 -0.12017,-1.93004 -0.267043,-1.93004 -0.146874,0 -0.239431,1.116 -0.205683,2.48 0.06586,2.66179 0.06313,2.64 0.331612,2.64 0.09839,0 0.07587,-0.16668 -0.05004,-0.3704 z M 96.32,307.99999 c 0,-4.20072 -0.01891,-4.32 -0.684723,-4.32 -0.376595,0 -0.859773,-0.2394 -1.073725,-0.53199 -0.21633,-0.29585 -0.608122,-0.44791 -0.88264,-0.34257 -0.408048,0.15659 -0.501702,0.94377 -0.54016,4.54008 -0.0256,2.39286 0.04022,4.49102 0.146246,4.66257 0.106026,0.17155 0.832276,0.31191 1.613888,0.31191 H 96.32 Z m 23.04,3.68 c 0,-0.54518 -0.21333,-0.64 -1.44,-0.64 -0.98667,0 -1.44,0.13432 -1.44,0.42667 0,0.67709 0.34148,0.85333 1.65333,0.85333 1.01334,0 1.22667,-0.1113 1.22667,-0.64 z m 8.32,0.20743 c 0,-0.31186 -0.73667,-0.48991 -2.64,-0.63808 -4.15306,-0.3233 -4.4,-0.29913 -4.4,0.43065 0,0.60122 0.21333,0.64 3.52,0.64 2.74402,0 3.52,-0.0954 3.52,-0.43257 z m -14.41844,-3.78854 c 0.0101,-0.82561 -0.12556,-1.59011 -0.30156,-1.69889 -0.20553,-0.12702 -0.30684,0.86787 -0.2832,2.78112 0.0303,2.4508 0.0837,2.75197 0.30156,1.69888 0.14561,-0.704 0.27305,-1.9555 0.2832,-2.78111 z m -22.60884,2.30111 c -0.09205,-0.352 -0.22257,-0.64 -0.290042,-0.64 -0.06747,0 -0.122678,0.288 -0.122678,0.64 0,0.352 0.130518,0.64 0.290042,0.64 0.159523,0 0.214729,-0.288 0.122678,-0.64 z m 28.70728,-1.28 c 0,-0.92444 -0.0533,-0.96 -1.44,-0.96 -1.38667,0 -1.44,0.0356 -1.44,0.96 0,0.92445 0.0533,0.96 1.44,0.96 1.38667,0 1.44,-0.0356 1.44,-0.96 z m 8.26125,0.08 -0.10125,-0.88 -3.44,-0.0908 -3.44,-0.0908 v 0.97083 0.97082 h 3.54125 3.54126 z M 119.36,306.07456 v -1.15137 l -1.35724,0.0984 c -1.00819,0.0731 -1.38548,0.24723 -1.46706,0.67709 -0.19438,1.02423 0.16606,1.37039 1.50946,1.44966 1.31054,0.0773 1.31484,0.0738 1.31484,-1.07378 z m 8.26028,0.0896 -0.10028,-1.03579 -3.44,-0.1149 -3.44,-0.1149 v 0.93736 c 0,0.51555 0.096,1.03337 0.21333,1.1507 0.11734,0.11733 1.71046,0.21333 3.54028,0.21333 h 3.32694 z M 90.24,306.71999 c 0,-0.088 -0.072,-0.16 -0.16,-0.16 -0.088,0 -0.16,0.072 -0.16,0.16 0,0.088 0.072,0.16 0.16,0.16 0.088,0 0.16,-0.072 0.16,-0.16 z m -0.32,-1.13888 c 0,-0.16562 -0.144,-0.30112 -0.32,-0.30112 -0.176,0 -0.32,0.2245 -0.32,0.49889 0,0.27439 0.144,0.40989 0.32,0.30111 0.176,-0.10877 0.32,-0.33327 0.32,-0.49888 z m 24.5386,-0.0411 c -0.10216,-0.25527 -0.17798,-0.17945 -0.19334,0.19334 -0.0139,0.33733 0.0617,0.52633 0.16807,0.42 0.10634,-0.10634 0.1177,-0.38234 0.0252,-0.61334 z m -1.1786,-1.06 c 0,-0.49778 -0.18133,-0.8 -0.48,-0.8 -0.51647,0 -0.59304,0.29309 -0.28576,1.09383 0.29894,0.77904 0.76576,0.59992 0.76576,-0.29383 z m 6.08,-1.12 c 0,-0.54518 -0.21333,-0.64 -1.44,-0.64 -0.98667,0 -1.44,0.13432 -1.44,0.42667 0,0.67709 0.34148,0.85333 1.65333,0.85333 1.01334,0 1.22667,-0.1113 1.22667,-0.64 z m 8.32,0.20559 c 0,-0.45868 -2.51059,-0.84559 -5.48694,-0.84559 -1.33973,0 -1.55306,0.0879 -1.55306,0.64 0,0.60122 0.21333,0.64 3.52,0.64 2.75139,0 3.52,-0.0949 3.52,-0.43441 z m -38.181405,-1.86559 c -0.10215,-0.25527 -0.177977,-0.17945 -0.193331,0.19334 -0.01389,0.33733 0.06174,0.52633 0.16807,0.42 0.106333,-0.10633 0.1177,-0.38234 0.02525,-0.61334 z M 96.32,289.03198 v -13.04801 l -2.374976,-2.35912 -2.374973,-2.35912 -0.366381,1.36064 c -0.390732,1.45106 -0.389052,16.819 0.0022,20.97362 0.116045,1.232 0.08332,2.40703 -0.07274,2.61117 -0.183139,0.23958 -0.05774,0.52946 0.353693,0.81764 0.491123,0.344 0.659878,0.8831 0.735254,2.34883 l 0.09788,1.90236 1.68,0.0967 c 0.924,0.0532 1.68,0.23319 1.68,0.4 0,0.1668 0.144,0.30327 0.32,0.30327 0.208102,0 0.32,-4.56267 0.32,-13.04801 z m 16.46633,12.3859 c -0.10125,-0.16384 -0.0316,-0.29789 0.15478,-0.29789 0.18923,0 0.33889,-0.64773 0.33889,-1.46666 0,-2.21969 -0.77572,-1.66505 -0.89684,0.64124 -0.0656,1.24826 0.0137,1.77571 0.24522,1.63261 0.18813,-0.11628 0.25921,-0.34546 0.15795,-0.5093 z M 89.6,300.95999 c 0,-0.088 -0.072,-0.16 -0.16,-0.16 -0.088,0 -0.16,0.072 -0.16,0.16 0,0.088 0.072,0.16 0.16,0.16 0.088,0 0.16,-0.072 0.16,-0.16 z m 38.08,-0.88 v -0.88 h -5.44 -5.44 v 0.78755 c 0,0.76967 0.0635,0.78963 2.8,0.88 1.54,0.0508 3.988,0.0924 5.44,0.0924 h 2.64 z m -12.90667,0.18667 c -0.11733,-0.11733 -0.21333,-0.0213 -0.21333,0.21333 0,0.23467 0.096,0.33067 0.21333,0.21334 0.11734,-0.11734 0.11734,-0.30934 0,-0.42667 z M 80.96,297.91999 c 0,-0.176 -0.144,-0.32 -0.32,-0.32 -0.176,0 -0.32,0.144 -0.32,0.32 0,0.176 0.144,0.32 0.32,0.32 0.176,0 0.32,-0.144 0.32,-0.32 z m 46.72,-0.76576 c 0,-0.42117 -0.22778,-0.85317 -0.50617,-0.96 -0.2784,-0.10683 -2.7264,-0.19424 -5.44,-0.19424 H 116.8 v 0.96 0.96 h 5.44 5.44 z m -14.30736,-0.51456 c -0.23026,-0.88049 -0.41264,-0.80129 -0.41264,0.17921 0,0.45039 0.13048,0.73824 0.28996,0.63968 0.15948,-0.0986 0.21468,-0.46706 0.12268,-0.81889 z m 1.50736,0.80032 c 0,-0.088 -0.072,-0.16 -0.16,-0.16 -0.088,0 -0.16,0.072 -0.16,0.16 0,0.088 0.072,0.16 0.16,0.16 0.088,0 0.16,-0.072 0.16,-0.16 z m -33.171168,-0.37124 c 2.152912,-0.2033 3.083421,-0.80023 2.148304,-1.37817 -0.311994,-0.19282 -0.304909,-0.39192 0.03337,-0.93746 0.359324,-0.57949 0.359324,-0.73633 0,-0.96 -0.359325,-0.22368 -0.359325,-0.38052 0,-0.96 0.363136,-0.58564 0.358512,-0.73682 -0.02992,-0.9785 -0.380762,-0.23691 -0.387751,-0.37221 -0.04082,-0.79024 0.344806,-0.41546 0.344806,-0.59331 0,-1.00878 -0.346935,-0.41803 -0.339946,-0.55332 0.04082,-0.79023 0.357942,-0.22271 0.379321,-0.4152 0.09679,-0.87144 -0.278125,-0.44912 -0.259482,-0.72665 0.08,-1.19092 0.3344,-0.45734 0.442624,-1.8935 0.442624,-5.87397 v -5.26864 l -28.18711,0.18357 c -15.502912,0.10097 -28.231095,0.23138 -28.284853,0.2898 -0.05376,0.0584 -0.154706,2.95866 -0.224329,6.44497 -0.083,4.15597 -0.248514,6.41493 -0.480661,6.56 -0.435895,0.27238 -0.358127,4.74516 0.09843,5.66125 0.175428,0.352 0.293522,0.964 0.262432,1.36 l -0.05653,0.72 25.95631,-0.002 c 14.275968,-10e-4 26.941283,-0.0953 28.145139,-0.20896 z M 27.84,294.55999 c 0,-0.088 0.072,-0.16 0.16,-0.16 0.088,0 0.16,0.072 0.16,0.16 0,0.088 -0.072,0.16 -0.16,0.16 -0.088,0 -0.16,-0.072 -0.16,-0.16 z m 0,-1.76 c 0,-0.23466 0.096,-0.33066 0.213333,-0.21333 0.117334,0.11733 0.117334,0.30933 0,0.42667 C 27.936,293.13066 27.84,293.03466 27.84,292.79999 Z m -0.64,4 c 0,-0.088 -0.072,-0.16 -0.16,-0.16 -0.088,0 -0.16,0.072 -0.16,0.16 0,0.088 0.072,0.16 0.16,0.16 0.088,0 0.16,-0.072 0.16,-0.16 z m 86.4,-4 c 0,-1.70666 -0.13037,-2.88 -0.32,-2.88 -0.18963,0 -0.32,1.17334 -0.32,2.88 0,1.70667 0.13037,2.88 0.32,2.88 0.18963,0 0.32,-1.17333 0.32,-2.88 z m 14.07957,1.2 3.2e-4,-0.88 h -5.44 -5.44 v 0.97679 0.97679 l 5.43957,-0.0968 5.43956,-0.0968 3.2e-4,-0.88 z M 112,290.97599 c 0,-1.11764 -0.11405,-1.70627 -0.29451,-1.52 -0.26663,0.27522 -0.10499,3.344 0.17613,3.344 0.0651,0 0.11838,-0.8208 0.11838,-1.824 z m 15.67788,0.144 0.002,-0.88 h -5.44 -5.44 v 0.7816 c 0,0.94426 0.63538,1.03793 6.79787,1.00211 l 4.07787,-0.0237 0.002,-0.88 z M 27.2,288.79999 c 0,-0.088 -0.072,-0.16 -0.16,-0.16 -0.088,0 -0.16,0.072 -0.16,0.16 0,0.088 0.072,0.16 0.16,0.16 0.088,0 0.16,-0.072 0.16,-0.16 z m 84.76185,-8.32 c 0.0535,-6.32257 -0.0239,-8.48 -0.30422,-8.48 -0.26309,0 -0.24412,-0.16258 0.0632,-0.54142 0.26664,-0.32872 0.28786,-0.45062 0.054,-0.31029 -0.28096,0.16861 -0.4178,-0.35582 -0.50583,-1.93857 -0.0664,-1.19334 -0.0827,1.07028 -0.0362,5.03028 0.0465,3.96 0.0941,8.892 0.10584,10.96 0.0117,2.068 0.14064,3.76 0.28641,3.76 0.14577,0 0.29733,-3.816 0.33681,-8.48 z m -85.08185,7.36 c 0,-0.088 -0.072,-0.16 -0.16,-0.16 -0.088,0 -0.16,0.072 -0.16,0.16 0,0.088 0.072,0.16 0.16,0.16 0.088,0 0.16,-0.072 0.16,-0.16 z m -1.11141,-2.76538 c -0.07225,-1.43296 -0.266592,-2.74062 -0.431873,-2.9059 -0.336074,-0.33607 -0.243374,4.63038 0.0967,5.18063 0.408483,0.66094 0.464144,0.28318 0.335175,-2.27473 z m 1.11141,1.80538 c 0,-0.088 -0.072,-0.16 -0.16,-0.16 -0.088,0 -0.16,0.072 -0.16,0.16 0,0.088 0.072,0.16 0.16,0.16 0.088,0 0.16,-0.072 0.16,-0.16 z m 0.32,-1.28 c 0,-0.088 -0.072,-0.16 -0.16,-0.16 -0.088,0 -0.16,0.072 -0.16,0.16 0,0.088 0.072,0.16 0.16,0.16 0.088,0 0.16,-0.072 0.16,-0.16 z m 0,-1.28 c 0,-0.088 -0.072,-0.16 -0.16,-0.16 -0.088,0 -0.16,0.072 -0.16,0.16 0,0.088 0.072,0.16 0.16,0.16 0.088,0 0.16,-0.072 0.16,-0.16 z m 102.37174,-1.32092 c 0.24202,-0.2129 0.19185,-7.14969 -0.0517,-7.15442 -0.132,-0.003 -3.12,-0.005 -6.64,-0.005 h -6.4 v 3.80991 3.80992 l 6.48,-0.17243 c 3.564,-0.0948 6.53928,-0.22458 6.61174,-0.28832 z M 115.52,282.89888 c 0,-0.16561 -0.144,-0.39011 -0.32,-0.49889 -0.176,-0.10877 -0.32,0.0267 -0.32,0.30112 0,0.27438 0.144,0.49888 0.32,0.49888 0.176,0 0.32,-0.1355 0.32,-0.30111 z m 0,-3.07777 c 0,-0.95762 -0.144,-1.74112 -0.32,-1.74112 -0.17812,0 -0.32,0.85963 -0.32,1.93889 0,1.2111 0.12012,1.86465 0.32,1.74111 0.176,-0.10877 0.32,-0.98127 0.32,-1.93888 z m -88.32,1.29888 c 0,-0.088 -0.072,-0.16 -0.16,-0.16 -0.088,0 -0.16,0.072 -0.16,0.16 0,0.088 0.072,0.16 0.16,0.16 0.088,0 0.16,-0.072 0.16,-0.16 z m 86.52651,-2.46027 c 0.18196,-2.18188 0.13612,-2.66639 -0.27399,-2.8959 -0.62956,-0.35232 -0.63708,-0.88383 -0.0125,-0.88383 0.34667,0 0.48,-0.35555 0.48,-1.28 0,-1.06666 -0.10667,-1.28 -0.64,-1.28 -0.60564,0 -0.64,0.21334 -0.64,3.97383 0,2.18561 0.0874,4.20161 0.19424,4.48 0.4078,1.06271 0.68139,0.41446 0.89227,-2.1141 z m 1.63349,-1.21973 c 0.10877,-0.176 0.0453,-0.32 -0.14111,-0.32 -0.18639,0 -0.33889,0.144 -0.33889,0.32 0,0.176 0.0635,0.32 0.14111,0.32 0.0776,0 0.23012,-0.144 0.33889,-0.32 z m 14.37092,-3.92 c 0.2274,-1.51912 0.18694,-7.99568 -0.0459,-7.34475 -0.11867,0.33178 -1.46064,0.37094 -6.67678,0.19483 L 116.48,266.14966 v 4.36517 4.36516 h 6.52367 6.52366 z M 57.2,274.24436 c 21.556141,-0.004 24.4,-0.0607 24.4,-0.48805 0,-0.42755 -2.913018,-0.48237 -25.105773,-0.47246 -15.97583,0.007 -25.175999,0.12485 -25.298885,0.32368 -0.331368,0.53616 0.205173,1.01673 0.920773,0.82471 C 32.492253,274.33131 43.78,274.24677 57.2,274.24436 Z m 56.72,-5.60437 c 0,-1.92 -0.096,-2.4 -0.48,-2.4 -0.264,0 -0.48,-0.216 -0.48,-0.48 0,-0.264 0.216,-0.48 0.48,-0.48 0.34667,0 0.48,-0.35555 0.48,-1.28 0,-1.06666 -0.10667,-1.28 -0.64,-1.28 -0.60718,0 -0.64,0.21334 -0.64,4.16 0,3.94667 0.0328,4.16 0.64,4.16 0.58311,0 0.64,-0.21333 0.64,-2.4 z m 1.6,0.64 c 0,-0.968 -0.144,-1.76 -0.32,-1.76 -0.176,0 -0.32,0.792 -0.32,1.76 0,0.968 0.144,1.76 0.32,1.76 0.176,0 0.32,-0.792 0.32,-1.76 z m -3.61417,-0.88 c -0.0763,-0.396 -0.13867,-0.072 -0.13867,0.72 0,0.792 0.0624,1.116 0.13867,0.72 0.0763,-0.396 0.0763,-1.044 0,-1.44 z M 96.64,264.38399 c 0,-3.33579 -0.218899,-3.904 -1.504,-3.904 -0.708128,0 -0.736,0.0993 -0.736,2.62249 0,2.41001 0.06967,2.69521 0.859869,3.52 0.472928,0.49364 0.976928,0.89751 1.12,0.89751 0.143072,0 0.260131,-1.4112 0.260131,-3.136 z m 14.62632,-1.10026 c -0.0765,-0.39806 -0.14207,-0.14774 -0.14562,0.55626 -0.004,0.704 0.0591,1.02968 0.13917,0.72374 0.0801,-0.30595 0.083,-0.88195 0.006,-1.28 z m -18.209597,-0.96374 c -0.08982,-1.5601 -0.15856,-1.68713 -0.963216,-1.77995 -0.814982,-0.094 -0.860374,-0.0318 -0.763606,1.04662 0.0987,1.09998 0.934832,2.41333 1.536419,2.41333 0.15792,0 0.2436,-0.756 0.190403,-1.68 z m -2.496723,0.88 c 0,-0.088 -0.072,-0.16 -0.16,-0.16 -0.088,0 -0.16,0.072 -0.16,0.16 0,0.088 0.072,0.16 0.16,0.16 0.088,0 0.16,-0.072 0.16,-0.16 z m -0.106666,-1.01333 C 90.336,262.06933 90.24,262.16533 90.24,262.39999 c 0,0.23467 0.096,0.33067 0.213334,0.21334 0.117332,-0.11734 0.117332,-0.30934 0,-0.42667 z m 20.812986,-2.10293 c -0.0765,-0.39806 -0.14207,-0.14774 -0.14562,0.55626 -0.004,0.704 0.0591,1.02968 0.13917,0.72374 0.0801,-0.30595 0.083,-0.88195 0.006,-1.28 z M 95.04,259.51999 c 0,-0.176 -0.144,-0.32 -0.32,-0.32 -0.176,0 -0.32,0.144 -0.32,0.32 0,0.176 0.144,0.32 0.32,0.32 0.176,0 0.32,-0.144 0.32,-0.32 z m 0.764918,-2.27661 c -0.48656,-0.50786 -1.001715,-0.92339 -1.144787,-0.92339 -0.638646,0 -0.166067,1.50698 0.779869,2.48687 l 1.04,1.07734 0.104787,-0.85872 c 0.07285,-0.59694 -0.164893,-1.14021 -0.779869,-1.7821 z m 21.475082,1.1326 c 1.584,-0.27268 3.34183,-0.57667 3.90628,-0.67552 1.43066,-0.25058 2.18095,-1.12138 1.67046,-1.9388 -0.32532,-0.52091 -1.02977,-0.68122 -4.42185,-1.00622 -2.21919,-0.21262 -4.47043,-0.46316 -5.00276,-0.55675 l -0.96787,-0.17016 0.0551,2.50573 c 0.0303,1.37815 0.0699,2.53813 0.0879,2.57773 0.018,0.0396 0.42875,0.002 0.91275,-0.0841 0.484,-0.0859 2.176,-0.37922 3.76,-0.6519 z m -6.01417,-1.81599 c -0.0763,-0.396 -0.13867,-0.072 -0.13867,0.72 0,0.792 0.0624,1.116 0.13867,0.72 0.0763,-0.396 0.0763,-1.044 0,-1.44 z M 96.64,253.3775 c 0,-2.75728 -0.05412,-2.99898 -0.859869,-3.84 -0.472928,-0.49363 -0.976928,-0.89751 -1.12,-0.89751 -0.143072,0 -0.260131,1.32413 -0.260131,2.94249 0,2.75729 0.05412,2.99899 0.859869,3.84 0.472928,0.49364 0.976928,0.89751 1.12,0.89751 0.143072,0 0.260131,-1.32412 0.260131,-2.94249 z m -3.52,1.96514 c 0,-0.18554 -0.431334,-0.79754 -0.958518,-1.36 l -0.958522,-1.02265 -0.0016,0.86186 c -9.6e-4,0.52905 0.273149,1.05421 0.709722,1.36 0.83047,0.58168 1.208796,0.63201 1.208796,0.16079 z M 67.2,250.15842 v -2.96158 l -12.08,-12.0615 -12.08,-12.06149 -6.867373,-0.80289 c -3.777056,-0.44159 -6.910878,-0.75938 -6.96405,-0.70621 -0.05317,0.0532 -0.189832,3.92916 -0.303687,8.61329 -0.113856,4.68414 -0.300228,8.459 -0.414162,8.38859 -0.179633,-0.11103 -0.185585,0.78527 -0.0378,5.69225 0.01538,0.51065 0.164863,0.81373 0.346105,0.70171 0.212043,-0.13105 0.212043,0.0842 0,0.64195 -0.175468,0.46152 -0.319033,2.34174 -0.319033,4.17829 v 3.33916 H 47.84 67.2 Z m -38.4,-6.79843 c 0,-0.088 0.072,-0.16 0.16,-0.16 0.088,0 0.16,0.072 0.16,0.16 0,0.088 -0.072,0.16 -0.16,0.16 -0.088,0 -0.16,-0.072 -0.16,-0.16 z m 0,-1.6 c 0,-0.088 0.072,-0.16 0.16,-0.16 0.088,0 0.16,0.072 0.16,0.16 0,0.088 -0.072,0.16 -0.16,0.16 -0.088,0 -0.16,-0.072 -0.16,-0.16 z m -2.160941,7.44 c 0.08432,-1.892 0.02903,-3.44 -0.122876,-3.44 -0.151901,0 -0.276183,1.608 -0.276183,3.57334 0,1.96533 0.05529,3.51333 0.122876,3.44 0.06758,-0.0733 0.191864,-1.68134 0.276183,-3.57334 z m 41.754051,0.16 c -0.06904,-0.66 -0.125523,-0.12 -0.125523,1.2 0,1.32 0.05648,1.86 0.125523,1.2 0.06904,-0.66 0.06904,-1.74 0,-2.4 z m 4.24689,3.18798 c 0,-0.13862 -0.701757,-0.94324 -1.559462,-1.78805 l -1.55946,-1.53601 -0.220006,1.4671 c -0.121002,0.80691 -0.130746,1.61153 -0.02166,1.78804 0.232451,0.37612 3.360582,0.44026 3.360582,0.0689 z m 12.08199,-1.22225 c -0.03365,-0.77315 -0.19286,-1.40573 -0.353801,-1.40573 -0.160941,0 -0.777623,0.51426 -1.370403,1.14279 -0.592784,0.62853 -1.077786,0.99975 -1.077786,0.82494 0,-0.17482 0.597075,-0.82893 1.326832,-1.45357 1.120058,-0.95873 1.263558,-1.21196 0.920816,-1.62494 -0.223306,-0.26907 -0.604381,-0.48922 -0.846829,-0.48922 -0.242451,0 -0.440819,-0.18775 -0.440819,-0.41722 0,-0.42911 -2.158672,-2.68989 -2.423293,-2.53793 -0.08126,0.0467 -0.613264,-0.44825 -1.182227,-1.09982 -1.081334,-1.23833 -2.456778,-2.66511 -2.569024,-2.66491 -0.036,7e-5 -0.06546,1.50802 -0.06546,3.35102 v 3.35089 l 2.223222,2.24073 2.223223,2.24073 1.848361,-0.026 1.848365,-0.026 -0.06118,-1.40572 z M 83.52,251.67999 c 0,-0.088 0.072,-0.16 0.16,-0.16 0.088,0 0.16,0.072 0.16,0.16 0,0.088 -0.072,0.16 -0.16,0.16 -0.088,0 -0.16,-0.072 -0.16,-0.16 z m -2.264221,-4.88 -0.775779,-0.88 0.88,0.77578 c 0.822493,0.72509 1.026749,0.98422 0.775779,0.98422 -0.05732,0 -0.453318,-0.396 -0.88,-0.88 z m 11.859322,2.6652 c 0.0037,-1.9147 -0.124659,-2.67796 -0.524698,-3.12 C 91.553373,245.19929 91.2,245.60725 91.2,247.9504 c 0,1.784 0.118742,2.29786 0.64,2.76959 0.352,0.31856 0.64,0.7284 0.64,0.91076 0,0.18236 -0.204227,0.0523 -0.453837,-0.28909 -0.249609,-0.34136 -0.562176,-0.51232 -0.694595,-0.3799 -0.132416,0.13242 0.09836,0.60173 0.512835,1.04292 1.022531,1.08844 1.264618,0.60463 1.270698,-2.53949 z m -65.374517,-0.1052 c -0.08049,-0.308 -0.146343,-0.056 -0.146343,0.56 0,0.616 0.06585,0.868 0.146343,0.56 0.08049,-0.308 0.08049,-0.812 0,-1.12 z m 68.899416,-0.88 c 0,-0.088 -0.072,-0.16 -0.16,-0.16 -0.088,0 -0.16,0.072 -0.16,0.16 0,0.088 0.072,0.16 0.16,0.16 0.088,0 0.16,-0.072 0.16,-0.16 z m -11.967709,-1.24988 c -0.02298,-0.54785 -1.200173,-1.88608 -4.081619,-4.64 -2.227133,-2.12857 -4.152765,-3.87012 -4.279184,-3.87012 -0.126419,0 -0.06947,0.19325 0.126554,0.42945 0.196022,0.23619 0.262537,0.52331 0.147811,0.63804 -0.280826,0.28082 0.84256,1.49251 1.383744,1.49251 0.23672,0 0.430403,0.16543 0.430403,0.36761 0,0.35173 5.714349,6.26346 6.112291,6.32342 0.105763,0.0159 0.177763,-0.31748 0.16,-0.74091 z M 77.76,240.79999 c 0,-0.088 0.072,-0.16 0.16,-0.16 0.088,0 0.16,0.072 0.16,0.16 0,0.088 -0.072,0.16 -0.16,0.16 -0.088,0 -0.16,-0.072 -0.16,-0.16 z m -2.88,4 v -1.28 h -1.504944 -1.504944 l 1.249888,1.28 c 0.687437,0.704 1.364662,1.28 1.504944,1.28 0.140282,0 0.255056,-0.576 0.255056,-1.28 z m -48,0.48 c 0,-0.088 -0.072,-0.16 -0.16,-0.16 -0.088,0 -0.16,0.072 -0.16,0.16 0,0.088 0.072,0.16 0.16,0.16 0.088,0 0.16,-0.072 0.16,-0.16 z m 57.803197,-2.8 -0.09225,-2.32 -2.795788,-2.88 c -1.537684,-1.584 -3.564247,-3.96149 -4.503479,-5.28331 -1.896285,-2.66875 -4.981997,-5.75668 -5.752528,-5.75668 -0.414189,0 -0.499129,0.47662 -0.498998,2.8 l 1.57e-4,2.79999 1.546534,1.33184 c 1.667446,1.43596 2.430368,1.43584 2.169936,-3.2e-4 -0.107619,-0.59352 -0.01723,-0.85152 0.29831,-0.85152 0.476,0 0.644877,0.53423 0.901578,2.85203 0.14513,1.31041 0.45137,1.70767 4.255238,5.52 2.254372,2.25939 4.203408,4.10797 4.331194,4.10797 0.127786,0 0.190829,-1.044 0.140093,-2.32 z m -56.944601,1.3 c -0.102152,-0.25527 -0.177978,-0.17944 -0.193333,0.19334 -0.01389,0.33733 0.06174,0.52633 0.16807,0.42 0.106334,-0.10633 0.117702,-0.38234 0.02526,-0.61334 z m 47.078127,-2.58 -0.09672,-1.68 -2,-0.0953 -2,-0.0953 v 1.56193 c 0,0.85907 0.096,1.65794 0.213334,1.77527 0.117332,0.11733 1.060858,0.21333 2.096724,0.21333 h 1.883388 z M 26.88,240.95999 c 0,-0.528 -0.11906,-0.96 -0.264578,-0.96 -0.145518,0 -0.201174,0.432 -0.123681,0.96 0.07749,0.528 0.196555,0.96 0.264579,0.96 0.06802,0 0.12368,-0.432 0.12368,-0.96 z m 40.64,-5.365 v -3.125 L 63.76,228.73714 60,225.0043 56.24,224.56685 c -2.068,-0.2406 -3.762477,-0.35857 -3.765504,-0.26215 -0.008,0.25333 14.519158,14.38322 14.805504,14.40067 0.132,0.008 0.24,-1.39162 0.24,-3.11038 z m 5.033334,1.97167 c -0.106336,-0.10633 -0.382336,-0.1177 -0.613334,-0.0252 -0.255274,0.10215 -0.17945,0.17798 0.193334,0.19333 0.337332,0.0139 0.526333,-0.0617 0.42,-0.16807 z m -3.565046,-2.60505 c -0.349568,-0.34956 -0.589274,0.20636 -0.338298,0.78458 0.237978,0.54828 0.255229,0.54778 0.387821,-0.0112 0.07632,-0.32177 0.05403,-0.66977 -0.04952,-0.77333 z m -42.214955,0.34505 C 26.656,235.18933 26.56,235.28533 26.56,235.51999 c 0,0.23467 0.096,0.33067 0.213333,0.21334 0.117334,-0.11734 0.117334,-0.30934 0,-0.42667 z M 72.96,235.19999 c 0,-0.176 -0.368499,-0.32 -0.818886,-0.32 -0.464436,0 -0.73328,0.13851 -0.621114,0.32 0.108774,0.176 0.477274,0.32 0.818886,0.32 0.341613,0 0.621114,-0.144 0.621114,-0.32 z m -46.30728,-1.6 c -0.09205,-0.352 -0.222569,-0.64 -0.290042,-0.64 -0.06747,0 -0.122678,0.288 -0.122678,0.64 0,0.352 0.130519,0.64 0.290042,0.64 0.159523,0 0.214728,-0.288 0.122678,-0.64 z m 42.30728,0.32 c -0.108774,-0.176 -0.34177,-0.32 -0.51777,-0.32 -0.176,0 -0.231004,0.144 -0.12223,0.32 0.108774,0.176 0.34177,0.32 0.51777,0.32 0.176,0 0.231004,-0.144 0.12223,-0.32 z m 2.72,-0.16 c -0.219101,-0.264 -0.524733,-0.48 -0.679181,-0.48 -0.154451,0 -0.280819,0.216 -0.280819,0.48 0,0.2759 0.288797,0.48 0.679181,0.48 0.567437,0 0.613641,-0.079 0.280819,-0.48 z m -45.221404,-1.82 c -0.102152,-0.25527 -0.177978,-0.17944 -0.193333,0.19334 -0.01389,0.33733 0.06174,0.52633 0.16807,0.42 0.106334,-0.10633 0.117702,-0.38234 0.02526,-0.61334 z m 39.735961,-3.66563 C 64.015984,226.08669 62.996819,225.28 62.411539,225.28 c -0.688646,0 -0.285254,0.51793 2.87368,3.68965 3.101322,3.11388 3.691671,3.58116 3.783018,2.99437 0.0811,-0.52098 -0.639351,-1.446 -2.87368,-3.68966 z M 69.12,227.68 c 0,-1.50266 -0.08705,-1.76 -0.595338,-1.76 -0.327433,0 -1.299433,-0.0898 -2.16,-0.19961 L 64.8,225.52079 l 1.909984,1.9596 c 1.05049,1.07778 2.02249,1.95961 2.16,1.95961 0.137507,0 0.250016,-0.792 0.250016,-1.76 z m 78.61333,-34.61334 C 147.616,192.94933 147.52,193.04533 147.52,193.28 c 0,0.23466 0.096,0.33066 0.21333,0.21333 0.11734,-0.11733 0.11734,-0.30933 0,-0.42667 z M 37.329216,192.51547 c 0.02707,-0.0195 0.153571,-1.79947 0.281117,-3.95547 l 0.231901,-3.92 H 31.699861 25.55749 l 0.101255,0.85532 c 0.09215,0.77841 0.245112,0.86718 1.701255,0.9873 0.88,0.0726 1.672,0.20357 1.76,0.29108 0.088,0.0875 0.186739,1.40722 0.219419,2.9327 0.03268,1.52548 0.06868,2.88038 0.08,3.0109 0.01546,0.17827 7.652827,-0.0166 7.909797,-0.20183 z M 39.68,191.8773 c 0,-0.5547 0.861632,-0.72269 3.576477,-0.69729 l 2.136477,0.02 0.103523,-2.18803 c 0.05694,-1.20341 0.04352,-2.24741 -0.02982,-2.32 C 45.393337,186.61938 43.989338,186.56 42.34667,186.56 H 39.36 l -0.0044,2.16 c -0.0026,1.188 -0.0912,2.484 -0.197325,2.88 -0.115769,0.432 -0.05002,0.72 0.164371,0.72 0.196512,0 0.357306,-0.19922 0.357306,-0.4427 z M 50.742256,191.04 H 54.4 v -3.21019 -3.21019 l -3.538493,0.0438 c -3.409245,0.0422 -3.536525,0.0689 -3.484579,0.73018 0.09687,1.2332 -0.09593,1.35128 -0.336928,0.20637 l -0.23575,-1.12 -0.04213,1.32082 c -0.04269,1.33866 0.571235,2.29118 1.21879,1.89097 0.180922,-0.11182 0.462243,-0.66421 0.625159,-1.22755 0.195308,-0.67536 0.306035,-0.80325 0.325065,-0.37545 0.04267,0.95937 -0.903814,2.15299 -1.569241,1.97898 -0.468874,-0.12261 -0.596602,0.13655 -0.762356,1.54686 -0.200864,1.70903 0.152266,3.70361 0.379824,2.14537 0.102013,-0.69854 0.214164,-0.72 3.76289,-0.72 z M 139.6,191.76 c -0.044,-0.22 0.208,-0.4 0.56,-0.4 0.37052,0 0.64,-0.21334 0.64,-0.50667 0,-0.27867 -0.1128,-0.45867 -0.25068,-0.4 -0.13786,0.0587 -0.92933,0.39467 -1.7588,0.74667 -1.81707,0.77111 -1.94112,1.19427 -0.31052,1.05931 0.75043,-0.0621 1.17003,-0.24917 1.12,-0.49931 z m 12.08,-0.88 c 0,-0.64952 -2.84322,-0.65734 -3.69884,-0.0102 -0.56623,0.42827 -0.43014,0.47072 1.53884,0.48 1.71119,0.008 2.16,-0.0896 2.16,-0.46982 z m 7.68,0.16 c 0,-0.176 -0.684,-0.32126 -1.52,-0.32278 -0.836,-0.002 -2.276,-0.0936 -3.2,-0.20458 -1.42551,-0.17122 -1.68,-0.12233 -1.68,0.32278 0,0.45113 0.44804,0.52458 3.2,0.52458 1.92,0 3.2,-0.128 3.2,-0.32 z M 66.6,188.48 c 0.02198,-1.408 0.058,-2.812 0.08,-3.12 0.03643,-0.51004 -0.450576,-0.56781 -5.457866,-0.64747 l -5.497868,-0.0875 -0.102132,3.07554 c -0.05617,1.69154 -0.04213,3.1349 0.0312,3.20746 0.07333,0.0726 2.557332,0.13193 5.52,0.13193 H 66.56 Z m 4.62496,1.68 c 0.108435,-0.484 0.326374,-1.384 0.48431,-2 0.15794,-0.616 0.287965,-1.228 0.288944,-1.36 9.83e-4,-0.132 -0.862214,-0.24 -1.918214,-0.24 h -1.92 v 2.24 2.24 h 1.433904 c 1.30313,0 1.451885,-0.0803 1.631056,-0.88 z M 83.84,190.44515 c 0,-0.48432 -0.681594,-0.78938 -3.668083,-1.64175 -2.017447,-0.5758 -3.771088,-1.06412 -3.896979,-1.08515 -0.215885,-0.0361 -0.345248,0.32737 -0.869104,2.44175 l -0.218026,0.88 h 4.326096 c 4.003309,0 4.326096,-0.0444 4.326096,-0.59485 z m 2.72,0.27485 c -0.108774,-0.176 -0.55777,-0.32 -0.99777,-0.32 -0.451849,0 -0.713932,0.13926 -0.60223,0.32 0.108774,0.176 0.55777,0.32 0.99777,0.32 0.451849,0 0.713932,-0.13926 0.60223,-0.32 z m 56.16,0 c 0,-0.176 -0.144,-0.32 -0.32,-0.32 -0.176,0 -0.32,0.144 -0.32,0.32 0,0.176 0.144,0.32 0.32,0.32 0.176,0 0.32,-0.144 0.32,-0.32 z m 1.92,-1.6 c 0,-0.7684 -0.0844,-0.77829 -1.29589,-0.15179 -1.22557,0.63377 -1.19047,0.79179 0.17589,0.79179 0.90667,0 1.12,-0.12191 1.12,-0.64 z m 7.04,0.32 c 0,-0.176 -0.1355,-0.32 -0.30111,-0.32 -0.16562,0 -0.39012,0.144 -0.49889,0.32 -0.10877,0.176 0.0267,0.32 0.30111,0.32 0.27439,0 0.49889,-0.144 0.49889,-0.32 z m 7.04,0.16856 c 0,-0.13646 -1.30565,-3.02017 -1.51267,-3.34095 -0.0942,-0.14599 -3.54956,1.47872 -4.1343,1.94395 -0.20183,0.16058 -0.29303,0.57467 -0.20267,0.9202 0.1477,0.56484 0.45115,0.62824 3.00696,0.62824 1.56347,0 2.84268,-0.0682 2.84268,-0.15144 z m -61.44,-1.77861 c 0,-0.86442 -0.162013,-1.35221 -0.491066,-1.47848 -0.270086,-0.10364 -2.034086,-0.0631 -3.92,0.09 L 89.44,186.72 l 3.52,1.16784 c 1.936,0.64232 3.7,1.18232 3.92,1.2 0.259168,0.0208 0.4,-0.42204 0.4,-1.25789 z m 37.85954,-0.18874 c 1.37832,-1.53983 1.42685,-1.72122 0.46046,-1.7212 -0.87831,1e-5 -2.62073,2.0517 -2.34738,2.76402 0.24935,0.64981 0.49173,0.51585 1.88692,-1.04282 z m 4.14994,0.67879 c 1.27602,-0.54151 1.50831,-0.77543 1.50932,-1.52 0.002,-1.3322 -0.72667,-1.08607 -2.28131,0.77076 -0.76015,0.90793 -1.23676,1.59193 -1.05912,1.52 0.17764,-0.0719 1.00164,-0.41876 1.83111,-0.77076 z m -24.49909,-0.16368 c 0.11336,-0.69456 -0.96506,-1.84117 -1.85035,-1.96737 -1.17207,-0.16709 -1.23,0.9663 -0.0961,1.87973 0.99655,0.80277 1.82365,0.84002 1.94644,0.0876 z M 149.44,187.36065 c 2.27979,-1.21027 2.34919,-1.27918 1.3856,-1.37574 -1.42596,-0.14289 -4.2656,1.32642 -4.2656,2.20714 0,0.36371 0.108,0.61209 0.24,0.55198 0.132,-0.0601 1.32,-0.68264 2.64,-1.38338 z m -6.22116,-0.95048 c 0.59497,-0.45001 0.58406,-0.47025 -0.25884,-0.48 -0.57341,-0.007 -0.88,0.15705 -0.88,0.46983 0,0.60572 0.34735,0.60882 1.13884,0.0102 z M 22.620584,185.04 c -0.08049,-0.308 -0.146343,-0.056 -0.146343,0.56 0,0.616 0.06585,0.868 0.146343,0.56 0.08049,-0.308 0.08049,-0.812 0,-1.12 z m 49.940581,0 c 0.0974,-0.2948 -0.464007,-0.4 -2.134499,-0.4 -1.831258,0 -2.266666,0.095 -2.266666,0.49462 0,0.40618 0.381648,0.4777 2.134496,0.4 1.351418,-0.0599 2.182986,-0.24137 2.266669,-0.49462 z M 93.2,185.38931 c 2.244,-0.11444 4.08,-0.32986 4.08,-0.4787 0,-0.14884 -2.736,-0.27061 -6.08,-0.27061 -3.344,0 -6.08,0.12 -6.08,0.26666 0,0.77665 1.066438,0.84036 8.08,0.48265 z M 40,184.96 c 0,-0.176 -0.216,-0.32 -0.48,-0.32 -0.264,0 -0.48,0.144 -0.48,0.32 0,0.176 0.216,0.32 0.48,0.32 0.264,0 0.48,-0.144 0.48,-0.32 z m 4.8,0 c 0,-0.17778 -0.853334,-0.32 -1.92,-0.32 -1.066666,0 -1.92,0.14222 -1.92,0.32 0,0.17778 0.853334,0.32 1.92,0.32 1.066666,0 1.92,-0.14222 1.92,-0.32 z m 67.87322,-0.41479 c -0.41072,-0.41071 -0.82722,-0.0933 -0.52315,0.39872 0.11778,0.19057 0.36075,0.2559 0.53992,0.14517 0.21856,-0.13508 0.21304,-0.31407 -0.0168,-0.54389 z m 7.00678,0.0606 c 0,-0.15717 -0.288,-0.28576 -0.64,-0.28576 -0.62374,0 -0.83392,0.33941 -0.44871,0.72461 0.25635,0.25636 1.08871,-0.0792 1.08871,-0.43885 z m 66.17979,-0.0494 C 185.943,184.12422 185.74481,184 184.9722,184 c -0.90527,0 -0.96299,0.0593 -0.64187,0.6593 0.41156,0.769 1.37401,0.7042 1.52946,-0.10298 z M 125.76,184.64 c 0,-0.176 -0.144,-0.32 -0.32,-0.32 -0.176,0 -0.32,0.144 -0.32,0.32 0,0.176 0.144,0.32 0.32,0.32 0.176,0 0.32,-0.144 0.32,-0.32 z m 3.52,0 c 0,-0.176 -0.216,-0.32 -0.48,-0.32 -0.264,0 -0.48,0.144 -0.48,0.32 0,0.176 0.216,0.32 0.48,0.32 0.264,0 0.48,-0.144 0.48,-0.32 z m 3.52,0 c 0,-0.176 -0.216,-0.32 -0.48,-0.32 -0.264,0 -0.48,0.144 -0.48,0.32 0,0.176 0.216,0.32 0.48,0.32 0.264,0 0.48,-0.144 0.48,-0.32 z m 4.96,0 c 0.1117,-0.18074 -0.15038,-0.32 -0.60223,-0.32 -0.44,0 -0.889,0.144 -0.99777,0.32 -0.1117,0.18074 0.15038,0.32 0.60223,0.32 0.44,0 0.889,-0.144 0.99777,-0.32 z m 9.12,0 c 0.3314,-0.21417 -0.33732,-0.31172 -2.16,-0.3151 -1.54993,-0.003 -2.64,0.12722 -2.64,0.3151 0,0.41261 4.16153,0.41261 4.8,0 z m 7.84,0 c 0.11793,-0.19081 -0.26964,-0.32 -0.96,-0.32 -0.69036,0 -1.07793,0.12919 -0.96,0.32 0.10877,0.176 0.54077,0.32 0.96,0.32 0.41923,0 0.85123,-0.144 0.96,-0.32 z m -81.76,-0.96 c 0,-0.176 -0.684,-0.30297 -1.52,-0.28214 -1.356784,0.0338 -1.416915,0.0641 -0.56,0.28214 1.415437,0.36016 2.08,0.36016 2.08,0 z m 10.88,0 c 0,-0.17813 -0.859629,-0.32 -1.938886,-0.32 -1.211104,0 -1.86465,0.12011 -1.741114,0.32 0.108774,0.176 0.981274,0.32 1.938886,0.32 0.957613,0 1.741114,-0.144 1.741114,-0.32 z m 13.413334,-0.19639 c 0.07333,-0.068 -2.635164,-0.12361 -6.018886,-0.12361 -3.990506,0 -6.083222,0.11163 -5.955859,0.31771 0.183382,0.29672 11.645744,0.11093 11.974745,-0.1941 z M 22.61193,182.64 c -0.08877,-0.22 -0.161404,-0.04 -0.161404,0.4 0,0.44 0.07263,0.62 0.161404,0.4 0.08877,-0.22 0.08877,-0.58 0,-0.8 z m 2.279967,-0.58761 c 0.06001,-1.06102 -0.02328,-1.55369 -0.24,-1.41975 -0.376268,0.23255 -0.461212,3.0481 -0.0919,3.04599 0.132,-6.4e-4 0.281354,-0.73256 0.331897,-1.62624 z M 37.66728,183.04 c 0.09205,-0.352 0.287149,-0.64 0.433555,-0.64 0.146407,0 0.654426,-0.35981 1.128931,-0.79957 0.804176,-0.74528 1.041632,-0.79089 3.497952,-0.67188 1.449364,0.0702 2.953962,0.29827 3.343549,0.50677 0.389587,0.2085 1.062298,0.29026 1.494909,0.18168 0.540371,-0.13562 0.769574,-0.069 0.732282,0.21279 -0.24065,1.81845 -0.188106,1.85021 3.061542,1.85021 h 3.04 l 0.04,-3.52 c 0.02198,-1.936 0.058,-3.772 0.08,-4.08 0.03664,-0.5129 -0.55216,-0.5741 -7,-0.72754 -3.872,-0.0921 -10.424,-0.16414 -14.56,-0.16 l -7.52,0.008 0.16,0.96 c 0.088,0.528 0.16,2.43612 0.16,4.24028 v 3.28027 l 5.869958,-2.7e-4 c 5.60072,-2.6e-4 5.877636,-0.0296 6.037322,-0.64028 z M 66.56,182.88 v -0.8 h 3.522592 3.522589 l 0.540752,-1.36 c 0.297414,-0.748 0.992057,-2.26 1.543657,-3.36 l 1.002906,-2 H 66.18625 55.68 v 4.16 4.16 h 5.44 5.44 z m 67.2,0.48 c 0,-0.176 -0.288,-0.32 -0.64,-0.32 -0.352,0 -0.64,0.144 -0.64,0.32 0,0.176 0.288,0.32 0.64,0.32 0.352,0 0.64,-0.144 0.64,-0.32 z m 5.12,0 c 0,-0.176 -0.288,-0.32 -0.64,-0.32 -0.352,0 -0.64,0.144 -0.64,0.32 0,0.176 0.288,0.32 0.64,0.32 0.352,0 0.64,-0.144 0.64,-0.32 z m 10.71957,6.4e-4 c 0.12821,-0.20745 -1.13626,-0.31897 -3.58068,-0.3158 -2.07839,0.003 -3.59941,0.11887 -3.38005,0.25817 0.60109,0.3817 6.72909,0.43243 6.96073,0.0576 z M 83.84,178.72 v -3.36 h -1.043024 c -0.731965,0 -1.180275,0.21472 -1.503235,0.72 -0.551402,0.86266 -3.213741,5.74662 -3.213741,5.89548 0,0.0575 1.296,0.10452 2.88,0.10452 h 2.88 z m 13.44,3.08126 c 0,-0.1533 -1.787053,-1.6653 -3.971226,-3.36 L 89.337546,175.36 H 87.228774 85.12 v 3.36 3.36 h 6.08 c 3.344,0 6.08,-0.12543 6.08,-0.27874 z M 119.18087,178.64 c -0.11976,-1.716 -0.32184,-3.23419 -0.44906,-3.37376 -0.12722,-0.13956 -1.39973,-0.21156 -2.82778,-0.16 l -2.59647,0.0938 1.76523,3.28 1.76522,3.28 h 1.2803 1.2803 z m 8.59255,-0.24 1.1455,-3.36 h -2.40248 -2.40249 l 0.197,1.84 c 0.55371,5.17172 0.46805,4.88 1.43303,4.88 0.83638,0 0.94554,-0.18073 2.02944,-3.36 z m 2.73593,2.12287 c 0.43949,-1.46688 0.49317,-2.86511 0.0932,-2.42687 -0.2269,0.2486 -1.32253,3.19864 -1.32253,3.561 0,0.0566 0.19321,0.103 0.42935,0.103 0.23614,0 0.59614,-0.55671 0.8,-1.23713 z m 7.91103,-1.96694 c 1.57279,-1.76223 2.90935,-3.35142 2.97013,-3.53153 0.0719,-0.21303 -1.03642,-0.29548 -3.17158,-0.23594 l -3.28209,0.0915 -0.85652,2.56 c -1.5088,4.50958 -1.51293,4.32 0.094,4.32 1.35259,0 1.45637,-0.0783 4.2461,-3.20407 z m 13.20256,-0.23593 -0.10294,-3.44 -0.84823,-0.0982 c -0.72264,-0.0837 -1.27903,0.39016 -3.7577,3.2 -1.60021,1.814 -2.91051,3.40619 -2.91177,3.53819 -0.001,0.132 1.73602,0.24 3.86064,0.24 h 3.86294 z m 2.93706,2.30845 c 0,-0.21385 -0.396,-1.23474 -0.88,-2.26864 l -0.88,-1.87981 -0.0957,2.20825 c -0.1243,2.86747 -0.005,3.17663 1.04493,2.69844 0.44594,-0.20318 0.81079,-0.54439 0.81079,-0.75824 z m -10.92659,-2.60639 c 1.43363,-1.61586 2.60659,-3.01986 2.60659,-3.12 0,-0.98866 -3.0347,1.64741 -5.49007,4.76891 -0.6072,0.77193 -0.59405,2.26129 0.014,1.58254 0.14461,-0.16143 1.43589,-1.61558 2.86951,-3.23145 z M 122.04,179.56 c -0.11244,-0.56222 -0.27115,-0.95552 -0.35268,-0.874 -0.0815,0.0815 -0.0488,0.60082 0.0727,1.154 0.28824,1.31236 0.54677,1.05384 0.28,-0.28 z M 25.092049,178 C 24.791824,176.33939 24.64,176.29461 24.64,177.86666 c 0,0.73334 0.150525,1.33334 0.3345,1.33334 0.211769,0 0.254899,-0.4403 0.117549,-1.2 z m -1.475838,-1.2 c 0.06712,-1.60399 0.0134,-1.76 -0.605972,-1.76 -0.573218,0 -0.646718,0.13109 -0.469463,0.83733 0.115586,0.46053 0.293197,1.25253 0.394691,1.76 0.291802,1.45901 0.600543,1.07925 0.680744,-0.83733 z M 132.1551,175.26111 c 0.003,-0.31839 -0.1391,-0.48989 -0.3151,-0.38111 -0.176,0.10877 -0.3178,0.58527 -0.3151,1.05888 0.004,0.67353 0.0725,0.75655 0.3151,0.38112 0.17061,-0.264 0.31241,-0.7405 0.3151,-1.05889 z M 181.12,174.88 c 0,-0.26412 -0.28333,-0.48 -0.62996,-0.48 -0.42849,0 -0.57105,0.1535 -0.44576,0.48 0.10131,0.264 0.38479,0.48 0.62996,0.48 0.24516,0 0.44576,-0.216 0.44576,-0.48 z m 4.40151,-0.08 c 0.0949,-0.28798 -0.36854,-0.4 -1.65484,-0.4 -1.40155,0 -1.78667,0.10707 -1.78667,0.49672 0,0.3974 0.3309,0.47738 1.65485,0.4 0.96473,-0.0564 1.70982,-0.26353 1.78666,-0.49672 z m -97.859734,-0.64 c -0.01002,-0.132 -0.71417,-0.76974 -1.564771,-1.4172 l -1.546544,-1.17719 -0.995232,1.23843 c -0.547376,0.68113 -0.995229,1.31887 -0.995229,1.41719 0,0.0983 1.152,0.17877 2.56,0.17877 1.408,0 2.551798,-0.108 2.541776,-0.24 z M 97.28,167.52 c 0,-3.784 -0.08577,-6.88 -0.190602,-6.88 -0.104832,0 -0.621955,0.30715 -1.149168,0.68256 -0.72344,0.51513 -0.922691,0.87023 -0.81231,1.44766 0.107232,0.56095 -0.104995,0.97652 -0.795382,1.55744 -1.156148,0.97283 -1.775738,1.00814 -1.910282,0.10885 -0.08966,-0.59927 -0.373446,-0.43118 -2.303306,1.36424 l -2.201049,2.04772 3.961049,3.25798 c 2.32634,1.91342 4.258192,3.26532 4.68105,3.27576 l 0.72,0.0178 z m -75.555207,2.08 c 0.04715,0.616 0.160941,0.93227 0.252861,0.70282 0.09192,-0.22944 0.06914,-0.93948 -0.05062,-1.57786 -0.377214,-2.01072 -0.802174,-0.5009 -0.741665,2.63504 l 0.05557,2.88 0.199059,-2.88 c 0.109482,-1.584 0.237639,-2.376 0.284793,-1.76 z m 96.787897,3.0035 c -0.11928,-3.13561 -1.50557,-18.54887 -1.68698,-18.75644 -0.11197,-0.12811 -1.20756,-0.0477 -2.43464,0.17872 l -2.23107,0.41164 -0.0898,8.94129 c -0.0494,4.91771 -0.0121,9.25948 0.0829,9.64839 0.15825,0.64826 0.39208,0.71484 2.80976,0.8 3.79016,0.13351 3.6039,0.19771 3.54983,-1.2236 z m 14.05622,-8.38109 c 1.85884,-5.44066 3.08367,-9.49211 2.9175,-9.65038 -1.01363,-0.96545 -13.093,-1.82864 -13.07995,-0.9347 0.0321,2.19848 1.64243,19.68379 1.8428,20.00929 0.0925,0.15036 1.28146,0.20138 2.64201,0.11338 l 2.47372,-0.16 z M 121.40975,170.8 c -0.11327,-1.628 -0.34563,-3.104 -0.51635,-3.28 -0.29632,-0.3055 -0.11177,3.79051 0.24872,5.52 0.33501,1.60726 0.4616,0.54775 0.26763,-2.24 z m 12.18859,0.0852 c 0.5053,-1.58114 0.82039,-2.97314 0.70019,-3.09334 -0.29557,-0.29557 -0.28393,-0.32113 -1.26979,2.78719 -0.95469,3.01004 -0.98741,3.18095 -0.60894,3.18095 0.1429,0 0.67324,-1.29366 1.17854,-2.8748 z M 145.36,170.996 c 1.8537,-2.05193 2.48,-2.97231 2.48,-3.64444 0,-1.22374 -0.30018,-1.91156 -0.83424,-1.91156 -0.32109,0 -0.44576,-0.44384 -0.44576,-1.58702 0,-1.11086 -0.3298,-2.33498 -1.09924,-4.08 -1.02438,-2.32324 -1.19985,-2.53431 -2.57704,-3.09994 -0.86396,-0.35483 -1.59158,-0.48775 -1.75169,-0.32 -0.15064,0.15783 -1.46063,3.95896 -2.91111,8.44696 -1.45047,4.488 -2.70296,8.34 -2.7833,8.56 -0.11178,0.30604 0.74511,0.39779 3.64814,0.3906 l 3.79424,-0.009 2.48,-2.7452 z m 6.32,2.62288 c 0,-0.33775 -0.61412,-0.47965 -0.79677,-0.1841 -0.11055,0.17887 0.0235,0.32522 0.29788,0.32522 0.27439,0 0.49889,-0.0635 0.49889,-0.14112 z M 150.06668,170.32 c 0.0232,-0.69614 -0.52822,-0.43664 -1.55353,0.73113 -1.01442,1.15536 -1.15287,1.48248 -0.7837,1.85165 0.25578,0.25578 2.31861,-2.02378 2.33723,-2.58278 z M 21.741558,163.42111 c 0.0107,-0.52148 -0.115913,-0.81585 -0.301558,-0.70111 -0.176,0.10877 -0.30344,1.08927 -0.2832,2.17888 0.03529,1.90014 0.04762,1.9288 0.301558,0.70112 0.145618,-0.704 0.273058,-1.6845 0.2832,-2.17889 z m 114.821122,-1.41027 c 0.74085,-2.23804 1.23602,-4.18015 1.10037,-4.31579 -0.13564,-0.13565 -0.76965,1.37147 -1.40891,3.34916 -1.57105,4.86038 -1.6166,5.03579 -1.30787,5.03579 0.14817,0 0.87555,-1.83113 1.61641,-4.06916 z M 120.48523,160.4 c -0.12699,-1.716 -0.36602,-3.336 -0.53117,-3.6 -0.29415,-0.4702 -0.14696,2.8156 0.24727,5.52 0.33939,2.32824 0.51192,1.16142 0.2839,-1.92 z m 21.1862,-9.12 c -0.0864,-0.22 -2.52984,-5.8 -5.42992,-12.4 -2.90008,-6.6 -6.31315,-14.3953 -7.58459,-17.32288 -1.98395,-4.56815 -2.39858,-5.30016 -2.92432,-5.16268 -0.5302,0.13866 -0.6126,-0.017 -0.6126,-1.15712 0,-1.10399 -0.10364,-1.31732 -0.64,-1.31732 -0.56212,0 -0.64,-0.21334 -0.64,-1.75313 0,-1.50532 -0.43269,-2.76049 -3.06121,-8.88 -1.68366,-3.919778 -3.16708,-7.235096 -3.29649,-7.367368 -0.12941,-0.132275 -1.37987,0.176403 -2.7788,0.685949 l -2.5435,0.926448 -0.0925,2.754051 c -0.0588,1.75083 0.0286,2.75405 0.24,2.75405 0.44464,0 0.4568,11.08538 0.0125,11.36 -0.20707,0.12797 -0.32,6.41782 -0.32,17.82238 v 17.62461 l 1.52,-0.22642 c 4.57299,-0.68119 6.08012,-0.80055 10.229,-0.8101 2.50195,-0.006 6.10842,0.20703 8.01438,0.47286 3.21204,0.44801 8.86335,1.79673 9.28178,2.21516 0.33886,0.33886 0.7841,0.18352 0.62627,-0.21849 z M 97.391517,109.6 c -0.03018,-3.75616 0.0715,-6.56 0.237888,-6.56 0.159827,0 0.290595,-0.65628 0.290595,-1.4584 v -1.4584 l -1.311622,0.0984 c -1.211636,0.0909 -1.345805,0.19597 -1.760045,1.3784 -0.415843,1.187 -1.079043,8.36811 -1.078688,11.68 1.95e-4,1.80775 0.275049,2.23956 1.628992,2.5592 2.198345,0.51898 2.050889,0.98063 1.99288,-6.2392 z M 122.45333,43.946665 C 122.336,43.829333 122.24,43.925333 122.24,44.159999 c 0,0.234666 0.096,0.330666 0.21333,0.213334 0.11734,-0.117334 0.11734,-0.309334 0,-0.426668 z M 131.84,43.679999 c 0,-0.088 -0.072,-0.16 -0.16,-0.16 -0.088,0 -0.16,0.072 -0.16,0.16 0,0.088 0.072,0.16 0.16,0.16 0.088,0 0.16,-0.072 0.16,-0.16 z m 2.47333,-0.03333 c -0.10633,-0.106333 -0.38233,-0.1177 -0.61333,-0.02525 -0.25527,0.10215 -0.17945,0.177977 0.19333,0.193331 0.33734,0.01389 0.52634,-0.06174 0.42,-0.168071 z m 13.84667,0.03333 c 0,-0.088 -0.072,-0.16 -0.16,-0.16 -0.088,0 -0.16,0.072 -0.16,0.16 0,0.088 0.072,0.16 0.16,0.16 0.088,0 0.16,-0.072 0.16,-0.16 z m -23.04,-0.96 c 0,-0.088 -0.072,-0.16 -0.16,-0.16 -0.088,0 -0.16,0.072 -0.16,0.16 0,0.088 0.072,0.16 0.16,0.16 0.088,0 0.16,-0.072 0.16,-0.16 z m 0.64,0 c 0,-0.088 -0.072,-0.16 -0.16,-0.16 -0.088,0 -0.16,0.072 -0.16,0.16 0,0.088 0.072,0.16 0.16,0.16 0.088,0 0.16,-0.072 0.16,-0.16 z m 0.64,0 c 0,-0.088 -0.072,-0.16 -0.16,-0.16 -0.088,0 -0.16,0.072 -0.16,0.16 0,0.088 0.072,0.16 0.16,0.16 0.088,0 0.16,-0.072 0.16,-0.16 z m 0.64,0 c 0,-0.088 -0.072,-0.16 -0.16,-0.16 -0.088,0 -0.16,0.072 -0.16,0.16 0,0.088 0.072,0.16 0.16,0.16 0.088,0 0.16,-0.072 0.16,-0.16 z m 10.88,-1.92 c 0,-0.088 -0.072,-0.16 -0.16,-0.16 -0.088,0 -0.16,0.072 -0.16,0.16 0,0.088 0.072,0.16 0.16,0.16 0.088,0 0.16,-0.072 0.16,-0.16 z m 0.64,0 c 0,-0.088 -0.072,-0.16 -0.16,-0.16 -0.088,0 -0.16,0.072 -0.16,0.16 0,0.088 0.072,0.16 0.16,0.16 0.088,0 0.16,-0.072 0.16,-0.16 z m -99.327987,-8.56 -0.206989,-2.48 h 3.683194 3.683193 L 46.875706,28.60092 C 47.142067,27.963426 47.36,27.413054 47.36,27.377872 c 0,-0.06898 -20.927062,0.189977 -21.009842,0.259979 -0.06865,0.05805 0.845743,6.36522 0.980353,6.762148 0.06718,0.198096 2.394198,0.32 6.108507,0.32 h 5.999984 z m 5.585613,1.473642 c 0.913926,-2.403813 0.952009,-2.353642 -1.786432,-2.353642 h -2.478186 l 0.201011,1.466538 c 0.110557,0.806595 0.260343,1.562595 0.332855,1.68 0.07251,0.117405 0.874713,0.162953 1.782665,0.101216 1.405018,-0.09553 1.695082,-0.228663 1.948087,-0.894112 z M 56,32.803964 v -1.756033 l -2.910499,0.06686 -2.910499,0.06686 -0.769501,1.518536 C 48.986275,33.535382 48.64,34.29551 48.64,34.389362 c 0,0.09385 1.656,0.170637 3.68,0.170637 H 56 Z m 6.693334,1.633232 C 62.62,34.369657 61.372,33.720047 59.92,32.993625 l -2.64,-1.320768 v 1.443571 1.443571 h 2.773334 c 1.525332,0 2.713332,-0.05526 2.64,-0.122803 z M 74.88,34.411846 c 0,-0.08148 0.285898,-0.873485 0.635331,-1.76 l 0.635331,-1.611847 h -2.367203 -2.367203 l -0.22584,1.33672 c -0.184016,1.089191 -0.118643,1.415098 0.353037,1.76 0.53007,0.387597 3.336547,0.619018 3.336547,0.275127 z m 4.426666,-0.133127 c -0.148538,-0.391702 -2.466455,-2.91872 -2.677204,-2.91872 -0.153865,0 -1.429462,2.736458 -1.429462,3.066531 0,0.07341 0.948,0.133469 2.106666,0.133469 1.158668,0 2.058668,-0.126576 2,-0.28128 z m 7.950396,-0.165411 c -0.09428,-0.24568 -0.348476,-1.03768 -0.564889,-1.76 C 86.145616,30.529059 85.76,30.713843 85.76,32.799999 c 0,1.683261 0.03637,1.76 0.834237,1.76 0.582425,0 0.782496,-0.134832 0.662825,-0.446691 z m 16.399458,-1.272262 c 1.12049,-1.958417 1.16021,-2.121047 0.51805,-2.121047 -0.53617,0 -3.08725,3.208237 -2.85277,3.587632 0.45629,0.738295 1.41932,0.133354 2.33472,-1.466585 z m 5.28111,0.101526 c 2.60214,-1.773594 2.70392,-2.290706 0.42501,-2.159296 -1.62365,0.09363 -1.71076,0.147846 -2.72,1.693062 -0.57345,0.877988 -1.04264,1.705085 -1.04264,1.837994 0,0.534749 1.36141,-0.0248 3.33763,-1.37176 z m -15.994868,0.897427 c 0.06747,-0.22 0.197897,-0.94 0.28984,-1.6 0.160508,-1.152234 0.12975,-1.2 -0.77272,-1.2 -1.079037,0 -1.051143,-0.08526 -0.581895,1.778298 0.348298,1.383203 0.816208,1.832189 1.064775,1.021702 z m 3.391948,-1.305584 c 0.121498,-1.039255 0.05883,-1.494416 -0.205763,-1.494416 -0.499069,0 -0.768947,0.748564 -0.768947,2.132839 0,1.669289 0.763373,1.169286 0.97471,-0.638423 z M 121.92,32.639999 c 0,-0.88 -0.0829,-1.6 -0.18431,-1.6 -0.24018,0 -3.97569,2.873917 -3.97569,3.058704 0,0.07771 0.936,0.141296 2.08,0.141296 h 2.08 z m 13.92,0.889424 c 1.584,-0.391968 2.92915,-0.741587 2.98922,-0.776931 0.0601,-0.03534 0.0144,-0.363114 -0.10157,-0.728377 -0.20575,-0.648282 -0.39719,-0.664116 -8.02921,-0.664116 H 122.88 v 1.44 1.44 l 5.04,9.6e-4 c 4.13833,9.6e-4 5.55524,-0.126454 7.92,-0.711622 z m 13.63671,0.5672 c 0.0789,-0.07885 0.0877,-0.726854 0.0197,-1.44 l -0.12364,-1.296624 h -3.30697 -3.30696 l 0.49065,1.44 0.49066,1.44 h 2.79659 c 1.53812,0 2.8611,-0.06452 2.93996,-0.143376 z M 100.0326,31.919999 c 0.25511,-0.484 0.42414,-0.891017 0.37562,-0.904483 -1.325135,-0.367773 -1.381334,-0.312971 -1.66589,1.624483 -0.20034,1.364055 -0.184125,1.406247 0.307475,0.8 0.285433,-0.352 0.727693,-1.036 0.982795,-1.52 z m 15.95979,0.477623 c 1.86362,-1.478922 1.88942,-1.520274 1.0118,-1.621599 -1.2475,-0.144028 -3.40419,1.368546 -3.40419,2.387496 0,0.416064 0.108,0.755411 0.24,0.754103 0.132,-0.0013 1.10058,-0.685309 2.15239,-1.52 z M 70.08,32.159999 v -1.12 h -1.92 c -1.056,0 -1.92,0.114218 -1.92,0.253817 0,0.239493 3.085162,1.924945 3.6,1.966711 0.132,0.01072 0.24,-0.484528 0.24,-1.100528 z m 14.72,0 c 0,-1.073877 -0.04773,-1.12 -1.159181,-1.12 -1.052521,0 -1.120086,0.05153 -0.734275,0.56 1.55335,2.04721 1.893456,2.147795 1.893456,0.56 z m -59.218442,-0.56 c -0.01014,-0.396 -0.137582,-1.296 -0.2832,-2 -0.252946,-1.222894 -0.2664,-1.190771 -0.301558,0.72 -0.02106,1.144533 0.100075,2 0.2832,2 0.176,0 0.311701,-0.324 0.301558,-0.72 z m 26.898442,-2.16 c 0,-0.176 -0.216,-0.32 -0.48,-0.32 -0.264,0 -0.5844,-0.0108 -0.712,-0.024 -0.1276,-0.0132 -0.2836,0.1308 -0.346666,0.32 -0.06307,0.1892 0.257332,0.344 0.712,0.344 0.454666,0 0.826666,-0.144 0.826666,-0.32 z m 22.397338,-0.180131 c 0.0016,-0.187072 -0.401216,-0.727072 -0.894848,-1.199999 l -0.897511,-0.85987 H 65.98249 c -3.906368,0 -7.098746,0.108 -7.09417,0.24 0.0046,0.132 0.904576,0.706454 2,1.276563 l 1.99168,1.036562 5.997338,-0.07656 c 3.971433,-0.0507 5.998236,-0.191459 6,-0.416694 z M 137.1526,28.879999 c -1.15058,-2.18295 -0.966,-2.118241 -5.79432,-2.031328 l -4.40937,0.07937 -1.71446,1.294425 C 124.2915,28.9344 123.52,29.57159 123.52,29.638445 c 0,0.06685 3.1717,0.121553 7.04822,0.121553 h 7.04822 z m 12.4074,-0.12 c 0.46129,-2.306434 0.65803,-2.2 -4.06667,-2.2 -2.34666,0 -4.35356,0.08689 -4.45976,0.193096 -0.1062,0.106202 0.11449,0.826202 0.49043,1.6 l 0.68353,1.406904 h 3.57624 3.57623 z m -64.76,-0.44 v -1.12 h -2.72 c -1.496,0 -2.72,0.100121 -2.72,0.22249 0,0.12237 0.386941,0.62637 0.859869,1.12 0.749011,0.781798 1.099689,0.89751 2.72,0.89751 H 84.8 Z m 8.899318,-0.24 0.09932,-1.2 h -1.804743 -1.804742 l 0.223056,1.04 c 0.323376,1.507733 0.394521,1.563549 1.857165,1.456965 1.286448,-0.09375 1.333929,-0.136809 1.429948,-1.296965 z m 3.033485,0.939718 c 0.211763,-0.55184 -0.09732,-2.139718 -0.416496,-2.139718 -0.136995,0 -0.304016,0.576 -0.371152,1.28 -0.07946,0.833226 0.0085,1.28 0.252154,1.28 0.205821,0 0.446793,-0.189126 0.535494,-0.420282 z m 5.638227,-0.876581 0.72887,-1.296862 -1.86995,0.09686 -1.86995,0.09686 -0.09932,1.2 c -0.0991,1.197362 -0.09659,1.2 1.14108,1.2 1.11658,0 1.31315,-0.12945 1.96927,-1.296863 z m 2.74897,0.976863 c 0.10877,-0.176 0.0453,-0.32 -0.14111,-0.32 -0.18639,0 -0.33889,0.144 -0.33889,0.32 0,0.176 0.0635,0.32 0.14111,0.32 0.0776,0 0.23012,-0.144 0.33889,-0.32 z m 5.20428,-0.901101 c -0.21152,-0.560394 -0.47391,-1.018899 -0.58307,-1.018899 -0.17464,0 -0.94121,1.428388 -0.94121,1.753802 0,0.108072 1.63725,0.386646 1.83444,0.312125 0.0409,-0.01547 -0.0986,-0.486634 -0.31016,-1.047028 z m 5.17442,0.0211 1.74424,-1.2 -3.30315,-0.09165 c -1.81673,-0.05041 -3.36961,-0.02519 -3.45085,0.05604 -0.0812,0.08123 0.0385,0.662479 0.26597,1.291655 0.38147,1.054939 0.51427,1.143957 1.7066,1.143957 0.97065,0 1.72774,-0.299127 3.03719,-1.2 z m 4.80854,0.735373 c 0.21208,-0.255545 0.33772,-0.690228 0.27919,-0.965961 -0.0899,-0.423352 -0.26734,-0.388412 -1.1409,0.224627 -0.56896,0.399279 -1.03696,0.833961 -1.04,0.965961 -0.01,0.431034 1.50619,0.251953 1.90171,-0.224627 z m -13.62148,-1.321543 c 0.27446,-0.715222 0.25282,-0.773829 -0.28576,-0.773829 -0.26667,0 -0.48,0.284445 -0.48,0.64 0,0.762959 0.49139,0.848837 0.76576,0.133829 z M 49.271219,24.297447 c 0.696083,-1.171682 1.918823,-2.93222 2.717194,-3.912307 C 52.786787,19.405054 53.44,18.521453 53.44,18.421582 53.44,18.321712 47.032,18.24 39.2,18.24 c -7.832,0 -14.24,0.06705 -14.24,0.148997 0,0.495574 1.008231,7.44677 1.130984,7.797505 0.121279,0.346527 2.189937,0.409136 11.03195,0.333889 l 10.882679,-0.09261 z M 71.63264,25.679158 C 71.394688,25.347932 69.832758,23.53862 68.161686,21.658464 L 65.123376,18.24 H 62.358925 59.59447 l -1.112662,1.231584 c -1.07449,1.189335 -1.114749,1.326347 -1.173546,3.99395 l -0.06088,2.762366 7.296311,0.08605 c 4.012969,0.04733 7.346998,0.05936 7.40895,0.02674 0.06195,-0.03262 -0.08205,-0.330309 -0.32,-0.661535 z M 84.48,25.89039 c 0,-0.648821 -2.297459,-7.650409 -2.509686,-7.648359 -0.167079,0.0016 -1.907776,4.160896 -3.112858,7.437968 -0.186592,0.507415 0.06773,0.56 2.708307,0.56 1.894032,0 2.914237,-0.122389 2.914237,-0.349609 z m 9.796371,-2.210391 C 94.472374,22.36 94.729334,20.524 94.847392,19.6 l 0.214653,-1.68 h -3.885261 c -2.974291,0 -3.850342,0.09379 -3.736346,0.4 0.0819,0.22 0.608394,1.912 1.169981,3.76 0.561584,1.847999 1.084119,3.546919 1.161181,3.775376 0.09973,0.29567 0.71769,0.387891 2.144259,0.32 L 93.92,26.079999 Z m 11.107399,-0.451597 c 1.53652,-2.486152 1.55722,-2.554 1.15273,-3.779617 -0.22654,-0.686412 -0.63792,-1.366517 -0.91419,-1.511345 -0.40838,-0.214083 -4.80834,-0.119555 -5.05085,0.108512 -0.13918,0.130889 -1.004215,7.691605 -0.899415,7.861177 0.05974,0.09667 1.017285,0.10311 2.127875,0.01431 l 2.01924,-0.161444 z m 2.44376,2.311258 c 0.66369,-0.71238 0.88829,-1.859661 0.36408,-1.859661 -0.38117,0 -1.63197,2.132976 -1.3917,2.373245 0.27309,0.273095 0.31357,0.25287 1.02762,-0.513584 z M 56.32,23.999999 C 56.32,22.944 56.208003,22.08 56.071117,22.08 c -0.271287,0 -0.897722,0.680188 -1.751591,1.901884 -0.53176,0.76083 -0.522953,0.797396 0.326999,1.357892 C 56.096013,26.295629 56.32,26.116305 56.32,23.999999 Z M 79.764589,22.16 c 0.836589,-2.068 1.519798,-3.868 1.518243,-4 C 81.281274,18.028 79.12,17.92 76.48,17.92 c -2.64,0 -4.8,0.112519 -4.8,0.250042 0,0.137523 1.235891,1.685523 2.746429,3.44 1.510534,1.754477 2.913171,3.441957 3.116973,3.749957 0.203801,0.308 0.4447,0.56 0.535328,0.56 0.09063,0 0.849267,-1.692 1.685859,-3.759999 z m 17.793433,0.05833 c 0.435575,-3.491647 0.450756,-4.29833 0.08088,-4.29833 -0.352157,0 -1.002163,4.266768 -0.989168,6.493071 0.01402,2.399381 0.473773,1.288429 0.908291,-2.194743 z M 120.35713,24.772745 121.92,23.625492 V 20.612745 17.6 h -3.29317 -3.29318 l -2.30682,3.950655 c -1.26876,2.172861 -2.30683,4.044861 -2.30683,4.16 0,0.11514 1.81671,0.209344 4.03713,0.209344 h 4.03713 z m 6.47943,-0.779373 c 1.34389,-1.059645 2.44344,-2.079645 2.44344,-2.266667 0,-0.187021 -0.111,-0.292039 -0.24667,-0.233372 -0.69177,0.299147 -5.8095,3.980301 -5.82051,4.186666 -0.0382,0.715528 1.46389,0.01639 3.62374,-1.686627 z m 8.20344,1.603857 c 0,-0.413195 -1.89312,-3.037229 -2.19123,-3.037229 -0.35153,0 -4.18899,2.851065 -4.19944,3.119999 -0.005,0.132 1.43067,0.24 3.19067,0.24 1.93831,0 3.2,-0.127261 3.2,-0.32277 z m 14.63163,-0.124915 c 0.0394,-0.0379 0.1685,-1.880861 0.28689,-4.095466 l 0.21526,-4.026556 -7.64689,0.166471 c -4.20579,0.09156 -7.69328,0.206129 -7.74997,0.2546 -0.0567,0.04847 0.59967,0.960236 1.45859,2.026143 0.85892,1.065907 2.12276,2.89743 2.80853,4.07005 l 1.24686,2.132036 4.65455,-0.229183 c 2.56,-0.126051 4.68678,-0.260193 4.72618,-0.298095 z m -39.89932,-3.096449 c 0.98687,-1.934423 0.6702,-2.635276 -0.43565,-0.964157 -0.49683,0.750804 -0.82535,1.568317 -0.73004,1.816695 0.26544,0.691726 0.44478,0.560563 1.16569,-0.852538 z m 16.21344,-1.685568 C 127.53359,19.573961 128.8,18.457961 128.8,18.210298 128.8,17.856589 128.18224,17.76 125.92,17.76 h -2.88 l -0.0935,2.48 c -0.0514,1.364 -0.0218,2.48 0.0657,2.48 0.0876,0 1.42563,-0.913367 2.97346,-2.029703 z M 131.2,20.48 c 0,-0.176 -0.144,-0.32 -0.32,-0.32 -0.176,0 -0.32,0.144 -0.32,0.32 0,0.176 0.144,0.32 0.32,0.32 0.176,0 0.32,-0.144 0.32,-0.32 z M 108.47288,18 c 0.004,-0.232693 -0.39442,-0.4 -0.95288,-0.4 -1.0478,0 -1.22787,0.50155 -0.60078,1.673278 l 0.35922,0.671205 0.59366,-0.772242 C 108.19862,18.747508 108.46897,18.22 108.47288,18 Z M 112.32,17.832171 c 0,-0.645234 -0.80691,0.03782 -0.88941,0.752894 -0.0866,0.750444 -0.0739,0.755304 0.4,0.153773 0.26918,-0.341639 0.48941,-0.749639 0.48941,-0.906667 z M 63.68,16.679182 c 0,-0.15445 -0.21528,-0.459483 -0.478397,-0.677853 -0.385523,-0.319954 -0.634025,-0.295066 -1.28,0.128195 C 60.836362,16.840601 60.905139,16.96 62.4,16.96 c 0.704,0 1.28,-0.126368 1.28,-0.280818 z m 17.92,0.07662 c 0,-0.11231 -0.673677,-2.345865 -1.497056,-4.963455 C 78.426362,6.4623675 78.860874,6.8288632 75.68,8.0617445 c -1.267158,0.4911404 -2.132547,1.2189523 -4.16,3.4986625 -1.408,1.583184 -2.611856,3.025328 -2.675238,3.204765 -0.06338,0.179437 0.287561,0.746679 0.779872,1.260538 L 70.519738,16.96 h 5.540131 C 79.106941,16.96 81.6,16.868109 81.6,16.755799 Z M 95.89559,11.52 c 0.382573,-2.9040002 0.706573,-5.6969441 0.72,-6.2065425 L 96.64,4.3869154 92.260445,4.6140719 c -2.408755,0.124936 -4.604755,0.3486742 -4.88,0.4971958 C 87.1052,5.2597896 86.462234,6.4815899 85.951629,7.82638 l -0.928371,2.445073 0.90008,3.104273 c 0.495046,1.70735 0.959916,3.216493 1.033052,3.35365 0.07313,0.137157 1.957866,0.209157 4.188292,0.16 L 95.2,16.8 Z M 97.92,16.48 c 0,-0.088 -0.072,-0.16 -0.16,-0.16 -0.088,0 -0.16,0.072 -0.16,0.16 0,0.088 0.072,0.16 0.16,0.16 0.088,0 0.16,-0.072 0.16,-0.16 z m 7.30667,-0.108551 c -1.11563,-2.808771 -3.32319,-7.7314492 -3.46714,-7.7314492 -0.172,0 -0.95953,6.1184772 -0.95953,7.4547422 0,0.462358 0.34462,0.545258 2.26667,0.545258 1.24666,0 2.21866,-0.120848 2.16,-0.268551 z m 6.03525,-2.710222 1.70624,-2.818772 -1.81334,-2.0526699 c -1.91872,-2.1719468 -2.34714,-2.3941696 -6.13574,-3.1826156 -2.97801,-0.6197549 -2.83198,-0.6374589 -3.08586,0.374102 -0.16358,0.6517597 0.27557,2.054336 1.8053,5.7657715 l 2.02148,4.904498 1.89784,-0.08577 1.89784,-0.08577 z m 2.76169,1.369282 c 1.08033,-1.923474 0.98884,-2.888657 -0.10304,-1.087166 -0.41892,0.691161 -0.96698,1.580657 -1.21792,1.976657 -0.37948,0.598842 -0.38275,0.719945 -0.0195,0.719674 0.24025,-1.79e-4 0.84343,-0.724303 1.34042,-1.609165 z M 117.4351,16.4 c -0.003,-0.132 -0.14669,-0.456 -0.32,-0.72 -0.28009,-0.426667 -0.35011,-0.426667 -0.6302,0 -0.4723,0.719461 -0.39334,0.96 0.3151,0.96 0.352,0 0.6378,-0.108 0.6351,-0.24 z m 7.0449,-0.0432 c 0,-0.155759 -0.36132,-0.519941 -0.80293,-0.809295 -0.62313,-0.408296 -0.76833,-0.722448 -0.64844,-1.402988 0.13815,-0.784141 -0.0473,-1.003054 -1.7537,-2.069685 l -1.90819,-1.192795 -0.75293,1.19898 c -1.51656,2.414984 -1.53474,2.49122 -0.76144,3.191121 0.3892,0.35225 0.99563,0.799742 1.34763,0.994426 0.76098,0.420881 5.28,0.498112 5.28,0.09024 z m 2.56,0.07847 c 0,-0.248258 -1.02486,-1.050889 -1.36,-1.0651 -0.132,-0.0056 -0.24,0.277823 -0.24,0.629823 0,0.469333 0.21333,0.64 0.8,0.64 0.44,0 0.8,-0.09212 0.8,-0.204723 z M 98.834064,11.778694 c 0.400861,-3.3973009 0.462957,-4.9423802 0.187558,-4.6669834 -0.23863,0.2386313 -1.08864,5.8792994 -1.095881,7.2722894 -0.01088,2.090164 0.541091,0.507007 0.908323,-2.605306 z M 70.175805,11.84 C 70.602051,11.84 72.64,9.9125617 72.64,9.5094292 c 0,-0.3217136 -4.710762,2.1327378 -5.418611,2.8232628 -0.39752,0.387792 -0.377226,0.537314 0.152361,1.122503 l 0.610973,0.675117 0.918679,-1.145156 C 69.408672,12.35532 69.981254,11.84 70.175805,11.84 Z M 69.92,12.8 c 0.108774,-0.176 0.04527,-0.32 -0.141114,-0.32 -0.186387,0 -0.338886,0.144 -0.338886,0.32 0,0.176 0.0635,0.32 0.141114,0.32 0.07761,0 0.230112,-0.144 0.338886,-0.32 z m 45.92,-0.978886 c 0,-0.165613 -0.144,-0.301114 -0.32,-0.301114 -0.176,0 -0.32,0.224498 -0.32,0.498885 0,0.274387 0.144,0.409889 0.32,0.301115 0.176,-0.108774 0.32,-0.333273 0.32,-0.498886 z m -1.95938,-2.4224665 c 0.21084,-0.4627437 0.34195,-0.8826877 0.29136,-0.9332086 C 113.90617,8.1999896 110.72,7.0797221 110.72,7.2517118 c 0,0.3225623 2.25696,2.9882882 2.53006,2.9882882 0.13597,0 0.41972,-0.3786089 0.63056,-0.8413525 z M 85.566051,7.5999998 C 85.894,6.6759999 86.235101,5.7298543 86.324048,5.497454 86.449408,5.1699253 86.206288,5.1254076 85.24289,5.2994821 c -0.683591,0.1235162 -1.332442,0.2747594 -1.441895,0.336096 -0.239174,0.1340314 0.701466,3.6444217 0.976554,3.6444217 0.105728,0 0.460553,-0.756 0.788502,-1.68 z"
           id="path916" />
      </g>
    </g>
  </g>
</svg>
