<?xml version="1.0" encoding="UTF-8"?>
<!DOCTYPE svg PUBLIC "-//W3C//DTD SVG 1.0//EN" "http://www.w3.org/TR/2001/REC-SVG-20010904/DTD/svg10.dtd">
<!-- Creator: CorelDRAW X7 -->
<svg xmlns="http://www.w3.org/2000/svg" xml:space="preserve" width="151.33mm" height="151.33mm" version="1.0" style="shape-rendering:geometricPrecision; text-rendering:geometricPrecision; image-rendering:optimizeQuality; fill-rule:evenodd; clip-rule:evenodd"
viewBox="0 0 15133 15133"
 xmlns:xlink="http://www.w3.org/1999/xlink">
 <defs>
  <style type="text/css">
   <![CDATA[
    .str0 {stroke:#2B2A29;stroke-width:132.97}
    .fil0 {fill:none}
    .fil1 {fill:black}
   ]]>
  </style>
 </defs>
 <g id="Ebene_x0020_1">
  <metadata id="CorelCorpID_0Corel-Layer"/>
  <circle id="path828" class="fil0 str0" cx="7566" cy="7567" r="7500" inkscape:export-xdpi="350" inkscape:export-ydpi="350"/>
  <path id="path826-3" class="fil1" d="M7190 14178c-288,-76 -503,-225 -565,-390 -111,-295 -159,-649 -171,-1244 -10,-496 4,-879 67,-1880 106,-1679 90,-2153 -80,-2375 -101,-133 -305,-234 -470,-234 -174,1 -423,96 -505,193 -62,74 -112,180 -159,335 -116,385 -112,359 -370,2865 -202,1967 -271,2587 -278,2515 12,-1082 236,-3801 356,-4825 36,-307 123,-630 230,-843 161,-320 409,-464 766,-423 397,45 647,229 722,585 59,281 62,760 8,1536 -63,904 -67,1126 -84,1498 -20,455 -39,1310 -9,1565 45,392 52,597 296,826 142,133 283,152 573,164 245,10 377,-41 563,-139 228,-118 366,-305 442,-444l10 -57 -92 -19c-120,-24 -134,-23 -134,7 0,41 -90,218 -149,292 -205,259 -651,333 -987,163 -208,-105 -316,-259 -359,-513 -70,-405 -74,-1435 -11,-2392 112,-1694 120,-2152 40,-2507 -62,-275 -190,-430 -472,-571 -202,-102 -296,-111 -464,-99 -469,33 -638,256 -767,502 -144,272 -131,259 -364,2405 -198,1816 -285,2410 -285,2410 -5,5 22,-351 13,-432 153,-1807 305,-3507 378,-4011 33,-225 90,-368 218,-547 430,-603 1298,-603 1729,1 171,239 193,373 178,1088 -10,473 -36,979 -83,1628 -80,1106 -57,2341 49,2712 30,104 106,173 294,267 134,66 136,67 313,67 168,0 183,-3 285,-53 214,-106 377,-309 376,-468 0,-39 19,-212 41,-384 54,-401 127,-1076 178,-1624 35,-380 80,-673 377,-2433 185,-1100 340,-2019 345,-2043 7,-34 2,-43 -30,-52 -22,-5 -43,-20 -48,-32 -16,-42 94,-789 332,-2247 93,-573 115,-737 103,-780 -8,-30 -17,-91 -18,-136 -4,-92 24,-128 101,-128 75,0 94,-41 130,-297 19,-132 42,-248 50,-259 10,-13 57,-20 133,-20 109,0 118,-3 126,-36 4,-20 41,-226 82,-458 55,-312 70,-431 58,-457 -12,-25 1,-126 48,-386 54,-294 70,-357 101,-388 36,-36 60,-80 110,-201 23,-58 28,-60 77,-50 29,6 57,16 63,21 5,6 13,73 17,149 4,77 15,149 25,162 15,17 5,103 -44,379 -57,328 -70,371 -116,389 -9,3 -173,872 -173,918 0,9 40,29 88,44 48,15 90,33 94,39 4,6 -10,112 -31,235 -51,293 -48,324 31,368 111,62 112,92 9,266l-61 106 -130 783c-159,960 -366,2077 -393,2120 -5,8 -30,14 -55,14 -36,0 -49,9 -55,36 -5,20 -156,933 -336,2030 -303,1844 -336,2027 -440,2448 -163,659 -369,1725 -369,1910 0,22 -9,47 -20,54 -11,7 -33,52 -50,101 -105,315 -368,572 -689,676 -72,23 -157,33 -329,38 -208,5 -248,2 -380,-33l0 0zm1446 -1092c63,-438 242,-1302 388,-1874l46 -180 -74 0 -74 0 -76 236c-127,397 -236,882 -365,1631l-66 380 38 28c33,25 121,46 140,33 4,-3 24,-117 43,-254l0 0zm456 -2158c27,-111 659,-3994 651,-4002 -5,-5 -30,-10 -55,-12 -46,-4 -46,-3 -98,197 -81,312 -185,806 -300,1424 -111,596 -408,2343 -408,2399 0,27 12,33 76,38 115,9 121,7 134,-44l0 0zm782 -4063c0,-3 22,-113 49,-244 111,-549 253,-1363 437,-2500l22 -133 -58 -24c-78,-33 -348,-102 -397,-102 -29,0 -38,6 -31,23 16,42 -425,2124 -572,2699 -21,83 -41,161 -44,173 -7,26 22,33 330,81 193,30 264,37 264,27l0 0zm601 -3029c64,-110 52,-136 -81,-179 -61,-19 -135,-40 -164,-45 -49,-10 -52,-8 -52,37 0,71 -31,147 -68,167 -29,16 -17,23 100,56 73,21 145,45 159,53 32,18 53,0 106,-89zm-115 -270c-20,-53 -578,-150 -605,-105 -7,10 12,16 50,16 116,1 412,59 561,111 2,1 -1,-9 -6,-22l0 0zm-180 -165c122,-102 168,-161 196,-250 16,-51 23,-99 16,-106 -48,-46 -527,-117 -549,-82 -13,23 -72,417 -62,425 6,6 252,35 321,39 24,1 59,-10 78,-26l0 0zm158 -949c44,-241 74,-444 67,-451 -7,-7 -41,-14 -76,-16 0,0 -8,17 -7,41 0,12 -11,99 -24,194 -53,375 -75,706 -45,676 3,-3 42,-203 85,-444l0 0zm208 -838c28,-157 47,-295 43,-306 -14,-34 -234,-75 -235,-43 0,6 -25,145 -56,308 -31,163 -56,308 -56,324 0,21 14,28 60,29 33,1 86,11 116,22 70,25 63,43 128,-334l0 0zm16 -513c0,-156 -26,-158 -100,-9l-55 111 49 6c114,15 106,23 106,-108l0 0z" inkscape:connector-curvature="0" sodipodi:nodetypes="ccssccccscscsssscscccccscscscssssccccsssccsccscscccsccsccscsccccccccscscccsccscscsssscccccsscccscccccsccccscssccccsccssscccccccccccccccccccccccccccccccccccscssccscssccss" inkscape:export-xdpi="350" inkscape:export-ydpi="350"/>
 </g>
</svg>
