<?xml version="1.0" encoding="UTF-8" standalone="no"?>
<!DOCTYPE svg PUBLIC "-//W3C//DTD SVG 1.1//EN" "http://www.w3.org/Graphics/SVG/1.1/DTD/svg11.dtd">
<svg width="100%" height="100%" viewBox="0 0 567 567" version="1.1" xmlns="http://www.w3.org/2000/svg" xmlns:xlink="http://www.w3.org/1999/xlink" xml:space="preserve" xmlns:serif="http://www.serif.com/" style="fill-rule:evenodd;clip-rule:evenodd;">
    <g id="Ebene-1" serif:id="Ebene 1">
        <circle id="path828" cx="283.451" cy="283.479" r="280.974" style="fill:none;stroke:black;stroke-width:3.77px;"/>
    </g>
    <g id="Layer-1" serif:id="Layer 1">
        <g id="g5209" transform="matrix(1.10585,0,0,1.10585,-2.80974,-0.954185)">
            <path id="path1151-6" d="M393.389,389.509C388.588,394.943 383.453,400.078 378.02,404.879C375.199,407.371 370.919,407.203 368.307,404.495C187.681,221.281 241.179,276.466 167.662,196.808C154.423,211.694 143.231,228.44 134.477,246.638L96.211,213.34C120.475,168.748 157.196,132.065 201.713,107.745L234.992,146.011C216.85,154.747 200.141,165.92 185.302,179.131C257.573,249.894 200.364,191.148 393.389,389.509Z" style="fill:none;stroke:black;stroke-width:5.99px;"/>
            <g transform="matrix(0.791372,0.505609,-0.505609,0.791372,65.9565,-195.564)">
                <path id="path340" d="M476.244,108.541L479.4,124.387L476.244,108.541" style="fill:none;fill-rule:nonzero;stroke:black;stroke-width:5.67px;stroke-linecap:round;stroke-linejoin:round;"/>
                <path id="path342" d="M479.4,124.387L474.293,146.482L479.4,124.387" style="fill:none;fill-rule:nonzero;stroke:black;stroke-width:5.67px;stroke-linecap:round;stroke-linejoin:round;"/>
                <path id="path344" d="M474.293,146.482L471.393,147.629L474.293,146.482" style="fill:none;fill-rule:nonzero;stroke:black;stroke-width:5.67px;stroke-linecap:round;stroke-linejoin:round;"/>
                <path id="path406" d="M422.299,328.707L439.516,214.916L422.299,328.707" style="fill:none;fill-rule:nonzero;stroke:black;stroke-width:5.67px;stroke-linecap:round;stroke-linejoin:round;"/>
                <path id="path408" d="M470.791,207.783L478.139,210.336L470.791,207.783" style="fill:none;fill-rule:nonzero;stroke:black;stroke-width:5.67px;stroke-linecap:round;stroke-linejoin:round;"/>
                <path id="path410" d="M448.786,182.816L459.274,182.816L448.786,182.816" style="fill:none;fill-rule:nonzero;stroke:black;stroke-width:5.67px;stroke-linecap:round;stroke-linejoin:round;"/>
                <path id="path412" d="M471.393,147.629L465.142,184.216L471.393,147.629" style="fill:none;fill-rule:nonzero;stroke:black;stroke-width:5.67px;stroke-linecap:round;stroke-linejoin:round;"/>
                <path id="path416" d="M463.677,145.297L466.783,120.256L463.677,145.297" style="fill:none;fill-rule:nonzero;stroke:black;stroke-width:5.67px;stroke-linecap:round;stroke-linejoin:round;"/>
                <path id="path418" d="M478.139,210.336L470.791,220.793L478.139,210.336" style="fill:none;fill-rule:nonzero;stroke:black;stroke-width:5.67px;stroke-linecap:round;stroke-linejoin:round;"/>
                <path id="path420" d="M465.142,184.216L474.293,185.665L465.142,184.216" style="fill:none;fill-rule:nonzero;stroke:black;stroke-width:5.67px;stroke-linecap:round;stroke-linejoin:round;"/>
                <path id="path422" d="M470.791,220.793L452.244,333.226L470.791,220.793" style="fill:none;fill-rule:nonzero;stroke:black;stroke-width:5.67px;stroke-linecap:round;stroke-linejoin:round;"/>
                <path id="path424" d="M459.274,182.816L465.901,147.056L459.274,182.816" style="fill:none;fill-rule:nonzero;stroke:black;stroke-width:5.67px;stroke-linecap:round;stroke-linejoin:round;"/>
                <g id="path426" transform="matrix(-0.411025,-1.05155,0.195146,-0.0762782,469.756,944.047)">
                    <path d="M388.91,575.952L399.694,485.887L388.91,575.952" style="fill:none;fill-rule:nonzero;stroke:black;stroke-width:5.67px;stroke-linecap:round;stroke-linejoin:round;"/>
                </g>
                <path id="path428" d="M439.516,214.916L438.064,204.242L439.516,214.916" style="fill:none;fill-rule:nonzero;stroke:black;stroke-width:5.67px;stroke-linecap:round;stroke-linejoin:round;"/>
                <path id="path430" d="M452.244,333.226L447.142,333.226L452.244,333.226" style="fill:none;fill-rule:nonzero;stroke:black;stroke-width:5.67px;stroke-linecap:round;stroke-linejoin:round;"/>
                <path id="path432" d="M447.142,333.226L422.299,491.158L447.142,333.226" style="fill:none;fill-rule:nonzero;stroke:black;stroke-width:5.67px;stroke-linecap:round;stroke-linejoin:round;"/>
                <path id="path434" d="M426.487,329.424L422.299,328.707L426.487,329.424" style="fill:none;fill-rule:nonzero;stroke:black;stroke-width:5.67px;stroke-linecap:round;stroke-linejoin:round;"/>
                <path id="path436" d="M474.293,185.665L470.791,207.783L474.293,185.665" style="fill:none;fill-rule:nonzero;stroke:black;stroke-width:5.67px;stroke-linecap:round;stroke-linejoin:round;"/>
                <path id="path438" d="M438.064,204.242L444.3,204.242L438.064,204.242" style="fill:none;fill-rule:nonzero;stroke:black;stroke-width:5.67px;stroke-linecap:round;stroke-linejoin:round;"/>
                <path id="path440" d="M444.3,204.242L448.786,182.816L444.3,204.242" style="fill:none;fill-rule:nonzero;stroke:black;stroke-width:5.67px;stroke-linecap:round;stroke-linejoin:round;"/>
                <path id="path442" d="M465.901,147.056L463.677,145.297L465.901,147.056" style="fill:none;fill-rule:nonzero;stroke:black;stroke-width:5.67px;stroke-linecap:round;stroke-linejoin:round;"/>
                <path id="path444" d="M466.783,120.256L475.082,108.18L466.783,120.256" style="fill:none;fill-rule:nonzero;stroke:black;stroke-width:5.67px;stroke-linecap:round;stroke-linejoin:round;"/>
                <g id="path446" transform="matrix(1,-5.55112e-17,5.55112e-17,1,0.597349,0.801981)">
                    <path d="M399.694,485.887L426.487,329.424L399.694,485.887" style="fill:none;fill-rule:nonzero;stroke:black;stroke-width:5.67px;stroke-linecap:round;stroke-linejoin:round;"/>
                </g>
            </g>
        </g>
        <g transform="matrix(1,0,0,1,-36.9881,37.2667)">
            <text x="177.314px" y="57.089px" style="font-family:'OldEnglishTextMT', 'Old English Text MT', cursive;font-size:72px;">Nerdberg</text>
        </g>
        <g transform="matrix(1,0,0,1,-21.4373,33.1844)">
            <text x="172.837px" y="484.371px" style="font-family:'OldEnglishTextMT', 'Old English Text MT', cursive;font-size:72px;">Glückauf</text>
        </g>
    </g>
</svg>
