<?xml version="1.0" encoding="UTF-8" standalone="no"?>
<!-- Created with Inkscape (http://www.inkscape.org/) -->

<svg
   width="75mm"
   height="75mm"
   viewBox="0 0 75 75"
   version="1.1"
   id="svg8"
   inkscape:version="1.1 (c68e22c387, 2021-05-23)"
   sodipodi:docname="NerdbergUltraslogo.svg"
   inkscape:export-filename="C:\Users\neumanp\Documents\Nerdberg\NerdbergUltras.png"
   inkscape:export-xdpi="350"
   inkscape:export-ydpi="350"
   xmlns:inkscape="http://www.inkscape.org/namespaces/inkscape"
   xmlns:sodipodi="http://sodipodi.sourceforge.net/DTD/sodipodi-0.dtd"
   xmlns="http://www.w3.org/2000/svg"
   xmlns:svg="http://www.w3.org/2000/svg"
   xmlns:rdf="http://www.w3.org/1999/02/22-rdf-syntax-ns#"
   xmlns:cc="http://creativecommons.org/ns#"
   xmlns:dc="http://purl.org/dc/elements/1.1/">
  <defs
     id="defs2">
    <circle
       style="fill:none;fill-opacity:1;stroke:none;stroke-width:1.14701;stroke-miterlimit:4;stroke-dasharray:none;stroke-opacity:1"
       id="path828-67"
       cx="-402.87079"
       cy="368.85355"
       inkscape:export-xdpi="96"
       inkscape:export-ydpi="96"
       transform="rotate(-151.14652)"
       r="134.12065" />
  </defs>
  <sodipodi:namedview
     id="base"
     pagecolor="#ffffff"
     bordercolor="#666666"
     borderopacity="1.0"
     inkscape:pageopacity="0.0"
     inkscape:pageshadow="2"
     inkscape:zoom="1.4"
     inkscape:cx="-9.6428571"
     inkscape:cy="7.1428571"
     inkscape:document-units="mm"
     inkscape:current-layer="layer1"
     showgrid="false"
     inkscape:window-width="1718"
     inkscape:window-height="1036"
     inkscape:window-x="186"
     inkscape:window-y="0"
     inkscape:window-maximized="0"
     inkscape:pagecheckerboard="0"
     height="75mm" />
  <metadata
     id="metadata5">
    <rdf:RDF>
      <cc:Work
         rdf:about="">
        <dc:format>image/svg+xml</dc:format>
        <dc:type
           rdf:resource="http://purl.org/dc/dcmitype/StillImage" />
      </cc:Work>
    </rdf:RDF>
  </metadata>
  <g
     inkscape:groupmode="layer"
     id="layer2"
     inkscape:label="backround"
     transform="translate(-64.157869,-76.669283)" />
  <g
     inkscape:label="Ebene 1"
     inkscape:groupmode="layer"
     id="layer1"
     transform="translate(-64.157869,-76.669283)">
    <path
       style="fill:#010101;fill-opacity:1;stroke:#000000;stroke-width:0.0877904;stroke-opacity:1"
       d="m 137.9234,116.66788 c -0.41816,1.57818 -1.23399,2.75979 -2.13936,3.09851 -1.61948,0.60593 -3.55812,0.87204 -6.82198,0.93638 -2.72278,0.0537 -4.82425,-0.0213 -10.31537,-0.36751 -9.20764,-0.58065 -11.80701,-0.49346 -13.02691,0.43702 -0.72573,0.55353 -1.28451,1.67722 -1.28165,2.57734 0.002,0.95937 0.5238,2.32142 1.06006,2.77266 0.40309,0.33918 0.98293,0.61418 1.83636,0.87097 2.11211,0.63549 1.96805,0.61689 15.71386,2.03079 10.79187,1.11007 14.18948,1.48515 13.79487,1.52289 -5.93473,-0.0613 -20.84673,-1.29219 -26.46412,-1.95183 -1.6856,-0.19792 -3.4588,-0.67339 -4.62375,-1.2591 -1.75844,-0.88414 -2.54637,-2.24745 -2.32385,-4.20585 0.24712,-2.17488 1.25923,-3.54829 3.21251,-3.95919 1.53874,-0.3237 4.16875,-0.33804 8.42448,-0.0406 4.95855,0.34645 6.17432,0.36682 8.21814,0.45878 2.49436,0.11226 7.18586,0.21301 8.58097,0.0521 2.1503,-0.24795 3.27348,-0.28758 4.5293,-1.62402 0.73409,-0.78121 0.83524,-1.55247 0.90029,-3.14537 0.0547,-1.34109 -0.22558,-2.06706 -0.75777,-3.08995 -0.64836,-1.24622 -1.67758,-2.00383 -2.43785,-2.42266 l -0.31564,-0.0564 -0.10142,0.50472 c -0.13254,0.66028 -0.12836,0.73882 0.0396,0.73882 0.22565,0 1.19648,0.4932 1.60122,0.81347 1.42166,1.12503 1.8251,3.56995 0.89357,5.41532 -0.57553,1.14013 -1.42337,1.73475 -2.81147,1.9718 -2.22272,0.37954 -7.87122,0.40372 -13.12467,0.0561 -9.29302,-0.61487 -11.8027,-0.65444 -13.75246,-0.21687 -1.50502,0.33777 -2.35713,1.04179 -3.13036,2.58628 -0.55676,1.11211 -0.60694,1.62792 -0.54271,2.54871 0.17926,2.57058 1.405,3.49894 2.75231,4.20695 1.49616,0.78622 1.4237,0.71791 13.19116,1.99678 9.96392,1.08283 13.2214,1.56005 13.2214,1.56005 0.028,0.0287 -1.92621,-0.11954 -2.36725,-0.0716 -9.916,-0.83788 -19.24009,-1.6684 -22.00329,-2.07194 -1.2342,-0.18027 -2.01642,-0.4915 -3.00121,-1.19425 -3.30902,-2.36127 -3.30671,-7.12013 0.004,-9.48302 1.31555,-0.93876 2.04827,-1.05851 5.97087,-0.97573 2.59585,0.0548 5.36638,0.19497 8.92708,0.45164 6.06971,0.43757 12.84383,0.31631 14.87976,-0.26637 0.56903,-0.16286 0.94858,-0.58233 1.46091,-1.6147 0.36439,-0.73422 0.36706,-0.74667 0.36706,-1.71375 0,-0.92465 -0.0146,-1.00406 -0.2897,-1.56261 -0.57997,-1.17809 -1.6914,-2.07311 -2.56775,-2.06774 -0.21493,0 -1.16116,-0.0996 -2.1027,-0.22441 -2.20198,-0.29169 -5.90413,-0.69571 -8.91072,-0.97241 -2.0852,-0.19194 -3.69053,-0.44057 -13.34416,-2.06692 -6.0356,-1.01684 -11.077638,-1.86995 -11.204548,-1.89583 -0.19036,-0.0389 -0.24017,-0.01 -0.28457,0.16739 -0.0296,0.11791 -0.11021,0.23605 -0.17909,0.26249 -0.22762,0.0874 -4.327432,-0.51852 -12.326012,-1.82159 -3.143539,-0.51212 -4.040679,-0.63074 -4.2768,-0.56555 -0.164274,0.0454 -0.500816,0.0908 -0.747728,0.10119 -0.503322,0.0209 -0.69828,-0.13411 -0.69828,-0.55517 0,-0.41373 -0.229482,-0.5144 -1.6337,-0.71668 -0.719006,-0.10353 -1.356669,-0.22584 -1.417035,-0.27171 -0.07035,-0.0534 -0.109789,-0.31563 -0.109789,-0.72942 0,-0.59828 -0.01461,-0.64931 -0.197462,-0.69034 -0.108754,-0.0244 -1.239257,-0.22685 -2.512453,-0.44997 -1.713146,-0.30018 -2.364543,-0.38304 -2.505709,-0.31871 -0.140897,0.0642 -0.694251,-0.004 -2.118508,-0.26433 -1.615186,-0.2943 -1.960328,-0.38379 -2.128965,-0.55219 -0.198507,-0.19821 -0.440242,-0.33054 -1.100928,-0.60269 -0.316942,-0.13057 -0.332993,-0.15528 -0.276072,-0.42537 0.03319,-0.15771 0.086,-0.31207 0.1171,-0.34304 0.0311,-0.0309 0.399372,-0.0731 0.818343,-0.0936 0.418951,-0.0205 0.817175,-0.0834 0.884929,-0.13964 0.09518,-0.079 0.568342,-0.0242 2.082668,0.24147 1.797787,0.31534 2.033073,0.38558 2.129237,0.6356 0.02087,0.0518 4.782793,0.94881 5.037679,0.94881 0.04926,0 0.157385,-0.21591 0.240628,-0.47984 0.08328,-0.26391 0.179303,-0.49681 0.213556,-0.51754 0.03423,-0.0207 0.615391,0.0574 1.291357,0.1736 1.607462,0.27633 1.775264,0.26189 2.01823,-0.17352 0.337837,-0.6055 0.501297,-0.61118 1.459638,-0.0508 l 0.580782,0.3396 4.2916,0.71124 c 5.266573,0.8728 11.393864,2.0071 11.629824,2.15295 0.0441,0.0272 0.0801,0.16491 0.0801,0.30598 0,0.19442 0.0478,0.26722 0.19747,0.30069 0.10876,0.0242 5.117188,0.85247 11.130088,1.84035 10.11495,1.66181 11.11951,1.8424 13.43195,2.41464 3.61346,0.8942 9.46226,2.02509 10.47338,2.02509 0.12419,0 0.25726,0.0494 0.29586,0.10977 0.0386,0.0603 0.2875,0.1826 0.55306,0.27169 1.72825,0.57967 3.1422,2.02091 3.70777,3.77926 0.12815,0.39844 0.18179,0.86296 0.20851,1.80905 0.0324,1.14037 0.0146,1.35735 -0.17846,2.08316 z m -5.98932,-7.93529 c -2.40123,-0.34494 -7.14182,-1.32654 -10.28058,-2.12873 l -0.98764,-0.25241 7e-5,0.40747 7e-5,0.4075 1.29484,0.41522 c 2.17568,0.69765 4.83842,1.29388 8.94625,2.00321 l 2.08298,0.35967 0.15446,-0.20387 c 0.13798,-0.18202 0.25176,-0.66506 0.1818,-0.77128 -0.0146,-0.0223 -0.64121,-0.12892 -1.3922,-0.23678 z m -11.83899,-2.49814 c -0.60838,-0.1506 -21.906268,-3.61582 -21.950668,-3.57144 -0.0267,0.0267 -0.0568,0.16176 -0.0666,0.30009 -0.0188,0.2506 -0.0146,0.25233 1.07938,0.53673 1.716468,0.44624 4.420948,1.01646 7.813368,1.64738 3.27093,0.60835 12.85279,2.23868 13.1573,2.23868 0.1482,0 0.18264,-0.0684 0.21088,-0.417 0.0509,-0.63088 0.0399,-0.66426 -0.24365,-0.73444 z m -22.284938,-4.29157 c -0.0167,0 -0.61908,-0.11935 -1.3388,-0.26526 -3.00928,-0.60999 -7.473089,-1.39127 -13.713284,-2.4002 l -0.728525,-0.11779 -0.132756,0.31619 c -0.180346,0.42942 -0.560994,1.9078 -0.560994,2.1788 0,0.1569 0.03674,0.20516 0.129207,0.1697 0.231361,-0.0888 11.648691,2.33124 14.804512,3.13795 0.45361,0.11596 0.88117,0.22475 0.95013,0.2418 0.13964,0.0345 0.17805,-0.12332 0.44116,-1.81265 0.16511,-1.0602 0.20519,-1.44854 0.14946,-1.44854 z M 81.193249,98.64904 c -0.600007,-0.35163 -0.742907,-0.28715 -0.976752,0.44065 -0.108542,0.338 -0.221613,0.74293 -0.25119,0.89985 -0.05093,0.2698 -0.03966,0.28532 0.206229,0.28532 0.389039,0 0.804274,0.17087 0.914152,0.37615 0.08537,0.1595 0.123779,0.0912 0.308739,-0.54971 0.116265,-0.40248 0.246265,-0.79434 0.289034,-0.87079 0.09957,-0.1777 0.0021,-0.29265 -0.490275,-0.58147 z m -1.480678,0.62801 c -0.286968,0.1101 -0.818051,3.17193 -0.576107,3.32147 0.05845,0.0361 0.09247,-0.0659 0.09268,-0.27735 8.14e-4,-0.63311 0.321471,-2.25705 0.60748,-3.07509 0.0042,-0.0111 -0.05218,0.003 -0.123988,0.0309 z m -0.900814,0.99013 c -0.561015,-0.66919 -0.883781,-0.92223 -1.371677,-1.07536 -0.282564,-0.0887 -0.545589,-0.1282 -0.58454,-0.0878 -0.24998,0.25937 -0.639478,2.88873 -0.445668,3.00852 0.121066,0.0748 2.286664,0.39478 2.329663,0.34419 0.02922,-0.0344 0.192036,-1.38562 0.212742,-1.76487 0.0062,-0.13275 -0.05594,-0.32389 -0.140479,-0.42467 z m -5.209238,-0.87 c -1.321517,-0.23883 -2.433529,-0.40344 -2.471164,-0.3658 -0.03757,0.0376 -0.07806,0.22417 -0.08975,0.4145 0,0 0.09373,0.046 0.226811,0.0389 0.06408,0 0.543461,0.06 1.06538,0.13321 2.056597,0.2887 3.868265,0.41025 3.706746,0.24872 -0.01879,-0.0194 -1.116562,-0.2307 -2.438058,-0.46952 z M 69.00884,98.25577 c -0.864932,-0.14918 -1.619882,-0.25313 -1.67766,-0.23094 -0.187861,0.072 -0.41319,1.282 -0.239419,1.28576 0.03611,0 0.796697,0.13896 1.689956,0.30701 0.893257,0.16808 1.693253,0.30569 1.777748,0.30582 0.117935,2.1e-4 0.155299,-0.0764 0.160308,-0.32893 0.0042,-0.18108 0.0572,-0.46749 0.118979,-0.63648 0.139852,-0.38249 0.234492,-0.34613 -1.829932,-0.70224 z m -2.816932,-0.0878 c -0.854121,0 -0.866665,0.14227 -0.04864,0.55035 l 0.609838,0.30421 0.03466,-0.27364 c 0.07869,-0.62374 0.122527,-0.58092 -0.59579,-0.58092 z"
       id="path826-3"
       inkscape:connector-curvature="0"
       sodipodi:nodetypes="ccssccccscscsssscscccccscscscssssccccsssccsccscscccsccsccscsccccccccscscccsccscscsssscccccsscccscccccsccccscssccccsccssscccccccccccccccccccccccccccccccccccscssccscssccss"
       inkscape:export-xdpi="350"
       inkscape:export-ydpi="350" />
    <text
       xml:space="preserve"
       style="font-style:normal;font-weight:normal;font-size:7.41584px;line-height:1.25;font-family:sans-serif;letter-spacing:0px;word-spacing:0px;fill:#000000;fill-opacity:1;stroke:none;stroke-width:0.264851"
       x="64.987312"
       y="142.51353"
       id="text1069"><tspan
         sodipodi:role="line"
         id="tspan1067"
         style="font-style:normal;font-variant:normal;font-weight:bold;font-stretch:normal;font-size:7.41584px;font-family:Caslon;-inkscape-font-specification:'Caslon Bold';stroke-width:0.264851"
         x="64.987312"
         y="142.51353">DONT TREAD ON ME</tspan></text>
    <g
       aria-label="NERDBERG ULTRAS"
       id="text5369"
       style="font-size:8.06363px;line-height:1.25;letter-spacing:0px;word-spacing:0px;stroke-width:0.262944"
       transform="translate(0,5.9999967)">
      <g
         id="g17576"
         transform="matrix(1.0147113,0,0,1.0147113,-0.958556,-1.1720375)">
        <path
           d="m 70.810477,80.096658 h -0.387054 q -0.338673,0 -0.475754,0.435436 -0.04838,0.153209 -0.04838,0.306417 v 4.362424 h -0.516072 l -3.128689,-4.82205 V 84.2333 q 0,0.362863 0.225782,0.604772 0.129018,0.137082 0.298354,0.137082 h 0.306418 v 0.225781 h -1.927208 v -0.225781 h 0.395118 q 0.314482,0 0.467691,-0.419309 0.05645,-0.169336 0.05645,-0.322545 v -3.846352 q 0,-0.1774 -0.1774,-0.2661 -0.05644,-0.03225 -0.11289,-0.03225 H 65.367534 V 79.87088 h 1.257926 l 3.08837,4.684969 v -3.717334 q 0,-0.419308 -0.233845,-0.637026 -0.120954,-0.104827 -0.282227,-0.104827 H 68.89134 V 79.87088 h 1.919144 z"
           style="font-weight:bold;font-family:Caslon;-inkscape-font-specification:'Caslon Bold'"
           id="path17515" />
        <path
           d="m 74.91486,83.620464 -0.419308,1.580471 h -3.902797 v -0.217718 h 0.427372 q 0.169336,0 0.258036,-0.185463 0.02419,-0.05645 0.02419,-0.112891 v -4.297915 q 0,-0.169336 -0.169336,-0.2661 -0.05645,-0.03225 -0.112891,-0.03225 H 70.592754 V 79.87088 h 3.967306 l 0.354799,1.612726 H 74.729397 L 74.62457,81.241693 q -0.362864,-0.838618 -0.903127,-1.032145 -0.193527,-0.07257 -0.435436,-0.07257 h -1.032145 q -0.225781,0 -0.29029,0.282227 -0.01613,0.05645 -0.01613,0.120954 v 1.612726 h 0.806363 q 0.378991,0 0.645091,-0.322545 0.153209,-0.193527 0.153209,-0.419309 v -0.145145 h 0.169336 v 2.048162 h -0.169336 v -0.145145 q 0,-0.370927 -0.3548,-0.628964 -0.209654,-0.161272 -0.4435,-0.161272 h -0.806363 v 2.152989 q 0,0.290291 0.193528,0.378991 0.04838,0.02419 0.11289,0.02419 h 1.032145 q 0.895063,0 1.338563,-1.0644 l 0.104827,-0.249972 z"
           style="font-weight:bold;font-family:Caslon;-inkscape-font-specification:'Caslon Bold'"
           id="path17517" />
        <path
           d="m 80.623908,85.200935 h -0.717663 q -0.403181,0 -0.64509,-0.395118 -0.01613,-0.03225 -0.04032,-0.06451 L 77.801638,82.25771 h -0.862809 v 2.427153 q 0,0.193527 0.1774,0.274163 0.04838,0.02419 0.104827,0.02419 h 0.419309 v 0.217718 h -2.056226 v -0.217718 h 0.427373 q 0.169336,0 0.258036,-0.185463 0.02419,-0.05645 0.02419,-0.112891 v -4.289851 q 0,-0.185464 -0.169336,-0.274164 -0.05645,-0.03225 -0.112891,-0.03225 h -0.427373 v -0.217718 h 2.564235 q 1.007954,0 1.298244,0.620899 0.07257,0.169337 0.0887,0.378991 v 0.330609 q -0.0887,0.790236 -0.82249,0.991826 -0.112891,0.03225 -0.241909,0.04838 l 1.395008,2.378771 q 0.169336,0.290291 0.483818,0.387054 0.0887,0.03226 0.169336,0.03226 h 0.104827 z m -1.782062,-4.314042 q 0,-0.491881 -0.5322,-0.677345 -0.20159,-0.07257 -0.443499,-0.07257 h -0.927318 v 1.886889 h 0.919254 q 0.830554,0 0.959572,-0.766045 z"
           style="font-weight:bold;font-family:Caslon;-inkscape-font-specification:'Caslon Bold'"
           id="path17519" />
        <path
           d="m 85.865268,82.402856 -0.03226,0.395118 q -0.153209,0.991826 -0.959572,1.685298 -0.838617,0.717663 -1.951398,0.717663 h -2.26588 v -0.217718 h 0.427372 q 0.169336,0 0.258036,-0.185463 0.02419,-0.05645 0.02419,-0.112891 v -4.297915 q 0,-0.169336 -0.169336,-0.2661 -0.05644,-0.03225 -0.112891,-0.03225 H 80.656157 V 79.87088 H 83.7284 q 1.241799,0 1.806253,1.120844 0.322545,0.628964 0.330609,1.411136 z m -0.701536,-0.09676 Q 85.091162,81.201379 84.510578,80.588543 84.075142,80.13698 83.462306,80.13698 h -1.153099 q -0.209654,0 -0.282227,0.274163 -0.01613,0.06451 -0.01613,0.129018 v 3.991497 q 0,0.2661 0.1774,0.370927 0.05644,0.03226 0.120954,0.03226 h 0.757981 q 0.951509,0 1.564344,-0.814427 0.5322,-0.701536 0.540264,-1.636917 0,-0.0887 -0.0081,-0.1774 z"
           style="font-weight:bold;font-family:Caslon;-inkscape-font-specification:'Caslon Bold'"
           id="path17521" />
        <path
           d="m 90.453462,83.426937 -0.02419,0.314481 q -0.120954,0.725727 -0.766044,1.145036 -0.467691,0.314481 -1.048272,0.314481 h -2.290071 v -0.217718 h 0.427372 q 0.169336,0 0.258036,-0.185463 0.02419,-0.05645 0.02419,-0.112891 v -4.297915 q 0,-0.169336 -0.169336,-0.2661 -0.05645,-0.03225 -0.112891,-0.03225 H 86.324884 V 79.87088 h 2.564234 q 1.370817,0 1.370817,1.016017 0,0.838618 -0.677345,1.233736 0.846681,0.298354 0.870872,1.306308 z M 89.67129,80.886893 q 0,-0.475754 -0.427372,-0.669281 -0.185464,-0.08064 -0.395118,-0.08064 h -0.870872 q -0.225782,0 -0.290291,0.29029 -0.0081,0.05645 -0.0081,0.112891 V 82.05612 H 88.5827 q 0.572518,0 0.895063,-0.491882 0.193527,-0.298354 0.193527,-0.677345 z m 0.161273,2.652935 q 0,-0.556391 -0.370927,-0.943445 -0.274164,-0.290291 -0.6209,-0.290291 h -1.161162 v 2.225562 q 0,0.403182 0.298354,0.403182 h 0.580581 q 0.588645,0 0.99989,-0.588645 0.274164,-0.403182 0.274164,-0.806363 z"
           style="font-weight:bold;font-family:Caslon;-inkscape-font-specification:'Caslon Bold'"
           id="path17523" />
        <path
           d="m 95.130365,83.620464 -0.419309,1.580471 h -3.902797 v -0.217718 h 0.427373 q 0.169336,0 0.258036,-0.185463 0.02419,-0.05645 0.02419,-0.112891 v -4.297915 q 0,-0.169336 -0.169337,-0.2661 -0.05644,-0.03225 -0.11289,-0.03225 H 90.808258 V 79.87088 h 3.967306 l 0.3548,1.612726 H 94.9449 l -0.104827,-0.241909 q -0.362863,-0.838618 -0.903126,-1.032145 -0.193527,-0.07257 -0.435436,-0.07257 h -1.032145 q -0.225782,0 -0.290291,0.282227 -0.01613,0.05645 -0.01613,0.120954 v 1.612726 h 0.806363 q 0.378991,0 0.645091,-0.322545 0.153208,-0.193527 0.153208,-0.419309 V 81.26589 h 0.169337 v 2.048162 h -0.169337 v -0.145145 q 0,-0.370927 -0.354799,-0.628964 -0.209655,-0.161272 -0.4435,-0.161272 h -0.806363 v 2.152989 q 0,0.290291 0.193527,0.378991 0.04838,0.02419 0.112891,0.02419 h 1.032145 q 0.895063,0 1.338562,-1.0644 l 0.104827,-0.249972 z"
           style="font-weight:bold;font-family:Caslon;-inkscape-font-specification:'Caslon Bold'"
           id="path17525" />
        <path
           d="m 100.83941,85.200935 h -0.71766 q -0.403181,0 -0.64509,-0.395118 -0.01613,-0.03225 -0.04032,-0.06451 L 98.017143,82.25771 h -0.862808 v 2.427153 q 0,0.193527 0.1774,0.274163 0.04838,0.02419 0.104827,0.02419 h 0.419309 v 0.217718 h -2.056226 v -0.217718 h 0.427372 q 0.169337,0 0.258037,-0.185463 0.02419,-0.05645 0.02419,-0.112891 v -4.289851 q 0,-0.185464 -0.169336,-0.274164 -0.05644,-0.03225 -0.112891,-0.03225 h -0.427372 v -0.217718 h 2.564234 q 1.007954,0 1.298245,0.620899 0.07257,0.169337 0.0887,0.378991 v 0.330609 q -0.0887,0.790236 -0.822491,0.991826 -0.11289,0.03225 -0.241908,0.04838 l 1.395005,2.378771 q 0.16934,0.290291 0.48382,0.387054 0.0887,0.03226 0.16934,0.03226 h 0.10482 z m -1.782058,-4.314042 q 0,-0.491881 -0.5322,-0.677345 -0.201591,-0.07257 -0.4435,-0.07257 h -0.927317 v 1.886889 h 0.919254 q 0.830554,0 0.959572,-0.766045 z"
           style="font-weight:bold;font-family:Caslon;-inkscape-font-specification:'Caslon Bold'"
           id="path17527" />
        <path
           d="m 105.6534,82.467365 h -0.36286 q -0.21772,0.04838 -0.24191,0.354799 v 1.830445 l -0.30642,-0.112891 q -0.5322,0.669281 -1.60466,0.709599 l -0.33868,-0.01613 q -0.887,-0.137082 -1.47564,-1.007954 -0.52414,-0.766045 -0.52414,-1.701426 0,-0.959572 0.6209,-1.765935 0.6209,-0.798299 1.43533,-0.903126 l 0.21772,-0.0081 q 0.62896,0.0081 1.02408,0.274163 0.13708,0.09676 0.29835,0.241909 l 0.33868,-0.46769 h 0.20965 l 0.10483,1.757871 h -0.13708 q -0.21772,-0.782172 -0.7983,-1.257926 -0.45157,-0.370927 -0.96764,-0.378991 -0.0564,0 -0.11289,0.0081 -0.73379,0.05644 -1.20148,0.967635 -0.37093,0.725727 -0.37093,1.596599 0.0161,1.096654 0.5322,1.814317 0.47576,0.669281 1.23374,0.669281 0.0161,0 0.0403,0 0.74992,-0.02419 1.13698,-0.604772 v -1.644981 q 0,-0.354799 -0.2661,-0.354799 h -0.24998 v -0.169336 h 1.76594 z"
           style="font-weight:bold;font-family:Caslon;-inkscape-font-specification:'Caslon Bold'"
           id="path17529" />
        <path
           d="m 112.84613,80.088594 h -0.42737 q -0.18546,0 -0.25804,0.193527 -0.0242,0.04838 -0.0242,0.104827 v 3.039989 q 0,0.725726 -0.54832,1.314371 -0.51608,0.564455 -1.17729,0.564455 -1.17729,-0.01613 -1.61273,-0.4435 -0.37093,-0.370927 -0.37093,-1.120845 v -3.35447 q 0,-0.169336 -0.16933,-0.2661 -0.0564,-0.03225 -0.11289,-0.03225 h -0.42738 V 79.87088 h 2.06429 v 0.217718 h -0.42737 q -0.18546,0 -0.25804,0.193527 -0.0242,0.04838 -0.0242,0.104827 v 3.749588 q 0,0.556391 0.58865,0.838618 0.32254,0.153209 0.72573,0.153209 0.63702,0 1.08052,-0.572518 0.37093,-0.467691 0.37093,-1.040208 v -3.128689 q 0,-0.1774 -0.16934,-0.2661 -0.0645,-0.03225 -0.12095,-0.03225 h -0.41931 v -0.217718 h 1.71755 z"
           style="font-weight:bold;font-family:Caslon;-inkscape-font-specification:'Caslon Bold'"
           id="path17531" />
        <path
           d="m 117.10373,83.757546 -0.40318,1.443389 h -3.89474 v -0.217718 h 0.42738 q 0.2661,-0.04032 0.29029,-0.419308 v -4.176961 q 0,-0.1774 -0.1774,-0.2661 -0.0564,-0.03225 -0.11289,-0.03225 h -0.42738 V 79.87088 h 2.06429 v 0.217718 h -0.42737 q -0.1774,0 -0.24997,0.193527 -0.0242,0.04838 -0.0242,0.104827 v 4.201151 q 0,0.290291 0.19352,0.378991 0.0484,0.02419 0.1129,0.02419 h 0.96763 q 0.60477,0 1.10472,-0.540263 0.30642,-0.322545 0.41124,-0.693472 z"
           style="font-weight:bold;font-family:Caslon;-inkscape-font-specification:'Caslon Bold'"
           id="path17533" />
        <path
           d="m 122.17373,81.273948 -0.18546,0.0081 q -0.16127,-0.620899 -0.73379,-0.943445 -0.33867,-0.193527 -0.7096,-0.193527 h -0.64509 q -0.20966,0 -0.28223,0.274164 -0.0161,0.06451 -0.0161,0.129018 V 84.6849 q 0,0.193527 0.1774,0.274163 0.0484,0.02419 0.10483,0.02419 h 0.42737 v 0.217718 h -2.06429 v -0.217718 h 0.42738 q 0.16933,0 0.25803,-0.185463 0.0242,-0.05645 0.0242,-0.112891 v -4.136642 q 0,-0.298355 -0.19352,-0.387054 -0.0484,-0.01613 -0.10483,-0.01613 h -0.33061 q -0.85474,0 -1.29018,0.556391 -0.19353,0.249972 -0.25804,0.580581 l -0.20159,-0.0081 0.46769,-1.403072 h 4.66884 z"
           style="font-weight:bold;font-family:Caslon;-inkscape-font-specification:'Caslon Bold'"
           id="path17535" />
        <path
           d="m 127.68926,85.200935 h -0.71767 q -0.40318,0 -0.64509,-0.395118 -0.0161,-0.03225 -0.0403,-0.06451 l -1.41919,-2.483598 h -0.86281 v 2.427153 q 0,0.193527 0.1774,0.274163 0.0484,0.02419 0.10482,0.02419 h 0.41931 v 0.217718 h -2.05622 v -0.217718 h 0.42737 q 0.16934,0 0.25804,-0.185463 0.0242,-0.05645 0.0242,-0.112891 V 80.39501 q 0,-0.185464 -0.16934,-0.274164 -0.0564,-0.03225 -0.11289,-0.03225 h -0.42737 v -0.217718 h 2.56423 q 1.00796,0 1.29825,0.620899 0.0726,0.169337 0.0887,0.378991 v 0.330609 q -0.0887,0.790236 -0.82249,0.991826 -0.1129,0.03225 -0.24191,0.04838 l 1.395,2.378771 q 0.16934,0.290291 0.48382,0.387054 0.0887,0.03226 0.16934,0.03226 h 0.10483 z m -1.78207,-4.314042 q 0,-0.491881 -0.5322,-0.677345 -0.20159,-0.07257 -0.4435,-0.07257 h -0.92731 v 1.886889 h 0.91925 q 0.83055,0 0.95957,-0.766045 z"
           style="font-weight:bold;font-family:Caslon;-inkscape-font-specification:'Caslon Bold'"
           id="path17537" />
        <path
           d="m 133.34992,85.200935 h -1.83044 v -0.225781 h 0.32254 q 0.13708,0 0.16934,-0.137082 l -0.008,-0.104827 -0.71766,-2.072353 h -1.57241 l -0.67734,1.669171 q -0.0323,0.07257 -0.0323,0.161273 0,0.09676 0.0403,0.201591 0.11289,0.282227 0.37093,0.282227 h 0.29835 v 0.225781 h -1.87882 v -0.225781 h 0.29029 q 0.2661,0 0.47575,-0.362864 0.0242,-0.05644 0.0484,-0.104827 l 1.79819,-4.281787 -0.0806,-0.241909 0.54832,-0.314482 1.78207,4.983324 q 0.0726,0.209654 0.3548,0.298354 0.0806,0.02419 0.15321,0.02419 h 0.14514 z m -2.13686,-2.757761 -0.63703,-1.878826 -0.77411,1.878826 z"
           style="font-weight:bold;font-family:Caslon;-inkscape-font-specification:'Caslon Bold'"
           id="path17539" />
        <path
           d="m 137.09949,83.797864 q 0,0.55639 -0.44349,0.991826 -0.49995,0.491882 -1.29019,0.491882 -0.37899,0 -0.78217,-0.225782 -0.29029,-0.161273 -0.48382,-0.1774 l -0.0806,0.03226 q -0.14515,0.09676 -0.30642,0.306418 h -0.11289 l -0.0887,-1.749808 h 0.13708 q 0.20966,0.790236 0.81443,1.26599 0.45962,0.3548 0.98376,0.3548 0.72573,0 0.95151,-0.524136 0.0806,-0.185464 0.0806,-0.419309 0,-0.701536 -0.77411,-1.128908 -0.1774,-0.09676 -1.02408,-0.451564 -0.82249,-0.346736 -1.08053,-0.709599 -0.18546,-0.2661 -0.18546,-0.604772 l 0.0242,-0.2661 q 0.13708,-0.612836 0.76604,-0.975699 0.42737,-0.241909 0.90313,-0.241909 0.50801,0 0.85474,0.233845 0.19353,0.120954 0.33061,0.120954 0.0242,0 0.0484,0 0.13709,-0.0081 0.36287,-0.314481 0.0161,-0.01613 0.0242,-0.03225 h 0.11289 l 0.10483,1.782063 h -0.13709 q -0.23384,-0.878936 -0.80636,-1.330499 -0.37899,-0.298355 -0.82249,-0.298355 -0.54026,0 -0.86281,0.419309 -0.21772,0.274163 -0.21772,0.6209 0,0.532199 0.70154,0.927317 0.11289,0.05644 0.95957,0.4435 0.87087,0.395118 1.14504,0.806363 0.19352,0.29029 0.19352,0.653154 z"
           style="font-weight:bold;font-family:Caslon;-inkscape-font-specification:'Caslon Bold'"
           id="path17541" />
      </g>
    </g>
  </g>
</svg>
