<?xml version="1.0" encoding="UTF-8" standalone="no"?>
<!-- Created with Inkscape (http://www.inkscape.org/) -->

<svg
   xmlns:dc="http://purl.org/dc/elements/1.1/"
   xmlns:cc="http://creativecommons.org/ns#"
   xmlns:rdf="http://www.w3.org/1999/02/22-rdf-syntax-ns#"
   xmlns:svg="http://www.w3.org/2000/svg"
   xmlns="http://www.w3.org/2000/svg"
   xmlns:sodipodi="http://sodipodi.sourceforge.net/DTD/sodipodi-0.dtd"
   xmlns:inkscape="http://www.inkscape.org/namespaces/inkscape"
   width="210mm"
   height="297mm"
   viewBox="0 0 210 297"
   version="1.1"
   id="svg8"
   inkscape:version="0.92.3 (2405546, 2018-03-11)"
   sodipodi:docname="Nerdberglogo.svg">
  <defs
     id="defs2" />
  <sodipodi:namedview
     id="base"
     pagecolor="#ffffff"
     bordercolor="#666666"
     borderopacity="1.0"
     inkscape:pageopacity="0.0"
     inkscape:pageshadow="2"
     inkscape:zoom="0.175"
     inkscape:cx="1701.8959"
     inkscape:cy="1975.7212"
     inkscape:document-units="mm"
     inkscape:current-layer="layer1"
     showgrid="false"
     inkscape:window-width="3440"
     inkscape:window-height="1385"
     inkscape:window-x="0"
     inkscape:window-y="27"
     inkscape:window-maximized="1" />
  <metadata
     id="metadata5">
    <rdf:RDF>
      <cc:Work
         rdf:about="">
        <dc:format>image/svg+xml</dc:format>
        <dc:type
           rdf:resource="http://purl.org/dc/dcmitype/StillImage" />
        <dc:title />
      </cc:Work>
    </rdf:RDF>
  </metadata>
  <g
     inkscape:label="Layer 1"
     inkscape:groupmode="layer"
     id="layer1">
    <path
       style="fill:#000000;stroke-width:0.26458332"
       d="m 20.202822,166.12773 c -2.88755,-0.77084 -7.31869,-2.31234 -8.99583,-3.12945 -2.1571999,-1.05101 -2.3816999,-1.65576 -2.3750299,-6.39754 0.008,-5.8636 0.28003,-6.24258 5.8519499,-8.16022 5.25941,-1.8101 5.51701,-2.01007 8.04386,-6.24443 0.80679,-1.35198 1.7625,-2.73584 2.12378,-3.07524 0.63826,-0.59961 0.71091,-0.60783 2.56485,-0.28991 1.04936,0.17994 2.01586,0.43508 2.14775,0.56696 0.22212,0.22212 -6.3093,12.37489 -7.0781,13.16994 -0.2581,0.26693 -0.60717,0.24817 -1.76549,-0.0949 -2.36021,-0.69903 -2.9723,-1.10036 -2.78942,-1.82898 l 0.15732,-0.62683 -2.38125,0.84441 c -1.30969,0.46443 -2.38175,0.90865 -2.38239,0.98715 -0.003,0.19614 8.60645,2.83469 9.93603,3.04561 0.90101,0.14293 1.19883,0.0654 1.85209,-0.48234 0.88169,-0.73924 4.2483,-2.47567 7.39301,-3.81317 2.14006,-0.91021 2.77812,-1.41679 2.77812,-2.20564 0,-0.32871 -0.52757,-0.54691 -2.18188,-0.9024 -2.57625,-0.55361 -3.63895,-1.04767 -3.63895,-1.6918 0,-1.24681 1.48815,-1.40432 5.51495,-0.58371 3.26345,0.66505 5.54069,1.45025 6.3146,2.17731 0.54986,0.51656 0.97036,0.58456 4.26516,0.68971 4.71435,0.15046 6.22488,-0.23105 8.01622,-2.02462 1.36667,-1.36838 1.81446,-2.54342 1.81676,-4.76744 0.003,-1.35307 -0.0265,-1.41092 -0.59383,-1.22861 -3.43287,1.10322 -4.32851,1.23329 -7.60677,1.10472 -3.88541,-0.15237 -6.0015,-0.72008 -8.35565,-2.24165 -2.06428,-1.3342 -3.68467,-3.19422 -4.76957,-5.47496 -1.29325,-2.71877 -1.72447,-4.63287 -1.88203,-8.3538 -0.18473,-4.36291 0.29395,-6.89089 1.94392,-10.26577 3.41699,-6.98918 10.64686,-10.06432 21.26541,-9.04501 3.31854,0.31856 8.11641,1.12572 9.72344,1.63581 l 0.85989,0.27293 V 125.147 c 0,14.91596 -0.0611,17.7496 -0.42039,19.4925 -0.99471,4.82519 -3.69189,8.48428 -7.64805,10.37554 -3.34201,1.59766 -5.52754,1.98258 -11.25694,1.98258 h -4.90558 l -0.46615,0.97569 c -0.59645,1.24846 -2.38604,2.43939 -6.91462,4.60154 -8.34326,3.98344 -10.51102,4.5273 -14.16119,3.55288 z m 3.68457,-4.83994 c -0.0109,-1.34095 -0.1001,-2.96064 -0.19844,-3.59932 l -0.17883,-1.16124 -5.95313,-1.80924 c -3.27422,-0.99508 -5.98289,-1.81198 -6.01927,-1.81533 -0.0364,-0.003 -0.0662,1.5785 -0.0662,3.51522 0,2.53513 0.0998,3.65784 0.3565,4.00883 0.48811,0.66753 0.68604,0.2606 0.87916,-1.80741 0.29565,-3.16607 1.04037,-3.07857 1.31366,0.15434 0.0937,1.1091 0.25958,2.16074 0.36848,2.33697 0.35251,0.57037 0.71247,0.0313 0.89427,-1.33929 0.44672,-3.36758 1.20422,-3.3332 1.21097,0.0549 0.003,1.1192 0.11713,2.1048 0.25535,2.19023 0.32139,0.19863 0.80658,-0.699 0.80851,-1.49576 0.003,-0.92798 0.51941,-2.59708 0.80471,-2.59708 0.13911,0 0.25397,0.9786 0.25619,2.18281 0.007,3.5448 0.75571,3.8537 1.49418,0.61614 0.54081,-2.37081 0.97714,-2.14768 1.15711,0.59172 0.14687,2.23551 0.28887,2.56673 1.18112,2.7551 1.23331,0.26036 1.45659,-0.1723 1.43561,-2.78164 z m 30.04981,-29.21033 1.32292,-0.49623 0.0697,-8.63195 0.0697,-8.63195 -2.451,-0.17859 c -5.29463,-0.3858 -8.16131,1.3517 -9.50229,5.75937 -0.44771,1.47155 -0.52869,2.32807 -0.45035,4.7625 0.084,2.60964 0.18582,3.15233 0.84259,4.49181 1.29373,2.63852 3.36153,3.71274 6.79138,3.5281 1.0914,-0.0588 2.57969,-0.33013 3.30729,-0.60306 z m -315.013492,29.74268 c -1.30379,-0.87222 -1.85663,-2.60873 -1.74589,-5.48398 0.13129,-3.40859 1.00891,-4.8505 3.16527,-5.20043 1.34926,-0.21895 2.73906,0.53308 3.44368,1.8634 0.48106,0.90825 0.5763,1.52534 0.5763,3.73391 0,2.24647 -0.0913,2.81858 -0.60509,3.79032 -0.98596,1.86488 -3.12669,2.43913 -4.83427,1.29678 z m 2.53614,-0.7198 c 1.01953,-0.38762 1.51255,-1.82585 1.51255,-4.41236 0,-1.58787 -0.13366,-2.45797 -0.48948,-3.18632 -0.45716,-0.93581 -0.5671,-1.00196 -1.66527,-1.00196 -1.06318,0 -1.22733,0.0882 -1.71378,0.92116 -0.43539,0.74549 -0.53637,1.37619 -0.52955,3.30729 0.0108,3.05437 0.4706,4.04427 2.14513,4.61832 0.0269,0.009 0.36008,-0.10153 0.7404,-0.24613 z m 13.97634,0.93314 c -1.45649,-0.63341 -2.05405,-2.17541 -2.05405,-5.30044 0,-2.20857 0.0952,-2.82566 0.57631,-3.73391 1.36679,-2.5805 4.75512,-2.53792 6.05326,0.0761 0.72164,1.45314 0.71837,5.86889 -0.005,7.32709 -0.89696,1.80708 -2.69225,2.44786 -4.5701,1.63119 z m 2.13777,-0.92345 c 1.12546,-0.4279 1.58744,-1.69554 1.59693,-4.38188 0.0124,-3.50435 -0.85784,-4.76211 -2.93429,-4.24096 -0.96342,0.2418 -1.46378,1.69315 -1.46378,4.24585 0,2.95867 0.50283,4.07063 2.08621,4.61343 0.0269,0.009 0.34863,-0.0972 0.71493,-0.23644 z m 5.7692,0.79142 c -1.34367,-0.843 -1.89012,-2.33469 -1.89703,-5.1785 -0.005,-1.96135 0.10123,-2.6036 0.5895,-3.57187 1.4796,-2.93413 5.25389,-2.62615 6.3326,0.51674 0.17906,0.5217 0.32556,1.90105 0.32556,3.06522 0,1.16416 -0.1465,2.54351 -0.32556,3.06521 -0.76535,2.22991 -3.19933,3.24863 -5.02507,2.1032 z m 3.53528,-2.25826 c 0.63715,-1.66836 0.46086,-5.36687 -0.30491,-6.39668 -0.67178,-0.90342 -2.02638,-1.13887 -2.75557,-0.47896 -1.11844,1.01218 -1.37727,5.94043 -0.39103,7.44562 0.99955,1.5255 2.76242,1.23439 3.45151,-0.56998 z m 28.97587,2.32922 c -1.25414,-0.65875 -1.92643,-2.09844 -2.07724,-4.44832 -0.23179,-3.6118 0.86103,-5.96628 2.95122,-6.3584 1.53412,-0.2878 2.81506,0.33091 3.60559,1.74154 0.5825,1.03942 0.66129,1.49513 0.66146,3.82581 2.6e-4,3.83674 -0.84655,5.30293 -3.23088,5.59392 -0.65661,0.0801 -1.31537,-0.0421 -1.91015,-0.35455 z m 2.2009,-0.86238 c 1.08879,-0.41396 1.56813,-1.69926 1.583,-4.2447 0.01,-1.71697 -0.10951,-2.49931 -0.50539,-3.30729 -0.48906,-0.99817 -0.58539,-1.05834 -1.69434,-1.05834 -1.05748,0 -1.22859,0.0904 -1.70053,0.89847 -0.41757,0.71499 -0.52583,1.3904 -0.5301,3.30729 -0.007,3.07713 0.4461,4.06292 2.13243,4.64101 0.0269,0.009 0.34863,-0.0972 0.71493,-0.23644 z m 9.2341,0.88041 c -2.43839,-1.20229 -2.9344,-7.45034 -0.77823,-9.80313 1.54276,-1.68344 4.13345,-1.33826 5.32336,0.70927 0.74811,1.28729 0.789,6.28746 0.0623,7.61847 -0.93553,1.71352 -2.86887,2.33261 -4.60743,1.47539 z m 2.9232,-1.38118 c 1.26866,-1.42876 1.25359,-6.34173 -0.0239,-7.77883 -0.50557,-0.56875 -1.99782,-0.60906 -2.53831,-0.0686 -0.73059,0.73058 -1.0315,2.24358 -0.91444,4.59783 0.12358,2.48536 0.47888,3.34199 1.53252,3.69484 0.81358,0.27247 1.4327,0.13066 1.9441,-0.44528 z m 21.36055,1.36315 c -1.48999,-0.78263 -2.00253,-2.12364 -2.00253,-5.23937 0,-2.15763 0.10099,-2.84112 0.54732,-3.70417 0.68633,-1.32712 1.98772,-2.0579 3.36536,-1.88976 2.38423,0.29098 3.23107,1.75711 3.23107,5.59393 0,3.83681 -0.84684,5.30294 -3.23107,5.59392 -0.65661,0.0801 -1.31537,-0.0421 -1.91015,-0.35455 z m 2.2009,-0.86238 c 1.12546,-0.4279 1.58744,-1.69554 1.59694,-4.38188 0.007,-1.9311 -0.0942,-2.5618 -0.52955,-3.30729 -0.48645,-0.83292 -0.6506,-0.92116 -1.71378,-0.92116 -1.10911,0 -1.20505,0.06 -1.69173,1.05734 -0.38425,0.78747 -0.51339,1.59784 -0.50594,3.175 0.0138,2.92901 0.54014,4.06971 2.12913,4.61443 0.0269,0.009 0.34863,-0.0972 0.71493,-0.23644 z m 6.11532,1.07557 c -1.51425,-0.66025 -2.25075,-2.46943 -2.24315,-5.51021 0.007,-2.77174 0.56493,-4.27503 1.89704,-5.11076 1.82573,-1.14544 4.25971,-0.12672 5.02506,2.10319 0.17906,0.5217 0.32556,1.90105 0.32556,3.06522 0,2.50138 -0.37185,3.74619 -1.41864,4.74909 -0.82395,0.78939 -2.5929,1.13642 -3.58587,0.70347 z m 2.90223,-1.99352 c 0.45914,-0.61496 0.53735,-1.11846 0.53735,-3.45904 0,-2.37343 -0.0745,-2.8391 -0.55772,-3.48633 -0.44032,-0.58976 -0.76848,-0.74701 -1.55894,-0.74701 -0.79047,0 -1.11863,0.15725 -1.55895,0.74701 -0.48214,0.64576 -0.55772,1.1135 -0.55772,3.45122 0,2.16306 0.0957,2.85034 0.47844,3.43441 0.90208,1.37674 2.21604,1.40114 3.21754,0.0597 z m 12.91947,1.71104 c -1.45638,-0.888 -1.79878,-1.87215 -1.79878,-5.17008 0,-2.44674 0.0857,-3.05796 0.53816,-3.83646 1.18992,-2.04753 3.78061,-2.39271 5.32336,-0.70927 2.17884,2.37752 1.6557,8.63801 -0.81998,9.81279 -1.18233,0.56106 -2.21416,0.5302 -3.24276,-0.097 z m 3.47148,-1.98735 c 0.26538,-0.55925 0.41828,-1.6043 0.41828,-2.85892 0,-2.49914 -0.19203,-3.45345 -0.83347,-4.14195 -0.64185,-0.68894 -2.09546,-0.72877 -2.68832,-0.0737 -0.99652,1.10113 -1.22572,5.39326 -0.38198,7.1529 0.76329,1.59185 2.71373,1.548 3.48549,-0.0784 z m 16.07946,1.98568 c -1.34368,-0.843 -1.89013,-2.33469 -1.89704,-5.1785 -0.005,-1.96135 0.10123,-2.6036 0.5895,-3.57187 1.4796,-2.93413 5.2539,-2.62615 6.3326,0.51674 0.17906,0.5217 0.32556,1.90105 0.32556,3.06522 0,1.16416 -0.1465,2.54351 -0.32556,3.06521 -0.76535,2.22991 -3.19933,3.24863 -5.02506,2.1032 z m 3.53527,-2.25826 c 0.63848,-1.67184 0.46092,-5.36801 -0.3073,-6.39668 -0.79245,-1.06112 -2.32548,-1.06108 -3.11789,6e-5 -0.48213,0.64565 -0.55772,1.11333 -0.55772,3.45062 0,2.16238 0.0958,2.85007 0.47845,3.43455 1.05055,1.60467 2.79809,1.36105 3.50446,-0.48855 z m 28.804252,2.27947 c -1.11611,-0.6806 -1.76338,-2.18506 -1.90783,-4.43438 -0.22951,-3.57388 0.87208,-5.93213 2.95343,-6.32259 1.53412,-0.2878 2.81506,0.33091 3.60559,1.74154 0.5825,1.03942 0.66129,1.49513 0.66146,3.82581 1.6e-4,2.15788 -0.10075,2.84101 -0.54713,3.70416 -0.94087,1.8193 -3.10952,2.49529 -4.76552,1.48546 z m 2.398,-0.82232 c 1.02033,-0.38793 1.54363,-1.85752 1.55547,-4.3683 0.007,-1.57716 -0.12169,-2.38753 -0.50594,-3.175 -0.48668,-0.99738 -0.58262,-1.05734 -1.69174,-1.05734 -1.06317,0 -1.22732,0.0882 -1.71377,0.92116 -0.43539,0.74549 -0.53638,1.37619 -0.52955,3.30729 0.0108,3.05437 0.47059,4.04427 2.14512,4.61832 0.0269,0.009 0.36009,-0.10153 0.74041,-0.24613 z m 6.08984,1.08526 c -1.49704,-0.65274 -2.27542,-2.52522 -2.27542,-5.47381 0,-1.64199 0.13721,-2.53407 0.5244,-3.40936 0.9346,-2.11281 3.04772,-2.84007 4.82075,-1.65913 1.38157,0.92021 1.88445,2.21602 1.90595,4.91118 0.0214,2.67596 -0.32638,3.90882 -1.38981,4.92765 -0.82395,0.78939 -2.5929,1.13642 -3.58587,0.70347 z m 2.90223,-1.99352 c 0.45914,-0.61496 0.53735,-1.11846 0.53735,-3.45904 0,-2.37343 -0.0745,-2.8391 -0.55772,-3.48633 -0.44032,-0.58976 -0.76847,-0.74701 -1.55894,-0.74701 -0.79047,0 -1.11863,0.15725 -1.55895,0.74701 -0.48213,0.64576 -0.55772,1.1135 -0.55772,3.45122 0,2.16306 0.0957,2.85034 0.47845,3.43441 0.90207,1.37674 2.21603,1.40114 3.21753,0.0597 z m 12.88863,1.69228 c -1.44497,-0.88096 -1.9791,-2.47114 -1.85637,-5.52667 0.11848,-2.94979 0.61025,-4.0988 2.0818,-4.86403 3.05279,-1.58749 5.67087,1.58508 5.1804,6.27757 -0.39986,3.8257 -2.83646,5.67963 -5.40583,4.11313 z m 3.38034,-1.65032 c 0.50525,-0.79597 0.69542,-4.875 0.28522,-6.11791 -0.17422,-0.52789 -0.49427,-1.13731 -0.71122,-1.35426 -0.53998,-0.53998 -2.03163,-0.49979 -2.54474,0.0686 -1.02521,1.1356 -1.27609,5.32142 -0.4253,7.09584 0.71847,1.49842 2.53572,1.66311 3.39604,0.30777 z m 8.23133,1.73837 c -1.48999,-0.78263 -2.00253,-2.12364 -2.00253,-5.23937 0,-2.15763 0.10099,-2.84112 0.54733,-3.70417 0.68632,-1.32712 1.98772,-2.0579 3.36536,-1.88976 2.38422,0.29098 3.23106,1.75711 3.23106,5.59393 0,3.83681 -0.84684,5.30294 -3.23106,5.59392 -0.65662,0.0801 -1.31538,-0.0421 -1.91016,-0.35455 z m 2.20091,-0.86238 c 1.12545,-0.4279 1.58743,-1.69554 1.59693,-4.38188 0.007,-1.9311 -0.0942,-2.5618 -0.52955,-3.30729 -0.48645,-0.83292 -0.6506,-0.92116 -1.71377,-0.92116 -1.10912,0 -1.20506,0.06 -1.69174,1.05734 -0.38425,0.78747 -0.51338,1.59784 -0.50594,3.175 0.0138,2.92901 0.54014,4.06971 2.12914,4.61443 0.0269,0.009 0.34862,-0.0972 0.71493,-0.23644 z m 21.93701,0.79309 c -1.45638,-0.888 -1.79878,-1.87215 -1.79878,-5.17008 0,-2.44674 0.0857,-3.05796 0.53817,-3.83646 1.18991,-2.04753 3.7806,-2.39271 5.32335,-0.70927 2.17885,2.37752 1.65569,8.63801 -0.81997,9.81279 -1.18234,0.56106 -2.21416,0.5302 -3.24277,-0.097 z m 3.47148,-1.98735 c 0.26538,-0.55925 0.41828,-1.6043 0.41828,-2.85892 0,-2.49914 -0.19203,-3.45345 -0.83346,-4.14195 -0.64186,-0.68894 -2.09547,-0.72877 -2.68833,-0.0737 -0.99863,1.10347 -1.24334,5.35644 -0.40839,7.09779 0.78824,1.64394 2.72685,1.6311 3.5119,-0.0233 z m 5.0269,2.24947 c -2.16776,-0.87696 -3.17916,-5.73338 -1.84526,-8.86042 1.21788,-2.85502 4.75962,-2.94332 6.16633,-0.15374 0.80269,1.5918 0.84333,5.39126 0.0757,7.08222 -0.80835,1.78069 -2.70767,2.61525 -4.39679,1.93194 z m 2.89126,-1.92956 c 1.04725,-1.40266 0.8106,-6.41551 -0.35253,-7.46813 -0.72919,-0.65991 -2.08378,-0.42446 -2.75556,0.47896 -0.76687,1.03127 -0.94205,4.72834 -0.30332,6.40083 0.69033,1.80764 2.29452,2.0843 3.41141,0.58834 z m 13.4022001,2.01367 c -0.85188,-0.33995 -1.87407,-1.5723 -2.15103,-2.5933 -0.4824201,-1.77832 -0.3533501,-4.94957 0.25765,-6.33084 1.32757,-3.00124 4.84045,-3.00124 6.16802,0 0.38084,0.86093 0.53679,1.79062 0.5425,3.23409 0.0145,3.70591 -1.04547,5.56793 -3.27567,5.75329 -0.62953,0.0523 -1.32319,0.0239 -1.54147,-0.0632 z m 2.76995,-2.05727 c 0.45913,-0.61496 0.53735,-1.11846 0.53735,-3.45904 0,-2.37343 -0.0745,-2.8391 -0.55772,-3.48633 -0.44032,-0.58976 -0.76848,-0.74701 -1.55895,-0.74701 -0.79047,0 -1.11863,0.15725 -1.55895,0.74701 -0.48213,0.64576 -0.55772,1.1135 -0.55772,3.45122 0,2.16306 0.0957,2.85034 0.47845,3.43441 0.90207,1.37674 2.21604,1.40114 3.21754,0.0597 z m 4.98424996,1.8414 c -1.45647996,-0.63341 -2.05403996,-2.17541 -2.05403996,-5.30044 0,-2.20857 0.0953,-2.82566 0.57632,-3.73391 1.36672996,-2.58042 4.78189,-2.53738 6.03649,0.0761 0.70244,1.46327 0.80486,5.09858 0.19233,6.82671 -0.77521,2.18701 -2.66946,3.03687 -4.75110004,2.13157 z m 2.13778004,-0.92345 c 1.12546,-0.4279 1.58742,-1.69554 1.59695,-4.38188 0.0124,-3.50435 -0.85786,-4.76211 -2.93431004,-4.24096 -0.96343,0.2418 -1.46378,1.69315 -1.46378,4.24585 0,2.95867 0.50284,4.07063 2.08621004,4.61343 0.0269,0.009 0.34862,-0.0972 0.71493,-0.23644 z m -256.2190721,0.53301 c 0,-0.4155 0.21541,-0.52954 1.12448,-0.59531 l 1.12448,-0.0814 0.073,-4.18971 0.073,-4.18971 -0.86673,0.17457 c -0.4767,0.096 -1.07509,0.23323 -1.32975,0.30493 -0.35084,0.0988 -0.46302,-0.0274 -0.46302,-0.52061 0,-0.76673 0.35212,-0.93413 2.41941,-1.15021 l 1.53712,-0.16066 0.0723,4.8657 0.0722,4.8657 1.12448,0.0814 c 0.90908,0.0658 1.12448,0.17981 1.12448,0.59531 0,0.47909 -0.20641,0.51395 -3.04271,0.51395 -2.8363,0 -3.04271,-0.0349 -3.04271,-0.51395 z m 24.07709,-0.0152 c 0,-0.45077 0.17639,-0.52917 1.19062,-0.52917 h 1.19063 v -4.26202 -4.26201 l -0.72761,0.17354 c -0.40018,0.0954 -0.93596,0.23544 -1.19062,0.31109 -0.35488,0.10543 -0.46302,-0.0182 -0.46302,-0.52929 0,-0.54521 0.18099,-0.71712 0.99219,-0.9424 0.5457,-0.15155 1.43867,-0.27621 1.98437,-0.27702 l 0.99219,-0.001 v 4.89479 4.89479 h 1.19062 c 1.01424,0 1.19063,0.0784 1.19063,0.52917 0,0.49977 -0.17639,0.52916 -3.175,0.52916 -2.99861,0 -3.175,-0.0294 -3.175,-0.52916 z m 8.20208,0 c 0,-0.45077 0.17639,-0.52917 1.19063,-0.52917 h 1.19062 v -4.25436 -4.25435 l -0.85989,0.17307 c -0.47295,0.0952 -1.06826,0.23173 -1.32292,0.30343 -0.35084,0.0988 -0.46302,-0.0274 -0.46302,-0.52061 0,-0.76673 0.35212,-0.93413 2.41941,-1.15021 l 1.53711,-0.16066 0.0723,4.8657 0.0723,4.8657 1.12448,0.0814 c 0.90907,0.0658 1.12448,0.17981 1.12448,0.59531 0,0.47909 -0.20641,0.51395 -3.04271,0.51395 -2.86632,0 -3.04271,-0.0307 -3.04271,-0.52916 z m 8.20209,0.0152 c 0,-0.4155 0.2154,-0.52954 1.12447,-0.59531 l 1.12448,-0.0814 0.073,-4.18971 0.073,-4.18971 -0.86673,0.17457 c -0.4767,0.096 -1.07509,0.23323 -1.32975,0.30493 -0.35083,0.0988 -0.46302,-0.0274 -0.46302,-0.52061 0,-0.76673 0.35212,-0.93413 2.41941,-1.15021 l 1.53712,-0.16066 0.0723,4.8657 0.0723,4.8657 1.12448,0.0814 c 0.90908,0.0658 1.12448,0.17981 1.12448,0.59531 0,0.47909 -0.20641,0.51395 -3.04271,0.51395 -2.8363,0 -3.0427,-0.0349 -3.0427,-0.51395 z m 27.51666,-0.0152 c 0,-0.45077 0.17639,-0.52917 1.19063,-0.52917 h 1.19062 v -4.25436 -4.25435 l -0.85989,0.17307 c -0.47295,0.0952 -1.06826,0.23173 -1.32292,0.30343 -0.35084,0.0988 -0.46302,-0.0274 -0.46302,-0.52061 0,-0.76673 0.35212,-0.93413 2.41941,-1.15021 l 1.53712,-0.16066 0.0722,4.8657 0.0723,4.8657 1.12448,0.0814 c 0.90907,0.0658 1.12448,0.17981 1.12448,0.59531 0,0.47909 -0.20641,0.51395 -3.04271,0.51395 -2.86632,0 -3.04271,-0.0307 -3.04271,-0.52916 z m 8.20209,0.0152 c 0,-0.4155 0.2154,-0.52954 1.12448,-0.59531 l 1.12447,-0.0814 0.073,-4.18971 0.073,-4.18971 -0.86673,0.17457 c -0.4767,0.096 -1.07508,0.23323 -1.32975,0.30493 -0.35083,0.0988 -0.46302,-0.0274 -0.46302,-0.52061 0,-0.76673 0.35212,-0.93413 2.41941,-1.15021 l 1.53712,-0.16066 0.0723,4.8657 0.0723,4.8657 1.12448,0.0814 c 0.90908,0.0658 1.12448,0.17981 1.12448,0.59531 0,0.47909 -0.20641,0.51395 -3.04271,0.51395 -2.83629,0 -3.0427,-0.0349 -3.0427,-0.51395 z m 24.07708,-0.0152 c 0,-0.45077 0.17639,-0.52917 1.19063,-0.52917 h 1.19062 v -4.26202 -4.26201 l -0.7276,0.17354 c -0.40019,0.0954 -0.93597,0.23544 -1.19063,0.31109 -0.35488,0.10543 -0.46302,-0.0182 -0.46302,-0.52929 0,-0.54521 0.18099,-0.71712 0.99219,-0.9424 0.5457,-0.15155 1.43867,-0.27621 1.98437,-0.27702 l 0.99219,-0.001 v 4.89479 4.89479 h 1.19063 c 1.01423,0 1.19062,0.0784 1.19062,0.52917 0,0.49977 -0.17639,0.52916 -3.175,0.52916 -2.99861,0 -3.175,-0.0294 -3.175,-0.52916 z m 16.40417,0.0152 c 0,-0.4155 0.2154,-0.52954 1.12448,-0.59531 l 1.12448,-0.0814 0.073,-4.18971 0.073,-4.18971 -0.86672,0.17457 c -0.47671,0.096 -1.07509,0.23323 -1.32976,0.30493 -0.35083,0.0988 -0.46302,-0.0274 -0.46302,-0.52061 0,-0.76717 0.35182,-0.9341 2.42552,-1.15085 l 1.54323,-0.16129 v 4.93248 4.93248 h 1.19063 c 1.01423,0 1.19062,0.0784 1.19062,0.52917 0,0.49849 -0.17639,0.52916 -3.0427,0.52916 -2.8363,0 -3.04271,-0.0349 -3.04271,-0.51395 z m 19.31458,-0.0152 c 0,-0.45077 0.17639,-0.52917 1.19063,-0.52917 h 1.19062 v -4.26202 -4.26201 l -0.7276,0.17354 c -0.40019,0.0954 -0.93597,0.23544 -1.19063,0.31109 -0.35488,0.10543 -0.46302,-0.0182 -0.46302,-0.52929 0,-0.54521 0.18099,-0.71712 0.99219,-0.9424 0.5457,-0.15155 1.43867,-0.27621 1.98437,-0.27702 l 0.99219,-0.001 v 4.89479 4.89479 h 1.19063 c 1.01423,0 1.19062,0.0784 1.19062,0.52917 0,0.49977 -0.17639,0.52916 -3.175,0.52916 -2.99861,0 -3.175,-0.0294 -3.175,-0.52916 z m 8.20208,0 c 0,-0.45077 0.17639,-0.52917 1.19063,-0.52917 h 1.19062 v -4.25436 -4.25435 l -0.85989,0.17307 c -0.47294,0.0952 -1.06826,0.23173 -1.32292,0.30343 -0.35084,0.0988 -0.46302,-0.0274 -0.46302,-0.52061 0,-0.76673 0.35212,-0.93413 2.41941,-1.15021 l 1.53712,-0.16066 0.0723,4.8657 0.0722,4.8657 1.12448,0.0814 c 0.90908,0.0658 1.12448,0.17981 1.12448,0.59531 0,0.47909 -0.20641,0.51395 -3.04271,0.51395 -2.86632,0 -3.04271,-0.0307 -3.04271,-0.52916 z m 8.20209,0.0152 c 0,-0.4155 0.2154,-0.52954 1.12448,-0.59531 l 1.124482,-0.0814 0.073,-4.18971 0.073,-4.18971 -0.86672,0.17457 c -0.476712,0.096 -1.075092,0.23323 -1.329752,0.30493 -0.35084,0.0988 -0.46303,-0.0274 -0.46303,-0.52061 0,-0.76673 0.35212,-0.93413 2.419412,-1.15021 l 1.53712,-0.16066 0.0723,4.8657 0.0723,4.8657 1.12448,0.0814 c 0.90907,0.0658 1.12447,0.17981 1.12447,0.59531 0,0.47909 -0.2064,0.51395 -3.0427,0.51395 -2.836302,0 -3.042712,-0.0349 -3.042712,-0.51395 z m 24.077082,-0.0152 c 0,-0.45077 0.17639,-0.52917 1.19063,-0.52917 h 1.19062 v -4.23333 c 0,-2.32834 -0.0893,-4.23049 -0.19844,-4.22702 -0.10914,0.003 -0.64492,0.10999 -1.19062,0.23672 -0.9291,0.21575 -0.99219,0.19111 -0.99219,-0.38758 0,-0.80991 0.18824,-0.90186 2.23817,-1.09329 l 1.73058,-0.1616 v 4.93305 4.93305 h 1.19063 c 1.01423,0 1.19062,0.0784 1.19062,0.52917 0,0.49977 -0.17639,0.52916 -3.175,0.52916 -2.99861,0 -3.175,-0.0294 -3.175,-0.52916 z m 27.78125,0.0152 c 0,-0.4155 0.21541,-0.52954 1.12448,-0.59531 l 1.12448,-0.0814 0.073,-4.18971 0.073,-4.18971 -0.86673,0.17457 c -0.4767,0.096 -1.07509,0.23323 -1.32975,0.30493 -0.35084,0.0988 -0.46302,-0.0274 -0.46302,-0.52061 0,-0.76673 0.35212,-0.93413 2.41941,-1.15021 l 1.53712,-0.16066 0.0723,4.8657 0.0723,4.8657 1.12448,0.0814 c 0.90907,0.0658 1.12448,0.17981 1.12448,0.59531 0,0.47909 -0.20641,0.51395 -3.04271,0.51395 -2.8363,0 -3.04271,-0.0349 -3.04271,-0.51395 z m 7.9375,-0.0152 c 0,-0.45077 0.17639,-0.52917 1.19063,-0.52917 h 1.19062 v -4.23333 c 0,-2.32834 -0.0893,-4.23049 -0.19843,-4.22702 -0.10915,0.003 -0.64493,0.10999 -1.19063,0.23672 -0.93021,0.21601 -0.99219,0.1916 -0.99219,-0.39076 0,-0.4924 0.20566,-0.67827 0.99219,-0.8967 0.5457,-0.15155 1.43867,-0.27621 1.98438,-0.27702 l 0.99218,-0.001 v 4.89479 4.89479 h 1.19063 c 1.01423,0 1.19062,0.0784 1.19062,0.52917 0,0.49977 -0.17639,0.52916 -3.175,0.52916 -2.99861,0 -3.175,-0.0294 -3.175,-0.52916 z m 24.34167,0 c 0,-0.45077 0.1764,-0.52917 1.19063,-0.52917 h 1.19062 v -4.25436 -4.25435 l -0.8599,0.17307 c -0.47294,0.0952 -1.06825,0.23173 -1.32291,0.30343 -0.35084,0.0988 -0.46302,-0.0274 -0.46302,-0.52061 0,-0.78141 0.38327,-0.95376 2.57643,-1.15856 l 1.6569,-0.15472 v 4.93305 4.93305 h 1.19063 c 1.01422,0 1.19062,0.0784 1.19062,0.52917 0,0.49977 -0.1764,0.52916 -3.175,0.52916 -2.9986,0 -3.175,-0.0294 -3.175,-0.52916 z m -211.594952,-15.1933 c -4.75633,-1.26025 -8.31745,-3.71899 -9.33836,-6.44758 -1.82616,-4.88082 -2.6281,-10.72355 -2.82198,-20.56016 -0.16174,-8.2059 0.0639,-14.5393 1.10755,-31.088544 1.75,-27.749984 1.4872,-35.583981 -1.31707,-39.260568 -1.66823,-2.187157 -5.05482,-3.871206 -7.76762,-3.862604 -2.89136,0.0092 -6.99636,1.578599 -8.35629,3.194788 -1.0222,1.21481 -1.85103,2.962338 -2.62493,5.53444 -1.91526,6.365515 -1.85915,5.931353 -6.12039,47.358528 -3.3455,32.52457 -4.47593,42.76436 -4.5897,41.57507 -0.26347,-2.75396 5.1274,-64.285179 7.11539,-81.214927 0.59653,-5.080037 1.35696,-7.846094 3.1222,-11.356991 2.66458,-5.299572 6.4371,-7.338001 12.33929,-6.667349 6.55473,0.744802 9.34887,3.122507 10.58722,9.009324 0.97554,4.637467 1.0187,14.1331 0.12253,26.959039 -1.04417,14.944076 -1.32973,19.504916 -1.60692,25.664584 -0.33829,7.51749 -0.19375,19.07872 0.29108,23.28333 0.74728,6.48057 2.40789,11.24934 4.55829,13.09 2.45436,2.10084 6.24807,3.30186 11.04882,3.49787 4.04184,0.16502 6.00551,-0.23155 9.08835,-1.83542 3.75584,-1.95401 6.59953,-5.39216 7.18935,-8.69228 l 0.17001,-0.95129 -1.5211,-0.30548 c -1.98998,-0.39965 -2.22661,-0.38692 -2.22661,0.11971 0,0.68014 -1.48647,3.606 -2.45172,4.82579 -3.39056,4.28464 -10.75916,5.50053 -16.32071,2.69307 -3.43615,-1.73456 -5.22821,-4.28976 -5.94259,-8.47322 -1.14393,-6.69885 -1.21675,-23.72237 -0.16919,-39.555206 1.85307,-28.007362 1.97234,-35.571056 0.65358,-41.447267 -1.01795,-4.53581 -3.13972,-7.103933 -7.79457,-9.434295 -3.35164,-1.677937 -4.92514,-2.012998 -7.68124,-1.635636 -6.40222,0.876586 -10.6573,3.337682 -12.79105,7.398218 -2.3695,4.509167 -2.38786,4.627047 -6.24205,40.091897 -3.26348,30.029289 -4.46614,39.886639 -4.92027,40.327909 -0.0868,0.0843 -0.0824,-0.73963 0.01,-1.83104 2.52517,-29.884888 5.78802,-63.210039 7.00423,-71.537818 0.54324,-3.719661 1.48128,-6.077038 3.59922,-9.045057 7.11639,-9.972725 21.45865,-9.965782 28.57996,0.01384 2.82924,3.964821 3.1901,6.173134 2.94062,17.995082 -0.1651,7.823325 -0.58754,16.173209 -1.36114,26.90446 -1.31872,18.292953 -0.95322,38.708823 0.80285,44.844743 0.49082,1.71497 1.75501,2.85877 4.86635,4.40289 2.21284,1.09821 2.2503,1.10624 5.16494,1.10624 2.78673,0 3.02604,-0.0444 4.7094,-0.87308 3.55052,-1.74792 6.24793,-5.09759 6.23179,-7.73872 -0.004,-0.64778 0.30038,-3.49951 0.6763,-6.33716 0.87915,-6.6363 2.09679,-17.79391 2.93073,-26.855207 0.57836,-6.284335 1.32776,-11.122517 6.22928,-40.216666 3.06451,-18.190103 5.63564,-33.385854 5.71362,-33.768336 0.11694,-0.57355 0.0285,-0.723841 -0.50443,-0.857609 -0.35543,-0.08921 -0.71144,-0.332124 -0.79114,-0.539814 -0.26325,-0.686009 1.56279,-13.042063 5.48994,-37.148203 1.54342,-9.474046 1.90097,-12.177865 1.70448,-12.889483 -0.13675,-0.495284 -0.27392,-1.509364 -0.30482,-2.253507 -0.063,-1.516906 0.40417,-2.104504 1.67317,-2.104504 1.24692,0 1.55032,-0.691597 2.15991,-4.92361 0.31213,-2.166961 0.68064,-4.088759 0.81892,-4.27066 0.16103,-0.211844 0.95126,-0.330729 2.19834,-0.330729 1.80309,0 1.9568,-0.04398 2.08046,-0.595313 0.0734,-0.327422 0.68368,-3.73485 1.3561,-7.572062 0.90475,-5.163042 1.15448,-7.126224 0.9606,-7.551733 -0.19356,-0.424817 0.0145,-2.092302 0.79657,-6.384712 0.88695,-4.86788 1.15675,-5.90806 1.66426,-6.41632 0.59726,-0.59815 0.99613,-1.32678 1.81637,-3.31798 0.39348,-0.9552 0.468,-1.00357 1.28198,-0.83202 0.47532,0.10018 0.94054,0.25889 1.03383,0.3527 0.0933,0.0938 0.22031,1.20366 0.28228,2.46633 0.062,1.26267 0.25133,2.46284 0.42081,2.66704 0.23813,0.28693 0.0728,1.71287 -0.72775,6.27673 -0.95041,5.418192 -1.16209,6.12728 -1.91561,6.417101 -0.15598,0.06 -2.85955,14.414446 -2.85955,15.182622 0,0.148124 0.65079,0.474458 1.44619,0.725188 0.79541,0.25073 1.49729,0.540364 1.55974,0.643631 0.0625,0.103267 -0.17298,1.854634 -0.52318,3.891925 -0.83276,4.844558 -0.78927,5.350272 0.52301,6.082496 1.82481,1.018206 1.84195,1.510823 0.15306,4.399097 l -1.02349,1.750343 -2.14352,12.9340315 c -2.63048,15.872451 -6.04904,34.3389685 -6.48853,35.0500785 -0.082,0.132686 -0.49699,0.241244 -0.92219,0.241244 -0.58588,0 -0.80534,0.144159 -0.90624,0.595313 -0.0732,0.327422 -2.56912,15.422202 -5.54642,33.543953 -5.00842,30.484492 -5.55267,33.51199 -7.27729,40.481245 -2.69491,10.89026 -6.10322,28.51741 -6.10322,31.56475 0,0.37406 -0.14883,0.77532 -0.33073,0.89169 -0.1819,0.11637 -0.55037,0.86643 -0.81882,1.66679 -1.747,5.2086 -6.09064,9.47006 -11.38998,11.17449 -1.20083,0.38623 -2.60075,0.54763 -5.45214,0.6286 -3.43683,0.0976 -4.09082,0.0416 -6.27828,-0.53805 z m 23.91543,-18.05061 c 1.03951,-7.23685 3.99787,-21.52411 6.41555,-30.983695 l 0.76075,-2.976563 -1.22808,2.15e-4 -1.22808,2.14e-4 -1.25137,3.90239 c -2.10265,6.557119 -3.89957,14.582059 -6.03732,26.962279 l -1.08399,6.27769 0.61446,0.46549 c 0.54859,0.41558 2.0043,0.75869 2.32446,0.54787 0.0674,-0.0444 0.38851,-1.93251 0.71362,-4.19589 z m 7.52892,-35.680454 c 0.45385,-1.833523 10.89733,-66.021263 10.76356,-66.155029 -0.0806,-0.0806 -0.48755,-0.170947 -0.90432,-0.200766 -0.75535,-0.05404 -0.76054,-0.0436 -1.61761,3.253076 -1.34489,5.173085 -3.06343,13.323855 -4.96496,23.547916 -1.83344,9.858021 -6.74691,38.735891 -6.74691,39.653564 0,0.446548 0.20604,0.550749 1.25677,0.635611 1.90128,0.153554 2.00195,0.120153 2.21347,-0.734372 z m 12.93393,-67.16248 c 0,-0.05006 0.35974,-1.86576 0.79942,-4.034896 1.83836,-9.06939 4.19302,-22.5224095 7.23378,-41.329119 l 0.35501,-2.195653 -0.95296,-0.400219 c -1.29418,-0.543526 -5.74976,-1.690767 -6.56648,-1.690767 -0.47285,0 -0.61833,0.110686 -0.51147,0.389154 0.26758,0.69731 -7.02586,35.106898 -9.45719,44.617938 -0.34948,1.367089 -0.67739,2.655665 -0.7287,2.863506 -0.10389,0.420825 0.37165,0.536562 5.46296,1.329595 3.19528,0.497702 4.36563,0.618463 4.36563,0.450461 z m 9.92697,-50.080089 c 1.05976,-1.80835 0.86548,-2.239002 -1.32801,-2.94373 -1.01865,-0.327271 -2.23904,-0.667943 -2.71198,-0.75705 -0.81307,-0.153188 -0.8599,-0.119329 -0.8599,0.621705 0,1.172472 -0.51496,2.423954 -1.13365,2.755069 -0.48063,0.257225 -0.27477,0.372846 1.6567,0.93046 1.21304,0.350206 2.39401,0.74222 2.62438,0.871141 0.53566,0.29977 0.88198,0.0078 1.75246,-1.477595 z m -1.89269,-4.462483 c -0.33189,-0.864905 -9.55957,-2.465486 -10.01022,-1.736315 -0.10873,0.175929 0.1986,0.278625 0.83584,0.279297 1.90814,0.0021 6.80232,0.968838 9.26773,1.830797 0.0318,0.01111 -0.0102,-0.157078 -0.0933,-0.373779 z m -2.98408,-2.714853 c 2.01683,-1.690846 2.77946,-2.663608 3.24099,-4.133998 0.26729,-0.851569 0.38635,-1.64433 0.26459,-1.761691 -0.78167,-0.753374 -8.70607,-1.927249 -9.06706,-1.343144 -0.22564,0.36508 -1.18987,6.891536 -1.03733,7.021161 0.1037,0.08812 4.17592,0.578971 5.31892,0.641127 0.40018,0.02175 0.97613,-0.168793 1.27989,-0.423455 z m 2.62209,-15.699673 c 0.71974,-3.982765 1.21582,-7.334193 1.1024,-7.447614 -0.11342,-0.113422 -0.67559,-0.23508 -1.24925,-0.270352 0,0 -0.13853,0.282153 -0.1171,0.683564 0,0.192951 -0.18066,1.637836 -0.40148,3.210856 -0.87006,6.198158 -1.23644,11.658198 -0.74962,11.171378 0.0585,-0.05854 0.69531,-3.365064 1.41506,-7.347831 z m 3.43994,-13.844488 c 0.44965,-2.60672 0.76286,-4.88198 0.69602,-5.05615 -0.2173,-0.56629 -3.86368,-1.24527 -3.87507,-0.72156 -0.002,0.10914 -0.41873,2.40109 -0.92523,5.09323 -0.50651,2.69213 -0.92128,5.103147 -0.92173,5.357809 -5.3e-4,0.355231 0.23017,0.467706 0.99138,0.483149 0.54571,0.01107 1.40891,0.17244 1.91823,0.358597 1.15269,0.421309 1.04317,0.706722 2.1164,-5.515075 z m 0.26485,-8.48969 c 0,-2.57412 -0.42876,-2.61197 -1.65866,-0.14643 l -0.91683,1.83794 0.82473,0.10409 c 1.87976,0.23724 1.75076,0.36955 1.75076,-1.7956 z m -7.34548,214.15097 c -7.05908,-1.17596 -12.1564,-5.70117 -14.13714,-12.5504 -0.53366,-1.84535 -0.60775,-2.67539 -0.60114,-6.73495 0.007,-4.53511 0.0254,-4.68184 0.87485,-7.14375 1.10346,-3.19789 2.76477,-5.86606 4.89073,-7.8548 3.38995,-3.17112 6.31872,-4.32701 11.42339,-4.50841 3.99298,-0.1419 6.08488,0.23385 8.84645,1.589 2.38826,1.17198 5.24713,3.92816 6.45118,6.21947 1.64334,3.12728 2.07272,5.14093 2.22653,10.44172 l 0.13628,4.69635 h -12.07137 c -8.82201,0 -12.07136,0.0808 -12.07136,0.30003 0,1.6416 1.82232,4.22214 3.80006,5.38117 3.08086,1.8055 9.10668,1.92902 14.72467,0.30182 l 2.04886,-0.59344 0.58693,3.58907 c 0.32281,1.97398 0.64796,3.90765 0.72256,4.29703 0.129,0.67334 0.0469,0.73549 -1.67945,1.27064 -4.50545,1.39669 -11.98209,1.99745 -16.17203,1.29945 z m 9.85831,-23.84941 c -0.63278,-3.10826 -1.62617,-4.67362 -3.61566,-5.69744 -1.51174,-0.77797 -4.31331,-0.87249 -5.9274,-0.19997 -2.06892,0.86202 -3.73135,3.13252 -4.22114,5.76511 l -0.1846,0.99219 h 7.06192 7.06193 z m 60.85488,23.7652 c -4.22391,-0.84309 -7.09054,-2.30142 -9.69842,-4.93383 -2.1482,-2.16843 -3.96144,-5.63768 -4.58165,-8.76605 -0.46921,-2.36676 -0.53857,-8.08543 -0.1263,-10.41361 0.95739,-5.40656 3.55189,-9.74519 7.26262,-12.14486 3.98161,-2.57484 9.90734,-3.15268 14.85923,-1.44898 0.82252,0.28298 1.53638,0.51452 1.58636,0.51452 0.05,0 0.0909,-3.78694 0.0909,-8.415428 v -8.41543 l 4.806252,-0.748903 c 2.64343,-0.411898 5.02468,-0.806029 5.29166,-0.875848 0.4685,-0.122515 0.48543,0.814621 0.48543,26.881219 v 27.00816 l -0.99219,0.25697 c -0.54571,0.14133 -1.46844,0.37751 -2.05052,0.52484 -4.26688,1.07996 -13.693182,1.62395 -16.933342,0.97723 z m 8.16516,-8.78606 1.22755,-0.16826 v -9.58894 c 0,-7.35172 -0.0772,-9.6515 -0.33073,-9.85712 -0.60023,-0.48673 -2.92377,-1.14686 -4.58164,-1.30167 -4.79949,-0.44818 -7.6055,2.10743 -8.32741,7.58433 -0.6684,5.07088 0.78318,10.01331 3.51143,11.956 1.89766,1.35125 5.00734,1.85448 8.5008,1.37565 z m 32.845262,8.98525 c -3.55918,-0.30225 -7.47252,-0.94243 -10.1216,-1.65578 l -1.12577,-0.30314 0.0674,-26.11387 0.0674,-26.113862 4.36563,-0.707094 c 2.40109,-0.3889 4.75257,-0.769802 5.22552,-0.846452 l 0.85989,-0.139364 v 9.243782 c 0,5.08408 0.10042,9.24378 0.22317,9.24378 0.12274,0 0.92641,-0.24243 1.78593,-0.53874 0.85953,-0.29631 2.69387,-0.66846 4.07632,-0.82699 6.75655,-0.77483 13.09006,2.43069 15.77859,7.98588 3.11877,6.44417 3.22587,15.07498 0.26424,21.29339 -2.35696,4.94882 -6.87341,8.23075 -12.73295,9.25257 -2.09475,0.36529 -5.92562,0.46437 -8.73384,0.22589 z m 7.57755,-9.4119 c 2.36414,-1.01152 4.10311,-3.41062 4.88902,-6.74492 0.51001,-2.16379 0.36607,-6.6196 -0.28175,-8.72194 -0.88708,-2.87881 -3.10407,-4.7196 -6.05035,-5.02368 -1.7335,-0.17892 -4.37115,0.28 -5.80053,1.00921 l -1.00198,0.51118 0.0694,9.58155 0.0694,9.58156 0.79375,0.18549 c 1.37965,0.3224 6.26594,0.0695 7.31297,-0.37845 z m 37.00474,9.19314 c -5.86838,-1.18704 -10.2496,-4.41728 -12.55904,-9.2597 -1.15563,-2.42311 -1.75393,-5.14558 -1.91881,-8.73125 -0.39522,-8.5951 3.30437,-15.70617 9.84764,-18.92842 2.91878,-1.43736 4.72128,-1.84137 8.21534,-1.84137 8.39425,0 14.1384901,4.23494 16.1208301,11.88506 0.6114,2.35944 0.97419,6.52515 0.77954,8.95088 l -0.17518,2.18281 h -12.0282501 -12.02828 l 0.18561,0.8599 c 0.47001,2.17752 2.28306,4.28095 4.51443,5.23742 3.40436,1.45928 10.16494,1.28527 14.8550301,-0.38235 0.61846,-0.21991 1.12561,-0.37534 1.12702,-0.34542 0.003,0.0299 0.29792,1.78082 0.65892,3.89087 0.36099,2.11005 0.65751,4.03511 0.65891,4.2779 0.003,0.60019 -2.46298,1.39235 -6.4399001,2.06835 -3.6413,0.61895 -9.11302,0.68162 -11.81381,0.13532 z m 10.31875,-23.3314 c 0,-1.27664 -0.9394,-3.61407 -1.88359,-4.68672 -1.27897,-1.45297 -2.75267,-2.05806 -5.01248,-2.05806 -3.26999,0 -5.59962,1.7724 -6.60405,5.02443 -0.28755,0.93092 -0.52279,1.79911 -0.52279,1.9293 0,0.13327 3.06387,0.23671 7.01146,0.23671 6.39714,0 7.01145,-0.0391 7.01145,-0.44566 z m -138.200692,22.75884 c -0.097,-0.097 -0.17639,-8.07714 -0.17639,-17.73363 v -17.55724 l 0.70979,-0.26986 c 1.14971,-0.43712 6.67715,-1.78669 8.68292,-2.12001 3.09007,-0.51351 8.84962,-0.39661 12.00916,0.24373 1.51182,0.3064 2.80013,0.60846 2.86293,0.67126 0.0628,0.0628 -0.2685,2.03063 -0.73622,4.37295 -0.57183,2.86371 -0.96229,4.25878 -1.19198,4.25878 -0.18788,0 -1.21258,-0.19181 -2.27712,-0.42623 -2.07098,-0.45606 -6.84074,-0.55399 -8.41782,-0.17283 l -0.92604,0.22382 -0.0684,14.34282 -0.0684,14.34283 h -5.113 c -2.81215,0 -5.19237,-0.0794 -5.28938,-0.17639 z M 4.5924121,126.17271 v -17.73923 l 0.7276,-0.28614 c 2.05304,-0.80737 7.9982999,-2.08136 10.9641999,-2.34947 5.06024,-0.45743 12.38528,0.48888 12.38528,1.60004 0,0.27303 -0.35719,2.214 -0.79375,4.31327 -0.43656,2.09927 -0.79375,3.87124 -0.79375,3.93771 0,0.0665 -0.98226,-0.0977 -2.18281,-0.36477 -2.4801,-0.55177 -5.9612,-0.72271 -8.19981,-0.40264 l -1.51908,0.21719 -0.0684,14.33489 -0.0684,14.33489 -5.2255199,0.0717 -5.22552,0.0717 z M 76.346992,115.63896 c -1.45079,-4.50451 -5.09125,-8.64312 -9.5775,-10.88808 -3.32645,-1.66458 -7.87754,-2.6543 -12.20549,-2.6543 h -2.61117 v -1.32292 -1.322915 l 2.18281,0.0052 c 6.71354,0.01588 13.21033,1.897435 17.79323,5.153135 3.69646,2.62597 6.83429,7.06379 7.92914,11.21415 l 0.34316,1.3009 -0.79579,0.15916 c -0.43767,0.0875 -1.17419,0.15916 -1.63668,0.15916 -0.80574,0 -0.86516,-0.0754 -1.42171,-1.80346 z m 7.81923,-0.44177 c -1.75787,-6.74902 -6.88907,-13.00205 -13.29569,-16.202475 -4.10681,-2.051566 -8.19774,-2.956081 -14.32345,-3.166954 l -4.53388,-0.156075 -0.13843,-1.219324 c -0.0761,-0.670629 -0.0803,-1.278404 -0.009,-1.350611 0.28435,-0.288713 4.43447,-0.301728 7.4838,-0.02347 12.64904,1.154282 21.53769,6.655364 26.32839,16.294339 1.4247,2.8665 2.78569,6.8369 2.45645,7.16614 -0.0927,0.0927 -0.91927,0.22836 -1.83693,0.30159 l -1.66846,0.13313 -0.46265,-1.77629 z m 8.53244,1.23363 c 0,-0.98744 -0.91445,-5.11381 -1.48574,-6.70421 -4.18783,-11.658447 -13.35067,-18.314869 -27.61843,-20.063646 -1.23692,-0.151609 -4.36232,-0.275894 -6.94531,-0.27619 -4.27479,-5.3e-4 -4.69662,-0.04164 -4.69927,-0.458388 -0.003,-0.251818 -0.0794,-0.92088 -0.17287,-1.486811 l -0.16997,-1.028959 6.05986,0.143299 c 4.45404,0.105328 6.9012,0.291295 9.23485,0.701788 12.37716,2.177161 20.77138,7.690239 25.72639,16.896337 1.91276,3.55378 3.3809,8.15008 3.56847,11.1717 l 0.0739,1.19063 -1.78593,0.0782 c -0.98227,0.043 -1.78594,-0.0307 -1.78594,-0.16378 z"
       id="path826"
       inkscape:connector-curvature="0"
       sodipodi:nodetypes="sccccccccccccccccscsscccccccccssccscsscccscccscsccccccccscccccccccccccccccscccscscscscccccscscccccssccccccscccccccccssccccccsccccccccccccsccccsccscccccsccccccccscccscscsccccsccccccssccccscccscscccscccsssccccccscscccsccccccscsssccccsccccsscccccsccscccccscccccsccccccsccccccccccccsccccccccccccscsssccccsccccccccscccccccccscccccssccsscccccscccccssssscscccccscccccsscccccccccscccccsscccscccccscccccsscccccccccscccccssccsscccccscccccssssscccccccsccccsssccsscccccscccccssssscscccccscccccsscccccccccscccccssccsscsccsccccsssscccccccscccccssccsscsccscccccssssssscccccsccccssssccssccccscscsssscscccccscscscssssccccsssccsccscscccsccsccscsccccccccscscccsccscscssssccccccscccscccccsccccscssccccsccssscccscccccccccccccccccccccccccccccccscssccscscccccsccsssccscccccccccccccccscsscscscccccccscccccccccccsccssccsscccccccccccccccccsscccccccccccscscscssscsccssssscccccscccccssssccccccccccsccccscccsccccscccccscccccccccccsssccccc"
       inkscape:export-xdpi="96"
       inkscape:export-ydpi="96" />
    <circle
       style="fill:#ffffff;fill-opacity:1;stroke:#000000;stroke-width:1.3394078;stroke-miterlimit:4;stroke-dasharray:none;stroke-opacity:1"
       id="path828-6"
       cx="551.51068"
       cy="-151.34464"
       r="156.61751"
       inkscape:export-xdpi="96"
       inkscape:export-ydpi="96" />
    <circle
       style="fill:#ffffff;fill-opacity:1;stroke:#000000;stroke-width:1.30792224;stroke-miterlimit:4;stroke-dasharray:none;stroke-opacity:1"
       id="path828"
       cx="551.51068"
       cy="-151.34464"
       r="152.93588"
       inkscape:export-xdpi="96"
       inkscape:export-ydpi="96" />
    <path
       style="fill:#000000;stroke-width:0.3307628"
       d="m 544.10232,-14.711989 c -5.94602,-1.575473 -10.39787,-4.649211 -11.67412,-8.060295 -2.28293,-6.101646 -3.28548,-13.405802 -3.52786,-25.702816 -0.20218,-10.258421 0.0799,-18.175968 1.38459,-38.864636 2.18772,-34.691014 1.8592,-44.484514 -1.64651,-49.080704 -2.0855,-2.73424 -6.31916,-4.83952 -9.71051,-4.82876 -3.61456,0.0111 -8.74633,1.97345 -10.44641,3.99389 -1.27789,1.51867 -2.31402,3.70331 -3.28151,6.91876 -2.39432,7.95769 -2.32418,7.41494 -7.65125,59.2042 -4.18232,40.659844 -5.59549,53.460883 -5.73771,51.974121 -0.32938,-3.4428 6.40989,-80.364659 8.89514,-101.529011 0.74574,-6.35067 1.69636,-9.80859 3.90314,-14.19767 3.33107,-6.62514 8.0472,-9.17343 15.42568,-8.33503 8.19425,0.93108 11.68727,3.90352 13.23537,11.26278 1.21955,5.79744 1.27351,17.66819 0.15318,33.702243 -1.30534,18.682006 -1.66234,24.383638 -2.00885,32.084001 -0.42291,9.397819 -0.24222,23.850829 0.36388,29.107127 0.9342,8.101537 3.01017,14.063106 5.69845,16.364164 3.06826,2.626318 7.81087,4.127747 13.81243,4.372784 5.05281,0.206296 7.50765,-0.289467 11.36158,-2.294509 4.69529,-2.442761 8.25026,-6.740886 8.98761,-10.866455 l 0.21253,-1.189235 -1.90157,-0.381887 c -2.48772,-0.499614 -2.78354,-0.4837 -2.78354,0.149652 0,0.850261 -1.85829,4.507959 -3.06497,6.032851 -4.23863,5.356346 -13.45031,6.876362 -20.40296,3.36668 -4.29562,-2.168421 -6.53593,-5.362746 -7.42898,-10.592603 -1.43006,-8.374414 -1.5211,-29.655977 -0.21152,-49.449033 2.31658,-35.01279 2.46568,-44.46836 0.81705,-51.81437 -1.27256,-5.67033 -3.92504,-8.88082 -9.7442,-11.79407 -4.18997,-2.09764 -6.15704,-2.5165 -9.60252,-2.04474 -8.00359,1.09583 -13.32298,4.17253 -15.99043,9.2487 -2.96218,5.63703 -2.98514,5.7844 -7.80337,50.119976 -4.07977,37.540446 -5.58323,49.86339 -6.15096,50.415034 -0.10843,0.10538 -0.10307,-0.924633 0.0125,-2.289035 3.15678,-37.359894 7.23576,-79.020585 8.75616,-89.431365 0.67912,-4.65006 1.8518,-7.59708 4.4995,-11.30748 8.89638,-12.46717 26.82602,-12.45849 35.72856,0.0173 3.53691,4.95653 3.98805,7.71721 3.67617,22.49613 -0.20641,9.78015 -0.73451,20.218561 -1.7016,33.634018 -1.64858,22.86852 -1.19165,48.39095 1.00365,56.06163 0.61359,2.14393 2.19399,3.573826 6.08357,5.504173 2.76633,1.372902 2.81316,1.382941 6.45683,1.382941 3.48377,0 3.78293,-0.05551 5.88734,-1.091461 4.43859,-2.185124 7.81071,-6.372637 7.79055,-9.674385 -0.004,-0.809808 0.3755,-4.374832 0.84545,-7.922256 1.09905,-8.296222 2.62125,-22.244651 3.66377,-33.572425 0.72304,-7.856221 1.65988,-13.904569 7.7874,-50.275945 3.83103,-22.73995 7.04528,-41.73657 7.14274,-42.21474 0.14622,-0.71701 0.0357,-0.90489 -0.63058,-1.07211 -0.44434,-0.11149 -0.88941,-0.4152 -0.98904,-0.67484 -0.32909,-0.85759 1.95369,-16.30424 6.86313,-46.43998 1.92947,-11.84378 2.37645,-15.22389 2.13082,-16.11348 -0.17097,-0.61918 -0.34245,-1.88692 -0.38106,-2.81718 -0.0788,-1.89633 0.50526,-2.63089 2.09166,-2.63089 1.55882,0 1.9381,-0.86459 2.70017,-6.15514 0.39019,-2.70898 0.8509,-5.11148 1.02375,-5.33888 0.20132,-0.26483 1.1892,-0.41344 2.7482,-0.41344 2.25411,0 2.44626,-0.0549 2.60086,-0.74423 0.0918,-0.40931 0.85467,-4.66905 1.69528,-9.46604 1.13106,-6.45446 1.44326,-8.90869 1.20088,-9.44062 -0.24197,-0.53108 0.0181,-2.61564 0.99582,-7.9817 1.10879,-6.08548 1.44607,-7.38584 2.08052,-8.02122 0.74667,-0.74776 1.2453,-1.65865 2.2707,-4.14789 0.4919,-1.19414 0.58506,-1.25459 1.60263,-1.04013 0.59421,0.1252 1.1758,0.32364 1.29244,0.44091 0.11661,0.11731 0.2754,1.50474 0.35288,3.08323 0.0774,1.5785 0.31419,3.07886 0.52606,3.33414 0.29769,0.3587 0.091,2.1413 -0.90977,7.84671 -1.18815,6.77343 -1.45277,7.65987 -2.39477,8.02219 -0.19499,0.0751 -3.57479,18.01989 -3.57479,18.98021 0,0.18517 0.81356,0.59314 1.80792,0.90658 0.99435,0.31344 1.8718,0.67552 1.94988,0.80461 0.0781,0.12908 -0.21626,2.31853 -0.65406,4.86539 -1.04106,6.05633 -0.98669,6.68853 0.65384,7.60391 2.28124,1.27289 2.30267,1.88872 0.19134,5.49943 l -1.27951,2.18816 -2.67966,16.16918 c -3.28846,19.84258 -7.56206,42.92807 -8.11147,43.81706 -0.10254,0.16587 -0.6213,0.30157 -1.15287,0.30157 -0.73243,0 -1.00677,0.18022 -1.1329,0.74423 -0.0915,0.40932 -3.21173,19.27971 -6.93375,41.9342 -6.26116,38.109508 -6.94153,41.894259 -9.09753,50.606722 -3.36897,13.614207 -7.62981,35.650392 -7.62981,39.459954 0,0.467624 -0.18605,0.969249 -0.41344,1.114726 -0.2274,0.145478 -0.68804,1.083147 -1.02363,2.0837 -2.18398,6.511412 -7.61408,11.838779 -14.23894,13.969535 -1.50117,0.482835 -3.25126,0.684607 -6.81587,0.785829 -4.29646,0.122012 -5.11403,0.052 -7.84864,-0.67263 z m 29.89733,-22.56556 c 1.29952,-9.046982 4.99785,-26.907876 8.02026,-38.733569 l 0.95104,-3.721072 -1.53528,2.76e-4 -1.53524,2.63e-4 -1.56437,4.878478 c -2.62859,8.197231 -4.87496,18.229426 -7.54742,33.70628 l -1.35514,7.847912 0.76816,0.581923 c 0.6858,0.519527 2.50565,0.948458 2.90587,0.684906 0.0843,-0.05551 0.48569,-2.415884 0.89212,-5.245397 z m 9.4121,-44.60509 c 0.56737,-2.292154 13.62306,-82.535001 13.45583,-82.702231 -0.10071,-0.10081 -0.6095,-0.21371 -1.13052,-0.25097 -0.94427,-0.0674 -0.95076,-0.0546 -2.0222,4.06676 -1.6813,6.46701 -3.8297,16.65651 -6.20685,29.43789 -2.29202,12.32376 -8.43449,48.42479 -8.43449,49.572003 0,0.558234 0.25757,0.688499 1.57112,0.794584 2.37685,0.191964 2.50269,0.150208 2.76711,-0.918036 z m 16.16906,-83.961681 c 0,-0.0626 0.44973,-2.33244 0.9994,-5.04412 2.29817,-11.33789 5.24179,-28.15587 9.04312,-51.66667 l 0.44382,-2.74484 -1.19132,-0.50032 c -1.6179,-0.67947 -7.18793,-2.11368 -8.20894,-2.11368 -0.59113,0 -0.77299,0.13835 -0.63941,0.4865 0.33452,0.87172 -8.78322,43.88809 -11.82269,55.77809 -0.43689,1.70905 -0.84682,3.31993 -0.91096,3.57976 -0.1299,0.52608 0.46461,0.67077 6.82939,1.66215 3.99451,0.62219 5.45759,0.77316 5.45759,0.56313 z m 12.40998,-62.60648 c 1.32484,-2.26066 1.08196,-2.79902 -1.66018,-3.68004 -1.27345,-0.40912 -2.79908,-0.83501 -3.39031,-0.94641 -1.01645,-0.19149 -1.07499,-0.14916 -1.07499,0.77722 0,1.46574 -0.64376,3.03024 -1.41722,3.44418 -0.60084,0.32157 -0.34349,0.46611 2.07109,1.1632 1.51646,0.4378 2.99283,0.92786 3.28081,1.08903 0.66965,0.37476 1.10259,0.01 2.1908,-1.84718 z m -2.36611,-5.57866 c -0.41489,-1.08125 -11.95066,-3.08217 -12.51403,-2.17061 -0.136,0.21992 0.24827,0.3483 1.04489,0.34915 2.38542,0.003 8.50377,1.21116 11.58585,2.28873 0.0398,0.0139 -0.0125,-0.19637 -0.11661,-0.46727 z m -3.73046,-3.39393 c 2.52128,-2.11377 3.47467,-3.32983 4.05164,-5.16801 0.33414,-1.06458 0.48298,-2.05561 0.33077,-2.20235 -0.97719,-0.94181 -10.88369,-2.40929 -11.33497,-1.6791 -0.28209,0.4564 -1.48749,8.61532 -1.29681,8.77735 0.12963,0.1101 5.22044,0.72379 6.64934,0.8015 0.50027,0.0271 1.22028,-0.21101 1.60003,-0.52939 z m 3.27794,-19.62657 c 0.89976,-4.97898 1.51992,-9.16867 1.37814,-9.31047 -0.14179,-0.1418 -0.84458,-0.29387 -1.56172,-0.33798 0,0 -0.17318,0.35274 -0.1464,0.85455 0,0.24121 -0.22584,2.0475 -0.50189,4.01396 -1.08768,7.74849 -1.54572,14.57424 -0.93712,13.96565 0.0731,-0.0731 0.86921,-4.20675 1.769,-9.18571 z m 4.30036,-17.30736 c 0.56212,-3.25874 0.95367,-6.10308 0.87012,-6.32083 -0.27165,-0.70793 -4.83009,-1.55673 -4.84433,-0.90204 -0.003,0.13641 -0.52348,3.00167 -1.15667,6.36719 -0.6332,3.36549 -1.15171,6.37956 -1.15227,6.69792 -6.6e-4,0.44411 0.28774,0.58469 1.23935,0.60402 0.6822,0.0139 1.7613,0.21556 2.39802,0.44828 1.44103,0.52668 1.30411,0.88349 2.64578,-6.89454 z m 0.3311,-10.61318 c 0,-3.21798 -0.53601,-3.2653 -2.07354,-0.18307 l -1.14615,2.29767 1.03101,0.13018 c 2.34995,0.29659 2.18868,0.462 2.18868,-2.24472 z"
       id="path826-3"
       inkscape:connector-curvature="0"
       sodipodi:nodetypes="ccssccccscscsssscscccccscscscssssccccsssccsccscscccsccsccscsccccccccscscccsccscscssssccccccscccscccccsccccscssccccsccssscccscccccccccccccccccccccccccccccccscssccs"
       inkscape:export-xdpi="96"
       inkscape:export-ydpi="96" />
    <rect
       style="fill:#ffffff;fill-opacity:1;stroke:none;stroke-width:4.03393316;stroke-miterlimit:4;stroke-dasharray:none;stroke-opacity:1"
       id="rect817"
       width="860.83307"
       height="282.95993"
       x="-607.30939"
       y="179.01439"
       transform="scale(1,-1)"
       inkscape:export-xdpi="96"
       inkscape:export-ydpi="96" />
    <path
       style="fill:#000000;stroke-width:0.29880613"
       d="m -53.5846,-187.46357 c -3.26104,-0.87055 -8.265361,-2.61143 -10.159402,-3.53423 -2.436205,-1.18694 -2.689783,-1.86992 -2.682233,-7.22504 0.0092,-6.62204 0.316252,-7.05004 6.608877,-9.21571 5.93966,-2.04423 6.230641,-2.27007 9.084327,-7.05214 0.911103,-1.52685 1.990459,-3.0897 2.398435,-3.473 0.720844,-0.67716 0.802877,-0.68646 2.896636,-0.32739 1.185073,0.20324 2.276606,0.49134 2.425525,0.64028 0.250862,0.25084 -7.125355,13.97552 -7.9936,14.87341 -0.291463,0.30146 -0.685698,0.28028 -1.993865,-0.10703 -2.665454,-0.78943 -3.356745,-1.24268 -3.150191,-2.06556 l 0.17746,-0.70791 -2.689253,0.95364 c -1.479115,0.52451 -2.689829,1.02619 -2.690589,1.11482 -0.0046,0.22143 9.719687,3.20136 11.221243,3.43956 1.017556,0.16135 1.353926,0.0739 2.091665,-0.54474 0.99569,-0.83485 4.797767,-2.79587 8.349258,-4.30638 2.416871,-1.02793 3.137439,-1.60004 3.137439,-2.49094 0,-0.37121 -0.59577,-0.61763 -2.464079,-1.01912 -2.909456,-0.62521 -4.109652,-1.18318 -4.109652,-1.91061 0,-1.40808 1.680675,-1.58598 6.228316,-0.6592 3.685588,0.75106 6.257317,1.63781 7.131362,2.45892 0.620997,0.58339 1.095883,0.66017 4.816825,0.77891 5.324164,0.16987 7.030087,-0.26094 9.053116,-2.28648 1.543401,-1.54538 2.049152,-2.8724 2.05173,-5.3841 0.0046,-1.52809 -0.02992,-1.59341 -0.670622,-1.38753 -3.876928,1.24593 -4.888407,1.39283 -8.590682,1.24761 -4.387973,-0.17216 -6.777799,-0.81321 -9.436417,-2.53158 -2.331294,-1.50678 -4.161256,-3.60738 -5.386517,-6.18311 -1.460517,-3.07046 -1.94751,-5.23215 -2.125454,-9.43435 -0.208533,-4.92724 0.331997,-7.78221 2.195379,-11.59361 3.858952,-7.8932 12.023959,-11.36609 24.015993,-10.21494 3.74778,0.35975 9.1662443,1.27132 10.9811303,1.84738 l 0.971108,0.30825 v 19.71062 c 0,16.8453 -0.06905,20.04546 -0.474747,22.0138 -1.123411,5.44928 -4.169428,9.58168 -8.6372923,11.71758 -3.774318,1.8043 -6.242517,2.239 -12.713017,2.239 h -5.540063 l -0.526466,1.10189 c -0.673614,1.40994 -2.694663,2.75494 -7.809005,5.19674 -9.422423,4.49868 -11.870574,5.11289 -15.992885,4.01243 z m 4.161164,-5.46597 c -0.01151,-1.5144 -0.113013,-3.34358 -0.224185,-4.06486 l -0.201858,-1.31144 -6.723157,-2.04328 c -3.697741,-1.12378 -6.756762,-2.04635 -6.797824,-2.05015 -0.0412,-0.005 -0.07481,1.78269 -0.07481,3.96992 0,2.86303 0.112783,4.13097 0.402612,4.52736 0.551279,0.75386 0.774819,0.2943 0.992905,-2.04118 0.333907,-3.57562 1.174946,-3.47681 1.48358,0.17423 0.105648,1.25256 0.293167,2.44021 0.416146,2.63924 0.398078,0.64413 0.804627,0.0354 1.009938,-1.51253 0.504485,-3.80314 1.359979,-3.76433 1.367574,0.0621 0.0046,1.26398 0.132348,2.37705 0.288403,2.47352 0.362954,0.22441 0.910895,-0.78941 0.913082,-1.68922 0.0046,-1.048 0.586587,-2.933 0.908801,-2.933 0.157206,0 0.286837,1.10518 0.289323,2.46516 0.0092,4.00329 0.853468,4.35214 1.687418,0.69583 0.6108,-2.67747 1.10357,-2.42551 1.30681,0.66825 0.165952,2.52468 0.326242,2.89873 1.333901,3.11145 1.392824,0.29404 1.644975,-0.19472 1.62129,-3.14144 z m 33.936641,-32.98858 1.494029,-0.56039 0.07872,-9.74848 0.07872,-9.74846 -2.768017,-0.20163 c -5.97948,-0.43571 -9.216951,1.52656 -10.731396,6.50432 -0.505614,1.66191 -0.59706,2.62922 -0.508606,5.37853 0.09506,2.94718 0.209685,3.56007 0.95159,5.07279 1.461069,2.9798 3.796345,4.19298 7.66982,3.98446 1.23258,-0.0665 2.91337,-0.37285 3.735074,-0.68107 z m -355.759275,33.5898 c -1.47244,-0.98505 -2.09677,-2.94619 -1.97172,-6.19333 0.14823,-3.84949 1.13941,-5.47789 3.57469,-5.87307 1.52377,-0.24729 3.09334,0.60201 3.8891,2.10442 0.5433,1.02572 0.65083,1.72263 0.65083,4.21688 0,2.53702 -0.10311,3.18313 -0.68335,4.28058 -1.11349,2.1061 -3.5311,2.75462 -5.45955,1.46452 z m 2.86416,-0.81291 c 1.1514,-0.43776 1.7082,-2.06202 1.7082,-4.9831 0,-1.79323 -0.15099,-2.77587 -0.55279,-3.59844 -0.5163,-1.05687 -0.64045,-1.13156 -1.88067,-1.13156 -1.2007,0 -1.38608,0.0997 -1.93545,1.04029 -0.49171,0.84194 -0.60574,1.5542 -0.59805,3.73508 0.0115,3.44945 0.53148,4.56739 2.4226,5.21571 0.0304,0.0115 0.40666,-0.11486 0.83616,-0.27798 z m 15.78415,1.05383 c -1.64489,-0.71532 -2.31974,-2.45678 -2.31974,-5.98602 0,-2.49425 0.10749,-3.19116 0.65085,-4.21688 1.54358,-2.91427 5.37017,-2.86621 6.83621,0.0861 0.81499,1.64111 0.8113,6.62803 -0.007,8.27484 -1.01298,2.04082 -3.04047,2.76448 -5.16121,1.84217 z m 2.41427,-1.04287 c 1.27104,-0.48327 1.79276,-1.91488 1.80347,-4.94869 0.0138,-3.95763 -0.96876,-5.37807 -3.31382,-4.78951 -1.08804,0.27308 -1.6531,1.91216 -1.6531,4.79505 0,3.34135 0.56785,4.59713 2.35606,5.21017 0.0304,0.0115 0.3937,-0.10979 0.80739,-0.26702 z m 6.51542,0.89377 c -1.51746,-0.95205 -2.13461,-2.63666 -2.14241,-5.84833 -0.005,-2.21504 0.11439,-2.94037 0.66576,-4.03386 1.67099,-3.31366 5.93345,-2.96585 7.15169,0.58355 0.20232,0.58921 0.36769,2.14695 0.36769,3.46172 0,1.31473 -0.16549,2.8725 -0.36769,3.46168 -0.86433,2.51833 -3.61313,3.66881 -5.67504,2.37524 z m 3.99255,-2.55037 c 0.71958,-1.88415 0.52046,-6.06103 -0.34434,-7.22405 -0.75868,-1.02028 -2.2885,-1.28619 -3.11198,-0.54092 -1.26312,1.14309 -1.55544,6.70881 -0.44163,8.40868 1.12885,1.72282 3.11974,1.39407 3.89795,-0.64371 z m 32.72381,2.63049 c -1.41638,-0.74395 -2.17561,-2.36985 -2.34594,-5.02368 -0.26177,-4.07899 0.9724,-6.738 3.33295,-7.18085 1.73255,-0.325 3.17917,0.37373 4.07195,1.96682 0.65787,1.17387 0.74685,1.68853 0.74704,4.32067 2.7e-4,4.33299 -0.95606,5.98883 -3.64881,6.31746 -0.74151,0.0905 -1.48549,-0.0474 -2.15719,-0.40042 z m 2.48557,-0.97389 c 1.22961,-0.46752 1.77095,-1.91906 1.78773,-4.79377 0.0115,-1.93903 -0.12383,-2.82256 -0.57075,-3.73507 -0.55232,-1.12728 -0.6611,-1.19522 -1.91349,-1.19522 -1.19426,0 -1.38749,0.10219 -1.92049,1.01468 -0.4716,0.80748 -0.59384,1.57026 -0.59867,3.73509 -0.009,3.47512 0.50382,4.58843 2.40826,5.24131 0.0304,0.0115 0.39373,-0.10979 0.80741,-0.26702 z m 10.42847,0.99426 c -2.75377,-1.35779 -3.31393,-8.41401 -0.87885,-11.07113 1.74229,-1.90117 4.66809,-1.51136 6.01191,0.80102 0.84486,1.45379 0.89103,7.10072 0.0704,8.60389 -1.05653,1.93515 -3.23996,2.63433 -5.2034,1.66622 z m 3.30132,-1.55984 c 1.43276,-1.61355 1.41573,-7.16199 -0.0269,-8.78496 -0.57096,-0.64234 -2.25623,-0.68787 -2.86662,-0.0773 -0.82509,0.82509 -1.16493,2.53377 -1.0327,5.19255 0.13948,2.80685 0.54081,3.77427 1.73074,4.17277 0.91881,0.30769 1.61799,0.14753 2.19554,-0.5029 z m 24.12346,1.53947 c -1.68272,-0.88383 -2.26155,-2.3983 -2.26155,-5.91704 0,-2.43671 0.11416,-3.20863 0.6181,-4.1833 0.77511,-1.49877 2.24484,-2.32407 3.80067,-2.1342 2.69261,0.32863 3.64899,1.98438 3.64899,6.3175 0,4.33308 -0.95638,5.98883 -3.64899,6.31746 -0.74154,0.0905 -1.48549,-0.0474 -2.15722,-0.40042 z m 2.48558,-0.97389 c 1.27104,-0.48327 1.79276,-1.91488 1.80349,-4.94869 0.009,-2.18088 -0.10634,-2.89314 -0.59805,-3.73508 -0.54937,-0.94063 -0.73475,-1.04029 -1.93542,-1.04029 -1.25259,0 -1.36093,0.0677 -1.91057,1.19409 -0.43394,0.88935 -0.5798,1.80451 -0.5714,3.5857 0.0161,3.30785 0.61002,4.59609 2.40454,5.21129 0.0304,0.0115 0.39372,-0.10979 0.80741,-0.26702 z m 6.9063,1.21467 c -1.71011,-0.74566 -2.54188,-2.78883 -2.53327,-6.22293 0.009,-3.13026 0.63799,-4.82799 2.14242,-5.77182 2.06186,-1.2936 4.81068,-0.14317 5.67501,2.37521 0.20232,0.58921 0.36767,2.14695 0.36767,3.46172 0,2.82492 -0.41994,4.23073 -1.60214,5.36337 -0.93053,0.89147 -2.92828,1.2834 -4.04969,0.79445 z m 3.27761,-2.25138 c 0.51855,-0.69449 0.60687,-1.26312 0.60687,-3.90644 0,-2.68043 -0.0842,-3.20632 -0.62986,-3.93727 -0.49726,-0.66604 -0.86788,-0.84364 -1.76059,-0.84364 -0.89271,0 -1.26331,0.17769 -1.76057,0.84364 -0.54451,0.72929 -0.62985,1.2575 -0.62985,3.89762 0,2.44283 0.10795,3.21901 0.5403,3.87863 1.01877,1.55482 2.50267,1.58237 3.6337,0.0674 z m 14.59058,1.93236 c -1.64477,-1.00284 -2.03145,-2.11431 -2.03145,-5.8388 0,-2.76323 0.0967,-3.4535 0.60778,-4.3327 1.34383,-2.31238 4.2696,-2.70219 6.01191,-0.80102 2.46065,2.68507 1.86985,9.75532 -0.92604,11.08206 -1.33528,0.63361 -2.50056,0.59876 -3.6622,-0.10956 z m 3.9205,-2.2444 c 0.2997,-0.63161 0.47238,-1.8118 0.47238,-3.22873 0,-2.82238 -0.21705,-3.90012 -0.94128,-4.67768 -0.72485,-0.77804 -2.36651,-0.82304 -3.03603,-0.0833 -1.12541,1.24356 -1.38426,6.09085 -0.4314,8.07809 0.86203,1.79776 3.06475,1.74823 3.93633,-0.0884 z m 18.15929,2.24252 c -1.51749,-0.95205 -2.13462,-2.63666 -2.14242,-5.84833 -0.007,-2.21504 0.11439,-2.94037 0.66574,-4.03386 1.67098,-3.31366 5.93347,-2.96585 7.15171,0.58355 0.20232,0.58921 0.36765,2.14695 0.36765,3.46172 0,1.31473 -0.16549,2.8725 -0.36765,3.46168 -0.86436,2.51833 -3.61318,3.66881 -5.67503,2.37524 z m 3.99254,-2.55037 c 0.72105,-1.88806 0.52053,-6.06234 -0.34707,-7.22405 -0.89495,-1.19838 -2.62626,-1.19833 -3.52116,7e-5 -0.54451,0.72915 -0.62986,1.25732 -0.62986,3.89695 0,2.44205 0.10818,3.21869 0.54032,3.87877 1.18644,1.81224 3.16002,1.53709 3.95777,-0.55174 z m 32.52996,2.57433 c -1.26048,-0.76865 -1.99147,-2.46769 -2.15462,-5.00796 -0.25917,-4.03616 0.9849,-6.69943 3.33546,-7.14041 1.73255,-0.325 3.17919,0.37373 4.07197,1.96682 0.65782,1.17387 0.74681,1.68853 0.74701,4.32067 1.9e-4,2.43697 -0.11393,3.20847 -0.61791,4.18326 -1.06258,2.05464 -3.51172,2.81806 -5.38191,1.67762 z m 2.70817,-0.92869 c 1.1523,-0.4381 1.7433,-2.09779 1.75665,-4.93331 0.009,-1.78119 -0.13741,-2.69635 -0.57137,-3.5857 -0.54962,-1.12638 -0.65798,-1.19409 -1.91057,-1.19409 -1.20067,0 -1.38605,0.0997 -1.93544,1.04029 -0.49169,0.84194 -0.60574,1.5542 -0.59803,3.73508 0.0115,3.44945 0.53146,4.56739 2.42258,5.21571 0.0304,0.0115 0.40668,-0.11486 0.83618,-0.27798 z m 6.87756,1.22563 c -1.69069,-0.73719 -2.56975,-2.85185 -2.56975,-6.18184 0,-1.85436 0.1549,-2.86182 0.5922,-3.85033 1.05551,-2.38609 3.44195,-3.20743 5.44431,-1.87374 1.56027,1.03924 2.12819,2.50266 2.15248,5.54642 0.0242,3.02208 -0.3686,4.41442 -1.56957,5.56504 -0.93051,0.89147 -2.92827,1.2834 -4.04967,0.79445 z m 3.27761,-2.25138 c 0.51852,-0.69449 0.60684,-1.26312 0.60684,-3.90644 0,-2.68043 -0.0842,-3.20632 -0.62986,-3.93727 -0.49726,-0.66604 -0.86788,-0.84364 -1.76059,-0.84364 -0.89271,0 -1.26333,0.17769 -1.76059,0.84364 -0.54449,0.72929 -0.62986,1.2575 -0.62986,3.89762 0,2.44283 0.10795,3.21901 0.54035,3.87863 1.01873,1.55482 2.50268,1.58237 3.63371,0.0674 z m 14.55573,1.91119 c -1.63188,-0.99491 -2.23511,-2.79078 -2.0965,-6.24153 0.13373,-3.33133 0.6892,-4.62898 2.35107,-5.49318 3.44766,-1.79283 6.40439,1.7901 5.85047,7.08954 -0.45157,4.32056 -3.20334,6.41427 -6.10504,4.64517 z m 3.81757,-1.8638 c 0.57061,-0.89892 0.78536,-5.50556 0.32209,-6.90922 -0.19679,-0.59619 -0.5582,-1.28444 -0.80319,-1.52946 -0.60984,-0.60981 -2.29443,-0.56442 -2.8739,0.0773 -1.15782,1.28246 -1.44114,6.00972 -0.48032,8.01365 0.81142,1.69223 2.8637,1.87823 3.83532,0.34758 z m 9.29601,1.96321 c -1.68272,-0.88383 -2.26153,-2.3983 -2.26153,-5.91704 0,-2.43671 0.11416,-3.20863 0.6181,-4.1833 0.77512,-1.49877 2.24484,-2.32407 3.80067,-2.1342 2.69259,0.32863 3.64897,1.98438 3.64897,6.3175 0,4.33308 -0.95638,5.98883 -3.64897,6.31746 -0.74156,0.0905 -1.48554,-0.0474 -2.15724,-0.40042 z m 2.48558,-0.97389 c 1.27101,-0.48327 1.79276,-1.91488 1.80351,-4.94869 0.009,-2.18088 -0.10634,-2.89314 -0.59807,-3.73508 -0.54937,-0.94063 -0.73475,-1.04029 -1.93543,-1.04029 -1.25258,0 -1.36094,0.0677 -1.91056,1.19409 -0.43397,0.88935 -0.5798,1.80451 -0.57138,3.5857 0.0161,3.30785 0.61,4.59609 2.40454,5.21129 0.0304,0.0115 0.39373,-0.10979 0.80739,-0.26702 z m 24.77448,0.89565 c -1.64476,-1.00284 -2.03145,-2.11431 -2.03145,-5.8388 0,-2.76323 0.0969,-3.4535 0.60779,-4.3327 1.34382,-2.31238 4.26962,-2.70219 6.01188,-0.80102 2.4607,2.68507 1.86988,9.75532 -0.92601,11.08206 -1.33526,0.63361 -2.50056,0.59876 -3.66221,-0.10956 z m 3.9205,-2.2444 c 0.29971,-0.63161 0.4724,-1.8118 0.4724,-3.22873 0,-2.82238 -0.21705,-3.90012 -0.94127,-4.67768 -0.7249,-0.77804 -2.36651,-0.82304 -3.03608,-0.0833 -1.12778,1.24618 -1.40415,6.04929 -0.46121,8.01585 0.8902,1.8566 3.07957,1.8421 3.96616,-0.0262 z m 5.67711,2.54043 c -2.44815,-0.99038 -3.59037,-6.47497 -2.08393,-10.00648 1.37542,-3.22431 5.37526,-3.32402 6.963912,-0.17378 0.906522,1.79769 0.952418,6.0886 0.08562,7.99827 -0.912898,2.01102 -3.057912,2.95351 -4.965512,2.18182 z m 3.26523,-2.17916 c 1.182724,-1.58407 0.915451,-7.24532 -0.39813,-8.43409 -0.8235,-0.74527 -2.35329,-0.47936 -3.11198,0.54092 -0.86603,1.16465 -1.06389,5.33993 -0.34254,7.22874 0.77963,2.04145 2.5913,2.3539 3.85265,0.66443 z m 15.13571,2.27415 c -0.96204,-0.38393 -2.116454,-1.77569 -2.429232,-2.92873 -0.544834,-2.00834 -0.399044,-5.5898 0.290981,-7.14973 1.499254,-3.38945 5.466546,-3.38945 6.965847,0 0.430049,0.97231 0.606197,2.02225 0.612642,3.65243 0.01611,4.18523 -1.180677,6.28811 -3.699352,6.49745 -0.71097,0.0592 -1.494352,0.0269 -1.740886,-0.0713 z m 3.128255,-2.32338 c 0.518526,-0.69449 0.606865,-1.26312 0.606865,-3.90644 0,-2.68043 -0.08424,-3.20632 -0.629882,-3.93727 -0.497281,-0.66604 -0.867854,-0.84364 -1.760543,-0.84364 -0.892735,0 -1.263354,0.17769 -1.760612,0.84364 -0.544534,0.72929 -0.629881,1.2575 -0.629881,3.89762 0,2.44283 0.107949,3.21901 0.540345,3.87863 1.018776,1.55482 2.502656,1.58237 3.633708,0.0674 z m 5.628932,2.07958 c -1.644883,-0.71532 -2.319717,-2.45678 -2.319717,-5.98602 0,-2.49425 0.107489,-3.19116 0.650896,-4.21688 1.543493,-2.91418 5.400373,-2.86557 6.81725,0.0861 0.793302,1.65255 0.908962,5.75808 0.21728,7.70973 -0.875495,2.46988 -3.014736,3.42969 -5.36564,2.40728 z m 2.414293,-1.04287 c 1.271064,-0.48327 1.792743,-1.91488 1.803538,-4.94869 0.01381,-3.95763 -0.968829,-5.37807 -3.313864,-4.78951 -1.08808,0.27308 -1.653123,1.91216 -1.653123,4.79505 0,3.34135 0.567897,4.59713 2.356037,5.21017 0.03038,0.0115 0.393751,-0.10979 0.807412,-0.26702 z m -289.36002,0.60191 c 0,-0.46924 0.24329,-0.598 1.26994,-0.6723 l 1.26991,-0.0918 0.0824,-4.73161 0.0824,-4.73164 -0.97882,0.19702 c -0.53836,0.10841 -1.21416,0.26339 -1.50176,0.34436 -0.39621,0.11163 -0.5229,-0.0311 -0.5229,-0.58795 0,-0.86592 0.39766,-1.05495 2.73237,-1.299 l 1.73593,-0.18138 0.0817,5.49507 0.0815,5.49504 1.26994,0.0918 c 1.02667,0.0743 1.26991,0.20301 1.26991,0.6723 0,0.54108 -0.23309,0.58044 -3.43626,0.58044 -3.20316,0 -3.43625,-0.0394 -3.43625,-0.58044 z m 27.19139,-0.0184 c 0,-0.50907 0.19909,-0.59764 1.3446,-0.59764 h 1.34465 v -4.81328 -4.8133 l -0.82173,0.19611 c -0.45193,0.10771 -1.05703,0.26589 -1.34462,0.35133 -0.40077,0.11899 -0.5229,-0.0207 -0.5229,-0.59778 0,-0.61572 0.20439,-0.80987 1.12053,-1.06428 0.61626,-0.17124 1.62474,-0.31195 2.24102,-0.31287 l 1.12054,-0.001 v 5.52793 5.52791 h 1.34462 c 1.14542,0 1.34463,0.0884 1.34463,0.59761 0,0.5644 -0.1991,0.59761 -3.58567,0.59761 -3.38646,0 -3.58567,-0.0331 -3.58567,-0.59761 z m 9.26296,0 c 0,-0.50907 0.1991,-0.59764 1.34465,-0.59764 h 1.34463 v -4.80462 -4.80465 l -0.97111,0.19564 c -0.53413,0.10749 -1.20646,0.26171 -1.49403,0.34268 -0.39622,0.11163 -0.52292,-0.0311 -0.52292,-0.58794 0,-0.8659 0.39766,-1.05496 2.73236,-1.29899 l 1.73591,-0.18137 0.0817,5.49506 0.0817,5.49507 1.26994,0.0918 c 1.02665,0.0743 1.26992,0.20301 1.26992,0.67231 0,0.54106 -0.2331,0.58041 -3.43627,0.58041 -3.23708,0 -3.43629,-0.0348 -3.43629,-0.59758 z m 9.26303,0.0184 c 0,-0.46924 0.24324,-0.598 1.26991,-0.6723 l 1.26992,-0.0918 0.0824,-4.73161 0.0824,-4.73164 -0.97884,0.19702 c -0.53835,0.10841 -1.21415,0.26339 -1.50177,0.34436 -0.39619,0.11163 -0.52287,-0.0311 -0.52287,-0.58795 0,-0.86592 0.39764,-1.05495 2.73234,-1.299 l 1.73594,-0.18138 0.0817,5.49507 0.0817,5.49504 1.26993,0.0918 c 1.02665,0.0743 1.26992,0.20301 1.26992,0.6723 0,0.54108 -0.23312,0.58044 -3.43629,0.58044 -3.20316,0 -3.43625,-0.0394 -3.43625,-0.58044 z m 31.07582,-0.0184 c 0,-0.50907 0.19909,-0.59764 1.34465,-0.59764 h 1.34462 v -4.80462 -4.80465 l -0.97113,0.19564 c -0.53413,0.10749 -1.20643,0.26171 -1.49403,0.34268 -0.39621,0.11163 -0.52292,-0.0311 -0.52292,-0.58794 0,-0.8659 0.39769,-1.05496 2.73237,-1.29899 l 1.73593,-0.18137 0.0815,5.49506 0.0817,5.49507 1.26992,0.0918 c 1.02667,0.0743 1.26993,0.20301 1.26993,0.67231 0,0.54106 -0.23309,0.58041 -3.43626,0.58041 -3.23706,0 -3.43627,-0.0348 -3.43627,-0.59758 z m 9.263,0.0184 c 0,-0.46924 0.24325,-0.598 1.26992,-0.6723 l 1.26994,-0.0918 0.0824,-4.73161 0.0824,-4.73164 -0.97884,0.19702 c -0.53835,0.10841 -1.21413,0.26339 -1.50175,0.34436 -0.39621,0.11163 -0.52289,-0.0311 -0.52289,-0.58795 0,-0.86592 0.39764,-1.05495 2.73234,-1.299 l 1.73593,-0.18138 0.0817,5.49507 0.0817,5.49504 1.26993,0.0918 c 1.02665,0.0743 1.26992,0.20301 1.26992,0.6723 0,0.54108 -0.23312,0.58044 -3.43627,0.58044 -3.20316,0 -3.43627,-0.0394 -3.43627,-0.58044 z m 27.19137,-0.0184 c 0,-0.50907 0.1991,-0.59764 1.34463,-0.59764 h 1.34462 v -4.81328 -4.8133 l -0.82173,0.19611 c -0.45196,0.10771 -1.05703,0.26589 -1.34462,0.35133 -0.40077,0.11899 -0.5229,-0.0207 -0.5229,-0.59778 0,-0.61572 0.20439,-0.80987 1.12051,-1.06428 0.6163,-0.17124 1.62474,-0.31195 2.24104,-0.31287 l 1.12054,-0.001 v 5.52793 5.52791 h 1.34463 c 1.14541,0 1.34462,0.0884 1.34462,0.59761 0,0.5644 -0.19909,0.59761 -3.58567,0.59761 -3.38648,0 -3.58567,-0.0331 -3.58567,-0.59761 z m 18.52597,0.0184 c 0,-0.46924 0.24326,-0.598 1.26991,-0.6723 l 1.26994,-0.0918 0.0824,-4.73161 0.0824,-4.73164 -0.97884,0.19702 c -0.53837,0.10841 -1.21417,0.26339 -1.50177,0.34436 -0.39621,0.11163 -0.52292,-0.0311 -0.52292,-0.58795 0,-0.8664 0.39734,-1.05493 2.73927,-1.29972 l 1.74285,-0.18206 v 5.57049 5.57047 h 1.34462 c 1.14542,0 1.34461,0.0884 1.34461,0.59761 0,0.56297 -0.1991,0.59761 -3.43625,0.59761 -3.20315,0 -3.43627,-0.0394 -3.43627,-0.58044 z m 21.81286,-0.0184 c 0,-0.50907 0.19909,-0.59764 1.34462,-0.59764 h 1.34463 v -4.81328 -4.8133 l -0.82171,0.19611 c -0.45196,0.10771 -1.05705,0.26589 -1.34465,0.35133 -0.40077,0.11899 -0.52289,-0.0207 -0.52289,-0.59778 0,-0.61572 0.20439,-0.80987 1.12051,-1.06428 0.6163,-0.17124 1.62476,-0.31195 2.24104,-0.31287 l 1.12053,-0.001 v 5.52793 5.52791 h 1.34465 c 1.14542,0 1.34461,0.0884 1.34461,0.59761 0,0.5644 -0.1991,0.59761 -3.58567,0.59761 -3.38646,0 -3.58567,-0.0331 -3.58567,-0.59761 z m 9.26298,0 c 0,-0.50907 0.1991,-0.59764 1.34463,-0.59764 h 1.34462 v -4.80462 -4.80465 l -0.9711,0.19564 c -0.53411,0.10749 -1.20644,0.26171 -1.49406,0.34268 -0.39621,0.11163 -0.52287,-0.0311 -0.52287,-0.58794 0,-0.8659 0.39764,-1.05496 2.73231,-1.29899 l 1.73594,-0.18137 0.0817,5.49506 0.0815,5.49507 1.26992,0.0918 c 1.02667,0.0743 1.26993,0.20301 1.26993,0.67231 0,0.54106 -0.23311,0.58041 -3.43627,0.58041 -3.23707,0 -3.43629,-0.0348 -3.43629,-0.59758 z m 9.26301,0.0184 c 0,-0.46924 0.24324,-0.598 1.26993,-0.6723 l 1.26992,-0.0918 0.0824,-4.73161 0.0824,-4.73164 -0.97884,0.19702 c -0.53837,0.10841 -1.21415,0.26339 -1.50174,0.34436 -0.39622,0.11163 -0.52293,-0.0311 -0.52293,-0.58795 0,-0.86592 0.39767,-1.05495 2.73237,-1.299 l 1.73594,-0.18138 0.0817,5.49507 0.0817,5.49504 1.26993,0.0918 c 1.02665,0.0743 1.26992,0.20301 1.26992,0.6723 0,0.54108 -0.23309,0.58044 -3.43627,0.58044 -3.20315,0 -3.43627,-0.0394 -3.43627,-0.58044 z m 27.19134,-0.0184 c 0,-0.50907 0.19909,-0.59764 1.34463,-0.59764 h 1.34462 v -4.78087 c 0,-2.62952 -0.10081,-4.77769 -0.22418,-4.77378 -0.12337,0.005 -0.72835,0.12429 -1.34463,0.26734 -1.04927,0.24366 -1.12053,0.2159 -1.12053,-0.43771 0,-0.91467 0.21267,-1.0185 2.52767,-1.2347 l 1.95442,-0.18252 v 5.57111 5.57111 h 1.34465 c 1.14541,0 1.3446,0.0886 1.3446,0.59764 0,0.56442 -0.1991,0.59758 -3.58565,0.59758 -3.38648,0 -3.58569,-0.0331 -3.58569,-0.59758 z m 31.37464,0.0184 c 0,-0.46924 0.24329,-0.598 1.26994,-0.6723 l 1.26991,-0.0918 0.0824,-4.73161 0.0824,-4.73164 -0.97884,0.19702 c -0.53834,0.10841 -1.21414,0.26339 -1.50172,0.34436 -0.39623,0.11163 -0.52292,-0.0311 -0.52292,-0.58795 0,-0.86592 0.39766,-1.05495 2.73234,-1.299 l 1.73594,-0.18138 0.0817,5.49507 0.0817,5.49504 1.26994,0.0918 c 1.02664,0.0743 1.26991,0.20301 1.26991,0.6723 0,0.54108 -0.23312,0.58044 -3.43627,0.58044 -3.20315,0 -3.43627,-0.0394 -3.43627,-0.58044 z m 8.9642,-0.0184 c 0,-0.50907 0.1991,-0.59764 1.34463,-0.59764 h 1.3446 v -4.78087 c 0,-2.62952 -0.10081,-4.77769 -0.22418,-4.77378 -0.12337,0.005 -0.72837,0.12429 -1.34465,0.26734 -1.05052,0.24396 -1.12051,0.21659 -1.12051,-0.4413 0,-0.55609 0.23226,-0.76601 1.12051,-1.01268 0.61628,-0.17125 1.62476,-0.31195 2.24107,-0.31287 l 1.12051,-0.001 v 5.52794 5.52791 h 1.34462 c 1.14542,0 1.34463,0.0884 1.34463,0.59761 0,0.5644 -0.1991,0.59761 -3.58567,0.59761 -3.38648,0 -3.58567,-0.0331 -3.58567,-0.59761 z m 27.490172,0 c 0,-0.50907 0.199097,-0.59764 1.344627,-0.59764 h 1.344604 v -4.80462 -4.80465 l -0.971108,0.19564 c -0.534108,0.10749 -1.206433,0.26171 -1.494007,0.34268 -0.396236,0.11163 -0.522921,-0.0311 -0.522921,-0.58794 0,-0.8825 0.432856,-1.07713 2.909686,-1.30843 l 1.871209,-0.17469 v 5.57111 5.57111 h 1.344626 c 1.145393,0 1.344627,0.0886 1.344627,0.59764 0,0.56442 -0.199096,0.59758 -3.585671,0.59758 -3.38646,0 -3.585672,-0.0331 -3.585672,-0.59758 z m -238.963942,-17.15851 c -5.37155,-1.42328 -9.39328,-4.20002 -10.54625,-7.28155 -2.06236,-5.51214 -2.96803,-12.11062 -3.18699,-23.21954 -0.18276,-9.26731 0.0723,-16.41989 1.25081,-35.10972 1.97635,-31.33934 1.67957,-40.18666 -1.48743,-44.33878 -1.88402,-2.47006 -5.70863,-4.37193 -8.77233,-4.36221 -3.26534,0.0115 -7.90132,1.78277 -9.43715,3.60802 -1.15442,1.37194 -2.09045,3.34551 -2.96445,6.25029 -2.16299,7.18886 -2.09962,6.69856 -6.91205,53.48417 -3.77821,36.73152 -5.05487,48.29576 -5.18335,46.95263 -0.29756,-3.11016 5.79063,-72.6002 8.03575,-91.71975 0.67368,-5.73709 1.53246,-8.86095 3.52603,-12.82596 3.00923,-5.98507 7.26972,-8.28716 13.93533,-7.52976 7.40257,0.84113 10.55813,3.5264 11.95664,10.17466 1.10172,5.2373 1.15047,15.96117 0.13833,30.44607 -1.17925,16.87704 -1.50174,22.02782 -1.8148,28.98423 -0.38203,8.48984 -0.21866,21.54645 0.32873,26.29492 0.84396,7.31881 2.71936,12.70441 5.1479,14.78316 2.77182,2.37256 7.05624,3.72893 12.47795,3.95031 4.56462,0.1862 6.78231,-0.26152 10.26387,-2.07284 4.24166,-2.20677 7.45319,-6.08962 8.11928,-9.81659 l 0.19196,-1.07436 -1.71785,-0.34498 c -2.24737,-0.45134 -2.51462,-0.43695 -2.51462,0.13534 0,0.7681 -1.67874,4.07241 -2.76883,5.44998 -3.82912,4.83885 -12.15082,6.21202 -18.43176,3.04141 -3.88058,-1.95893 -5.90444,-4.84463 -6.71123,-9.5692 -1.29187,-7.56533 -1.37414,-26.79078 -0.19104,-44.67152 2.09274,-31.63002 2.22746,-40.17204 0.73811,-46.80831 -1.14961,-5.12249 -3.54583,-8.02281 -8.80277,-10.65459 -3.78515,-1.89498 -5.56218,-2.27336 -8.67478,-1.8472 -7.23031,0.98996 -12.03577,3.76939 -14.44553,8.35515 -2.67597,5.09241 -2.69668,5.22554 -7.04942,45.27764 -3.68559,33.91346 -5.04382,45.04584 -5.5567,45.54418 -0.0981,0.0953 -0.093,-0.83531 0.0115,-2.06789 2.85179,-33.75036 6.53667,-71.38601 7.9102,-80.79096 0.61352,-4.20078 1.67288,-6.86308 4.06477,-10.21499 8.03688,-11.26268 24.23424,-11.25483 32.27666,0.0161 3.19519,4.47767 3.60273,6.9716 3.32098,20.32267 -0.18644,8.83526 -0.66353,18.26514 -1.53719,30.38446 -1.48929,20.65909 -1.07652,43.71566 0.90669,50.64524 0.55431,1.9368 1.98201,3.22854 5.4958,4.97237 2.49906,1.24029 2.54137,1.24936 5.83302,1.24936 3.14718,0 3.41744,-0.0502 5.31852,-0.98602 4.00979,-1.97403 7.05608,-5.75696 7.03785,-8.7397 -0.005,-0.73155 0.33922,-3.95214 0.76377,-7.15686 0.99286,-7.49466 2.36801,-20.09547 3.30981,-30.32881 0.65318,-7.0972 1.49951,-12.56117 7.03502,-45.41852 3.46089,-20.54295 6.3646,-37.70422 6.45266,-38.13618 0.13212,-0.64772 0.0322,-0.81744 -0.56969,-0.96853 -0.4014,-0.10081 -0.80346,-0.37508 -0.89345,-0.60962 -0.29731,-0.77475 1.76491,-14.72901 6.20003,-41.95319 1.74307,-10.69947 2.14688,-13.75304 1.92495,-14.55668 -0.15444,-0.55935 -0.30935,-1.70461 -0.34427,-2.545 -0.0711,-1.71313 0.45648,-2.37671 1.88963,-2.37671 1.4082,0 1.75083,-0.78106 2.43926,-5.56046 0.35251,-2.44725 0.7687,-4.61763 0.92485,-4.82306 0.18183,-0.23924 1.07431,-0.37349 2.4827,-0.37349 2.0363,0 2.2099,-0.0497 2.34954,-0.67233 0.0829,-0.36977 0.77211,-4.21792 1.5315,-8.55148 1.02179,-5.83086 1.30382,-8.04797 1.08486,-8.52852 -0.21843,-0.47976 0.0161,-2.36292 0.89962,-7.21056 1.00167,-5.4975 1.30635,-6.67224 1.87952,-7.24624 0.67451,-0.67552 1.12497,-1.49838 2.05131,-3.74714 0.44437,-1.07875 0.52852,-1.13337 1.44779,-0.93964 0.5368,0.11324 1.06219,0.29236 1.16756,0.39833 0.10542,0.10588 0.24881,1.35934 0.31878,2.78533 0.07,1.42599 0.28385,2.78141 0.47526,3.01202 0.26893,0.32403 0.0822,1.93443 -0.82189,7.0886 -1.07335,6.119 -1.31241,6.91981 -2.16339,7.24711 -0.17608,0.0677 -3.22944,16.27892 -3.22944,17.14645 0,0.1671 0.73498,0.53583 1.63326,0.81899 0.89831,0.28315 1.69097,0.61025 1.76149,0.7269 0.0707,0.11646 -0.19541,2.09449 -0.59085,4.39529 -0.94049,5.47119 -0.89135,6.04231 0.59067,6.86924 2.06084,1.14993 2.0802,1.70627 0.17285,4.96814 l -1.15588,1.97674 -2.42077,14.60699 c -2.97072,17.9255 -6.83147,38.78058 -7.32781,39.58369 -0.0928,0.14984 -0.56127,0.27243 -1.04147,0.27243 -0.66164,0 -0.90949,0.16273 -1.02345,0.6723 -0.0826,0.36979 -2.90142,17.41701 -6.26383,37.88275 -5.65623,34.42755 -6.27087,37.84665 -8.21859,45.71734 -3.04348,12.29887 -6.89263,32.20604 -6.89263,35.64753 0,0.42243 -0.16802,0.87561 -0.37349,1.00702 -0.20555,0.13142 -0.6216,0.97849 -0.92476,1.88239 -1.97296,5.8823 -6.87845,10.69496 -12.86322,12.61987 -1.35616,0.43617 -2.93715,0.61847 -6.15738,0.70991 -3.88135,0.11025 -4.61991,0.047 -7.09032,-0.60765 z m 27.0088,-20.38539 c 1.17395,-8.1729 4.51498,-24.30815 7.24536,-34.99133 l 0.85918,-3.36155 -1.38696,2.3e-4 -1.38691,2.5e-4 -1.41324,4.40715 c -2.37463,7.40526 -4.40397,16.46818 -6.81821,30.44976 l -1.22421,7.08967 0.69394,0.52569 c 0.61955,0.46934 2.26356,0.85685 2.62511,0.61874 0.0762,-0.0502 0.43877,-2.18247 0.80594,-4.73861 z m 8.50275,-40.29558 c 0.51257,-2.0707 12.30686,-74.56085 12.15578,-74.71194 -0.0911,-0.0909 -0.55059,-0.19311 -1.02128,-0.22671 -0.85306,-0.061 -0.8589,-0.0493 -1.82684,3.67385 -1.51886,5.84218 -3.45967,15.04723 -5.60715,26.59375 -2.07058,11.13309 -7.6196,43.74621 -7.6196,44.78259 0,0.5043 0.23268,0.62196 1.41932,0.71783 2.1472,0.17355 2.2609,0.13557 2.49977,-0.82937 z m 14.6069,-75.84969 c 0,-0.0564 0.40625,-2.10708 0.90282,-4.55678 2.07613,-10.24249 4.73534,-25.43563 8.16942,-46.6749 l 0.40094,-2.47964 -1.07621,-0.45201 c -1.4616,-0.61381 -6.49349,-1.90946 -7.41585,-1.90946 -0.53399,0 -0.69831,0.12498 -0.57761,0.43948 0.30219,0.78753 -7.93465,39.64786 -10.68046,50.38911 -0.39467,1.54391 -0.76499,2.99918 -0.82295,3.2339 -0.11715,0.47526 0.41972,0.60597 6.16958,1.50158 3.60857,0.56208 4.93032,0.69845 4.93032,0.50872 z m 11.21098,-56.55776 c 1.19683,-2.04225 0.97741,-2.52862 -1.49979,-3.3245 -1.15041,-0.3696 -2.52866,-0.75433 -3.06277,-0.85498 -0.91824,-0.17309 -0.97111,-0.13488 -0.97111,0.70213 0,1.32412 -0.58157,2.7375 -1.28029,3.11143 -0.54279,0.2905 -0.31032,0.42107 1.87098,1.05079 1.36997,0.39552 2.70366,0.83823 2.96384,0.98381 0.60496,0.33858 0.99606,0.009 1.97914,-1.66868 z m -2.13749,-5.0397 c -0.37486,-0.97679 -10.79608,-2.78438 -11.30503,-1.9609 -0.12291,0.19864 0.22442,0.31466 0.94395,0.31545 2.15496,0.002 7.68218,1.09415 10.46647,2.06759 0.0359,0.0138 -0.0115,-0.17747 -0.10519,-0.42214 z m -3.37008,-3.06599 c 2.27769,-1.90958 3.13896,-3.00813 3.6602,-4.66873 0.30185,-0.96172 0.43631,-1.85701 0.29881,-1.98957 -0.88279,-0.85079 -9.83215,-2.1765 -10.23985,-1.51686 -0.25482,0.4123 -1.34377,7.78295 -1.17149,7.92932 0.11693,0.0994 4.71603,0.65386 6.00687,0.72406 0.45196,0.0244 1.1024,-0.19058 1.44546,-0.47822 z m 2.96125,-17.73037 c 0.81282,-4.49794 1.37307,-8.28285 1.24499,-8.41094 -0.12798,-0.12797 -0.76299,-0.2655 -1.41085,-0.30532 0,0 -0.15629,0.31865 -0.13235,0.77197 0,0.21797 -0.20416,1.84968 -0.45341,3.62618 -0.98259,6.99984 -1.39637,13.16615 -0.84656,12.61634 0.0661,-0.0661 0.78522,-3.80032 1.59806,-8.29823 z m 3.88489,-15.6352 c 0.5078,-2.94391 0.86153,-5.51345 0.78603,-5.71016 -0.24541,-0.63952 -4.36341,-1.40633 -4.37628,-0.81489 -0.002,0.12337 -0.47291,2.71165 -1.04492,5.75203 -0.57202,3.04033 -1.04044,5.76321 -1.04095,6.05081 -5.9e-4,0.40118 0.25996,0.52819 1.11962,0.54564 0.6163,0.0138 1.59116,0.19472 2.16635,0.405 1.30177,0.47579 1.1781,0.79812 2.39015,-6.22843 z m 0.29911,-9.58782 c 0,-2.90706 -0.48423,-2.94981 -1.87321,-0.16549 l -1.03542,2.07567 0.9314,0.11738 c 2.1229,0.26794 1.97723,0.41735 1.97723,-2.02784 z m -8.29559,241.85057 c -7.97217,-1.32805 -13.7288,-6.43855 -15.96574,-14.17372 -0.60268,-2.08404 -0.68637,-3.02146 -0.67889,-7.60609 0.009,-5.12173 0.0285,-5.28742 0.988,-8.06778 1.24619,-3.61152 3.12239,-6.6248 5.52333,-8.87077 3.82841,-3.5813 7.13601,-4.88671 12.90095,-5.09158 4.50946,-0.1602 6.87196,0.26409 9.99071,1.79456 2.69718,1.32357 5.92583,4.43624 7.28563,7.02392 1.8559,3.53179 2.34082,5.80588 2.5145,11.79232 l 0.15399,5.30381 h -13.63275 c -9.96312,0 -13.63273,0.0911 -13.63273,0.33883 0,1.85393 2.05801,4.76826 4.29155,6.07719 3.47938,2.03905 10.2846,2.17853 16.62926,0.34088 l 2.3139,-0.67021 0.66281,4.05331 c 0.36457,2.22931 0.73178,4.41309 0.81605,4.85282 0.14569,0.76044 0.0529,0.83064 -1.89669,1.435 -5.08822,1.57735 -13.53192,2.25582 -18.26381,1.46751 z m 11.13344,-26.93422 c -0.71463,-3.51031 -1.8365,-5.27813 -4.08332,-6.43436 -1.70731,-0.87863 -4.87124,-0.98536 -6.69409,-0.2258 -2.33654,0.9735 -4.21401,3.53768 -4.76715,6.51078 l -0.20831,1.12053 h 7.97535 7.97537 z m 68.72622,26.83916 c -4.77026,-0.95217 -8.00767,-2.59912 -10.95287,-5.57203 -2.42608,-2.44889 -4.47382,-6.36688 -5.17428,-9.89989 -0.52989,-2.67289 -0.60822,-9.13126 -0.1427,-11.76058 1.08122,-6.10586 4.01132,-11.00568 8.20202,-13.71575 4.49661,-2.90789 11.18881,-3.56046 16.78121,-1.63639 0.9289,0.31957 1.73511,0.58107 1.79155,0.58107 0.0564,0 0.10265,-4.27678 0.10265,-9.50393 v -9.50395 l 5.42793,-0.84575 c 2.98534,-0.4652 5.67462,-0.9103 5.9761,-0.98916 0.52911,-0.13833 0.54824,0.91999 0.54824,30.35822 v 30.50155 l -1.12054,0.2902 c -0.6163,0.1595 -1.65837,0.42636 -2.31573,0.59273 -4.81878,1.21967 -15.46435,1.83401 -19.12361,1.10366 z m 9.2213,-9.92253 1.38631,-0.18989 v -10.82922 c 0,-8.30265 -0.087,-10.89991 -0.3735,-11.1321 -0.67787,-0.54969 -3.30194,-1.29521 -5.17428,-1.47005 -5.42028,-0.50616 -8.58921,2.38002 -9.40451,8.56534 -0.75484,5.72678 0.88449,11.3085 3.96563,13.50248 2.14311,1.526 5.65501,2.09433 9.60035,1.55357 z m 37.09364,10.14745 c -4.01952,-0.34132 -8.43905,-1.0643 -11.43076,-1.86994 l -1.27139,-0.34236 0.0762,-29.49158 0.0762,-29.49159 4.93032,-0.79857 c 2.71165,-0.43919 5.36728,-0.86935 5.90141,-0.95592 l 0.97111,-0.1572 v 10.43943 c 0,5.74166 0.11347,10.43942 0.25203,10.43942 0.13856,0 1.04624,-0.27378 2.01693,-0.60843 0.97072,-0.33462 3.04231,-0.75493 4.6036,-0.93396 7.63048,-0.87505 14.7832,2.74507 17.81948,9.01882 3.52217,7.27768 3.64312,17.02488 0.29841,24.0476 -2.66184,5.58893 -7.76246,9.29539 -14.3799,10.44937 -2.3657,0.41253 -6.69208,0.52444 -9.86354,0.2551 z m 8.55768,-10.62927 c 2.66996,-1.14235 4.63384,-3.85179 5.52139,-7.61736 0.576,-2.44367 0.41346,-7.47581 -0.31818,-9.85008 -1.00181,-3.25117 -3.50557,-5.33006 -6.83293,-5.67349 -1.9577,-0.20209 -4.93653,0.31623 -6.5508,1.13975 l -1.13161,0.57731 0.0783,10.82089 0.0783,10.82088 0.89639,0.20946 c 1.55811,0.3641 7.07642,0.0785 8.2589,-0.42738 z m 41.79117,10.38221 c -6.62743,-1.34058 -11.57534,-4.98863 -14.18351,-10.45741 -1.3051,-2.7365 -1.98079,-5.81111 -2.16699,-9.86057 -0.44635,-9.70686 3.73178,-17.73773 11.12139,-21.37675 3.29633,-1.62327 5.33195,-2.07954 9.277969,-2.07954 9.480011,0 15.967221,4.78272 18.20601,13.42235 0.690486,2.66461 1.100187,7.36913 0.880329,10.10863 l -0.197715,2.46516 H -94.430604 -108.0147 l 0.20946,0.97111 c 0.53081,2.45918 2.57838,4.83469 5.09837,5.91487 3.844699,1.64801 11.479741,1.45152 16.776469,-0.43182 0.698426,-0.24835 1.271202,-0.42388 1.272791,-0.39009 0.0046,0.0338 0.336461,2.01117 0.74416,4.39414 0.407653,2.38297 0.74255,4.55703 0.744115,4.83123 0.0046,0.67781 -2.781574,1.57245 -7.27287,2.3359 -4.112276,0.69898 -10.291745,0.76976 -13.341885,0.15283 z m 11.653427,-26.3492 c 0,-1.44178 -1.060874,-4.08155 -2.127203,-5.29293 -1.444405,-1.6409 -3.108714,-2.32427 -5.660833,-2.32427 -3.692951,0 -6.323901,2.00164 -7.458251,5.67434 -0.32474,1.05132 -0.59043,2.0318 -0.59043,2.17883 0,0.15053 3.46019,0.26732 7.91838,0.26732 7.224583,0 7.918337,-0.0442 7.918337,-0.50329 z M -248.207,-212.76599 c -0.10956,-0.10957 -0.1991,-9.12189 -0.1991,-20.02741 v -19.8282 l 0.80159,-0.30479 c 1.29843,-0.49365 7.54084,-2.01778 9.80603,-2.39423 3.48975,-0.57991 9.9943,-0.44791 13.56248,0.27526 1.70739,0.34604 3.16234,0.68718 3.23325,0.75809 0.0709,0.0709 -0.30322,2.29329 -0.83144,4.93858 -0.64578,3.23412 -1.08676,4.80965 -1.34617,4.80965 -0.21221,0 -1.36941,-0.21682 -2.57163,-0.48138 -2.33887,-0.51505 -7.72557,-0.62562 -9.50667,-0.19518 l -1.0458,0.25277 -0.0771,16.19801 -0.0771,16.19801 h -5.77433 c -3.17588,0 -5.864,-0.0895 -5.97354,-0.19909 z m 176.992849,-19.82187 v -20.03374 l 0.821682,-0.32316 c 2.318635,-0.91182 9.032861,-2.35058 12.382402,-2.65337 5.714761,-0.51659 13.987257,0.55213 13.987257,1.80701 0,0.30834 -0.403394,2.50038 -0.896417,4.87117 -0.493,2.37079 -0.896418,4.37198 -0.896418,4.44701 0,0.0753 -1.109279,-0.11025 -2.465115,-0.41193 -2.800885,-0.62314 -6.732294,-0.81618 -9.260452,-0.4547 l -1.715568,0.24527 -0.07711,16.18903 -0.07711,16.18908 -5.901406,0.081 -5.901429,0.081 z m 81.0357733,-11.89626 c -1.638461,-5.08716 -5.749771,-9.76107 -10.81632904,-12.29644 -3.75673296,-1.87986 -8.89646296,-2.99761 -13.78422526,-2.99761 h -2.948885 v -1.49403 -1.49403 l 2.465114,0.007 c 7.5819423,0.0184 14.91905326,2.14283 20.0947353,5.81965 4.17456,2.96564 7.7182707,7.97746 8.9547417,12.66466 l 0.387559,1.46917 -0.898766,0.17976 c -0.494243,0.0987 -1.326052,0.17976 -1.848352,0.17976 -0.909952,0 -0.97707,-0.0852 -1.6055927,-2.0367 z m 8.8306107,-0.49892 c -1.985234,-7.62199 -7.780164,-14.68382 -15.0154707,-18.29819 -4.638006,-2.31696 -9.258036,-3.33845 -16.1761003,-3.5766 l -5.120349,-0.17631 -0.156515,-1.37706 c -0.08585,-0.75735 -0.09069,-1.44374 -0.01151,-1.52529 0.32111,-0.32606 5.00805,-0.34074 8.4518223,-0.0265 14.285143,1.30359 24.3234987,7.51621 29.7338377,18.40193 1.608977,3.23729 3.146002,7.72124 2.77421,8.09308 -0.104728,0.10473 -1.038203,0.25786 -2.07454,0.34061 l -1.884306,0.1503 -0.522484,-2.00607 z m 9.636089,1.39319 c 0,-1.11517 -1.032747,-5.77527 -1.677935,-7.57137 -4.729522,-13.16641 -15.077548,-20.68381 -31.1907877,-22.6588 -1.396876,-0.17125 -4.92657,-0.31158 -7.8436223,-0.31191 -4.827712,-5.9e-4 -5.304093,-0.0469 -5.307132,-0.51767 -0.0046,-0.2844 -0.08953,-1.04 -0.195183,-1.67913 l -0.191961,-1.16206 6.843673,0.16181 c 5.0301463,0.11877 7.7938363,0.32894 10.42932226,0.79257 13.97811974,2.45876 23.45808474,8.68491 29.05400974,19.08178 2.160186,4.01344 3.818212,9.20427 4.030037,12.61671 l 0.08355,1.34465 -2.016951,0.0882 c -1.109302,0.0486 -2.016952,-0.0348 -2.016952,-0.18506 z"
       id="path826-36"
       inkscape:connector-curvature="0"
       sodipodi:nodetypes="sccccccccccccccccscsscccccccccssccscsscccscccscsccccccccscccccccccccccccccscccscscscscccccscscccccssccccccscccccccccssccccccsccccccccccccsccccsccscccccsccccccccscccscscsccccsccccccssccccscccscscccscccsssccccccscscccsccccccscsssccccsccccsscccccsccscccccscccccsccccccsccccccccccccsccccccccccccscsssccccsccccccccscccccccccscccccssccsscccccscccccssssscscccccscccccsscccccccccscccccsscccscccccscccccsscccccccccscccccssccsscccccscccccssssscccccccsccccsssccsscccccscccccssssscscccccscccccsscccccccccscccccssccsscsccsccccsssscccccccscccccssccsscsccscccccssssssscccccsccccssssccssccccscscsssscscccccscscscssssccccsssccsccscscccsccsccscsccccccccscscccsccscscssssccccccscccscccccsccccscssccccsccssscccscccccccccccccccccccccccccccccccscssccscscccccsccsssccscccccccccccccccscsscscscccccccscccccccccccsccssccsscccccccccccccccccsscccccccccccscscscssscsccssssscccccscccccssssccccccccccsccccscccsccccscccccscccccccccccsssccccc"
       inkscape:export-xdpi="96"
       inkscape:export-ydpi="96" />
    <text
       xml:space="preserve"
       style="font-style:normal;font-weight:normal;font-size:10.58333302px;line-height:1.25;font-family:sans-serif;letter-spacing:0px;word-spacing:0px;fill:#000000;fill-opacity:1;stroke:none;stroke-width:0.26458332"
       x="-178.40475"
       y="-334.97617"
       id="text824"><tspan
         sodipodi:role="line"
         id="tspan822"
         x="-178.40475"
         y="-334.97617"
         style="stroke-width:0.26458332">banner Twitter</tspan></text>
    <text
       xml:space="preserve"
       style="font-style:normal;font-weight:normal;font-size:10.58333302px;line-height:1.25;font-family:sans-serif;letter-spacing:0px;word-spacing:0px;fill:#000000;fill-opacity:1;stroke:none;stroke-width:0.26458332"
       x="749.90472"
       y="-167.15477"
       id="text828"><tspan
         sodipodi:role="line"
         id="tspan826"
         x="749.90472"
         y="-167.15477"
         style="stroke-width:0.26458332">TwitterLogo</tspan></text>
    <text
       xml:space="preserve"
       style="font-style:normal;font-weight:normal;font-size:10.58333302px;line-height:1.25;font-family:sans-serif;letter-spacing:0px;word-spacing:0px;fill:#000000;fill-opacity:1;stroke:none;stroke-width:0.26458332"
       x="-195.03572"
       y="215.35713"
       id="text832"><tspan
         sodipodi:role="line"
         id="tspan830"
         x="-195.03572"
         y="215.35713"
         style="stroke-width:0.26458332">Banner</tspan></text>
  </g>
  <g
     inkscape:groupmode="layer"
     id="layer2"
     inkscape:label="backround" />
</svg>
