<?xml version="1.0" encoding="UTF-8" standalone="no"?>
<svg
   width="100%"
   height="100%"
   viewBox="0 0 1788 1788"
   version="1.1"
   xml:space="preserve"
   style="fill-rule:evenodd;clip-rule:evenodd;"
   id="svg43"
   sodipodi:docname="nerdberg-LGBTQIA+.svg"
   inkscape:version="1.1.1 (3bf5ae0d25, 2021-09-20)"
   inkscape:export-filename="E:\Projekte\Nerdberg\repos\Logos\nerdberg-LGBTQIA+.png"
   inkscape:export-xdpi="96"
   inkscape:export-ydpi="96"
   xmlns:inkscape="http://www.inkscape.org/namespaces/inkscape"
   xmlns:sodipodi="http://sodipodi.sourceforge.net/DTD/sodipodi-0.dtd"
   xmlns="http://www.w3.org/2000/svg"
   xmlns:svg="http://www.w3.org/2000/svg"><defs
     id="defs47"><filter
       style="color-interpolation-filters:sRGB;"
       inkscape:label="Drop Shadow"
       id="filter329"
       x="-0.035851035"
       y="-0.016607896"
       width="1.0799513"
       height="1.0370335"><feFlood
         flood-opacity="0.498039"
         flood-color="rgb(0,0,0)"
         result="flood"
         id="feFlood319" /><feComposite
         in="flood"
         in2="SourceGraphic"
         operator="in"
         result="composite1"
         id="feComposite321" /><feGaussianBlur
         in="composite1"
         stdDeviation="15"
         result="blur"
         id="feGaussianBlur323" /><feOffset
         dx="0"
         dy="0"
         result="offset"
         id="feOffset325" /><feComposite
         in="SourceGraphic"
         in2="offset"
         operator="over"
         result="composite2"
         id="feComposite327" /></filter></defs><sodipodi:namedview
     id="namedview45"
     pagecolor="#ffffff"
     bordercolor="#666666"
     borderopacity="1.0"
     inkscape:pageshadow="2"
     inkscape:pageopacity="0.0"
     inkscape:pagecheckerboard="0"
     showgrid="false"
     inkscape:zoom="0.48825503"
     inkscape:cx="892.97595"
     inkscape:cy="894"
     inkscape:window-width="3440"
     inkscape:window-height="1377"
     inkscape:window-x="-8"
     inkscape:window-y="-8"
     inkscape:window-maximized="1"
     inkscape:current-layer="svg43" /><circle
     id="path828"
     cx="893.622"
     cy="893.74"
     r="885.827"
     style="fill:none;" /><clipPath
     id="_clip1"><circle
       cx="893.622"
       cy="893.74"
       r="885.827"
       id="circle3" /></clipPath><g
     clip-path="url(#_clip1)"
     id="g38"><g
       id="Ebene_x0020_1"><clipPath
         id="_clip2"><rect
           x="0"
           y="0"
           width="2814.74"
           height="1787.36"
           id="rect6" /></clipPath><g
         clip-path="url(#_clip2)"
         id="g35"><rect
           x="0"
           y="0"
           width="2814.74"
           height="1787.36"
           style="fill:#6d2380;fill-rule:nonzero;"
           id="rect9" /><rect
           x="0"
           y="0"
           width="2814.74"
           height="1489.47"
           style="fill:#2c58a4;fill-rule:nonzero;"
           id="rect11" /><rect
           x="0"
           y="0"
           width="2814.74"
           height="1191.58"
           style="fill:#78b82a;fill-rule:nonzero;"
           id="rect13" /><rect
           x="0"
           y="0"
           width="2814.74"
           height="893.681"
           style="fill:#efe524;fill-rule:nonzero;"
           id="rect15" /><rect
           x="0"
           y="0"
           width="2814.74"
           height="595.787"
           style="fill:#f28917;fill-rule:nonzero;"
           id="rect17" /><rect
           x="0"
           y="0"
           width="2814.74"
           height="297.894"
           style="fill:#e22016;fill-rule:nonzero;"
           id="rect19" /><path
           d="M738.87,0l-738.87,0l0,1787.36l738.87,0l828.004,-893.681l-828.004,-893.681Z"
           style="fill-rule:nonzero;"
           id="path21" /><path
           d="M565.294,0l-565.294,0l0,1787.36l565.294,0l828.004,-893.681l-828.004,-893.681Z"
           style="fill:#945516;fill-rule:nonzero;"
           id="path23" /><path
           d="M394.064,0l-394.064,0l0,1787.36l394.064,0l828.004,-893.681l-828.004,-893.681Z"
           style="fill:#7bcce5;fill-rule:nonzero;"
           id="path25" /><path
           d="M222.834,0l-222.834,0l0,1787.36l222.834,0l828.004,-893.681l-828.004,-893.681Z"
           style="fill:#f4aec8;fill-rule:nonzero;"
           id="path27" /><path
           d="M0,0l0,1787.36l51.604,0l825.658,-893.681l-825.658,-893.681l-51.604,0Z"
           style="fill:#fff;fill-rule:nonzero;"
           id="path29" /><path
           d="M0,1656.01l706.032,-762.327l-706.032,-764.672l0,1527Z"
           style="fill:#fdd817;fill-rule:nonzero;"
           id="path31" /><circle
           cx="260.364"
           cy="893.681"
           r="187.65"
           style="fill:none;stroke:#66338b;stroke-width:44.57px;"
           id="circle33" /></g></g></g><circle
     cx="893.622"
     cy="893.74"
     r="885.827"
     style="fill:none;stroke:#2b2a29;stroke-width:15.71px;"
     id="circle40" /><path
     id="path826-3"
     d="M849.213,1674.57c-34.016,-8.976 -59.41,-26.575 -66.733,-46.063c-13.11,-34.843 -18.779,-76.654 -20.197,-146.929c-1.181,-58.583 0.473,-103.819 7.914,-222.047c12.52,-198.308 10.63,-254.292 -9.449,-280.512c-11.929,-15.709 -36.024,-27.638 -55.512,-27.638c-20.551,0.118 -49.96,11.339 -59.645,22.795c-7.323,8.74 -13.229,21.26 -18.78,39.567c-13.701,45.473 -13.228,42.402 -43.701,338.386c-23.858,232.323 -32.008,305.551 -32.834,297.047c1.417,-127.795 27.874,-448.937 42.047,-569.882c4.252,-36.26 14.527,-74.409 27.165,-99.567c19.016,-37.795 48.307,-54.803 90.473,-49.96c46.889,5.315 76.417,27.047 85.275,69.094c6.969,33.189 7.323,89.764 0.945,181.418c-7.441,106.771 -7.913,132.992 -9.921,176.929c-2.362,53.74 -4.606,154.724 -1.063,184.842c5.315,46.299 6.142,70.512 34.96,97.559c16.772,15.709 33.426,17.953 67.678,19.37c28.937,1.181 44.527,-4.842 66.496,-16.417c26.929,-13.937 43.228,-36.024 52.204,-52.441l1.182,-6.732l-10.867,-2.244c-14.173,-2.835 -15.826,-2.717 -15.826,0.827c-0,4.842 -10.63,25.748 -17.599,34.488c-24.212,30.59 -76.89,39.33 -116.575,19.252c-24.567,-12.402 -37.322,-30.591 -42.401,-60.591c-8.268,-47.835 -8.74,-169.488 -1.299,-282.52c13.228,-200.078 14.173,-254.173 4.724,-296.102c-7.323,-32.48 -22.441,-50.787 -55.748,-67.441c-23.858,-12.047 -34.961,-13.11 -54.803,-11.693c-55.394,3.898 -75.354,30.236 -90.591,59.292c-17.008,32.126 -15.472,30.59 -42.992,284.055c-23.386,214.488 -33.661,284.645 -33.661,284.645c-0.591,0.591 2.598,-41.456 1.535,-51.023c18.071,-213.425 36.024,-414.213 44.646,-473.74c3.897,-26.575 10.63,-43.465 25.748,-64.607c50.787,-71.22 153.307,-71.22 204.212,0.118c20.197,28.229 22.796,44.055 21.024,128.504c-1.181,55.866 -4.252,115.63 -9.803,192.284c-9.449,130.63 -6.732,276.496 5.787,320.315c3.544,12.283 12.52,20.433 34.725,31.535c15.827,7.795 16.063,7.914 36.968,7.914c19.843,-0 21.614,-0.355 33.662,-6.26c25.275,-12.52 44.527,-36.496 44.409,-55.276c0,-4.606 2.244,-25.039 4.843,-45.354c6.378,-47.362 15,-127.087 21.023,-191.811c4.134,-44.882 9.449,-79.488 44.528,-287.362c21.85,-129.922 40.157,-238.465 40.748,-241.3c0.827,-4.015 0.236,-5.078 -3.543,-6.141c-2.599,-0.591 -5.079,-2.363 -5.67,-3.78c-1.89,-4.961 11.103,-93.189 39.213,-265.394c10.984,-67.677 13.583,-87.047 12.165,-92.126c-0.945,-3.543 -2.008,-10.748 -2.126,-16.063c-0.472,-10.866 2.835,-15.118 11.929,-15.118c8.859,0 11.103,-4.842 15.355,-35.078c2.244,-15.591 4.96,-29.292 5.905,-30.591c1.181,-1.535 6.732,-2.362 15.709,-2.362c12.874,-0 13.937,-0.355 14.882,-4.252c0.472,-2.362 4.842,-26.693 9.685,-54.095c6.496,-36.85 8.268,-50.905 6.85,-53.976c-1.417,-2.953 0.118,-14.882 5.669,-45.591c6.378,-34.724 8.268,-42.165 11.93,-45.826c4.252,-4.252 7.086,-9.449 12.992,-23.741c2.716,-6.85 3.307,-7.086 9.094,-5.905c3.425,0.709 6.733,1.89 7.441,2.48c0.591,0.709 1.536,8.622 2.008,17.599c0.472,9.094 1.772,17.598 2.953,19.134c1.771,2.007 0.59,12.165 -5.197,44.763c-6.732,38.741 -8.268,43.819 -13.701,45.945c-1.063,0.355 -20.433,102.992 -20.433,108.425c0,1.063 4.725,3.426 10.394,5.197c5.669,1.772 10.63,3.898 11.102,4.607c0.473,0.708 -1.181,13.228 -3.661,27.755c-6.024,34.607 -5.67,38.268 3.661,43.465c13.11,7.323 13.229,10.866 1.063,31.417l-7.205,12.52l-15.354,92.48c-18.779,113.386 -43.228,245.315 -46.417,250.394c-0.591,0.945 -3.544,1.654 -6.496,1.654c-4.252,-0 -5.788,1.063 -6.496,4.252c-0.591,2.362 -18.426,110.196 -39.685,239.763c-35.788,217.796 -39.685,239.41 -51.969,289.134c-19.252,77.835 -43.583,203.74 -43.583,225.591c0,2.598 -1.063,5.551 -2.362,6.378c-1.299,0.826 -3.897,6.141 -5.905,11.929c-12.402,37.205 -43.465,67.559 -81.378,79.842c-8.504,2.717 -18.544,3.898 -38.859,4.489c-24.566,0.59 -29.291,0.236 -44.881,-3.898Zm170.787,-128.976c7.441,-51.733 28.583,-153.78 45.827,-221.339l5.433,-21.26l-17.48,0l-8.977,27.874c-15,46.89 -27.874,104.173 -43.11,192.638l-7.795,44.882l4.488,3.307c3.897,2.953 14.291,5.433 16.535,3.898c0.473,-0.355 2.835,-13.819 5.079,-30Zm53.858,-254.882c3.189,-13.111 77.835,-471.733 76.89,-472.678c-0.591,-0.59 -3.543,-1.181 -6.496,-1.417c-5.433,-0.472 -5.433,-0.354 -11.575,23.268c-9.567,36.85 -21.85,95.197 -35.433,168.189c-13.11,70.394 -48.189,276.732 -48.189,283.346c0,3.189 1.417,3.898 8.976,4.489c13.583,1.063 14.292,0.826 15.827,-5.197Zm92.362,-479.882c0,-0.355 2.599,-13.347 5.788,-28.819c13.11,-64.843 29.882,-160.984 51.614,-295.276l2.598,-15.708l-6.85,-2.835c-9.213,-3.898 -41.102,-12.047 -46.89,-12.047c-3.425,-0 -4.488,0.708 -3.661,2.716c1.89,4.961 -50.197,250.866 -67.559,318.78c-2.48,9.803 -4.843,19.016 -5.197,20.433c-0.827,3.071 2.598,3.898 38.976,9.567c22.796,3.543 31.181,4.37 31.181,3.189Zm70.985,-357.756c7.559,-12.992 6.141,-16.063 -9.567,-21.142c-7.205,-2.244 -15.945,-4.724 -19.37,-5.315c-5.788,-1.181 -6.142,-0.945 -6.142,4.37c-0,8.386 -3.661,17.362 -8.032,19.725c-3.425,1.889 -2.007,2.716 11.812,6.614c8.622,2.48 17.125,5.315 18.779,6.26c3.78,2.126 6.26,-0 12.52,-10.512Zm-13.583,-31.89c-2.362,-6.26 -68.268,-17.716 -71.457,-12.401c-0.826,1.181 1.418,1.889 5.906,1.889c13.701,0.118 48.661,6.969 66.26,13.111c0.236,0.118 -0.118,-1.063 -0.709,-2.599Zm-21.26,-19.488c14.41,-12.047 19.843,-19.016 23.15,-29.528c1.89,-6.023 2.716,-11.693 1.89,-12.519c-5.67,-5.433 -62.245,-13.819 -64.843,-9.685c-1.535,2.716 -8.504,49.252 -7.323,50.196c0.709,0.709 29.764,4.134 37.914,4.607c2.834,0.118 6.968,-1.181 9.212,-3.071Zm18.662,-112.087c5.196,-28.464 8.74,-52.441 7.913,-53.267c-0.827,-0.827 -4.843,-1.654 -8.976,-1.89c-0,-0 -0.945,2.008 -0.827,4.842c-0,1.418 -1.299,11.693 -2.835,22.914c-6.26,44.291 -8.858,83.386 -5.315,79.842c0.355,-0.354 4.961,-23.976 10.04,-52.441Zm24.567,-98.976c3.307,-18.543 5.551,-34.843 5.078,-36.142c-1.653,-4.016 -27.638,-8.858 -27.756,-5.079c0,0.709 -2.952,17.126 -6.614,36.378c-3.661,19.252 -6.614,36.378 -6.614,38.268c0,2.48 1.654,3.307 7.087,3.425c3.897,0.118 10.157,1.3 13.7,2.599c8.268,2.952 7.441,5.078 15.119,-39.449Zm1.889,-60.591c0,-18.425 -3.071,-18.661 -11.811,-1.063l-6.496,13.111l5.788,0.708c13.464,1.772 12.519,2.717 12.519,-12.756Z"
     style="stroke:#fff;stroke-width:4.15px;stroke-linejoin:round;stroke-miterlimit:2;filter:url(#filter329)" /></svg>
