<?xml version="1.0" encoding="UTF-8" standalone="no"?>
<!DOCTYPE svg PUBLIC "-//W3C//DTD SVG 1.1//EN" "http://www.w3.org/Graphics/SVG/1.1/DTD/svg11.dtd">
<svg width="100%" height="100%" viewBox="0 0 567 567" version="1.1" xmlns="http://www.w3.org/2000/svg" xmlns:xlink="http://www.w3.org/1999/xlink" xml:space="preserve" xmlns:serif="http://www.serif.com/" style="fill-rule:evenodd;clip-rule:evenodd;">
    <g id="Ebene-1" serif:id="Ebene 1">
        <circle id="path828" cx="283.451" cy="283.479" r="280.974" style="fill:none;stroke:black;stroke-width:3.77px;"/>
        <g id="förderturm.svg" transform="matrix(0.682031,0,0,0.682031,299.425,283.465)">
            <g transform="matrix(1,0,0,1,-154.56,-229.76)">
                <clipPath id="_clip1">
                    <rect x="0" y="0" width="309.12" height="459.52"/>
                </clipPath>
                <g clip-path="url(#_clip1)">
                    <g transform="matrix(1,0,0,1,-0.16657,-0.015605)">
                        <g id="Image">
                            <g id="g914">
                                <g id="g974">
                                    <path id="path916" d="M13.6,453.2C13.974,440.163 14.408,419.421 14.309,419.322C14.253,419.266 13.729,419.183 13.146,419.139C12.061,419.056 11.605,418.559 12.012,417.901C12.181,417.626 12.303,417.634 12.486,417.929C12.64,418.179 13.042,418.249 13.566,418.117C14.796,417.809 14.648,417.025 12.477,412.359C10.82,408.797 10.56,407.984 10.56,406.359C10.56,404.902 10.452,404.48 10.08,404.48C9.466,404.48 9.459,403.951 10.068,403.61C10.422,403.412 10.558,402.533 10.628,399.994L10.72,396.64L14.88,396.622L15.062,390.081L13.821,390.081C12.357,390.081 11.777,389.545 10.682,387.182C10.263,386.276 9.92,385.479 9.92,385.408C9.92,385.338 11.005,385.28 12.332,385.28L14.743,385.28L14.56,379.04L13.6,378.936C12.464,378.813 11.362,377.666 10.522,375.733C10.191,374.971 9.92,374.287 9.92,374.213C9.92,374.14 10.996,374.08 12.312,374.08L14.704,374.08L14.542,368.56C14.33,361.356 13.76,329.516 13.76,324.88L13.76,321.28L14.541,321.28C14.971,321.28 15.4,321.155 15.494,321.002C15.589,320.849 15.175,319.265 14.574,317.482L13.482,314.24L15.91,314.24L16.147,312.4C16.725,307.896 16.581,306.302 15.182,301.68L13.851,297.28L15.547,297.28C16.479,297.28 17.338,297.435 17.455,297.624C17.59,297.843 17.907,297.711 18.325,297.263C18.882,296.665 18.921,296.459 18.582,295.916C18.257,295.396 18.262,295.224 18.611,295.007C18.948,294.797 18.96,294.61 18.663,294.131C18.378,293.671 18.376,293.432 18.655,293.153C18.934,292.874 18.934,292.639 18.655,292.193C18.376,291.747 18.376,291.512 18.655,291.233C18.934,290.954 18.927,290.709 18.629,290.232C18.394,289.855 18.365,289.6 18.557,289.6C18.969,289.6 18.981,288.42 18.572,288.167C18.398,288.06 18.52,287.72 18.852,287.388C19.352,286.888 19.444,286.252 19.459,283.16C19.485,277.771 19.811,259.545 19.996,253.12C20.084,250.04 20.228,243.776 20.315,239.2C20.402,234.624 20.553,226.939 20.649,222.123C20.802,214.522 20.759,213.266 20.325,212.603C20.039,212.167 19.97,211.84 20.164,211.84C20.755,211.84 20.272,208.086 19.065,203.296C18.435,200.797 17.92,198.673 17.92,198.576C17.92,198.479 18.28,198.4 18.72,198.4C19.16,198.4 19.518,198.364 19.515,198.32C19.512,198.276 19.226,197.16 18.88,195.84C18.033,192.608 18.027,192.64 19.52,192.64L20.8,192.64L20.8,190.24C20.8,188.003 20.754,187.84 20.117,187.84C19.438,187.84 19.436,187.81 19.634,182C19.743,178.788 19.926,172.092 20.039,167.12C20.234,158.618 20.281,158.08 20.837,158.08C21.195,158.08 21.483,158.364 21.568,158.8C22.466,163.419 22.63,165.193 22.415,168C22.172,171.166 22.557,174.186 23.177,173.983C23.366,173.921 23.564,173.197 23.618,172.375C23.696,171.18 23.832,170.88 24.296,170.88C24.748,170.88 24.913,171.203 25.041,172.336C25.131,173.137 25.265,173.852 25.339,173.925C25.412,173.999 37.164,174.073 51.455,174.091L77.438,174.124L78.923,171.942C81.049,168.818 84.491,164.828 86.806,162.805C89.451,160.493 93.712,157.36 95.634,156.314L97.183,155.471L97.39,150.936C97.504,148.441 97.598,139.822 97.599,131.783L97.6,117.165L95.847,116.801C94.595,116.541 93.9,116.192 93.42,115.581C92.705,114.672 92.701,114.336 93.302,104.837C93.391,103.44 93.31,101.856 93.122,101.285L92.782,100.255L89.587,100.046C72.397,98.919 55.189,88.696 47.127,74.822L45.674,72.32L26.076,72.32L24.842,65.2C20.541,40.364 20.45,39.746 21.17,40.191C21.539,40.419 21.425,38.404 20.929,35.923C20.73,34.932 20.745,34.919 22.124,34.82L23.52,34.72L23.644,28.96C23.713,25.792 23.746,21.868 23.719,20.24C23.691,18.612 23.707,17.269 23.754,17.255C23.801,17.242 30.824,17.154 39.36,17.061L54.88,16.891L57.28,14.589C62.771,9.321 69.26,5.416 76.48,3.036C78.388,2.407 79.558,1.8 80.4,1.004C81.06,0.381 81.6,0.026 81.6,0.216C81.6,0.406 81.384,0.741 81.12,0.96C80.568,1.418 80.463,2.067 80.994,1.739C81.188,1.619 82.88,1.237 84.754,0.89C90.111,-0.101 98.365,-0.145 103.474,0.79C104.193,0.922 104.348,0.856 104.204,0.479C103.966,-0.142 104.308,-0.138 104.765,0.485C104.96,0.752 106.272,1.246 107.68,1.583C116.144,3.611 124.804,8.215 130.759,13.852L133.406,16.357L151.283,16.303L151.2,34.08L153.32,34.071L153.167,40.636C152.931,50.702 152.312,68.12 152.123,70L151.954,71.68L147.52,71.68C143.695,71.68 143.073,71.609 142.983,71.163C142.918,70.839 142.284,71.524 141.28,73.002C140.4,74.298 139.221,75.87 138.661,76.495C137.607,77.67 137.536,78.209 138.183,80.16C138.771,81.933 150.706,108.914 150.985,109.098C151.349,109.339 155.2,117.963 155.2,118.538C155.2,118.903 175.236,164.278 178.577,171.479L179.522,173.517L183.051,173.365C184.992,173.281 186.643,173.315 186.72,173.44C186.797,173.565 186.773,174.408 186.666,175.314L186.471,176.96L182.08,176.96L182.08,178.231C182.08,178.93 182.432,180.298 182.862,181.271L183.645,183.04L186.88,183.04L186.88,184.134C186.88,185.659 186.596,186.24 185.852,186.24C185.162,186.24 185.159,186.212 186.171,188.719L186.72,190.078L189.136,190.079C191.72,190.08 192.32,190.363 192.32,191.584C192.32,192.474 191.684,192.565 191.46,191.707C191.329,191.205 190.951,191.074 189.382,190.987C188.327,190.928 187.415,190.93 187.354,190.991C187.017,191.331 187.703,191.999 188.388,191.999C189.137,191.999 189.178,192.084 189.045,193.359C188.918,194.58 189.614,196.323 195.852,210.399C204.246,229.343 213.014,249.32 231.524,291.679C239.215,309.279 250.26,334.551 256.069,347.839C261.878,361.127 266.975,372.367 267.395,372.817C267.816,373.267 268.16,373.87 268.16,374.158C268.16,374.446 268.304,374.771 268.48,374.879C268.656,374.988 268.8,375.361 268.8,375.708C268.8,376.055 269,376.416 269.245,376.51C269.5,376.608 269.621,376.942 269.528,377.296C269.428,377.681 269.565,377.987 269.893,378.113C270.23,378.243 270.352,378.527 270.232,378.905C270.115,379.273 270.281,379.698 270.674,380.034C271.02,380.331 271.238,380.745 271.157,380.955C271.077,381.165 271.232,381.52 271.502,381.744C271.772,381.969 271.901,382.301 271.788,382.484C271.675,382.667 271.838,383.004 272.151,383.233C272.484,383.476 272.639,383.859 272.526,384.156C272.412,384.453 272.528,384.739 272.805,384.846C273.094,384.956 273.28,385.447 273.28,386.096C273.28,386.736 274.317,389.512 275.868,393.022C277.292,396.244 280.373,403.271 282.714,408.639C285.056,414.007 290.89,427.327 295.679,438.239C300.468,449.151 304.512,458.403 304.665,458.799L304.944,459.519L273.03,459.519L272.388,458.159C270.936,455.085 257.127,425.923 254.243,419.839C247.613,405.857 246.148,402.963 245.449,402.474C245.054,402.197 244.82,401.827 244.928,401.651C245.037,401.475 244.909,401.114 244.643,400.848C244.377,400.582 244.16,400.134 244.16,399.852C244.16,399.57 243.953,399.26 243.7,399.163C243.442,399.064 243.323,398.771 243.43,398.493C243.537,398.213 243.396,397.875 243.103,397.711C242.819,397.552 242.664,397.221 242.758,396.976C242.852,396.73 242.657,396.257 242.325,395.924C241.992,395.592 241.78,395.139 241.853,394.919C241.927,394.699 241.734,394.334 241.425,394.108C241.115,393.882 240.965,393.53 241.091,393.326C241.219,393.119 241.099,392.87 240.82,392.763C240.545,392.657 240.32,392.242 240.32,391.839C240.32,391.437 240.122,391.032 239.88,390.939C239.615,390.837 239.496,390.471 239.582,390.024C239.676,389.529 238.575,386.856 236.31,382.079C234.432,378.119 227.851,364.151 221.686,351.039C215.52,337.927 208.608,323.239 206.326,318.399C204.043,313.559 200.118,305.207 197.603,299.839C195.088,294.471 191.738,287.343 190.159,283.999C188.579,280.655 185.666,274.463 183.685,270.239C181.704,266.015 179.18,260.687 178.076,258.399C176.972,256.111 175.266,252.536 174.285,250.455C171.626,244.813 169.308,241.83 165.76,239.481L164.449,238.614L162.945,240.08C160.659,242.309 155.818,245.814 152.449,247.68C144.882,251.872 137.096,254.126 127.234,254.981C125.473,255.133 124.636,255.345 124.471,255.679C124.341,255.943 124.043,256.568 123.808,257.067C123.315,258.118 122.019,258.881 120.736,258.876C120.243,258.874 118.22,259.114 116.24,259.409C112.836,259.917 112.64,259.987 112.64,260.693C112.64,261.35 112.793,261.439 113.92,261.439L115.2,261.439L115.2,265.279L129.568,265.279L129.785,263.359C129.963,261.791 130.11,261.439 130.588,261.439C131.153,261.439 131.173,263.373 131.146,317.244C131.131,347.937 131.234,373.235 131.374,373.462C131.514,373.689 131.568,381.013 131.494,389.737C131.312,411.272 131.464,445.835 131.759,449.759C131.892,451.519 131.959,454.435 131.909,456.239L131.818,459.519L75.52,459.519L75.52,447.999C75.52,437.007 75.493,436.479 74.928,436.479C73.981,436.479 73.599,440.551 73.6,450.639L73.6,459.519L69.128,459.519L68.96,436.639L44,436.639L43.891,437.598C43.831,438.126 43.662,438.631 43.516,438.722C43.369,438.813 43.145,443.529 43.017,449.203L42.785,459.519L38.297,459.519L38.5,448.173C38.611,441.932 38.598,436.773 38.471,436.708C38.344,436.642 35.684,436.653 32.56,436.73L26.88,436.872L26.88,443.825C26.88,447.649 26.786,452.745 26.67,455.149L26.461,459.519L13.419,459.519L13.6,453.2ZM111.278,451.44C111.219,449.988 111.17,451.176 111.17,454.08C111.17,456.984 111.219,458.172 111.278,456.72C111.337,455.268 111.337,452.892 111.278,451.44ZM21.587,453.68C21.705,450.996 21.756,445.594 21.701,441.677L21.6,434.553L19.606,435.97L19.372,446.508L19.138,457.046L20.049,457.792C20.55,458.202 21.053,458.542 21.166,458.548C21.28,458.554 21.469,456.364 21.587,453.68ZM118.8,457.694C118.404,457.618 117.756,457.618 117.36,457.694C116.964,457.77 117.288,457.833 118.08,457.833C118.872,457.833 119.196,457.77 118.8,457.694ZM126.651,457.685C125.821,457.619 124.381,457.619 123.451,457.685C122.521,457.75 123.2,457.804 124.96,457.805C126.72,457.805 127.481,457.752 126.651,457.687L126.651,457.685ZM119.36,456.32L119.36,453.76L116.48,453.76L116.48,456.32L119.36,456.32ZM128.137,455.04L128.16,453.92L121.92,453.737L121.92,456.343L128.114,456.16L128.137,455.04L128.137,455.04ZM119.36,450.88C119.36,449.972 119.29,449.92 118.07,449.92C117.218,449.92 116.717,450.083 116.596,450.4C116.232,451.348 116.736,451.84 118.07,451.84C119.29,451.84 119.36,451.788 119.36,450.88ZM128.157,450.88L128.16,450.08L124.394,449.99C121.25,449.914 120.596,449.981 120.439,450.39C120.336,450.659 120.336,451.101 120.439,451.37C120.596,451.779 121.249,451.845 124.39,451.77L128.153,451.68L128.156,450.88L128.157,450.88ZM95.621,448.72C95.549,448.09 95.316,447.811 94.8,447.738C93.946,447.616 93.86,448.187 94.61,449.015C95.364,449.848 95.739,449.739 95.621,448.72ZM119.36,448.32C119.36,447.775 119.147,447.68 117.92,447.68C116.891,447.68 116.48,447.809 116.48,448.133C116.48,448.69 116.966,448.902 118.32,448.935C119.155,448.955 119.36,448.834 119.36,448.32ZM127.94,448.457C128.171,448.384 128.271,448.179 128.161,448.002C127.925,447.62 120.32,447.556 120.32,447.936C120.32,448.711 121.188,448.888 124.272,448.742C126.058,448.658 127.709,448.529 127.94,448.457L127.94,448.457ZM111.259,447.3C111.156,447.045 111.081,447.121 111.065,447.493C111.051,447.831 111.127,448.02 111.233,447.913C111.34,447.807 111.351,447.531 111.259,447.3L111.259,447.3ZM95.608,441.516L95.696,436.48L93.673,436.48L93.825,441.228C93.909,443.839 94.086,446.151 94.219,446.366C94.351,446.58 94.698,446.71 94.99,446.654C95.452,446.565 95.531,445.907 95.608,441.516ZM111.276,441.84C111.211,440.916 111.158,441.672 111.158,443.52C111.158,445.368 111.211,446.124 111.276,445.2C111.341,444.276 111.341,442.764 111.276,441.84ZM119.36,443.84L119.36,442.56L117.92,442.56C116.501,442.56 116.48,442.576 116.48,443.627C116.48,444.98 116.636,445.12 118.133,445.12C119.351,445.12 119.36,445.111 119.36,443.84ZM128,445.12L128,442.56L120.32,442.56L120.32,443.627C120.32,444.213 120.416,444.789 120.533,444.907C120.651,445.024 122.379,445.12 124.373,445.12L128,445.12ZM119.36,440.16C119.36,439.046 119.352,439.04 117.92,439.04C116.552,439.04 116.48,439.085 116.48,439.947C116.48,441.13 116.667,441.28 118.133,441.28C119.322,441.28 119.36,441.245 119.36,440.16ZM128,441.28L128,439.108L125.397,438.99C123.965,438.925 122.237,438.924 121.557,438.989C120.452,439.095 120.32,439.2 120.32,439.98C120.32,440.46 120.416,440.949 120.533,441.067C120.651,441.184 122.379,441.28 124.373,441.28L128,441.28ZM111.259,439.3C111.156,439.045 111.081,439.121 111.065,439.493C111.051,439.831 111.127,440.02 111.233,439.913C111.34,439.807 111.351,439.531 111.259,439.3L111.259,439.3ZM119.302,437.04C119.223,436.482 118.958,436.297 118.119,436.217C116.904,436.101 116.301,436.511 116.587,437.259C116.719,437.601 117.196,437.76 118.092,437.76C119.27,437.76 119.394,437.686 119.302,437.04ZM128,437.76L128,436.16L124.339,436.16C120.686,436.16 120.074,436.338 120.442,437.295C120.583,437.664 121.379,437.76 124.31,437.76L128,437.76ZM87.899,434.5C87.796,434.245 87.721,434.321 87.705,434.693C87.691,435.031 87.767,435.22 87.873,435.113C87.98,435.007 87.991,434.731 87.899,434.5L87.899,434.5ZM95.68,433.317C95.68,431.568 95.624,431.424 94.888,431.283C93.831,431.081 93.76,431.196 93.76,433.12C93.76,434.986 93.881,435.2 94.933,435.2C95.631,435.2 95.68,435.076 95.68,433.317ZM128,433.92L128,431.68L116.8,431.68L116.8,433.92L128,433.92ZM114.772,432.56C114.683,432.34 114.611,432.52 114.611,432.96C114.611,433.4 114.683,433.58 114.772,433.36C114.861,433.14 114.861,432.78 114.772,432.56ZM88,432.48C88,432.392 87.928,432.32 87.84,432.32C87.752,432.32 87.68,432.392 87.68,432.48C87.68,432.568 87.752,432.64 87.84,432.64C87.928,432.64 88,432.568 88,432.48ZM21.917,431.675C21.806,431.496 21.615,431.412 21.491,431.489C21.367,431.565 21.003,430.991 20.681,430.214C20.36,429.436 20.003,428.8 19.888,428.801C19.714,428.801 19.647,430.958 19.795,431.76C19.82,431.892 20.353,432 20.979,432C21.669,432 22.039,431.872 21.917,431.675L21.917,431.675ZM114.773,431.467C114.656,431.349 114.56,431.445 114.56,431.68C114.56,431.915 114.656,432.011 114.773,431.893C114.891,431.776 114.891,431.584 114.773,431.467ZM114.88,429.92C114.88,429.832 114.808,429.76 114.72,429.76C114.632,429.76 114.56,429.832 114.56,429.92C114.56,430.008 114.632,430.08 114.72,430.08C114.808,430.08 114.88,430.008 114.88,429.92ZM114.781,427.6C114.7,427.292 114.634,427.544 114.634,428.16C114.634,428.776 114.7,429.028 114.781,428.72C114.861,428.412 114.861,427.908 114.781,427.6ZM20.373,422.187C20.256,422.069 20.064,422.069 19.947,422.187C19.829,422.304 19.925,422.4 20.16,422.4C20.395,422.4 20.491,422.304 20.373,422.187ZM114.88,422.24C114.88,422.152 114.808,422.08 114.72,422.08C114.632,422.08 114.56,422.152 114.56,422.24C114.56,422.328 114.632,422.4 114.72,422.4C114.808,422.4 114.88,422.328 114.88,422.24ZM114.913,416.32L120.32,416.32L120.32,411.52L117.622,411.52C115.319,411.52 114.902,411.602 114.781,412.08C114.703,412.388 114.651,414.224 114.665,416.16C114.679,418.096 114.741,418.924 114.802,418L114.913,416.32ZM130.076,414.431C130.376,411.852 129.961,411.095 128.376,411.325C127.729,411.419 125.868,411.501 124.24,411.508L121.28,411.52L121.28,413.707C121.28,414.909 121.376,415.989 121.493,416.107C121.611,416.224 123.541,416.32 125.782,416.32L129.857,416.32L130.076,414.431ZM120.32,410.56L120.32,408.295L117.52,408.388C114.779,408.478 114.719,408.497 114.696,409.28C114.682,409.72 114.727,410.188 114.795,410.32C114.862,410.452 116.133,410.56 117.619,410.56L120.32,410.56ZM129.989,409.598C130.066,409.069 130.059,408.565 129.972,408.478C129.885,408.391 127.893,408.32 125.547,408.32L121.28,408.32L121.28,410.56L129.847,410.56L129.989,409.598ZM22.013,394.16C21.929,391.764 21.861,391.52 21.28,391.52C20.711,391.52 20.629,391.765 20.544,393.728C20.431,396.348 20.563,396.8 21.443,396.8C22.067,396.8 22.101,396.647 22.013,394.16ZM32.961,393.68L32.961,390.56L30.365,390.665L27.768,390.771L27.998,393.546C28.124,395.071 28.292,396.428 28.372,396.56C28.452,396.692 29.517,396.8 30.739,396.8L32.96,396.8L32.961,393.68L32.961,393.68ZM54.24,396.606L54.24,390.56L49.12,390.56L49.237,393.44C49.301,395.024 49.4,396.4 49.457,396.498C49.514,396.595 50.613,396.659 51.9,396.64L54.24,396.606ZM65.28,396.43L65.28,390.4L60.16,390.4L60.16,393.387C60.16,395.029 60.219,396.433 60.292,396.507C60.364,396.58 61.516,396.593 62.852,396.535L65.28,396.43ZM39.04,393.6C39.04,392.016 38.907,390.72 38.744,390.72C38.457,390.72 38.104,396.082 38.373,396.348C38.867,396.836 39.04,396.122 39.04,393.6ZM75.2,393.44C75.2,391.627 75.071,390.4 74.88,390.4C74.704,390.4 74.559,391.012 74.557,391.76C74.556,392.508 74.464,393.876 74.353,394.8C74.181,396.225 74.23,396.48 74.675,396.48C75.125,396.48 75.2,396.044 75.2,393.44ZM96,375.52C96,363.992 95.896,354.56 95.768,354.56C95.64,354.56 94.56,355.528 93.368,356.711L91.2,358.863L91.2,373.76L93.28,373.76C95.285,373.76 95.36,373.789 95.36,374.56C95.36,375.236 95.211,375.36 94.4,375.36L93.44,375.36L93.44,380C93.44,382.552 93.404,384.748 93.36,384.88C93.316,385.012 93.748,385.165 94.32,385.22C94.94,385.28 95.36,385.498 95.36,385.76C95.36,386.022 94.94,386.24 94.32,386.3L93.28,386.4L93.104,396.48L96,396.48L96,375.52ZM119.04,394.88C119.04,393.479 119,393.44 117.6,393.444C116.353,393.448 116.317,393.479 116.221,394.644L116.121,395.84L117.581,395.84C118.989,395.84 119.04,395.806 119.04,394.88L119.04,394.88ZM127.68,394.764L127.68,393.687L124.324,393.463C122.478,393.339 120.822,393.328 120.644,393.438C120.466,393.548 120.32,394.133 120.32,394.739L120.32,395.84L127.68,395.84L127.68,394.763L127.68,394.764ZM78.208,392.086C78.333,391.961 78.569,392.07 78.732,392.329C78.947,392.669 79.032,392.465 79.035,391.6C79.04,390.532 78.952,390.4 78.24,390.4C77.462,390.4 77.441,390.459 77.477,392.56C77.508,394.409 77.547,394.547 77.747,393.516C77.875,392.855 78.083,392.211 78.208,392.086ZM130.498,391.625C130.444,390.891 130.255,390.242 130.078,390.184C129.882,390.12 129.8,390.647 129.87,391.519C129.933,392.312 130.122,392.96 130.291,392.96C130.459,392.96 130.553,392.359 130.498,391.625ZM46.243,392.315C46.354,392.136 46.589,392.079 46.767,392.189C46.962,392.31 47.048,392.029 46.985,391.474C46.884,390.598 46.73,390.519 45.44,390.68C44.917,390.745 45.053,392.64 45.581,392.64C45.835,392.64 46.133,392.494 46.243,392.315ZM57.323,392.24C58.399,391.671 58.324,390.588 57.2,390.459C56.386,390.365 56.32,390.442 56.32,391.499C56.32,392.793 56.302,392.78 57.323,392.24ZM114.108,391.442C113.764,391.097 113.581,391.579 113.823,392.194C114.05,392.771 114.067,392.772 114.179,392.215C114.244,391.893 114.212,391.545 114.108,391.442L114.108,391.442ZM119.2,391.04C119.2,389.931 119.185,389.919 117.68,389.822L116.16,389.725L116.16,390.809C116.16,392.21 116.352,392.37 117.908,392.255C119.153,392.163 119.2,392.119 119.2,391.04L119.2,391.04ZM127.68,392.32L127.68,389.76L120.32,389.76L120.32,390.827C120.32,391.413 120.416,391.989 120.533,392.107C120.651,392.224 122.307,392.32 124.213,392.32L127.68,392.32ZM130.24,388C130.24,387.208 130.096,386.56 129.92,386.56C129.567,386.56 129.474,388.887 129.813,389.227C130.191,389.605 130.24,389.465 130.24,388ZM14.72,387.84L14.72,386.56L13.12,386.56C12.24,386.56 11.521,386.668 11.521,386.8C11.522,386.932 11.808,387.508 12.156,388.08C12.646,388.883 13.01,389.12 13.755,389.12C14.667,389.12 14.72,389.05 14.72,387.84ZM119.3,387.44C119.204,386.443 119.137,386.396 117.68,386.302C116.195,386.207 116.16,386.226 116.16,387.129C116.16,388.351 116.335,388.48 117.994,388.48C119.388,388.48 119.4,388.471 119.3,387.44ZM127.68,387.36L127.68,386.24L120.713,386.24L120.571,387.202C120.494,387.731 120.501,388.235 120.588,388.322C120.675,388.409 122.307,388.48 124.213,388.48L127.68,388.48L127.68,387.36L127.68,387.36ZM22.779,382.073C22.834,380.309 22.832,378.725 22.773,378.553C22.715,378.381 22.34,378.24 21.94,378.24C21.243,378.24 21.206,378.376 21.033,381.513C20.934,383.313 20.921,384.897 21.005,385.033C21.089,385.169 21.5,385.28 21.918,385.28C22.66,385.28 22.68,385.207 22.779,382.073L22.779,382.073ZM33.114,383.6C33.206,382.114 33.188,382.08 32.279,382.08C31.203,382.08 27.84,384.185 27.84,384.858C27.84,385.213 28.38,385.286 30.429,385.213L33.019,385.12L33.114,383.6ZM46.661,383.6C46.768,382.105 46.754,382.08 45.825,382.08C45.023,382.08 44.85,382.231 44.68,383.08C44.282,385.069 44.384,385.33 45.516,385.22C46.507,385.124 46.557,385.053 46.661,383.6ZM65.217,383.647L65.12,382.013L60,382.04C57.184,382.055 53.26,382.07 51.28,382.074L47.68,382.08L47.68,385.28L65.313,385.28L65.217,383.647ZM79.754,383.76C79.83,382.924 79.836,382.132 79.767,382C79.559,381.6 75.363,381.726 74.944,382.144C74.538,382.55 74.412,384.705 74.773,385.067C74.891,385.184 76.028,385.28 77.301,385.28L79.616,385.28L79.754,383.76L79.754,383.76ZM119.36,383.84L119.36,382.72L117.76,382.72C116.216,382.72 116.16,382.752 116.16,383.627C116.16,384.828 116.34,384.96 117.973,384.96C119.345,384.96 119.36,384.948 119.36,383.84ZM127.68,384.96L127.68,382.72L120.64,382.72L120.64,384.96L127.68,384.96ZM70.939,383.94C70.836,383.685 70.761,383.761 70.745,384.133C70.731,384.471 70.807,384.66 70.913,384.553C71.02,384.447 71.031,384.171 70.939,383.94L70.939,383.94ZM38.933,380.907C38.816,380.789 38.72,380.885 38.72,381.12C38.72,381.355 38.816,381.451 38.933,381.333C39.051,381.216 39.051,381.024 38.933,380.907ZM119.486,380.934C120.075,379.399 119.314,378.81 117.153,379.127C116.321,379.249 116.16,379.414 116.16,380.143C116.16,381.302 116.35,381.44 117.939,381.44C118.877,381.44 119.351,381.285 119.486,380.934ZM127.68,381.44L127.68,379.2L120.64,379.2L120.64,380.107C120.64,380.605 120.736,381.109 120.853,381.227C120.971,381.344 122.555,381.44 124.373,381.44L127.68,381.44ZM39.04,380C39.04,379.736 38.983,379.52 38.914,379.52C38.845,379.52 38.706,379.736 38.604,380C38.503,380.264 38.56,380.48 38.73,380.48C38.901,380.48 39.04,380.264 39.04,380ZM14.72,376.8L14.72,375.36L13.28,375.36C11.642,375.36 11.522,375.635 12.476,377.2C12.921,377.93 13.351,378.24 13.915,378.24C14.656,378.24 14.72,378.125 14.72,376.8ZM22.029,376.632C21.546,375.247 21.12,375.154 21.12,376.434C21.12,377.046 21.3,377.611 21.52,377.69C22.216,377.94 22.372,377.615 22.029,376.632ZM119.52,376.632L119.52,375.519L117.92,375.519C116.331,375.519 116.321,375.525 116.432,376.479C116.585,377.788 116.57,377.777 118.134,377.76C119.5,377.746 119.52,377.729 119.52,376.632ZM127.68,377.843L127.68,375.679L124.64,375.679C122.968,375.679 121.492,375.672 121.36,375.663C121.059,375.644 120.659,377.512 120.91,377.763C121.012,377.865 122.577,377.924 124.388,377.895L127.68,377.843ZM33.218,376.425L33.317,375.411L30.898,375.305C29.567,375.247 28.479,375.29 28.479,375.402C28.48,375.513 29.164,376.055 30,376.606C31.971,377.905 33.081,377.842 33.218,376.425L33.218,376.425ZM46.72,376.48C46.72,375.449 46.644,375.36 45.76,375.36C44.911,375.36 44.8,375.469 44.8,376.299C44.8,377.077 44.95,377.26 45.68,377.371C46.164,377.444 46.596,377.526 46.64,377.552C46.684,377.578 46.72,377.096 46.72,376.48ZM38.933,376.747C38.816,376.629 38.72,376.725 38.72,376.96C38.72,377.195 38.816,377.291 38.933,377.173C39.051,377.056 39.051,376.864 38.933,376.747ZM65.28,377.28L65.28,375.36L47.68,375.36L47.68,377.28L65.28,377.28ZM80,377.28L80,375.36L74.88,375.36L74.88,377.28L80,377.28ZM33.207,368.036L33.294,362.24L28.16,362.24L28.16,374.079L30.64,373.955L33.12,373.832L33.207,368.036ZM65.28,368.181L65.28,362.24L44.8,362.24L44.789,366C44.783,368.068 44.721,370.622 44.651,371.674C44.581,372.727 44.646,373.663 44.796,373.754C44.946,373.846 49.617,373.966 55.175,374.021L65.28,374.122L65.28,368.181L65.28,368.181ZM79.92,373.787L83.2,373.76L83.194,364.64L81.207,363.36C79.396,362.193 79.029,362.079 77.05,362.069L74.88,362.058L74.88,367.856C74.88,371.044 74.952,373.725 75.04,373.813C75.128,373.901 75.524,373.937 75.92,373.893C76.316,373.849 78.116,373.801 79.92,373.787L79.92,373.787ZM127.68,373.731L127.68,372.189L116.479,372L116.48,372.827C116.48,373.281 116.54,373.713 116.612,373.787C116.685,373.86 119.205,373.877 122.212,373.825L127.68,373.731ZM114.133,372.587C114.016,372.469 113.92,372.565 113.92,372.8C113.92,373.035 114.016,373.131 114.133,373.013C114.251,372.896 114.251,372.704 114.133,372.587ZM127.68,369.711L127.68,368.64L116.48,368.64L116.48,369.547C116.48,370.045 116.546,370.52 116.628,370.601C116.709,370.682 119.229,370.756 122.228,370.765L127.68,370.782L127.68,369.711L127.68,369.711ZM114.56,370.4C114.56,370.312 114.488,370.24 114.4,370.24C114.312,370.24 114.24,370.312 114.24,370.4C114.24,370.488 114.312,370.56 114.4,370.56C114.488,370.56 114.56,370.488 114.56,370.4ZM114.462,368.726C114.381,368.415 114.309,368.592 114.302,369.12C114.295,369.648 114.362,369.903 114.45,369.686C114.538,369.469 114.543,369.037 114.462,368.726L114.462,368.726ZM127.68,367.334L127.68,365.12L116.48,365.12L116.48,367.268L127.68,367.334ZM22.982,364.653C22.913,364.117 22.752,363.937 22.488,364.103C22.182,364.294 22.178,364.627 22.471,365.614C22.772,366.628 22.87,366.738 22.965,366.164C23.03,365.771 23.038,365.091 22.982,364.653ZM114.462,365.206C114.381,364.895 114.309,365.072 114.302,365.6C114.295,366.128 114.362,366.383 114.45,366.166C114.538,365.949 114.543,365.517 114.462,365.206L114.462,365.206ZM114.56,364.32C114.56,364.232 114.488,364.16 114.4,364.16C114.312,364.16 114.24,364.232 114.24,364.32C114.24,364.408 114.312,364.48 114.4,364.48C114.488,364.48 114.56,364.408 114.56,364.32ZM127.721,363.84L127.52,361.76L116.48,361.585L116.48,363.84L127.721,363.84ZM114.461,361.36C114.38,361.052 114.314,361.304 114.314,361.92C114.314,362.536 114.38,362.788 114.461,362.48C114.541,362.172 114.541,361.668 114.461,361.36ZM114.467,358.644C114.39,358.246 114.324,358.496 114.321,359.2C114.317,359.904 114.38,360.23 114.46,359.924C114.54,359.618 114.543,359.042 114.466,358.644L114.467,358.644ZM127.68,360.32L127.68,358.4L116.48,358.4L116.48,360.32L127.68,360.32ZM114.473,354.32C114.404,353.66 114.348,354.2 114.348,355.52C114.348,356.84 114.404,357.38 114.473,356.72C114.542,356.06 114.542,354.98 114.473,354.32ZM33.39,350.924C33.505,347.38 33.599,343.148 33.599,341.52L33.6,338.56L29.12,338.56L29.113,343.44C29.11,346.124 29.02,350.15 28.914,352.386C28.808,354.622 28.802,356.663 28.901,356.922C29.035,357.27 29.616,357.389 31.131,357.381L33.181,357.369L33.39,350.924L33.39,350.924ZM81.528,356.035L83.52,354.789L83.52,338.226L79.56,338.272L75.6,338.319L75.403,339.959C75.295,340.862 75.205,345.085 75.203,349.345L75.2,357.089L77.2,357.2C78.3,357.261 79.276,357.303 79.368,357.295C79.461,357.287 80.433,356.72 81.528,356.035L81.528,356.035ZM65.331,353.2C65.359,351.044 65.395,346.832 65.411,343.84L65.44,338.4L55.68,338.514C50.312,338.577 45.853,338.693 45.77,338.771C45.687,338.849 45.577,340.742 45.525,342.977C45.473,345.212 45.31,349.2 45.163,351.84C45.016,354.48 44.955,356.748 45.027,356.88C45.099,357.012 49.686,357.12 55.219,357.12L65.28,357.12L65.331,353.2L65.331,353.2ZM127.621,356.08L127.52,355.04L122.085,355.04C117.095,355.04 116.64,355.087 116.538,355.619C116.259,357.063 116.478,357.12 122.25,357.12L127.721,357.12L127.621,356.08ZM23.234,355.974C23.127,355.695 23.026,353.643 23.008,351.414C22.988,348.887 22.88,347.661 22.72,348.16C22.407,349.139 22.317,355.97 22.613,356.267C23.018,356.672 23.428,356.478 23.234,355.974ZM71.68,354.4C71.68,354.312 71.608,354.24 71.52,354.24C71.432,354.24 71.36,354.312 71.36,354.4C71.36,354.488 71.432,354.56 71.52,354.56C71.608,354.56 71.68,354.488 71.68,354.4ZM71.68,353.44C71.68,353.176 71.541,352.96 71.37,352.96C71.2,352.96 71.143,353.176 71.244,353.44C71.346,353.704 71.485,353.92 71.554,353.92C71.623,353.92 71.68,353.704 71.68,353.44ZM127.68,352.8L127.68,352L122.274,352C117.628,352 116.841,352.071 116.673,352.509C116.566,352.789 116.559,353.149 116.658,353.309C116.757,353.469 119.277,353.6 122.259,353.6L127.68,353.6L127.68,352.8L127.68,352.8ZM71.68,352.48C71.68,352.392 71.608,352.32 71.52,352.32C71.432,352.32 71.36,352.392 71.36,352.48C71.36,352.568 71.432,352.64 71.52,352.64C71.608,352.64 71.68,352.568 71.68,352.48ZM119.932,340.56L119.84,337.44L114.652,337.256L114.463,338.85C114.359,339.727 114.41,340.917 114.576,341.495C114.741,342.073 114.796,342.801 114.697,343.113C114.534,343.626 114.78,343.68 117.27,343.68L120.023,343.68L119.932,340.56ZM129.398,342.96C129.504,342.564 129.593,341.218 129.596,339.969L129.6,337.699L125.561,337.494C123.34,337.382 121.396,337.368 121.241,337.464C121.086,337.56 120.96,338.997 120.96,340.659L120.96,343.68L125.082,343.68C129.087,343.68 129.211,343.66 129.398,342.96L129.398,342.96ZM22.709,342.421C22.891,342.081 23.04,341.073 23.04,340.181C23.04,338.798 22.95,338.56 22.428,338.56C21.905,338.56 21.799,338.848 21.692,340.56C21.623,341.66 21.619,342.668 21.683,342.8C21.889,343.231 22.371,343.053 22.709,342.421L22.709,342.421ZM113.193,338.32C113.124,337.66 113.068,338.2 113.068,339.52C113.068,340.84 113.124,341.38 113.193,340.72C113.262,340.06 113.262,338.98 113.193,338.32ZM32,337.76C32,337.672 31.928,337.6 31.84,337.6C31.752,337.6 31.68,337.672 31.68,337.76C31.68,337.848 31.752,337.92 31.84,337.92C31.928,337.92 32,337.848 32,337.76ZM119.936,334.64L120.032,332.8L114.24,332.8L114.24,334.214C114.24,336.63 114.299,336.677 117.239,336.572L119.84,336.48L119.936,334.64ZM129.556,334.917C129.604,332.81 129.604,332.81 124.56,332.804L120.96,332.8L120.96,334.507C120.96,335.446 121.056,336.31 121.173,336.427C121.291,336.544 123.216,336.64 125.451,336.64L129.516,336.64L129.556,334.917ZM113.189,333.84C113.116,333.356 113.056,333.752 113.056,334.72C113.056,335.688 113.116,336.084 113.189,335.6C113.262,335.116 113.262,334.324 113.189,333.84ZM95.252,322.08C95.36,320.096 95.716,318.256 96.028,318.063C96.211,317.949 96.31,316.904 96.256,315.651L96.16,313.44L94.8,313.342C93.727,313.264 93.44,313.351 93.44,313.754C93.44,314.467 94.05,320.258 94.258,321.52C94.414,322.471 94.358,322.56 93.596,322.56C93.092,322.56 92.845,322.694 92.971,322.898C93.086,323.084 93.635,323.192 94.19,323.138C95.063,323.053 95.207,322.91 95.252,322.08ZM119.3,321.52C119.204,320.523 119.137,320.476 117.68,320.382L116.16,320.285L116.16,322.56L119.401,322.56L119.3,321.52ZM127.68,322.56L127.68,320.64L120.32,320.64L120.32,322.56L127.68,322.56ZM27.52,319.68C27.52,319.504 27.368,319.36 27.181,319.36C26.995,319.36 26.931,319.504 27.04,319.68C27.149,319.856 27.301,320 27.379,320C27.456,320 27.52,319.856 27.52,319.68ZM119.36,318.4C119.36,317.461 119.324,317.44 117.76,317.44C116.297,317.44 116.16,317.504 116.16,318.187C116.16,319.217 116.381,319.36 117.973,319.36C119.301,319.36 119.36,319.319 119.36,318.4ZM127.621,318.48L127.52,317.6L123.92,317.509C120.322,317.419 120.32,317.419 120.32,318.176C120.32,318.593 120.416,319.029 120.533,319.147C120.651,319.264 122.316,319.36 124.235,319.36L127.723,319.36L127.621,318.48ZM129.813,318.507C129.696,318.389 129.6,318.485 129.6,318.72C129.6,318.955 129.696,319.051 129.813,318.933C129.931,318.816 129.931,318.624 129.813,318.507L129.813,318.507ZM80.64,318.419C80.64,318.041 80.016,317.637 79.787,317.867C79.557,318.096 79.961,318.72 80.339,318.72C80.504,318.72 80.64,318.584 80.64,318.419ZM119.36,315.2C119.36,314.276 119.307,314.24 117.92,314.24C116.533,314.24 116.48,314.276 116.48,315.2C116.48,316.124 116.533,316.16 117.92,316.16C119.307,316.16 119.36,316.124 119.36,315.2ZM127.68,315.2L127.68,314.24L124.213,314.24C122.307,314.24 120.671,314.315 120.579,314.408C120.487,314.5 120.48,314.932 120.563,315.368C120.713,316.153 120.745,316.16 124.197,316.16L127.68,316.16L127.68,315.2ZM112.853,313.707C112.736,313.589 112.64,313.685 112.64,313.92C112.64,314.155 112.736,314.251 112.853,314.133C112.971,314.016 112.971,313.824 112.853,313.707ZM89.729,311.95C89.572,311.696 89.717,311.636 90.19,311.76C90.966,311.963 91.143,311.529 90.4,311.244C90.047,311.109 89.92,310.55 89.92,309.13C89.92,308.069 89.8,307.2 89.653,307.2C89.506,307.2 89.414,308.316 89.447,309.68C89.513,312.342 89.51,312.32 89.779,312.32C89.877,312.32 89.855,312.153 89.729,311.95L89.729,311.95ZM96.32,308C96.32,303.799 96.301,303.68 95.635,303.68C95.259,303.68 94.776,303.441 94.562,303.148C94.345,302.852 93.953,302.7 93.679,302.805C93.271,302.962 93.177,303.749 93.139,307.346C93.113,309.738 93.179,311.837 93.285,312.008C93.391,312.18 94.117,312.32 94.899,312.32L96.32,312.32L96.32,308ZM119.36,311.68C119.36,311.135 119.147,311.04 117.92,311.04C116.933,311.04 116.48,311.174 116.48,311.467C116.48,312.144 116.821,312.32 118.133,312.32C119.147,312.32 119.36,312.209 119.36,311.68ZM127.68,311.887C127.68,311.576 126.943,311.398 125.04,311.249C120.887,310.926 120.64,310.95 120.64,311.68C120.64,312.281 120.853,312.32 124.16,312.32C126.904,312.32 127.68,312.225 127.68,311.887ZM113.262,308.099C113.272,307.273 113.136,306.509 112.96,306.4C112.754,306.273 112.653,307.268 112.677,309.181C112.707,311.632 112.76,311.933 112.978,310.88C113.124,310.176 113.251,308.924 113.262,308.099ZM90.653,310.4C90.561,310.048 90.43,309.76 90.363,309.76C90.295,309.76 90.24,310.048 90.24,310.4C90.24,310.752 90.371,311.04 90.53,311.04C90.69,311.04 90.745,310.752 90.653,310.4ZM119.36,309.12C119.36,308.196 119.307,308.16 117.92,308.16C116.533,308.16 116.48,308.196 116.48,309.12C116.48,310.044 116.533,310.08 117.92,310.08C119.307,310.08 119.36,310.044 119.36,309.12ZM127.621,309.2L127.52,308.32L120.64,308.138L120.64,310.08L127.723,310.08L127.621,309.2ZM119.36,306.075L119.36,304.923L118.003,305.022C116.995,305.095 116.617,305.269 116.536,305.699C116.341,306.723 116.702,307.069 118.045,307.148C119.356,307.226 119.36,307.222 119.36,306.075ZM127.62,306.164L127.52,305.128L120.64,304.899L120.64,305.836C120.64,306.351 120.736,306.869 120.853,306.987C120.971,307.104 122.564,307.2 124.394,307.2L127.721,307.2L127.62,306.164ZM90.24,306.72C90.24,306.632 90.168,306.56 90.08,306.56C89.992,306.56 89.92,306.632 89.92,306.72C89.92,306.808 89.992,306.88 90.08,306.88C90.168,306.88 90.24,306.808 90.24,306.72ZM89.92,305.581C89.92,305.415 89.776,305.28 89.6,305.28C89.424,305.28 89.28,305.504 89.28,305.779C89.28,306.053 89.424,306.189 89.6,306.08C89.776,305.971 89.92,305.747 89.92,305.581ZM114.459,305.54C114.356,305.285 114.281,305.361 114.265,305.733C114.251,306.071 114.327,306.26 114.433,306.153C114.54,306.047 114.551,305.771 114.459,305.54L114.459,305.54ZM113.28,304.48C113.28,303.982 113.099,303.68 112.8,303.68C112.284,303.68 112.207,303.973 112.514,304.774C112.813,305.553 113.28,305.374 113.28,304.48ZM119.36,303.36C119.36,302.815 119.147,302.72 117.92,302.72C116.933,302.72 116.48,302.854 116.48,303.147C116.48,303.824 116.821,304 118.133,304C119.147,304 119.36,303.889 119.36,303.36ZM127.68,303.566C127.68,303.107 125.169,302.72 122.193,302.72C120.853,302.72 120.64,302.808 120.64,303.36C120.64,303.961 120.853,304 124.16,304C126.911,304 127.68,303.905 127.68,303.566ZM89.499,301.7C89.396,301.445 89.321,301.521 89.305,301.893C89.291,302.231 89.367,302.42 89.473,302.313C89.58,302.207 89.591,301.931 89.499,301.7L89.499,301.7ZM96.32,289.032L96.32,275.984L93.945,273.625L91.57,271.266L91.204,272.626C90.813,274.077 90.815,289.445 91.206,293.6C91.322,294.832 91.289,296.007 91.133,296.211C90.95,296.451 91.075,296.741 91.487,297.029C91.978,297.373 92.147,297.912 92.222,299.378L92.32,301.28L94,301.377C94.924,301.43 95.68,301.61 95.68,301.777C95.68,301.943 95.824,302.08 96,302.08C96.208,302.08 96.32,297.517 96.32,289.032L96.32,289.032ZM112.786,301.418C112.685,301.254 112.755,301.12 112.941,301.12C113.13,301.12 113.28,300.472 113.28,299.653C113.28,297.434 112.504,297.988 112.383,300.295C112.318,301.543 112.397,302.07 112.628,301.927C112.817,301.811 112.888,301.582 112.786,301.418ZM89.6,300.96C89.6,300.872 89.528,300.8 89.44,300.8C89.352,300.8 89.28,300.872 89.28,300.96C89.28,301.048 89.352,301.12 89.44,301.12C89.528,301.12 89.6,301.048 89.6,300.96ZM127.68,300.96L127.68,299.2L116.8,299.2L116.8,299.988C116.8,300.757 116.864,300.777 119.6,300.868C121.14,300.918 123.588,300.96 125.04,300.96L127.68,300.96ZM114.773,300.267C114.656,300.149 114.56,300.245 114.56,300.48C114.56,300.715 114.656,300.811 114.773,300.693C114.891,300.576 114.891,300.384 114.773,300.267ZM80.96,297.92C80.96,297.744 80.816,297.6 80.64,297.6C80.464,297.6 80.32,297.744 80.32,297.92C80.32,298.096 80.464,298.24 80.64,298.24C80.816,298.24 80.96,298.096 80.96,297.92ZM127.68,297.154C127.68,296.733 127.452,296.301 127.174,296.194C126.895,296.087 124.447,296 121.734,296L116.8,296L116.8,297.92L127.68,297.92L127.68,297.154ZM113.373,296.64C113.142,295.759 112.96,295.838 112.96,296.819C112.96,297.269 113.09,297.557 113.25,297.459C113.409,297.36 113.465,296.991 113.373,296.64ZM114.88,297.44C114.88,297.352 114.808,297.28 114.72,297.28C114.632,297.28 114.56,297.352 114.56,297.44C114.56,297.528 114.632,297.6 114.72,297.6C114.808,297.6 114.88,297.528 114.88,297.44ZM81.709,297.069C83.862,296.865 84.792,296.269 83.857,295.691C83.545,295.498 83.552,295.299 83.891,294.753C84.25,294.174 84.25,294.017 83.891,293.793C83.531,293.569 83.531,293.413 83.891,292.833C84.254,292.247 84.249,292.096 83.861,291.855C83.48,291.618 83.473,291.482 83.82,291.064C84.165,290.649 84.165,290.471 83.82,290.056C83.473,289.638 83.48,289.502 83.861,289.265C84.219,289.043 84.24,288.85 83.957,288.394C83.679,287.945 83.698,287.667 84.037,287.203C84.372,286.746 84.48,285.31 84.48,281.329L84.48,276.06L56.293,276.244C40.79,276.345 28.062,276.475 28.008,276.534C27.954,276.592 27.853,279.492 27.784,282.979C27.701,287.135 27.535,289.394 27.303,289.539C26.867,289.811 26.945,294.284 27.401,295.2C27.577,295.552 27.695,296.164 27.664,296.56L27.607,297.28L53.564,297.278C67.84,297.277 80.505,297.183 81.709,297.069L81.709,297.069ZM27.84,294.56C27.84,294.472 27.912,294.4 28,294.4C28.088,294.4 28.16,294.472 28.16,294.56C28.16,294.648 28.088,294.72 28,294.72C27.912,294.72 27.84,294.648 27.84,294.56ZM27.84,292.8C27.84,292.565 27.936,292.469 28.053,292.587C28.171,292.704 28.171,292.896 28.053,293.013C27.936,293.131 27.84,293.035 27.84,292.8ZM27.2,296.8C27.2,296.712 27.128,296.64 27.04,296.64C26.952,296.64 26.88,296.712 26.88,296.8C26.88,296.888 26.952,296.96 27.04,296.96C27.128,296.96 27.2,296.888 27.2,296.8ZM113.6,292.8C113.6,291.093 113.47,289.92 113.28,289.92C113.09,289.92 112.96,291.093 112.96,292.8C112.96,294.507 113.09,295.68 113.28,295.68C113.47,295.68 113.6,294.507 113.6,292.8ZM127.68,294L127.68,293.12L116.8,293.12L116.8,295.074L127.679,294.88L127.679,294L127.68,294ZM112,290.976C112,289.858 111.886,289.27 111.705,289.456C111.439,289.731 111.601,292.8 111.882,292.8C111.947,292.8 112,291.979 112,290.976ZM127.678,291.12L127.68,290.24L116.8,290.24L116.8,291.022C116.8,291.966 117.435,292.06 123.598,292.024L127.676,292L127.678,291.12L127.678,291.12ZM27.2,288.8C27.2,288.712 27.128,288.64 27.04,288.64C26.952,288.64 26.88,288.712 26.88,288.8C26.88,288.888 26.952,288.96 27.04,288.96C27.128,288.96 27.2,288.888 27.2,288.8ZM111.962,280.48C112.015,274.157 111.938,272 111.658,272C111.395,272 111.414,271.837 111.721,271.459C111.987,271.13 112.009,271.008 111.775,271.148C111.494,271.317 111.357,270.792 111.269,269.21C111.203,268.016 111.186,270.28 111.233,274.24C111.279,278.2 111.327,283.132 111.339,285.2C111.35,287.268 111.479,288.96 111.625,288.96C111.771,288.96 111.922,285.144 111.962,280.48L111.962,280.48ZM26.88,287.84C26.88,287.752 26.808,287.68 26.72,287.68C26.632,287.68 26.56,287.752 26.56,287.84C26.56,287.928 26.632,288 26.72,288C26.808,288 26.88,287.928 26.88,287.84ZM25.769,285.075C25.696,283.642 25.502,282.334 25.337,282.169C25.001,281.833 25.093,286.799 25.433,287.349C25.842,288.01 25.898,287.633 25.769,285.075L25.769,285.075ZM26.88,286.88C26.88,286.792 26.808,286.72 26.72,286.72C26.632,286.72 26.56,286.792 26.56,286.88C26.56,286.968 26.632,287.04 26.72,287.04C26.808,287.04 26.88,286.968 26.88,286.88ZM27.2,285.6C27.2,285.512 27.128,285.44 27.04,285.44C26.952,285.44 26.88,285.512 26.88,285.6C26.88,285.688 26.952,285.76 27.04,285.76C27.128,285.76 27.2,285.688 27.2,285.6ZM27.2,284.32C27.2,284.232 27.128,284.16 27.04,284.16C26.952,284.16 26.88,284.232 26.88,284.32C26.88,284.408 26.952,284.48 27.04,284.48C27.128,284.48 27.2,284.408 27.2,284.32ZM129.572,282.999C129.814,282.786 129.764,275.849 129.52,275.845C129.388,275.842 126.4,275.84 122.88,275.84L116.48,275.84L116.48,283.459L122.96,283.287C126.524,283.192 129.499,283.062 129.572,282.999L129.572,282.999ZM115.52,282.899C115.52,282.733 115.376,282.509 115.2,282.4C115.024,282.291 114.88,282.427 114.88,282.701C114.88,282.975 115.024,283.2 115.2,283.2C115.376,283.2 115.52,283.064 115.52,282.899ZM115.52,279.821C115.52,278.863 115.376,278.08 115.2,278.08C115.022,278.08 114.88,278.94 114.88,280.019C114.88,281.23 115,281.884 115.2,281.76C115.376,281.651 115.52,280.779 115.52,279.821ZM27.2,281.12C27.2,281.032 27.128,280.96 27.04,280.96C26.952,280.96 26.88,281.032 26.88,281.12C26.88,281.208 26.952,281.28 27.04,281.28C27.128,281.28 27.2,281.208 27.2,281.12ZM113.727,278.66C113.908,276.478 113.863,275.993 113.453,275.764C112.823,275.412 112.815,274.88 113.44,274.88C113.787,274.88 113.92,274.524 113.92,273.6C113.92,272.533 113.813,272.32 113.28,272.32C112.674,272.32 112.64,272.533 112.64,276.294C112.64,278.479 112.727,280.495 112.834,280.774C113.242,281.837 113.516,281.188 113.727,278.66L113.727,278.66ZM115.36,277.44C115.469,277.264 115.405,277.12 115.219,277.12C115.033,277.12 114.88,277.264 114.88,277.44C114.88,277.616 114.944,277.76 115.021,277.76C115.099,277.76 115.251,277.616 115.36,277.44ZM129.731,273.52C129.958,272.001 129.918,265.524 129.685,266.175C129.566,266.507 128.224,266.546 123.008,266.37L116.48,266.15L116.48,274.88L129.527,274.88L129.731,273.52ZM57.2,274.244C78.756,274.24 81.6,274.184 81.6,273.756C81.6,273.329 78.687,273.274 56.494,273.284C40.518,273.291 31.318,273.409 31.195,273.608C30.864,274.144 31.401,274.624 32.116,274.432C32.492,274.331 43.78,274.247 57.2,274.244ZM113.92,268.64C113.92,266.72 113.824,266.24 113.44,266.24C113.176,266.24 112.96,266.024 112.96,265.76C112.96,265.496 113.176,265.28 113.44,265.28C113.787,265.28 113.92,264.924 113.92,264C113.92,262.933 113.813,262.72 113.28,262.72C112.673,262.72 112.64,262.933 112.64,266.88C112.64,270.827 112.673,271.04 113.28,271.04C113.863,271.04 113.92,270.827 113.92,268.64ZM115.52,269.28C115.52,268.312 115.376,267.52 115.2,267.52C115.024,267.52 114.88,268.312 114.88,269.28C114.88,270.248 115.024,271.04 115.2,271.04C115.376,271.04 115.52,270.248 115.52,269.28ZM111.906,268.4C111.83,268.004 111.767,268.328 111.767,269.12C111.767,269.912 111.83,270.236 111.906,269.84C111.982,269.444 111.982,268.796 111.906,268.4ZM96.64,264.384C96.64,261.048 96.421,260.48 95.136,260.48C94.428,260.48 94.4,260.579 94.4,263.102C94.4,265.512 94.47,265.798 95.26,266.622C95.733,267.116 96.237,267.52 96.38,267.52C96.523,267.52 96.64,266.109 96.64,264.384ZM111.266,263.284C111.19,262.886 111.124,263.136 111.121,263.84C111.117,264.544 111.18,264.87 111.26,264.564C111.34,264.258 111.343,263.682 111.266,263.284L111.266,263.284ZM93.057,262.32C92.967,260.76 92.898,260.633 92.094,260.54C91.279,260.446 91.233,260.508 91.33,261.587C91.429,262.687 92.265,264 92.866,264C93.024,264 93.11,263.244 93.057,262.32ZM90.56,263.2C90.56,263.112 90.488,263.04 90.4,263.04C90.312,263.04 90.24,263.112 90.24,263.2C90.24,263.288 90.312,263.36 90.4,263.36C90.488,263.36 90.56,263.288 90.56,263.2ZM90.453,262.187C90.336,262.069 90.24,262.165 90.24,262.4C90.24,262.635 90.336,262.731 90.453,262.613C90.571,262.496 90.571,262.304 90.453,262.187ZM111.266,260.084C111.19,259.686 111.124,259.936 111.121,260.64C111.117,261.344 111.18,261.67 111.26,261.364C111.34,261.058 111.343,260.482 111.266,260.084L111.266,260.084ZM95.04,259.52C95.04,259.344 94.896,259.2 94.72,259.2C94.544,259.2 94.4,259.344 94.4,259.52C94.4,259.696 94.544,259.84 94.72,259.84C94.896,259.84 95.04,259.696 95.04,259.52ZM95.805,257.243C95.318,256.736 94.803,256.32 94.66,256.32C94.021,256.32 94.494,257.827 95.44,258.807L96.48,259.884L96.585,259.025C96.658,258.429 96.42,257.885 95.805,257.243ZM117.28,258.376C118.864,258.103 120.622,257.799 121.186,257.7C122.617,257.45 123.367,256.579 122.857,255.762C122.531,255.241 121.827,255.08 118.435,254.755C116.216,254.543 113.964,254.292 113.432,254.199L112.464,254.029L112.519,256.534C112.55,257.912 112.589,259.072 112.607,259.112C112.625,259.152 113.036,259.114 113.52,259.028C114.004,258.942 115.696,258.649 117.28,258.376L117.28,258.376ZM111.266,256.56C111.19,256.164 111.127,256.488 111.127,257.28C111.127,258.072 111.19,258.396 111.266,258C111.342,257.604 111.342,256.956 111.266,256.56ZM96.64,253.378C96.64,250.62 96.586,250.379 95.78,249.538C95.307,249.044 94.803,248.64 94.66,248.64C94.517,248.64 94.4,249.964 94.4,251.582C94.4,254.34 94.454,254.581 95.26,255.422C95.733,255.916 96.237,256.32 96.38,256.32C96.523,256.32 96.64,254.996 96.64,253.377ZM93.12,255.343C93.12,255.157 92.689,254.545 92.161,253.983L91.203,252.96L91.201,253.822C91.2,254.351 91.475,254.876 91.911,255.182C92.742,255.764 93.12,255.814 93.12,255.343L93.12,255.343ZM67.2,253.12L67.2,247.197L55.12,235.135L43.04,223.074L36.173,222.271C32.396,221.829 29.262,221.512 29.209,221.565C29.155,221.618 29.019,225.494 28.905,230.178C28.791,234.862 28.605,238.637 28.491,238.567C28.311,238.456 28.305,239.352 28.453,244.259C28.468,244.77 28.618,245.073 28.799,244.961C29.011,244.83 29.011,245.045 28.799,245.603C28.624,246.064 28.48,247.944 28.48,249.781L28.48,253.12L67.2,253.12ZM28.8,243.36C28.8,243.272 28.872,243.2 28.96,243.2C29.048,243.2 29.12,243.272 29.12,243.36C29.12,243.448 29.048,243.52 28.96,243.52C28.872,243.52 28.8,243.448 28.8,243.36ZM28.8,241.76C28.8,241.672 28.872,241.6 28.96,241.6C29.048,241.6 29.12,241.672 29.12,241.76C29.12,241.848 29.048,241.92 28.96,241.92C28.872,241.92 28.8,241.848 28.8,241.76ZM26.639,249.2C26.723,247.308 26.668,245.76 26.516,245.76C26.364,245.76 26.24,247.368 26.24,249.333C26.24,251.299 26.295,252.847 26.363,252.773C26.43,252.7 26.555,251.092 26.639,249.2ZM68.393,249.36C68.324,248.7 68.268,249.24 68.268,250.56C68.268,251.88 68.324,252.42 68.393,251.76C68.462,251.1 68.462,250.02 68.393,249.36ZM72.64,252.548C72.64,252.409 71.938,251.605 71.081,250.76L69.521,249.224L69.301,250.691C69.18,251.498 69.17,252.303 69.279,252.479C69.512,252.855 72.64,252.919 72.64,252.548L72.64,252.548ZM84.722,251.326C84.688,250.553 84.529,249.92 84.368,249.92C84.207,249.92 83.591,250.434 82.998,251.063C82.405,251.691 81.92,252.063 81.92,251.888C81.92,251.713 82.517,251.059 83.247,250.434C84.367,249.475 84.51,249.222 84.168,248.809C83.944,248.54 83.563,248.32 83.321,248.32C83.078,248.32 82.88,248.132 82.88,247.903C82.88,247.474 80.721,245.213 80.457,245.365C80.375,245.412 79.843,244.917 79.274,244.265C78.193,243.027 76.818,241.6 76.705,241.6C76.669,241.6 76.64,243.108 76.64,244.951L76.64,248.302L78.863,250.543L81.086,252.783L84.783,252.731L84.722,251.326L84.722,251.326ZM83.52,251.68C83.52,251.592 83.592,251.52 83.68,251.52C83.768,251.52 83.84,251.592 83.84,251.68C83.84,251.768 83.768,251.84 83.68,251.84C83.592,251.84 83.52,251.768 83.52,251.68ZM81.256,246.8L80.48,245.92L81.36,246.696C82.182,247.421 82.387,247.68 82.136,247.68C82.078,247.68 81.682,247.284 81.256,246.8ZM93.115,249.465C93.119,247.55 92.99,246.787 92.59,246.345C91.553,245.199 91.2,245.607 91.2,247.95C91.2,249.734 91.319,250.248 91.84,250.72C92.192,251.039 92.48,251.448 92.48,251.631C92.48,251.813 92.276,251.683 92.026,251.342C91.777,251 91.464,250.829 91.332,250.962C91.199,251.094 91.43,251.563 91.844,252.005C92.867,253.093 93.109,252.609 93.115,249.465ZM27.741,249.36C27.66,249.052 27.594,249.304 27.594,249.92C27.594,250.536 27.66,250.788 27.741,250.48C27.821,250.172 27.821,249.668 27.741,249.36ZM96.64,248.48C96.64,248.392 96.568,248.32 96.48,248.32C96.392,248.32 96.32,248.392 96.32,248.48C96.32,248.568 96.392,248.64 96.48,248.64C96.568,248.64 96.64,248.568 96.64,248.48ZM84.672,247.23C84.649,246.682 83.472,245.344 80.591,242.59C78.364,240.462 76.438,238.72 76.311,238.72C76.185,238.72 76.242,238.913 76.438,239.149C76.634,239.386 76.701,239.673 76.586,239.787C76.305,240.068 77.428,241.28 77.97,241.28C78.206,241.28 78.4,241.445 78.4,241.648C78.4,241.999 84.114,247.911 84.512,247.971C84.618,247.987 84.69,247.654 84.672,247.23ZM77.76,240.8C77.76,240.712 77.832,240.64 77.92,240.64C78.008,240.64 78.08,240.712 78.08,240.8C78.08,240.888 78.008,240.96 77.92,240.96C77.832,240.96 77.76,240.888 77.76,240.8ZM74.88,244.8L74.88,243.52L71.87,243.52L73.12,244.8C73.807,245.504 74.485,246.08 74.625,246.08C74.765,246.08 74.88,245.504 74.88,244.8ZM26.88,245.28C26.88,245.192 26.808,245.12 26.72,245.12C26.632,245.12 26.56,245.192 26.56,245.28C26.56,245.368 26.632,245.44 26.72,245.44C26.808,245.44 26.88,245.368 26.88,245.28ZM84.683,242.48L84.591,240.16L81.795,237.28C80.257,235.696 78.231,233.319 77.292,231.997C75.395,229.328 72.31,226.24 71.539,226.24C71.125,226.24 71.04,226.717 71.04,229.04L71.04,231.84L72.587,233.172C74.254,234.608 75.017,234.608 74.757,233.172C74.649,232.578 74.74,232.32 75.055,232.32C75.531,232.32 75.7,232.854 75.957,235.172C76.102,236.482 76.408,236.88 80.212,240.692C82.466,242.951 84.415,244.8 84.543,244.8C84.671,244.8 84.734,243.756 84.683,242.48L84.683,242.48ZM27.739,243.78C27.636,243.525 27.561,243.601 27.545,243.973C27.531,244.311 27.607,244.5 27.713,244.393C27.82,244.287 27.831,244.011 27.739,243.78L27.739,243.78ZM74.817,241.2L74.72,239.52L70.72,239.329L70.72,240.891C70.72,241.75 70.816,242.549 70.933,242.667C71.051,242.784 71.994,242.88 73.03,242.88L74.913,242.88L74.817,241.2ZM26.88,240.96C26.88,240.432 26.761,240 26.615,240C26.47,240 26.414,240.432 26.492,240.96C26.569,241.488 26.688,241.92 26.756,241.92C26.824,241.92 26.88,241.488 26.88,240.96ZM67.52,235.595L67.52,232.47L63.76,228.737L60,225.004L56.24,224.567C54.172,224.326 52.478,224.208 52.474,224.305C52.466,224.558 66.994,238.688 67.28,238.705C67.412,238.713 67.52,237.314 67.52,235.595ZM72.553,237.567C72.447,237.46 72.171,237.449 71.94,237.541C71.685,237.644 71.761,237.719 72.133,237.735C72.471,237.749 72.66,237.673 72.553,237.567L72.553,237.567ZM68.988,234.962C68.639,234.612 68.399,235.168 68.65,235.746C68.888,236.294 68.905,236.294 69.038,235.735C69.114,235.413 69.092,235.065 68.988,234.962L68.988,234.962ZM26.773,235.307C26.656,235.189 26.56,235.285 26.56,235.52C26.56,235.755 26.656,235.851 26.773,235.733C26.891,235.616 26.891,235.424 26.773,235.307ZM72.96,235.2C72.96,235.024 72.592,234.88 72.141,234.88C71.677,234.88 71.408,235.019 71.52,235.2C71.629,235.376 71.997,235.52 72.339,235.52C72.68,235.52 72.96,235.376 72.96,235.2ZM26.653,233.6C26.561,233.248 26.43,232.96 26.363,232.96C26.295,232.96 26.24,233.248 26.24,233.6C26.24,233.952 26.371,234.24 26.53,234.24C26.69,234.24 26.745,233.952 26.653,233.6ZM68.96,233.92C68.851,233.744 68.618,233.6 68.442,233.6C68.266,233.6 68.211,233.744 68.32,233.92C68.429,234.096 68.662,234.24 68.838,234.24C69.014,234.24 69.069,234.096 68.96,233.92ZM71.68,233.76C71.461,233.496 71.155,233.28 71.001,233.28C70.846,233.28 70.72,233.496 70.72,233.76C70.72,234.036 71.009,234.24 71.399,234.24C71.967,234.24 72.013,234.161 71.68,233.76ZM26.459,231.94C26.356,231.685 26.281,231.761 26.265,232.133C26.251,232.471 26.327,232.66 26.433,232.553C26.54,232.447 26.551,232.171 26.459,231.94L26.459,231.94ZM66.195,228.274C64.016,226.087 62.997,225.28 62.412,225.28C61.723,225.28 62.126,225.798 65.285,228.97C68.387,232.084 68.977,232.551 69.068,231.964C69.149,231.443 68.429,230.518 66.195,228.274ZM69.12,227.68C69.12,226.177 69.033,225.92 68.525,225.92C68.197,225.92 67.225,225.83 66.365,225.72L64.8,225.521L66.71,227.48C67.76,228.558 68.732,229.44 68.87,229.44C69.007,229.44 69.12,228.648 69.12,227.68ZM147.733,193.067C147.616,192.949 147.52,193.045 147.52,193.28C147.52,193.515 147.616,193.611 147.733,193.493C147.851,193.376 147.851,193.184 147.733,193.067ZM37.329,192.515C37.356,192.496 37.483,190.716 37.61,188.56L37.842,184.64L25.557,184.64L25.659,185.495C25.751,186.274 25.904,186.363 27.36,186.483C28.24,186.555 29.032,186.686 29.12,186.774C29.208,186.861 29.307,188.181 29.339,189.706C29.372,191.232 29.408,192.587 29.419,192.717C29.435,192.896 37.072,192.701 37.329,192.515ZM39.68,191.877C39.68,191.323 40.542,191.155 43.256,191.18L45.393,191.2L45.496,189.012C45.553,187.809 45.54,186.765 45.467,186.692C45.393,186.619 43.989,186.56 42.347,186.56L39.36,186.56L39.356,188.72C39.353,189.908 39.264,191.204 39.158,191.6C39.043,192.032 39.108,192.32 39.323,192.32C39.519,192.32 39.68,192.121 39.68,191.877L39.68,191.877ZM50.742,191.04L54.4,191.04L54.4,184.62L50.862,184.663C47.452,184.706 47.325,184.732 47.377,185.394C47.474,186.627 47.281,186.745 47.04,185.6L46.804,184.48L46.762,185.801C46.719,187.139 47.333,188.092 47.981,187.692C48.162,187.58 48.443,187.028 48.606,186.464C48.801,185.789 48.912,185.661 48.931,186.089C48.974,187.048 48.027,188.242 47.362,188.068C46.893,187.945 46.765,188.204 46.6,189.615C46.399,191.324 46.752,193.318 46.979,191.76C47.081,191.061 47.194,191.04 50.742,191.04L50.742,191.04ZM139.6,191.76C139.556,191.54 139.808,191.36 140.16,191.36C140.531,191.36 140.8,191.147 140.8,190.853C140.8,190.575 140.687,190.395 140.549,190.453C140.411,190.512 139.62,190.848 138.791,191.2C136.973,191.971 136.849,192.394 138.48,192.259C139.23,192.197 139.65,192.01 139.6,191.76ZM151.68,190.88C151.68,190.23 148.837,190.223 147.981,190.87C147.415,191.298 147.551,191.341 149.52,191.35C151.231,191.358 151.68,191.26 151.68,190.88L151.68,190.88ZM159.36,191.04C159.36,190.864 158.676,190.719 157.84,190.717C157.004,190.715 155.564,190.624 154.64,190.513C153.214,190.341 152.96,190.39 152.96,190.835C152.96,191.287 153.408,191.36 156.16,191.36C158.08,191.36 159.36,191.232 159.36,191.04ZM66.6,188.48C66.622,187.072 66.658,185.668 66.68,185.36C66.716,184.85 66.229,184.792 61.222,184.713L55.724,184.625L55.622,187.701C55.566,189.392 55.58,190.835 55.653,190.908C55.727,190.981 58.211,191.04 61.173,191.04L66.56,191.04L66.6,188.48ZM71.225,190.16C71.333,189.676 71.551,188.776 71.709,188.16C71.867,187.544 71.997,186.932 71.998,186.8C71.999,186.668 71.136,186.56 70.08,186.56L68.16,186.56L68.16,191.04L69.594,191.04C70.897,191.04 71.046,190.96 71.225,190.16ZM83.84,190.445C83.84,189.961 83.158,189.656 80.172,188.803C78.154,188.228 76.401,187.739 76.275,187.718C76.059,187.682 75.93,188.046 75.406,190.16L75.188,191.04L79.514,191.04C83.517,191.04 83.84,190.996 83.84,190.445ZM86.56,190.72C86.451,190.544 86.002,190.4 85.562,190.4C85.11,190.4 84.848,190.539 84.96,190.72C85.069,190.896 85.518,191.04 85.958,191.04C86.41,191.04 86.672,190.901 86.56,190.72ZM142.72,190.72C142.72,190.544 142.576,190.4 142.4,190.4C142.224,190.4 142.08,190.544 142.08,190.72C142.08,190.896 142.224,191.04 142.4,191.04C142.576,191.04 142.72,190.896 142.72,190.72ZM144.64,189.12C144.64,188.352 144.556,188.342 143.344,188.968C142.119,189.602 142.154,189.76 143.52,189.76C144.427,189.76 144.64,189.638 144.64,189.12ZM151.68,189.44C151.68,189.264 151.544,189.12 151.379,189.12C151.213,189.12 150.989,189.264 150.88,189.44C150.771,189.616 150.907,189.76 151.181,189.76C151.456,189.76 151.68,189.616 151.68,189.44ZM158.72,189.609C158.72,189.472 157.414,186.588 157.207,186.268C157.113,186.122 153.658,187.746 153.073,188.212C152.871,188.372 152.78,188.786 152.87,189.132C153.018,189.697 153.322,189.76 155.877,189.76C157.441,189.76 158.72,189.692 158.72,189.609ZM97.28,187.83C97.28,186.966 97.118,186.478 96.789,186.351C96.519,186.248 94.755,186.288 92.869,186.441L89.44,186.72L92.96,187.888C94.896,188.53 96.66,189.07 96.88,189.088C97.139,189.109 97.28,188.666 97.28,187.83ZM135.14,187.641C136.518,186.101 136.566,185.92 135.6,185.92C134.722,185.92 132.979,187.972 133.253,188.684C133.502,189.334 133.744,189.2 135.14,187.641ZM139.289,188.32C140.565,187.778 140.798,187.545 140.799,186.8C140.801,185.468 140.072,185.714 138.517,187.571C137.757,188.479 137.281,189.163 137.458,189.091C137.636,189.019 138.46,188.672 139.289,188.32ZM114.79,188.156C114.904,187.462 113.825,186.315 112.94,186.189C111.768,186.022 111.71,187.155 112.844,188.069C113.84,188.871 114.668,188.909 114.79,188.156L114.79,188.156ZM149.44,187.361C151.72,186.15 151.789,186.081 150.826,185.985C149.4,185.842 146.56,187.311 146.56,188.192C146.56,188.556 146.668,188.804 146.8,188.744C146.932,188.684 148.12,188.061 149.44,187.361ZM143.219,186.41C143.814,185.96 143.803,185.94 142.96,185.93C142.387,185.923 142.08,186.087 142.08,186.4C142.08,187.006 142.427,187.009 143.219,186.41L143.219,186.41ZM22.621,185.04C22.54,184.732 22.474,184.984 22.474,185.6C22.474,186.216 22.54,186.468 22.621,186.16C22.701,185.852 22.701,185.348 22.621,185.04ZM72.561,185.04C72.659,184.745 72.097,184.64 70.427,184.64C68.595,184.64 68.16,184.735 68.16,185.135C68.16,185.541 68.542,185.612 70.294,185.535C71.646,185.475 72.477,185.293 72.561,185.04ZM93.2,185.389C95.444,185.275 97.28,185.059 97.28,184.911C97.28,184.762 94.544,184.64 91.2,184.64C87.856,184.64 85.12,184.76 85.12,184.907C85.12,185.683 86.186,185.747 93.2,185.389ZM40,184.96C40,184.784 39.784,184.64 39.52,184.64C39.256,184.64 39.04,184.784 39.04,184.96C39.04,185.136 39.256,185.28 39.52,185.28C39.784,185.28 40,185.136 40,184.96ZM44.8,184.96C44.8,184.782 43.947,184.64 42.88,184.64C41.813,184.64 40.96,184.782 40.96,184.96C40.96,185.138 41.813,185.28 42.88,185.28C43.947,185.28 44.8,185.138 44.8,184.96ZM112.673,184.545C112.263,184.135 111.846,184.452 112.15,184.944C112.268,185.135 112.511,185.2 112.69,185.089C112.909,184.954 112.903,184.775 112.673,184.545L112.673,184.545ZM119.68,184.606C119.68,184.449 119.392,184.32 119.04,184.32C118.416,184.32 118.206,184.659 118.591,185.045C118.848,185.301 119.68,184.965 119.68,184.606ZM185.86,184.556C185.943,184.124 185.745,184 184.972,184C184.067,184 184.009,184.059 184.33,184.659C184.742,185.428 185.704,185.363 185.86,184.556L185.86,184.556ZM125.76,184.64C125.76,184.464 125.616,184.32 125.44,184.32C125.264,184.32 125.12,184.464 125.12,184.64C125.12,184.816 125.264,184.96 125.44,184.96C125.616,184.96 125.76,184.816 125.76,184.64ZM129.28,184.64C129.28,184.464 129.064,184.32 128.8,184.32C128.536,184.32 128.32,184.464 128.32,184.64C128.32,184.816 128.536,184.96 128.8,184.96C129.064,184.96 129.28,184.816 129.28,184.64ZM132.8,184.64C132.8,184.464 132.584,184.32 132.32,184.32C132.056,184.32 131.84,184.464 131.84,184.64C131.84,184.816 132.056,184.96 132.32,184.96C132.584,184.96 132.8,184.816 132.8,184.64ZM137.76,184.64C137.872,184.459 137.61,184.32 137.158,184.32C136.718,184.32 136.269,184.464 136.16,184.64C136.048,184.821 136.31,184.96 136.762,184.96C137.202,184.96 137.651,184.816 137.76,184.64ZM146.88,184.64C147.211,184.426 146.543,184.328 144.72,184.325C143.17,184.322 142.08,184.452 142.08,184.64C142.08,185.053 146.242,185.053 146.88,184.64ZM154.72,184.64C154.838,184.449 154.45,184.32 153.76,184.32C153.07,184.32 152.682,184.449 152.8,184.64C152.909,184.816 153.341,184.96 153.76,184.96C154.179,184.96 154.611,184.816 154.72,184.64ZM72.96,183.68C72.96,183.504 72.276,183.377 71.44,183.398C70.083,183.432 70.023,183.462 70.88,183.68C72.295,184.04 72.96,184.04 72.96,183.68ZM83.84,183.68C83.84,183.502 82.98,183.36 81.901,183.36C80.69,183.36 80.036,183.48 80.16,183.68C80.269,183.856 81.141,184 82.099,184C83.056,184 83.84,183.856 83.84,183.68ZM97.253,183.484C97.327,183.416 94.618,183.36 91.234,183.36C87.244,183.36 85.151,183.472 85.279,183.678C85.462,183.974 96.924,183.789 97.253,183.484ZM22.612,182.64C22.523,182.42 22.451,182.6 22.451,183.04C22.451,183.48 22.523,183.66 22.612,183.44C22.701,183.22 22.701,182.86 22.612,182.64ZM24.892,182.052C24.952,180.991 24.869,180.499 24.652,180.633C24.276,180.865 24.191,183.681 24.56,183.679C24.692,183.678 24.841,182.946 24.892,182.052L24.892,182.052ZM37.667,183.04C37.759,182.688 37.954,182.4 38.101,182.4C38.247,182.4 38.755,182.04 39.23,181.6C40.034,180.855 40.271,180.81 42.728,180.929C44.177,180.999 45.682,181.227 46.071,181.435C46.461,181.644 47.134,181.726 47.566,181.617C48.107,181.481 48.336,181.548 48.298,181.83C48.058,183.648 48.11,183.68 51.36,183.68L54.4,183.68L54.44,180.16C54.462,178.224 54.498,176.388 54.52,176.08C54.557,175.567 53.968,175.506 47.52,175.352C43.648,175.26 37.096,175.188 32.96,175.192L25.44,175.2L25.6,176.16C25.688,176.688 25.76,178.597 25.76,180.401L25.76,183.681L31.63,183.681C37.231,183.68 37.508,183.651 37.667,183.04L37.667,183.04ZM66.56,183.68L66.56,182.08L73.605,182.08L74.146,180.72C74.443,179.972 75.138,178.46 75.69,177.36L76.692,175.36L55.68,175.36L55.68,183.68L66.56,183.68ZM133.76,183.36C133.76,183.184 133.472,183.04 133.12,183.04C132.768,183.04 132.48,183.184 132.48,183.36C132.48,183.536 132.768,183.68 133.12,183.68C133.472,183.68 133.76,183.536 133.76,183.36ZM138.88,183.36C138.88,183.184 138.592,183.04 138.24,183.04C137.888,183.04 137.6,183.184 137.6,183.36C137.6,183.536 137.888,183.68 138.24,183.68C138.592,183.68 138.88,183.536 138.88,183.36ZM149.6,183.361C149.728,183.153 148.463,183.042 146.019,183.045C143.94,183.048 142.419,183.164 142.639,183.303C143.24,183.685 149.368,183.735 149.6,183.361L149.6,183.361ZM83.84,182.08L83.84,175.36L82.797,175.36C82.065,175.36 81.617,175.575 81.294,176.08C80.742,176.943 78.08,181.827 78.08,181.975C78.08,182.033 79.376,182.08 80.96,182.08L83.84,182.08ZM97.28,181.801C97.28,181.648 95.493,180.136 93.309,178.441L89.338,175.36L85.12,175.36L85.12,182.08L91.2,182.08C94.544,182.08 97.28,181.955 97.28,181.801ZM119.181,178.64C119.061,176.924 118.859,175.406 118.732,175.266C118.605,175.127 117.332,175.055 115.904,175.106L113.308,175.2L115.073,178.48L116.838,181.76L119.399,181.76L119.181,178.64ZM127.773,178.4L128.919,175.04L124.114,175.04L124.311,176.88C124.865,182.052 124.779,181.76 125.744,181.76C126.58,181.76 126.69,181.579 127.773,178.4ZM130.509,180.523C130.949,179.056 131.003,177.658 130.603,178.096C130.376,178.345 129.28,181.295 129.28,181.657C129.28,181.714 129.473,181.76 129.709,181.76C129.946,181.76 130.306,181.203 130.509,180.523L130.509,180.523ZM138.42,178.556C139.993,176.794 141.33,175.205 141.391,175.024C141.462,174.811 140.354,174.729 138.219,174.788L134.937,174.88L134.08,177.44C132.572,181.95 132.567,181.76 134.174,181.76C135.527,181.76 135.631,181.682 138.42,178.556L138.42,178.556ZM151.726,181.76L151.52,174.88L150.672,174.782C149.949,174.698 149.393,175.172 146.914,177.982C145.314,179.796 144.004,181.388 144.002,181.52C144.001,181.652 145.738,181.76 147.863,181.76L151.726,181.76ZM154.56,180.628C154.56,180.415 154.164,179.394 153.68,178.36L152.8,176.48L152.704,178.688C152.58,181.556 152.699,181.865 153.749,181.387C154.195,181.184 154.56,180.842 154.56,180.628L154.56,180.628ZM143.633,178.022C145.067,176.406 146.24,175.002 146.24,174.902C146.24,173.913 143.205,176.549 140.75,179.671C140.143,180.443 140.156,181.932 140.764,181.254C140.909,181.092 142.2,179.638 143.633,178.022L143.633,178.022ZM122.04,179.56C121.928,178.998 121.769,178.604 121.687,178.686C121.606,178.768 121.639,179.287 121.76,179.84C122.048,181.152 122.307,180.894 122.04,179.56L122.04,179.56ZM25.092,178C24.792,176.339 24.64,176.295 24.64,177.867C24.64,178.6 24.791,179.2 24.975,179.2C25.186,179.2 25.229,178.76 25.092,178ZM23.616,176.8C23.683,175.196 23.63,175.04 23.01,175.04C22.437,175.04 22.364,175.171 22.541,175.877C22.656,176.338 22.834,177.13 22.935,177.637C23.227,179.096 23.536,178.717 23.616,176.8ZM132.155,175.261C132.158,174.943 132.016,174.771 131.84,174.88C131.664,174.989 131.522,175.465 131.525,175.939C131.529,176.612 131.597,176.695 131.84,176.32C132.011,176.056 132.152,175.58 132.155,175.261ZM181.12,174.88C181.12,174.616 180.837,174.4 180.49,174.4C180.062,174.4 179.919,174.554 180.044,174.88C180.146,175.144 180.429,175.36 180.674,175.36C180.919,175.36 181.12,175.144 181.12,174.88ZM185.522,174.8C185.616,174.512 185.153,174.4 183.867,174.4C182.465,174.4 182.08,174.507 182.08,174.897C182.08,175.294 182.411,175.374 183.735,175.297C184.7,175.24 185.445,175.033 185.522,174.8ZM87.662,174.16C87.652,174.028 86.948,173.39 86.097,172.743L84.55,171.566L83.555,172.804C83.008,173.485 82.56,174.123 82.56,174.221C82.56,174.32 83.712,174.4 85.12,174.4C86.528,174.4 87.672,174.292 87.662,174.16ZM97.28,167.52C97.28,163.736 97.194,160.64 97.089,160.64C96.985,160.64 96.467,160.947 95.94,161.323C95.217,161.838 95.018,162.193 95.128,162.77C95.235,163.331 95.023,163.747 94.333,164.328C93.176,165.3 92.557,165.336 92.422,164.437C92.333,163.837 92.049,164.005 90.119,165.801L87.918,167.848L91.879,171.106C94.205,173.02 96.137,174.372 96.56,174.382L97.28,174.4L97.28,167.52ZM21.725,169.6C21.772,170.216 21.886,170.532 21.978,170.303C22.07,170.073 22.047,169.363 21.927,168.725C21.55,166.714 21.125,168.224 21.185,171.36L21.241,174.24L21.44,171.36C21.549,169.776 21.678,168.984 21.725,169.6L21.725,169.6ZM118.513,172.604C118.393,169.468 117.007,154.055 116.826,153.847C116.714,153.719 115.618,153.799 114.391,154.026L112.16,154.437L112.07,163.379C112.021,168.296 112.058,172.638 112.153,173.027C112.311,173.675 112.545,173.742 114.963,173.827C118.753,173.961 118.567,174.025 118.513,172.604ZM132.569,164.222C134.428,158.782 135.653,154.73 135.486,154.572C134.473,153.607 122.393,152.743 122.406,153.637C122.439,155.836 124.049,173.321 124.249,173.647C124.342,173.797 125.531,173.848 126.891,173.76L129.365,173.6L132.569,164.222ZM121.41,170.8C121.296,169.172 121.064,167.696 120.893,167.52C120.597,167.215 120.782,171.311 121.142,173.04C121.477,174.647 121.604,173.588 121.41,170.8ZM133.598,170.885C134.104,169.304 134.419,167.912 134.299,167.792C134.003,167.496 134.015,167.471 133.029,170.579C132.074,173.589 132.041,173.76 132.42,173.76C132.563,173.76 133.093,172.466 133.598,170.885ZM145.36,170.996C147.214,168.944 147.84,168.024 147.84,167.352C147.84,166.128 147.54,165.44 147.006,165.44C146.685,165.44 146.56,164.996 146.56,163.853C146.56,162.742 146.23,161.518 145.461,159.773C144.436,157.45 144.261,157.239 142.884,156.673C142.02,156.318 141.292,156.185 141.132,156.353C140.981,156.511 139.671,160.312 138.221,164.8C136.77,169.288 135.518,173.14 135.438,173.36C135.326,173.666 136.183,173.758 139.086,173.751L142.88,173.742L145.36,170.996L145.36,170.996ZM151.68,173.619C151.68,173.281 151.066,173.139 150.883,173.435C150.773,173.614 150.907,173.76 151.181,173.76C151.456,173.76 151.68,173.697 151.68,173.619ZM150.067,170.32C150.09,169.624 149.538,169.883 148.513,171.051C147.499,172.206 147.36,172.534 147.729,172.903C147.985,173.159 150.048,170.879 150.067,170.32ZM21.742,163.421C21.752,162.9 21.626,162.605 21.44,162.72C21.264,162.829 21.137,163.809 21.157,164.899C21.192,166.799 21.204,166.828 21.458,165.6C21.604,164.896 21.731,163.915 21.742,163.421ZM136.563,162.011C137.304,159.773 137.799,157.831 137.663,157.695C137.527,157.559 136.893,159.067 136.254,161.044C134.683,165.905 134.638,166.08 134.946,166.08C135.094,166.08 135.822,164.249 136.563,162.011ZM120.485,160.4C120.358,158.684 120.119,157.064 119.954,156.8C119.66,156.33 119.807,159.616 120.201,162.32C120.541,164.648 120.713,163.481 120.485,160.4ZM141.671,151.28C141.585,151.06 139.142,145.48 136.242,138.88C133.341,132.28 129.928,124.485 128.657,121.557C126.673,116.989 126.258,116.257 125.733,116.394C125.202,116.533 125.12,116.377 125.12,115.237C125.12,114.133 125.016,113.92 124.48,113.92C123.918,113.92 123.84,113.707 123.84,112.167C123.84,110.662 123.407,109.406 120.779,103.287C119.095,99.367 117.612,96.052 117.482,95.92C117.353,95.787 116.102,96.096 114.703,96.605L112.16,97.532L112.067,100.286C112.009,102.037 112.096,103.04 112.307,103.04C112.752,103.04 112.764,114.125 112.32,114.4C112.113,114.528 112,120.818 112,132.222L112,149.847L113.52,149.621C118.093,148.939 119.6,148.82 123.749,148.81C126.251,148.804 129.857,149.018 131.763,149.283C134.975,149.731 140.627,151.08 141.045,151.498C141.384,151.837 141.829,151.682 141.671,151.28ZM97.392,109.6C97.361,105.844 97.463,103.04 97.629,103.04C97.789,103.04 97.92,102.384 97.92,101.582L97.92,100.123L96.608,100.222C95.397,100.313 95.263,100.418 94.848,101.6C94.432,102.787 93.769,109.968 93.77,113.28C93.77,115.088 94.045,115.52 95.399,115.839C97.597,116.358 97.45,116.82 97.392,109.6ZM122.453,43.947C122.336,43.829 122.24,43.925 122.24,44.16C122.24,44.395 122.336,44.491 122.453,44.373C122.571,44.256 122.571,44.064 122.453,43.947ZM131.84,43.68C131.84,43.592 131.768,43.52 131.68,43.52C131.592,43.52 131.52,43.592 131.52,43.68C131.52,43.768 131.592,43.84 131.68,43.84C131.768,43.84 131.84,43.768 131.84,43.68ZM134.313,43.647C134.207,43.54 133.931,43.529 133.7,43.621C133.445,43.724 133.521,43.799 133.893,43.815C134.231,43.829 134.42,43.753 134.313,43.647L134.313,43.647ZM148.16,43.68C148.16,43.592 148.088,43.52 148,43.52C147.912,43.52 147.84,43.592 147.84,43.68C147.84,43.768 147.912,43.84 148,43.84C148.088,43.84 148.16,43.768 148.16,43.68ZM125.12,42.72C125.12,42.632 125.048,42.56 124.96,42.56C124.872,42.56 124.8,42.632 124.8,42.72C124.8,42.808 124.872,42.88 124.96,42.88C125.048,42.88 125.12,42.808 125.12,42.72ZM125.76,42.72C125.76,42.632 125.688,42.56 125.6,42.56C125.512,42.56 125.44,42.632 125.44,42.72C125.44,42.808 125.512,42.88 125.6,42.88C125.688,42.88 125.76,42.808 125.76,42.72ZM126.4,42.72C126.4,42.632 126.328,42.56 126.24,42.56C126.152,42.56 126.08,42.632 126.08,42.72C126.08,42.808 126.152,42.88 126.24,42.88C126.328,42.88 126.4,42.808 126.4,42.72ZM127.04,42.72C127.04,42.632 126.968,42.56 126.88,42.56C126.792,42.56 126.72,42.632 126.72,42.72C126.72,42.808 126.792,42.88 126.88,42.88C126.968,42.88 127.04,42.808 127.04,42.72ZM137.92,40.8C137.92,40.712 137.848,40.64 137.76,40.64C137.672,40.64 137.6,40.712 137.6,40.8C137.6,40.888 137.672,40.96 137.76,40.96C137.848,40.96 137.92,40.888 137.92,40.8ZM138.56,40.8C138.56,40.712 138.488,40.64 138.4,40.64C138.312,40.64 138.24,40.712 138.24,40.8C138.24,40.888 138.312,40.96 138.4,40.96C138.488,40.96 138.56,40.888 138.56,40.8ZM39.439,34.72L39.025,29.76L46.391,29.76L46.876,28.601C47.142,27.963 47.36,27.413 47.36,27.378C47.36,27.309 26.433,27.568 26.35,27.638C26.282,27.696 27.196,34.003 27.331,34.4C27.398,34.598 29.725,34.72 33.439,34.72L39.439,34.72ZM44.818,33.714C45.732,31.31 45.77,31.36 43.031,31.36L40.553,31.36L40.754,32.827C40.865,33.633 41.014,34.389 41.087,34.507C41.159,34.624 41.962,34.669 42.87,34.608C44.275,34.512 44.565,34.379 44.818,33.714ZM56,34.56L56,31.048L50.179,31.182L49.41,32.7C48.986,33.535 48.64,34.296 48.64,34.389C48.64,34.483 50.296,34.56 52.32,34.56L56,34.56ZM62.693,34.437C62.62,34.37 61.372,33.72 59.92,32.994L57.28,31.673L57.28,34.56L60.053,34.56C61.579,34.56 62.767,34.505 62.693,34.437ZM74.88,34.412C74.88,34.33 75.166,33.538 75.515,32.652L76.151,31.04L71.416,31.04L71.19,32.377C71.006,33.466 71.072,33.792 71.543,34.137C72.074,34.524 74.88,34.756 74.88,34.412ZM79.307,34.279C79.158,33.887 76.84,31.36 76.629,31.36C76.476,31.36 75.2,34.096 75.2,34.427C75.2,34.5 76.148,34.56 77.307,34.56C78.465,34.56 79.365,34.433 79.307,34.279ZM87.257,34.113C87.163,33.868 86.909,33.076 86.692,32.353C86.146,30.529 85.76,30.714 85.76,32.8C85.76,34.483 85.796,34.56 86.594,34.56C87.177,34.56 87.377,34.425 87.257,34.113ZM103.657,32.841C104.777,30.883 104.817,30.72 104.175,30.72C103.638,30.72 101.087,33.928 101.322,34.308C101.778,35.046 102.741,34.441 103.657,32.841ZM108.938,32.943C111.54,31.169 111.642,30.652 109.363,30.783C107.739,30.877 107.652,30.931 106.643,32.476C106.069,33.354 105.6,34.181 105.6,34.314C105.6,34.849 106.961,34.29 108.938,32.943ZM92.943,33.84C93.01,33.62 93.141,32.9 93.233,32.24C93.393,31.088 93.362,31.04 92.46,31.04C91.381,31.04 91.409,30.955 91.878,32.818C92.226,34.202 92.694,34.65 92.943,33.84ZM96.335,32.534C96.456,31.495 96.394,31.04 96.129,31.04C95.63,31.04 95.36,31.789 95.36,33.173C95.36,34.842 96.123,34.342 96.335,32.534ZM121.92,32.64C121.92,31.76 121.837,31.04 121.736,31.04C121.496,31.04 117.76,33.914 117.76,34.099C117.76,34.176 118.696,34.24 119.84,34.24L121.92,34.24L121.92,32.64ZM135.84,33.529C137.424,33.137 138.769,32.788 138.829,32.752C138.889,32.717 138.844,32.389 138.728,32.024C138.522,31.376 138.33,31.36 130.698,31.36L122.88,31.36L122.88,34.24L127.92,34.241C132.058,34.242 133.475,34.115 135.84,33.529L135.84,33.529ZM149.477,34.097C149.556,34.018 149.564,33.37 149.496,32.657L149.373,31.36L142.759,31.36L143.249,32.8L143.74,34.24L146.537,34.24C148.075,34.24 149.398,34.175 149.477,34.097L149.477,34.097ZM100.033,31.92C100.288,31.436 100.457,31.029 100.408,31.016C99.083,30.648 99.027,30.703 98.742,32.64C98.542,34.004 98.558,34.046 99.05,33.44C99.335,33.088 99.777,32.404 100.033,31.92ZM115.992,32.398C117.856,30.919 117.882,30.877 117.004,30.776C115.757,30.632 113.6,32.145 113.6,33.164C113.6,33.58 113.708,33.919 113.84,33.918C113.972,33.916 114.941,33.232 115.992,32.398ZM70.08,32.16L70.08,31.04L68.16,31.04C67.104,31.04 66.24,31.154 66.24,31.294C66.24,31.533 69.325,33.219 69.84,33.261C69.972,33.271 70.08,32.776 70.08,32.16ZM84.8,32.16C84.8,31.086 84.752,31.04 83.641,31.04C82.588,31.04 82.521,31.092 82.907,31.6C84.46,33.647 84.8,33.748 84.8,32.16ZM25.582,31.6C25.571,31.204 25.444,30.304 25.298,29.6C25.045,28.377 25.032,28.409 24.997,30.32C24.976,31.465 25.097,32.32 25.28,32.32C25.456,32.32 25.592,31.996 25.582,31.6ZM52.48,29.44C52.48,29.264 52.264,29.12 52,29.12C51.736,29.12 51.416,29.109 51.288,29.096C51.16,29.083 51.004,29.227 50.941,29.416C50.878,29.605 51.199,29.76 51.653,29.76C52.108,29.76 52.48,29.616 52.48,29.44ZM74.877,29.26C74.879,29.073 74.476,28.533 73.982,28.06L73.085,27.2L65.982,27.2C62.076,27.2 58.884,27.308 58.888,27.44C58.893,27.572 59.793,28.146 60.888,28.717L62.88,29.753L68.877,29.677C72.849,29.626 74.876,29.485 74.877,29.26L74.877,29.26ZM137.153,28.88C136.002,26.697 136.187,26.762 131.358,26.849L126.949,26.928L125.234,28.222C124.292,28.934 123.52,29.572 123.52,29.638C123.52,29.705 126.692,29.76 130.568,29.76L137.616,29.76L137.153,28.88ZM149.56,28.76C150.021,26.454 150.218,26.56 145.493,26.56C143.147,26.56 141.14,26.647 141.034,26.753C140.927,26.859 141.148,27.579 141.524,28.353L142.208,29.76L149.36,29.76L149.56,28.76ZM84.8,29.44L84.8,27.2L82.08,27.2C80.584,27.2 79.36,27.3 79.36,27.422C79.36,27.545 79.747,28.049 80.22,28.542C80.969,29.324 81.32,29.44 82.94,29.44L84.8,29.44ZM93.699,28.08L93.799,26.88L90.189,26.88L90.412,27.92C90.736,29.428 90.807,29.484 92.269,29.377C93.556,29.283 93.603,29.24 93.699,28.08L93.699,28.08ZM96.733,29.02C96.945,28.468 96.635,26.88 96.316,26.88C96.179,26.88 96.012,27.456 95.945,28.16C95.866,28.993 95.954,29.44 96.197,29.44C96.403,29.44 96.644,29.251 96.733,29.02ZM102.371,28.143L103.1,26.846L99.36,27.04L99.261,28.24C99.162,29.437 99.164,29.44 100.402,29.44C101.518,29.44 101.715,29.311 102.371,28.143L102.371,28.143ZM105.12,29.12C105.229,28.944 105.165,28.8 104.979,28.8C104.792,28.8 104.64,28.944 104.64,29.12C104.64,29.296 104.703,29.44 104.781,29.44C104.859,29.44 105.011,29.296 105.12,29.12ZM110.324,28.219C110.113,27.659 109.85,27.2 109.741,27.2C109.567,27.2 108.8,28.628 108.8,28.954C108.8,29.062 110.437,29.34 110.634,29.266C110.675,29.25 110.536,28.779 110.324,28.219ZM115.499,28.24L117.243,27.04L113.94,26.948C112.123,26.898 110.57,26.923 110.489,27.004C110.408,27.086 110.527,27.667 110.755,28.296C111.136,29.351 111.269,29.44 112.462,29.44C113.432,29.44 114.189,29.141 115.499,28.24L115.499,28.24ZM120.307,28.975C120.519,28.72 120.645,28.285 120.586,28.009C120.497,27.586 120.319,27.621 119.446,28.234C118.877,28.633 118.409,29.068 118.406,29.2C118.396,29.631 119.912,29.452 120.307,28.975ZM106.686,27.654C106.96,26.939 106.939,26.88 106.4,26.88C106.133,26.88 105.92,27.164 105.92,27.52C105.92,28.283 106.411,28.369 106.686,27.654ZM49.271,24.297C49.967,23.126 51.19,21.365 51.988,20.385C52.787,19.405 53.44,18.521 53.44,18.422C53.44,18.322 47.032,18.24 39.2,18.24C31.368,18.24 24.96,18.307 24.96,18.389C24.96,18.885 25.968,25.836 26.091,26.187C26.212,26.533 28.281,26.596 37.123,26.52L48.006,26.428L49.271,24.297ZM71.633,25.679C71.395,25.348 69.833,23.539 68.162,21.658L65.123,18.24L59.594,18.24L58.482,19.472C57.407,20.661 57.367,20.798 57.308,23.466L57.247,26.228L64.544,26.314C68.557,26.361 71.891,26.373 71.953,26.341C72.015,26.308 71.871,26.01 71.633,25.679L71.633,25.679ZM84.48,25.89C84.48,25.242 82.183,18.24 81.97,18.242C81.803,18.244 80.063,22.403 78.857,25.68C78.671,26.187 78.925,26.24 81.566,26.24C83.46,26.24 84.48,26.118 84.48,25.89ZM94.276,23.68C94.472,22.36 94.729,20.524 94.847,19.6L95.062,17.92L91.177,17.92C88.202,17.92 87.326,18.014 87.44,18.32C87.522,18.54 88.049,20.232 88.61,22.08C89.172,23.928 89.695,25.627 89.772,25.855C89.871,26.151 90.489,26.243 91.916,26.175L93.92,26.08L94.276,23.68ZM105.384,23.228C106.92,20.742 106.941,20.674 106.537,19.449C106.31,18.762 105.899,18.082 105.622,17.937C105.214,17.723 100.814,17.818 100.571,18.046C100.432,18.177 99.567,25.738 99.672,25.907C99.732,26.004 100.689,26.01 101.8,25.921L103.819,25.76L105.384,23.228ZM107.828,25.54C108.491,24.827 108.716,23.68 108.192,23.68C107.81,23.68 106.56,25.813 106.8,26.053C107.073,26.326 107.113,26.306 107.828,25.54ZM56.32,24C56.32,22.944 56.208,22.08 56.071,22.08C55.8,22.08 55.173,22.76 54.32,23.982C53.788,24.743 53.797,24.779 54.647,25.34C56.096,26.296 56.32,26.116 56.32,24ZM79.765,22.16C80.601,20.092 81.284,18.292 81.283,18.16C81.281,18.028 79.12,17.92 76.48,17.92C73.84,17.92 71.68,18.033 71.68,18.17C71.68,18.308 72.916,19.856 74.426,21.61C75.937,23.365 77.34,25.052 77.543,25.36C77.747,25.668 77.988,25.92 78.079,25.92C78.169,25.92 78.928,24.228 79.765,22.16ZM97.558,22.218C97.994,18.727 98.009,17.92 97.639,17.92C97.287,17.92 96.637,22.187 96.65,24.413C96.664,26.812 97.124,25.702 97.558,22.218L97.558,22.218ZM118.794,25.92L121.92,23.625L121.92,17.6L115.334,17.6L113.027,21.551C111.758,23.724 110.72,25.596 110.72,25.711C110.72,25.826 112.537,25.92 114.757,25.92L118.794,25.92ZM126.837,23.993C128.18,22.934 129.28,21.914 129.28,21.727C129.28,21.54 129.169,21.435 129.033,21.493C128.342,21.792 123.224,25.474 123.213,25.68C123.175,26.396 124.677,25.696 126.837,23.993ZM135.04,25.597C135.04,25.184 133.147,22.56 132.849,22.56C132.497,22.56 128.66,25.411 128.649,25.68C128.644,25.812 130.08,25.92 131.84,25.92C133.778,25.92 135.04,25.793 135.04,25.597ZM149.672,25.472C149.711,25.434 149.84,23.591 149.959,21.377L150.174,17.35L142.527,17.517C138.321,17.608 134.834,17.723 134.777,17.771C134.72,17.82 135.377,18.732 136.236,19.798C137.094,20.863 138.358,22.695 139.044,23.868L140.291,26L144.945,25.77C147.505,25.644 149.632,25.51 149.672,25.472ZM109.772,22.376C110.759,20.441 110.443,19.741 109.337,21.412C108.84,22.163 108.511,22.98 108.607,23.228C108.872,23.92 109.051,23.789 109.772,22.376ZM125.986,20.69C127.534,19.574 128.8,18.458 128.8,18.21C128.8,17.857 128.182,17.76 125.92,17.76L123.04,17.76L122.947,20.24C122.895,21.604 122.925,22.72 123.012,22.72C123.1,22.72 124.438,21.807 125.986,20.69L125.986,20.69ZM131.2,20.48C131.2,20.304 131.056,20.16 130.88,20.16C130.704,20.16 130.56,20.304 130.56,20.48C130.56,20.656 130.704,20.8 130.88,20.8C131.056,20.8 131.2,20.656 131.2,20.48ZM108.473,18C108.477,17.767 108.078,17.6 107.52,17.6C106.472,17.6 106.292,18.102 106.919,19.273L107.278,19.944L107.872,19.172C108.199,18.748 108.469,18.22 108.473,18ZM112.32,17.832C112.32,17.187 111.513,17.87 111.431,18.585C111.344,19.336 111.357,19.34 111.831,18.739C112.1,18.397 112.32,17.989 112.32,17.832ZM63.68,16.679C63.68,16.525 63.465,16.22 63.202,16.001C62.816,15.681 62.568,15.706 61.922,16.13C60.836,16.841 60.905,16.96 62.4,16.96C63.104,16.96 63.68,16.834 63.68,16.679ZM81.6,16.756C81.6,16.643 80.926,14.41 80.103,11.792C78.426,6.462 78.861,6.829 75.68,8.062C74.413,8.553 73.547,9.281 71.52,11.56C70.112,13.144 68.908,14.586 68.845,14.765C68.781,14.945 69.132,15.512 69.625,16.026L70.52,16.96L76.06,16.96C79.107,16.96 81.6,16.868 81.6,16.756L81.6,16.756ZM95.896,11.52C96.278,8.616 96.602,5.823 96.616,5.313L96.64,4.387L92.26,4.614C89.852,4.739 87.656,4.963 87.38,5.111C87.105,5.26 86.462,6.482 85.952,7.826L85.023,10.271L85.923,13.376C86.418,15.083 86.883,16.592 86.956,16.729C87.03,16.867 88.914,16.939 91.145,16.889L95.2,16.8L95.896,11.52ZM97.92,16.48C97.92,16.392 97.848,16.32 97.76,16.32C97.672,16.32 97.6,16.392 97.6,16.48C97.6,16.568 97.672,16.64 97.76,16.64C97.848,16.64 97.92,16.568 97.92,16.48ZM105.227,16.371C104.111,13.563 101.903,8.64 101.76,8.64C101.588,8.64 100.8,14.758 100.8,16.095C100.8,16.557 101.145,16.64 103.067,16.64C104.313,16.64 105.285,16.519 105.227,16.371ZM111.262,13.661L112.968,10.842L111.155,8.79C109.236,6.618 108.808,6.396 105.019,5.607C102.041,4.987 102.187,4.97 101.933,5.981C101.77,6.633 102.209,8.036 103.739,11.747L105.76,16.652L109.556,16.48L111.262,13.661ZM114.024,15.031C115.104,13.107 115.012,12.142 113.921,13.943C113.502,14.635 112.954,15.524 112.703,15.92C112.323,16.519 112.32,16.64 112.683,16.64C112.923,16.639 113.527,15.915 114.024,15.031L114.024,15.031ZM117.435,16.4C117.432,16.268 117.288,15.944 117.115,15.68C116.835,15.253 116.765,15.253 116.485,15.68C116.013,16.399 116.092,16.64 116.8,16.64C117.152,16.64 117.438,16.532 117.435,16.4ZM124.48,16.357C124.48,16.201 124.119,15.837 123.677,15.548C123.054,15.139 122.909,14.825 123.029,14.145C123.167,13.36 122.981,13.141 121.275,12.075L119.367,10.882L118.614,12.081C117.097,14.496 117.079,14.572 117.852,15.272C118.242,15.624 118.848,16.072 119.2,16.267C119.961,16.687 124.48,16.765 124.48,16.357L124.48,16.357ZM127.04,16.435C127.04,16.187 126.015,15.384 125.68,15.37C125.548,15.365 125.44,15.648 125.44,16C125.44,16.469 125.653,16.64 126.24,16.64C126.68,16.64 127.04,16.548 127.04,16.435ZM98.834,11.779C99.235,8.381 99.297,6.836 99.022,7.112C98.783,7.35 97.933,12.991 97.926,14.384C97.915,16.474 98.467,14.891 98.834,11.779ZM70.176,11.84C70.602,11.84 72.64,9.913 72.64,9.509C72.64,9.188 67.929,11.642 67.221,12.333C66.824,12.72 66.844,12.87 67.374,13.455L67.985,14.13L68.903,12.985C69.409,12.355 69.981,11.84 70.176,11.84ZM69.92,12.8C70.029,12.624 69.965,12.48 69.779,12.48C69.592,12.48 69.44,12.624 69.44,12.8C69.44,12.976 69.504,13.12 69.581,13.12C69.659,13.12 69.811,12.976 69.92,12.8ZM115.84,11.821C115.84,11.656 115.696,11.52 115.52,11.52C115.344,11.52 115.2,11.744 115.2,12.019C115.2,12.293 115.344,12.429 115.52,12.32C115.696,12.211 115.84,11.987 115.84,11.821ZM113.881,9.399C114.091,8.936 114.223,8.516 114.172,8.465C113.906,8.2 110.72,7.08 110.72,7.252C110.72,7.574 112.977,10.24 113.25,10.24C113.386,10.24 113.67,9.861 113.881,9.399ZM85.566,7.6C85.894,6.676 86.235,5.73 86.324,5.497C86.449,5.17 86.206,5.125 85.243,5.299C84.559,5.423 83.91,5.574 83.801,5.636C83.562,5.77 84.502,9.28 84.778,9.28C84.883,9.28 85.238,8.524 85.566,7.6Z" style="fill-rule:nonzero;"/>
                                </g>
                            </g>
                        </g>
                    </g>
                </g>
            </g>
        </g>
    </g>
    <g id="Layer-1" serif:id="Layer 1">
        <g transform="matrix(1,0,0,1,-36.9881,37.2667)">
            <text x="177.314px" y="57.089px" style="font-family:'OldEnglishTextMT', 'Old English Text MT', cursive;font-size:72px;">Nerdberg</text>
        </g>
        <g transform="matrix(1,0,0,1,-27.3826,18.7987)">
            <text x="188.441px" y="484.371px" style="font-family:'OldEnglishTextMT', 'Old English Text MT', cursive;font-size:64px;">Schacht 1</text>
        </g>
        <g transform="matrix(1,0,0,1,121.328,-8.51395)">
            <text x="55.798px" y="544.093px" style="font-family:'OldEnglishTextMT', 'Old English Text MT', cursive;font-size:31.772px;">Jakobinenstraße</text>
        </g>
    </g>
</svg>
