<?xml version="1.0" encoding="UTF-8" standalone="no"?>
<!-- Creator: CorelDRAW X7 -->

<svg
   xml:space="preserve"
   width="151.33mm"
   height="151.33mm"
   version="1.0"
   style="shape-rendering:geometricPrecision; text-rendering:geometricPrecision; image-rendering:optimizeQuality; fill-rule:evenodd; clip-rule:evenodd"
   viewBox="0 0 15133 15133"
   id="svg1"
   sodipodi:docname="nerdberg-logo-filled-white.svg"
   inkscape:version="1.3 (0e150ed6c4, 2023-07-21)"
   xmlns:inkscape="http://www.inkscape.org/namespaces/inkscape"
   xmlns:sodipodi="http://sodipodi.sourceforge.net/DTD/sodipodi-0.dtd"
   xmlns="http://www.w3.org/2000/svg"
   xmlns:svg="http://www.w3.org/2000/svg"><sodipodi:namedview
   id="namedview1"
   pagecolor="#ffffff"
   bordercolor="#000000"
   borderopacity="0.25"
   inkscape:showpageshadow="2"
   inkscape:pageopacity="0.0"
   inkscape:pagecheckerboard="true"
   inkscape:deskcolor="#d1d1d1"
   inkscape:document-units="mm"
   inkscape:zoom="1.4214382"
   inkscape:cx="285.97796"
   inkscape:cy="285.97796"
   inkscape:window-width="1920"
   inkscape:window-height="1009"
   inkscape:window-x="-8"
   inkscape:window-y="-8"
   inkscape:window-maximized="1"
   inkscape:current-layer="Ebene_x0020_1" />&#10; <defs
   id="defs1">&#10;  <style
   type="text/css"
   id="style1">&#10;   <![CDATA[
    .str0 {stroke:#2B2A29;stroke-width:132.97}
    .fil0 {fill:none}
    .fil1 {fill:black}
   ]]>&#10;  </style>&#10; </defs>&#10; <g
   id="Ebene_x0020_1"
   inkscape:label="Ebene 1">&#10;  <metadata
   id="CorelCorpID_0Corel-Layer" />&#10;  <circle
   id="path828"
   class="fil0 str0"
   cx="7566"
   cy="7567"
   r="7500"
   inkscape:export-xdpi="350"
   inkscape:export-ydpi="350" />&#10;  <path
   id="path826-3"
   class="fil1"
   d="M7190 14178c-288,-76 -503,-225 -565,-390 -111,-295 -159,-649 -171,-1244 -10,-496 4,-879 67,-1880 106,-1679 90,-2153 -80,-2375 -101,-133 -305,-234 -470,-234 -174,1 -423,96 -505,193 -62,74 -112,180 -159,335 -116,385 -112,359 -370,2865 -202,1967 -271,2587 -278,2515 12,-1082 236,-3801 356,-4825 36,-307 123,-630 230,-843 161,-320 409,-464 766,-423 397,45 647,229 722,585 59,281 62,760 8,1536 -63,904 -67,1126 -84,1498 -20,455 -39,1310 -9,1565 45,392 52,597 296,826 142,133 283,152 573,164 245,10 377,-41 563,-139 228,-118 366,-305 442,-444l10 -57 -92 -19c-120,-24 -134,-23 -134,7 0,41 -90,218 -149,292 -205,259 -651,333 -987,163 -208,-105 -316,-259 -359,-513 -70,-405 -74,-1435 -11,-2392 112,-1694 120,-2152 40,-2507 -62,-275 -190,-430 -472,-571 -202,-102 -296,-111 -464,-99 -469,33 -638,256 -767,502 -144,272 -131,259 -364,2405 -198,1816 -285,2410 -285,2410 -5,5 22,-351 13,-432 153,-1807 305,-3507 378,-4011 33,-225 90,-368 218,-547 430,-603 1298,-603 1729,1 171,239 193,373 178,1088 -10,473 -36,979 -83,1628 -80,1106 -57,2341 49,2712 30,104 106,173 294,267 134,66 136,67 313,67 168,0 183,-3 285,-53 214,-106 377,-309 376,-468 0,-39 19,-212 41,-384 54,-401 127,-1076 178,-1624 35,-380 80,-673 377,-2433 185,-1100 340,-2019 345,-2043 7,-34 2,-43 -30,-52 -22,-5 -43,-20 -48,-32 -16,-42 94,-789 332,-2247 93,-573 115,-737 103,-780 -8,-30 -17,-91 -18,-136 -4,-92 24,-128 101,-128 75,0 94,-41 130,-297 19,-132 42,-248 50,-259 10,-13 57,-20 133,-20 109,0 118,-3 126,-36 4,-20 41,-226 82,-458 55,-312 70,-431 58,-457 -12,-25 1,-126 48,-386 54,-294 70,-357 101,-388 36,-36 60,-80 110,-201 23,-58 28,-60 77,-50 29,6 57,16 63,21 5,6 13,73 17,149 4,77 15,149 25,162 15,17 5,103 -44,379 -57,328 -70,371 -116,389 -9,3 -173,872 -173,918 0,9 40,29 88,44 48,15 90,33 94,39 4,6 -10,112 -31,235 -51,293 -48,324 31,368 111,62 112,92 9,266l-61 106 -130 783c-159,960 -366,2077 -393,2120 -5,8 -30,14 -55,14 -36,0 -49,9 -55,36 -5,20 -156,933 -336,2030 -303,1844 -336,2027 -440,2448 -163,659 -369,1725 -369,1910 0,22 -9,47 -20,54 -11,7 -33,52 -50,101 -105,315 -368,572 -689,676 -72,23 -157,33 -329,38 -208,5 -248,2 -380,-33l0 0zm1446 -1092c63,-438 242,-1302 388,-1874l46 -180 -74 0 -74 0 -76 236c-127,397 -236,882 -365,1631l-66 380 38 28c33,25 121,46 140,33 4,-3 24,-117 43,-254l0 0zm456 -2158c27,-111 659,-3994 651,-4002 -5,-5 -30,-10 -55,-12 -46,-4 -46,-3 -98,197 -81,312 -185,806 -300,1424 -111,596 -408,2343 -408,2399 0,27 12,33 76,38 115,9 121,7 134,-44l0 0zm782 -4063c0,-3 22,-113 49,-244 111,-549 253,-1363 437,-2500l22 -133 -58 -24c-78,-33 -348,-102 -397,-102 -29,0 -38,6 -31,23 16,42 -425,2124 -572,2699 -21,83 -41,161 -44,173 -7,26 22,33 330,81 193,30 264,37 264,27l0 0zm601 -3029c64,-110 52,-136 -81,-179 -61,-19 -135,-40 -164,-45 -49,-10 -52,-8 -52,37 0,71 -31,147 -68,167 -29,16 -17,23 100,56 73,21 145,45 159,53 32,18 53,0 106,-89zm-115 -270c-20,-53 -578,-150 -605,-105 -7,10 12,16 50,16 116,1 412,59 561,111 2,1 -1,-9 -6,-22l0 0zm-180 -165c122,-102 168,-161 196,-250 16,-51 23,-99 16,-106 -48,-46 -527,-117 -549,-82 -13,23 -72,417 -62,425 6,6 252,35 321,39 24,1 59,-10 78,-26l0 0zm158 -949c44,-241 74,-444 67,-451 -7,-7 -41,-14 -76,-16 0,0 -8,17 -7,41 0,12 -11,99 -24,194 -53,375 -75,706 -45,676 3,-3 42,-203 85,-444l0 0zm208 -838c28,-157 47,-295 43,-306 -14,-34 -234,-75 -235,-43 0,6 -25,145 -56,308 -31,163 -56,308 -56,324 0,21 14,28 60,29 33,1 86,11 116,22 70,25 63,43 128,-334l0 0zm16 -513c0,-156 -26,-158 -100,-9l-55 111 49 6c114,15 106,23 106,-108l0 0z"
   inkscape:connector-curvature="0"
   sodipodi:nodetypes="ccssccccscscsssscscccccscscscssssccccsssccsccscscccsccsccscsccccccccscscccsccscscsssscccccsscccscccccsccccscssccccsccssscccccccccccccccccccccccccccccccccccscssccscssccss"
   inkscape:export-xdpi="350"
   inkscape:export-ydpi="350" />&#10; <path
   style="fill:#ffffff;stroke-width:0.703513"
   d="m 270.85243,535.13365 c -6.95806,-2.07202 -12.27191,-5.00475 -16.30943,-9.00121 -2.77269,-2.74448 -3.57705,-4.19293 -5.0789,-9.14566 -5.85888,-19.32122 -6.65138,-49.66464 -2.86386,-109.65286 2.20432,-34.91306 3.02314,-71.71375 1.78417,-80.18716 -1.19047,-8.14166 -2.98003,-12.51779 -6.54516,-16.00532 -3.39567,-3.32175 -9.21728,-6.19981 -13.90804,-6.87578 -4.17062,-0.60102 -11.67847,1.15873 -16.9649,3.97637 -5.0641,2.69914 -7.46835,6.20326 -10.38955,15.1425 -4.10608,12.56507 -4.88408,18.13535 -11.67607,83.59763 -13.25053,127.71073 -13.48621,129.58111 -11.25819,89.34613 3.25078,-58.70434 10.48331,-142.65965 13.76125,-159.74077 1.58088,-8.23789 4.48335,-17.18808 7.51465,-23.17256 6.40024,-12.63556 17.03881,-17.66079 31.56759,-14.91125 14.38999,2.72327 21.81643,10.44488 24.33672,25.30402 1.3548,7.98769 0.91379,34.43491 -1.09954,65.93837 -4.48949,70.24891 -4.38237,108.67523 0.34206,122.69949 2.67141,7.92995 8.89246,14.69866 15.52073,16.88708 4.86413,1.60597 19.23787,2.30363 24.48728,1.18855 6.93088,-1.47226 15.27317,-6.15877 20.75278,-11.65844 5.27284,-5.29215 8.91061,-11.0872 7.71215,-12.28566 -0.385,-0.385 -2.43694,-0.90215 -4.55985,-1.14923 l -3.85985,-0.44922 -2.01937,4.66273 c -2.75027,6.35035 -7.17243,11.09546 -12.98788,13.93632 -4.50206,2.19928 -5.03269,2.29176 -13.16736,2.29487 -8.37306,0.003 -8.54102,-0.0288 -13.79488,-2.62419 -8.92437,-4.40868 -12.89014,-10.1925 -14.68275,-21.41383 -2.41652,-15.1268 -2.12991,-56.45317 0.69931,-100.83227 5.30884,-83.27453 3.58813,-93.52869 -17.44811,-103.97788 -6.33063,-3.14458 -6.99254,-3.31938 -13.41271,-3.54205 -16.91424,-0.58662 -26.53133,5.10773 -34.17064,20.23273 -4.11595,8.14913 -4.30863,9.43153 -12.32224,82.01085 -7.10452,64.34566 -10.08696,89.32006 -10.40975,87.16931 -0.49622,-3.30624 10.42087,-123.90838 13.59033,-150.1337 1.90109,-15.73027 5.06801,-23.06171 13.68032,-31.66993 13.5006,-13.49418 32.87198,-15.69865 48.60322,-5.53106 7.88852,5.0986 14.55598,13.59645 16.66942,21.24564 2.27477,8.23306 1.78863,39.84692 -1.29926,84.49116 -2.7315,39.4916 -2.55454,87.72828 0.38368,104.59049 1.17272,6.73015 2.48446,9.26013 6.2097,11.97681 7.13369,5.20236 9.27443,5.90062 18.09021,5.90062 7.58852,0 8.31589,-0.12498 11.72535,-2.01464 4.21208,-2.3345 8.64669,-6.4048 11.22828,-10.30584 1.33643,-2.01949 1.98345,-4.2559 2.48018,-8.57265 0.36962,-3.21219 1.599,-13.59659 2.73195,-23.07643 1.13294,-9.47983 3.01999,-26.89177 4.19343,-38.6932 1.17343,-11.80143 2.78743,-26.04756 3.58664,-31.65808 1.32855,-9.3264 13.08401,-80.16294 21.71212,-130.83378 l 3.53054,-20.73403 -1.7361,-1.42662 -1.73611,-1.42663 1.70052,-12.31147 c 2.11729,-15.32881 3.38426,-23.47681 9.68116,-62.26088 4.32157,-26.61756 5.01579,-32.11351 4.95479,-39.22632 -0.0633,-7.37684 0.0702,-8.34728 1.23335,-8.96979 0.71737,-0.38392 1.97442,-0.69804 2.79348,-0.69804 2.01677,0 3.0959,-2.83022 4.60086,-12.0666 0.67156,-4.12157 1.47118,-7.89852 1.77692,-8.39321 0.31283,-0.50618 2.43086,-1.03508 4.84411,-1.20964 2.35852,-0.1706 4.42211,-0.52682 4.58576,-0.79162 0.81525,-1.31909 5.3642,-30.203724 5.61435,-35.64961 0.38898,-8.46833 3.62588,-25.399094 5.36576,-28.065884 0.75867,-1.162858 2.24195,-3.934628 3.29616,-6.159487 1.85209,-3.908725 2.98055,-4.700547 4.93274,-3.46122 0.53486,0.339552 1.19481,3.611043 1.66534,8.255502 0.73122,7.217518 0.66057,8.345392 -1.14284,18.245762 -1.78333,9.790077 -2.63655,12.823859 -3.85819,13.7185 -0.54866,0.4018 -1.20139,3.520639 -4.62712,22.108812 -1.34964,7.323195 -2.20895,13.537425 -1.90959,13.809395 0.29937,0.27197 1.72707,0.87241 3.17267,1.33431 1.44561,0.4619 2.80172,1.12029 3.01357,1.46307 0.21185,0.34278 -0.11345,3.72193 -0.72288,7.50921 -1.81279,11.26545 -1.68228,12.77743 1.32052,15.2985 1.40492,1.17954 2.55438,2.7399 2.55436,3.46749 -1e-5,0.72758 -1.10499,3.41852 -2.45549,5.97986 -2.29159,4.34618 -2.76306,6.48808 -7.06455,32.09398 -5.3408,31.79274 -8.64759,50.45687 -11.65417,65.77845 -3.15433,16.07448 -3.14689,16.052 -5.39835,16.31138 -1.9134,0.22044 -1.92614,0.25952 -3.85799,11.82913 -1.06603,6.38438 -6.37304,38.35904 -11.79335,71.05479 -10.68773,64.46928 -11.88538,71.03017 -16.63055,91.10491 -4.28103,18.11121 -11.28639,53.42621 -12.29453,61.97851 -0.79786,6.76842 -1.38109,8.53462 -6.13337,18.57371 -2.7495,5.80823 -11.11536,13.912 -17.69191,17.13763 -6.19797,3.03995 -11.12499,3.97199 -20.75363,3.92598 -5.15843,-0.0247 -8.44265,-0.45276 -12.31147,-1.60485 z m 54.49452,-32.29787 c 0.19296,-0.8706 1.47796,-8.2311 2.85555,-16.35667 3.36082,-19.82338 11.56432,-57.8311 14.85166,-68.8094 0.3358,-1.12139 -0.0151,-1.24645 -2.96072,-1.05526 l -3.34165,0.21689 -3.05136,9.84918 c -1.67825,5.41705 -4.31589,15.3049 -5.86142,21.973 -2.70396,11.66607 -9.85122,49.59068 -9.85122,52.2723 0,3.16395 6.69604,4.9018 7.35916,1.90996 z m 18.85325,-90.92903 c 1.73103,-8.24246 23.52409,-143.09313 23.87572,-147.73769 0.20478,-2.70506 0.13129,-2.81405 -1.8975,-2.81405 h -2.11054 l -2.28468,8.79391 c -2.96335,11.40619 -9.7634,44.97063 -14.23683,70.27176 -7.16487,40.52364 -12.24439,72.22438 -11.77037,73.45777 0.39947,1.03943 1.1499,1.22977 4.1603,1.05527 3.66709,-0.21258 3.67384,-0.21738 4.2639,-3.02697 z m 29.3651,-152.56553 c 0,-0.14026 0.80207,-4.17667 1.78237,-8.96979 2.83137,-13.84378 8.29584,-44.4925 13.02151,-73.03405 4.03814,-24.38907 4.27205,-26.39347 3.17387,-27.19648 -1.33008,-0.97258 -11.29188,-3.7917 -15.33958,-4.34099 -2.40965,-0.32701 -2.63846,-0.21289 -2.64158,1.31751 -0.008,3.74116 -13.97746,70.12964 -20.106,95.54912 -1.82666,7.57648 -2.86659,13.22993 -2.50087,13.59565 1.2689,1.2689 22.61028,4.17513 22.61028,3.07903 z m 21.39481,-112.36126 c 2.17546,-2.58539 2.99489,-5.3746 2.02889,-6.90603 -0.77016,-1.22095 -10.52111,-4.53835 -11.8457,-4.03005 -0.45306,0.17386 -1.00056,1.63434 -1.21666,3.24551 -0.21611,1.61117 -0.94544,3.53993 -1.62075,4.28614 -0.6753,0.7462 -1.09786,1.46975 -0.93901,1.60787 0.31942,0.27774 10.56599,3.81733 11.30661,3.90577 0.2558,0.0306 1.28478,-0.91859 2.28662,-2.10921 z m -3.10348,-11.9414 c 0,-1.73442 -12.75988,-4.88869 -19.77607,-4.88869 -5.34753,0 -4.05561,1.10578 2.36413,2.02351 3.19219,0.45634 8.02005,1.41394 10.72857,2.12798 6.0622,1.59818 6.68337,1.66669 6.68337,0.7372 z m -3.75426,-9.39146 c 3.54728,-3.60239 5.76057,-8.39807 4.90494,-10.62781 -0.66271,-1.727 -19.5375,-4.7537 -20.93425,-3.35694 -0.74933,0.74932 -3.20477,16.13555 -2.6617,16.67863 0.5083,0.50829 12.17411,1.61863 13.65136,1.29932 0.77387,-0.16727 3.04171,-1.96421 5.03965,-3.9932 z m 1.87683,-26.803551 c 2.60522,-14.357502 3.59105,-21.753981 3.07775,-23.091629 -0.24896,-0.648759 -1.04811,-1.179562 -1.7759,-1.179562 -1.19123,0 -1.47563,1.28114 -2.85026,12.839108 -1.58796,13.351734 -1.97469,23.122854 -0.86875,21.949604 0.34649,-0.36759 1.43422,-5.10047 2.41716,-10.517521 z m 6.39706,-24.88861 c 0.59097,-0.956216 3.92253,-20.524586 3.92253,-23.039542 0,-1.874778 -0.35739,-2.359958 -2.21552,-3.007705 -1.21854,-0.424784 -3.27028,-0.772334 -4.55943,-0.772334 -2.69877,0 -2.2821,-1.118878 -4.8239,12.953617 -2.33908,12.950121 -2.33458,13.064102 0.51852,13.125803 1.25753,0.0272 2.91958,0.321526 3.69344,0.654067 1.87773,0.80689 3.00162,0.83482 3.46436,0.08609 z m 3.08942,-30.984227 c 0.25303,-3.541202 -0.29923,-6.388046 -1.2392,-6.388046 -0.70562,0 -4.96282,7.120179 -4.96282,8.300327 0,0.892756 1.81712,1.454998 4.22108,1.306062 1.55731,-0.09648 1.78422,-0.465149 1.98094,-3.218343 z"
   id="path3"
   transform="scale(26.458332)" /><path
   style="fill:#ffffff;stroke-width:0.703513"
   d="M 272.25946,571.23542 C 168.90441,566.13719 76.383284,505.5662 30.251225,412.79939 8.595167,369.25129 -1.1809365,322.90742 0.80591641,273.21315 3.2073898,213.14857 25.174961,155.00236 63.626011,106.93395 72.75854,95.517193 91.52238,76.428351 102.93733,66.941728 147.76655,29.685499 199.84166,7.8631324 258.46282,1.767893 c 12.11243,-1.25941181 38.94832,-1.45546943 51.27765,-0.3746241 57.28671,5.0220187 109.96819,26.1314561 155.2815,62.2212041 11.223,8.938557 34.33535,32.031773 43.00331,42.967717 36.67399,46.26982 57.21548,97.35316 62.51972,155.47633 0.90998,9.97141 0.90998,37.86746 0,47.83887 -7.55266,82.76109 -48.29908,155.83581 -114.52048,205.38129 -51.93499,38.85668 -118.64208,59.16909 -183.76506,55.95674 z m 49.59765,-6.23677 c 64.63022,-8.81059 121.56024,-37.33232 166.02902,-83.17992 45.27498,-46.67879 72.79054,-107.25964 78.40548,-172.62485 0.93218,-10.85169 0.93218,-35.58015 0,-46.43185 C 561.41638,206.00798 540.57917,154.01985 504.68054,109.04449 494.96469,96.872039 475.08387,76.991225 462.91143,67.275366 417.49564,31.0252 365.51254,10.344754 307.78685,5.5621289 293.77993,4.4016424 263.64908,5.1378092 250.0988,6.9715826 188.24729,15.342012 133.41214,41.883615 89.437998,84.735494 41.879511,131.08023 12.346615,192.89975 5.9709672,259.45225 c -1.3408349,13.99636 -1.3408349,39.05505 0,53.05142 9.2660618,96.72422 67.4013878,181.63927 154.1916628,225.21924 28.19718,14.15864 64.62764,24.77526 95.56428,27.84951 4.25625,0.42295 8.84667,0.89351 10.20093,1.04568 1.35426,0.15218 12.11801,0.17373 23.91944,0.0479 16.69839,-0.17804 23.79751,-0.54782 32.00983,-1.66735 z"
   id="path4"
   transform="scale(26.458332)" /></g>&#10;</svg>
