<?xml version="1.0" encoding="UTF-8" standalone="no"?>
<svg width="100%" height="100%" viewBox="0 0 1788 1788" version="1.1" xml:space="preserve" style="fill-rule:evenodd;clip-rule:evenodd;" id="svg43" sodipodi:docname="nerdberg-LGBTQIA+_filled.svgz" inkscape:version="1.4.2 (ebf0e940d0, 2025-05-08)" inkscape:export-filename="E:\Projekte\Nerdberg\repos\Logos\nerdberg-LGBTQIA+.png" inkscape:export-xdpi="96" inkscape:export-ydpi="96" xmlns:inkscape="http://www.inkscape.org/namespaces/inkscape" xmlns:sodipodi="http://sodipodi.sourceforge.net/DTD/sodipodi-0.dtd" xmlns="http://www.w3.org/2000/svg" xmlns:svg="http://www.w3.org/2000/svg"><defs id="defs47"><inkscape:path-effect effect="fill_between_many" method="originald" linkedpaths="#path826-3,0,1|" id="path-effect1"/><inkscape:path-effect effect="fill_between_many" method="originald" linkedpaths="#path826-3-6,0,1|#path2,0,1|" id="path-effect2"/><inkscape:path-effect effect="fill_between_many" method="originald" linkedpaths="#path2,0,1|" id="path-effect3"/><inkscape:path-effect effect="fill_between_many" method="originald" linkedpaths="#path3-6,0,1|" id="path-effect4"/><filter style="color-interpolation-filters:sRGB;" inkscape:label="Drop Shadow" id="filter8" x="-0.012752751" y="-0.0059071076" width="1.0337547" height="1.0156287"><feFlood result="flood" in="SourceGraphic" flood-opacity="0.498039" flood-color="rgb(0,0,0)" id="feFlood7"/><feGaussianBlur result="blur" in="SourceGraphic" stdDeviation="3.000000" id="feGaussianBlur7"/><feOffset result="offset" in="blur" dx="6.000000" dy="6.000000" id="feOffset7"/><feComposite result="comp1" operator="in" in="flood" in2="offset" id="feComposite7"/><feComposite result="comp2" operator="over" in="SourceGraphic" in2="comp1" id="feComposite8"/></filter></defs><sodipodi:namedview id="namedview45" pagecolor="#ffffff" bordercolor="#666666" borderopacity="1.0" inkscape:pageshadow="2" inkscape:pageopacity="0.0" inkscape:pagecheckerboard="0" showgrid="false" inkscape:zoom="0.48825503" inkscape:cx="1457.2303" inkscape:cy="787.49829" inkscape:window-width="1920" inkscape:window-height="1056" inkscape:window-x="0" inkscape:window-y="0" inkscape:window-maximized="1" inkscape:current-layer="svg43" inkscape:showpageshadow="2" inkscape:deskcolor="#d1d1d1"/><circle id="path828" cx="893.62201" cy="893.73999" r="885.82703" style="display:inline;fill:none"/><clipPath id="_clip1"><circle cx="893.622" cy="893.74" r="885.827" id="circle3"/></clipPath><g clip-path="url(#_clip1)" id="g38" style="display:inline" sodipodi:insensitive="true"><g id="Ebene_x0020_1" style="display:inline" sodipodi:insensitive="true"><clipPath id="_clip2"><rect x="0" y="0" width="2814.74" height="1787.36" id="rect6"/></clipPath><g clip-path="url(#_clip2)" id="g35" style="display:inline" sodipodi:insensitive="true"><rect x="0" y="0" width="2814.74" height="1787.36" style="fill:#6d2380;fill-rule:nonzero" id="rect9"/><rect x="0" y="0" width="2814.74" height="1489.47" style="fill:#2c58a4;fill-rule:nonzero" id="rect11"/><rect x="0" y="0" width="2814.74" height="1191.58" style="fill:#78b82a;fill-rule:nonzero" id="rect13"/><rect x="0" y="0" width="2814.74" height="893.68103" style="fill:#efe524;fill-rule:nonzero" id="rect15"/><rect x="0" y="0" width="2814.74" height="595.78699" style="fill:#f28917;fill-rule:nonzero" id="rect17"/><rect x="0" y="0" width="2814.74" height="297.89401" style="fill:#e22016;fill-rule:nonzero" id="rect19"/><path d="M 738.87,0 H 0 V 1787.36 H 738.87 L 1566.874,893.679 738.87,-0.002 Z" style="fill-rule:nonzero" id="path21"/><path d="M 565.294,0 H 0 V 1787.36 H 565.294 L 1393.298,893.679 565.294,-0.002 Z" style="fill:#945516;fill-rule:nonzero" id="path23"/><path d="M 394.064,0 H 0 V 1787.36 H 394.064 L 1222.068,893.679 394.064,-0.002 Z" style="fill:#7bcce5;fill-rule:nonzero" id="path25"/><path d="M 222.834,0 H 0 V 1787.36 H 222.834 L 1050.838,893.679 222.834,-0.002 Z" style="fill:#f4aec8;fill-rule:nonzero" id="path27"/><path d="M 0,0 V 1787.36 H 51.604 L 877.262,893.679 51.604,-0.002 H 0 Z" style="fill:#ffffff;fill-rule:nonzero" id="path29"/><path d="M 0,1656.01 706.032,893.683 0,129.011 v 1527 z" style="fill:#fdd817;fill-rule:nonzero" id="path31"/><circle cx="260.36401" cy="893.68103" r="187.64999" style="fill:none;stroke:#66338b;stroke-width:44.57px" id="circle33"/></g></g></g><circle cx="893.62201" cy="893.73999" r="885.82703" style="display:inline;fill:none;stroke:#2b2a29;stroke-width:15.71px" id="circle40" sodipodi:insensitive="true"/><g id="g5" style="filter:url(#filter8)"><path d="m 704.0699,902.58647 c -38.3415,-0.015 -76.669,17.7904 -102.0625,53.4004 -15.118,21.14197 -21.8511,38.03239 -25.7481,64.60743 -8.622,59.527 -26.5755,260.3152 -44.6465,473.7402 0.6947,6.2527 3.99677,9.4493 -1.123,39.4082 l -0.4108,11.6143 20.196,103.8193 v 0 c 0.086,0.8896 0.2534,0.8843 0.5097,-0.1035 l 1.5528,-9.5879 1.8359,8.8887 -1.8359,-8.8887 v 0 c 3.7208,-27.4188 12.7786,-112.1416 30.7714,-287.3516 30.473,-295.984 30.0002,-292.9136 43.7012,-338.3867 5.551,-18.30699 11.4563,-30.8264 18.7793,-39.5664 9.685,-11.45603 39.0955,-22.67693 59.6465,-22.79493 19.488,0 43.5827,11.9297 55.5117,27.63868 20.079,26.22005 21.9692,82.20375 9.4492,280.51175 -7.441,118.228 -9.095,163.4639 -7.914,222.0469 1.418,70.2749 7.0872,112.0866 20.1972,146.9296 7.323,19.488 32.7165,37.0865 66.7325,46.0625 15.59,4.134 20.3148,4.4885 44.8808,3.8985 20.315,-0.591 30.3554,-1.7733 38.8594,-4.4903 37.913,-12.283 68.9749,-42.6368 81.3769,-79.8418 2.008,-5.788 4.6073,-11.1036 5.9063,-11.9296 1.299,-0.827 4.9581,-6.297 2.3613,-6.377 0,0 -26.815,-9.9108 -49.6054,-0.709 0.118,18.78 -19.1352,42.7554 -44.4102,55.2754 -12.048,5.905 -13.8191,6.2598 -33.6621,6.2598 -20.905,0 -21.1398,-0.1191 -36.9668,-7.9141 -22.205,-11.102 -31.1806,-19.2521 -34.7246,-31.5351 -12.519,-43.819 -15.2361,-189.6845 -5.7871,-320.3145 5.551,-76.654 8.6217,-136.4172 9.8027,-192.2832 1.772,-84.449 -0.8264,-100.27491 -21.0234,-128.50393 -25.4525,-35.669 -63.8089,-53.5048 -102.1504,-53.5195 z" style="clip-rule:evenodd;display:inline;fill:#f9f9f9;fill-rule:evenodd" id="path5" sodipodi:nodetypes="ccccccccscccsccccccccccccccccsccccccc" inkscape:label="Fill Cable"/><path inkscape:original-d="M 0,0" inkscape:path-effect="#path-effect1" d="m 849.213,1674.57 c -34.016,-8.976 -59.41,-26.575 -66.733,-46.063 -13.11,-34.843 -18.779,-76.654 -20.197,-146.929 -1.181,-58.583 0.473,-103.819 7.914,-222.047 12.52,-198.308 10.63,-254.292 -9.449,-280.512 -11.929,-15.709 -36.024,-27.638 -55.512,-27.638 -20.551,0.118 -49.96,11.339 -59.645,22.795 -7.323,8.74 -13.229,21.26 -18.78,39.567 -13.701,45.473 -13.228,42.402 -43.701,338.386 -23.858,232.323 -32.008,305.551 -32.834,297.047 1.417,-127.795 27.874,-448.937 42.047,-569.882 4.252,-36.26 14.527,-74.409 27.165,-99.567 19.016,-37.795 48.307,-54.803 90.473,-49.96 46.889,5.315 76.417,27.047 85.275,69.094 6.969,33.189 7.323,89.764 0.945,181.418 -7.441,106.771 -7.913,132.992 -9.921,176.929 -2.362,53.74 -4.606,154.724 -1.063,184.842 5.315,46.299 6.142,70.512 34.96,97.559 16.772,15.709 33.426,17.953 67.678,19.37 28.937,1.181 44.527,-4.842 66.496,-16.417 26.929,-13.937 43.228,-36.024 52.204,-52.441 l 1.182,-6.732 -10.867,-2.244 c -14.173,-2.835 -15.826,-2.717 -15.826,0.827 0,4.842 -10.63,25.748 -17.599,34.488 -24.212,30.59 -76.89,39.33 -116.575,19.252 -24.567,-12.402 -37.322,-30.591 -42.401,-60.591 -8.268,-47.835 -8.74,-169.488 -1.299,-282.52 13.228,-200.078 14.173,-254.173 4.724,-296.102 -7.323,-32.48 -22.441,-50.787 -55.748,-67.441 -23.858,-12.047 -34.961,-13.11 -54.803,-11.693 -55.394,3.898 -75.354,30.236 -90.591,59.292 -17.008,32.126 -15.41957,30.5957 -42.992,284.055 -23.33358,214.4937 -33.661,284.645 -33.661,284.645 -0.591,0.591 2.598,-41.456 1.535,-51.023 18.071,-213.425 36.024,-414.213 44.646,-473.74 3.897,-26.575 10.63,-43.465 25.748,-64.607 50.787,-71.22 153.307,-71.22 204.212,0.118 20.197,28.229 22.796,44.055 21.024,128.504 -1.181,55.866 -4.252,115.63 -9.803,192.284 -9.449,130.63 -6.732,276.496 5.787,320.315 3.544,12.283 12.52,20.433 34.725,31.535 15.827,7.795 16.063,7.914 36.968,7.914 19.843,0 21.614,-0.355 33.662,-6.26 25.275,-12.52 44.527,-36.496 44.409,-55.276 0,-4.606 2.244,-25.039 4.843,-45.354 6.378,-47.362 15,-127.087 21.023,-191.811 4.134,-44.882 9.449,-79.488 44.528,-287.362 21.85,-129.922 40.157,-238.465 40.748,-241.3 0.827,-4.015 0.236,-5.078 -3.543,-6.141 -2.599,-0.591 -5.079,-2.363 -5.67,-3.78 -1.89,-4.961 11.103,-93.189 39.213,-265.394 10.984,-67.677 13.583,-87.047 12.165,-92.126 -0.945,-3.543 -2.008,-10.748 -2.126,-16.063 -0.472,-10.866 2.835,-15.118 11.929,-15.118 8.859,0 11.103,-4.842 15.355,-35.078 2.244,-15.591 4.96,-29.292 5.905,-30.591 1.181,-1.535 6.732,-2.362 15.709,-2.362 12.874,0 13.937,-0.355 14.882,-4.252 0.472,-2.362 4.842,-26.693 9.685,-54.095 6.496,-36.85 8.268,-50.905 6.85,-53.976 -1.417,-2.953 0.118,-14.882 5.669,-45.591 6.378,-34.724 8.268,-42.165 11.93,-45.826 4.252,-4.252 7.086,-9.449 12.992,-23.741 2.716,-6.85 3.307,-7.086 9.094,-5.905 3.425,0.709 6.733,1.89 7.441,2.48 0.591,0.709 1.536,8.622 2.008,17.599 0.472,9.094 1.772,17.598 2.953,19.134 1.771,2.007 0.59,12.165 -5.197,44.763 -6.732,38.741 -8.268,43.819 -13.701,45.945 -1.063,0.355 -20.433,102.992 -20.433,108.425 0,1.063 4.725,3.426 10.394,5.197 5.669,1.772 10.63,3.898 11.102,4.607 0.473,0.708 -1.181,13.228 -3.661,27.755 -6.024,34.607 -5.67,38.268 3.661,43.465 13.11,7.323 13.229,10.866 1.063,31.417 l -7.205,12.52 -15.354,92.48 c -18.779,113.386 -43.228,245.315 -46.417,250.394 -0.591,0.945 -3.544,1.654 -6.496,1.654 -4.252,0 -5.788,1.063 -6.496,4.252 -0.591,2.362 -18.426,110.196 -39.685,239.763 -35.788,217.796 -39.685,239.41 -51.969,289.134 -19.252,77.835 -43.583,203.74 -43.583,225.591 0,2.598 -1.063,5.551 -2.362,6.378 -1.299,0.826 -3.897,6.141 -5.905,11.929 -12.402,37.205 -43.465,67.559 -81.378,79.842 -8.504,2.717 -18.544,3.898 -38.859,4.489 -24.566,0.59 -29.291,0.236 -44.881,-3.898 z" id="path1" style="display:inline;fill:#f9f9f9" inkscape:label="Fill Handpiece"/><path id="path826-3" d="m 849.213,1674.57 c -34.016,-8.976 -59.41,-26.575 -66.733,-46.063 -13.11,-34.843 -18.779,-76.654 -20.197,-146.929 -1.181,-58.583 0.473,-103.819 7.914,-222.047 12.52,-198.308 10.63,-254.292 -9.449,-280.512 -11.929,-15.709 -36.024,-27.638 -55.512,-27.638 -20.551,0.118 -49.96,11.339 -59.645,22.795 -7.323,8.74 -13.229,21.26 -18.78,39.567 -13.701,45.473 -13.228,42.402 -43.701,338.386 -23.858,232.323 -32.008,305.551 -32.834,297.047 1.417,-127.795 27.874,-448.937 42.047,-569.882 4.252,-36.26 14.527,-74.409 27.165,-99.567 19.016,-37.795 48.307,-54.803 90.473,-49.96 46.889,5.315 76.417,27.047 85.275,69.094 6.969,33.189 7.323,89.764 0.945,181.418 -7.441,106.771 -7.913,132.992 -9.921,176.929 -2.362,53.74 -4.606,154.724 -1.063,184.842 5.315,46.299 6.142,70.512 34.96,97.559 16.772,15.709 33.426,17.953 67.678,19.37 28.937,1.181 44.527,-4.842 66.496,-16.417 26.929,-13.937 43.228,-36.024 52.204,-52.441 l 1.182,-6.732 -10.867,-2.244 c -14.173,-2.835 -15.826,-2.717 -15.826,0.827 0,4.842 -10.63,25.748 -17.599,34.488 -24.212,30.59 -76.89,39.33 -116.575,19.252 -24.567,-12.402 -37.322,-30.591 -42.401,-60.591 -8.268,-47.835 -8.74,-169.488 -1.299,-282.52 13.228,-200.078 14.173,-254.173 4.724,-296.102 -7.323,-32.48 -22.441,-50.787 -55.748,-67.441 -23.858,-12.047 -34.961,-13.11 -54.803,-11.693 -55.394,3.898 -75.354,30.236 -90.591,59.292 -17.008,32.126 -15.41957,30.5957 -42.992,284.055 -23.33358,214.4937 -33.661,284.645 -33.661,284.645 -0.591,0.591 2.598,-41.456 1.535,-51.023 18.071,-213.425 36.024,-414.213 44.646,-473.74 3.897,-26.575 10.63,-43.465 25.748,-64.607 50.787,-71.22 153.307,-71.22 204.212,0.118 20.197,28.229 22.796,44.055 21.024,128.504 -1.181,55.866 -4.252,115.63 -9.803,192.284 -9.449,130.63 -6.732,276.496 5.787,320.315 3.544,12.283 12.52,20.433 34.725,31.535 15.827,7.795 16.063,7.914 36.968,7.914 19.843,0 21.614,-0.355 33.662,-6.26 25.275,-12.52 44.527,-36.496 44.409,-55.276 0,-4.606 2.244,-25.039 4.843,-45.354 6.378,-47.362 15,-127.087 21.023,-191.811 4.134,-44.882 9.449,-79.488 44.528,-287.362 21.85,-129.922 40.157,-238.465 40.748,-241.3 0.827,-4.015 0.236,-5.078 -3.543,-6.141 -2.599,-0.591 -5.079,-2.363 -5.67,-3.78 -1.89,-4.961 11.103,-93.189 39.213,-265.394 10.984,-67.677 13.583,-87.047 12.165,-92.126 -0.945,-3.543 -2.008,-10.748 -2.126,-16.063 -0.472,-10.866 2.835,-15.118 11.929,-15.118 8.859,0 11.103,-4.842 15.355,-35.078 2.244,-15.591 4.96,-29.292 5.905,-30.591 1.181,-1.535 6.732,-2.362 15.709,-2.362 12.874,0 13.937,-0.355 14.882,-4.252 0.472,-2.362 4.842,-26.693 9.685,-54.095 6.496,-36.85 8.268,-50.905 6.85,-53.976 -1.417,-2.953 0.118,-14.882 5.669,-45.591 6.378,-34.724 8.268,-42.165 11.93,-45.826 4.252,-4.252 7.086,-9.449 12.992,-23.741 2.716,-6.85 3.307,-7.086 9.094,-5.905 3.425,0.709 6.733,1.89 7.441,2.48 0.591,0.709 1.536,8.622 2.008,17.599 0.472,9.094 1.772,17.598 2.953,19.134 1.771,2.007 0.59,12.165 -5.197,44.763 -6.732,38.741 -8.268,43.819 -13.701,45.945 -1.063,0.355 -20.433,102.992 -20.433,108.425 0,1.063 4.725,3.426 10.394,5.197 5.669,1.772 10.63,3.898 11.102,4.607 0.473,0.708 -1.181,13.228 -3.661,27.755 -6.024,34.607 -5.67,38.268 3.661,43.465 13.11,7.323 13.229,10.866 1.063,31.417 l -7.205,12.52 -15.354,92.48 c -18.779,113.386 -43.228,245.315 -46.417,250.394 -0.591,0.945 -3.544,1.654 -6.496,1.654 -4.252,0 -5.788,1.063 -6.496,4.252 -0.591,2.362 -18.426,110.196 -39.685,239.763 -35.788,217.796 -39.685,239.41 -51.969,289.134 -19.252,77.835 -43.583,203.74 -43.583,225.591 0,2.598 -1.063,5.551 -2.362,6.378 -1.299,0.826 -3.897,6.141 -5.905,11.929 -12.402,37.205 -43.465,67.559 -81.378,79.842 -8.504,2.717 -18.544,3.898 -38.859,4.489 -24.566,0.59 -29.291,0.236 -44.881,-3.898 z M 1020,1545.594 c 7.441,-51.733 28.583,-153.78 45.827,-221.339 l 5.433,-21.26 h -17.48 l -8.977,27.874 c -15,46.89 -27.874,104.173 -43.11,192.638 l -7.795,44.882 4.488,3.307 c 3.897,2.953 14.291,5.433 16.535,3.898 0.473,-0.355 2.835,-13.819 5.079,-30 z m 53.858,-254.882 c 3.189,-13.111 77.835,-471.733 76.89,-472.678 -0.591,-0.59 -3.543,-1.181 -6.496,-1.417 -5.433,-0.472 -5.433,-0.354 -11.575,23.268 -9.567,36.85 -21.85,95.197 -35.433,168.189 -13.11,70.394 -48.189,276.732 -48.189,283.346 0,3.189 1.417,3.898 8.976,4.489 13.583,1.063 14.292,0.826 15.827,-5.197 z M 1166.22,810.83 c 0,-0.355 2.599,-13.347 5.788,-28.819 13.11,-64.843 29.882,-160.984 51.614,-295.276 l 2.598,-15.708 -6.85,-2.835 c -9.213,-3.898 -41.102,-12.047 -46.89,-12.047 -3.425,0 -4.488,0.708 -3.661,2.716 1.89,4.961 -50.197,250.866 -67.559,318.78 -2.48,9.803 -4.843,19.016 -5.197,20.433 -0.827,3.071 2.598,3.898 38.976,9.567 22.796,3.543 31.181,4.37 31.181,3.189 z m 70.985,-357.756 c 7.559,-12.992 6.141,-16.063 -9.567,-21.142 -7.205,-2.244 -15.945,-4.724 -19.37,-5.315 -5.788,-1.181 -6.142,-0.945 -6.142,4.37 0,8.386 -3.661,17.362 -8.032,19.725 -3.425,1.889 -2.007,2.716 11.812,6.614 8.622,2.48 17.125,5.315 18.779,6.26 3.78,2.126 6.26,0 12.52,-10.512 z m -13.583,-31.89 c -2.362,-6.26 -68.268,-17.716 -71.457,-12.401 -0.826,1.181 1.418,1.889 5.906,1.889 13.701,0.118 48.661,6.969 66.26,13.111 0.236,0.118 -0.118,-1.063 -0.709,-2.599 z m -21.26,-19.488 c 14.41,-12.047 19.843,-19.016 23.15,-29.528 1.89,-6.023 2.716,-11.693 1.89,-12.519 -5.67,-5.433 -62.245,-13.819 -64.843,-9.685 -1.535,2.716 -8.504,49.252 -7.323,50.196 0.709,0.709 29.764,4.134 37.914,4.607 2.834,0.118 6.968,-1.181 9.212,-3.071 z m 18.662,-112.087 c 5.196,-28.464 8.74,-52.441 7.913,-53.267 -0.827,-0.827 -4.843,-1.654 -8.976,-1.89 0,0 -0.945,2.008 -0.827,4.842 0,1.418 -1.299,11.693 -2.835,22.914 -6.26,44.291 -8.858,83.386 -5.315,79.842 0.355,-0.354 4.961,-23.976 10.04,-52.441 z m 24.567,-98.976 c 3.307,-18.543 5.551,-34.843 5.078,-36.142 -1.653,-4.016 -27.638,-8.858 -27.756,-5.079 0,0.709 -2.952,17.126 -6.614,36.378 -3.661,19.252 -6.614,36.378 -6.614,38.268 0,2.48 1.654,3.307 7.087,3.425 3.897,0.118 10.157,1.3 13.7,2.599 8.268,2.952 7.441,5.078 15.119,-39.449 z m 1.889,-60.591 c 0,-18.425 -3.071,-18.661 -11.811,-1.063 l -6.496,13.111 5.788,0.708 c 13.464,1.772 12.519,2.717 12.519,-12.756 z" style="display:inline;stroke:#ffffff;stroke-width:4.15px;stroke-linejoin:round;stroke-miterlimit:2" sodipodi:nodetypes="cccccccccccccccccccccccsccccccccscccccccccscccccccccccsccsccccccccccccsccccccccscccsccccccccccccccccccccsccsccccsccccscccscccccccccccccccccccccccccccscccscccs" inkscape:label="Solderingiron"/></g></svg>